<?xml version="1.0" encoding="utf-8"?>
<!-- Generator: Adobe Illustrator 16.0.0, SVG Export Plug-In . SVG Version: 6.00 Build 0)  -->
<!DOCTYPE svg PUBLIC "-//W3C//DTD SVG 1.1//EN" "http://www.w3.org/Graphics/SVG/1.1/DTD/svg11.dtd">
<svg version="1.1" id="Layer_1" xmlns="http://www.w3.org/2000/svg" xmlns:xlink="http://www.w3.org/1999/xlink" x="0px" y="0px"
	 width="500px" height="500px" viewBox="0 0 500 500" enable-background="new 0 0 500 500" xml:space="preserve">
<g>
	<g>
		
			<linearGradient id="SVGID_1_" gradientUnits="userSpaceOnUse" x1="14.1843" y1="487.0957" x2="280.5826" y2="219.4385" gradientTransform="matrix(1 -0.0024 -0.0024 -1 103.4653 557.5572)">
			<stop  offset="0" style="stop-color:#B167FE"/>
			<stop  offset="1" style="stop-color:#1BB1E7"/>
		</linearGradient>
		<path fill="url(#SVGID_1_)" d="M250.443,392.842C146.281,393.087,61.34,308.547,61.095,204.387
			C60.849,100.22,145.391,15.275,249.553,15.029c104.166-0.245,189.111,84.301,189.354,188.467
			C439.153,307.656,354.608,392.598,250.443,392.842z M249.573,24.146c-99.134,0.233-179.596,81.08-179.363,180.219
			c0.234,99.134,81.077,179.596,180.211,179.36c99.138-0.233,179.604-81.073,179.369-180.207
			C429.556,104.378,348.713,23.913,249.573,24.146z"/>
	</g>
	<g>
		
			<linearGradient id="SVGID_2_" gradientUnits="userSpaceOnUse" x1="-33.9294" y1="406.085" x2="123.9287" y2="563.9431" gradientTransform="matrix(1 -0.0024 0.0024 1 203.6899 -340.6919)">
			<stop  offset="0" style="stop-color:#B167FE"/>
			<stop  offset="1" style="stop-color:#1BB1E7"/>
		</linearGradient>
		<polygon fill="url(#SVGID_2_)" points="369.216,105.518 250.075,236.154 130.323,106.081 130.478,171.989 250.23,302.076 
			369.371,171.425 		"/>
		
			<linearGradient id="SVGID_3_" gradientUnits="userSpaceOnUse" x1="-90.281" y1="595.3643" x2="-29.5934" y2="656.0518" gradientTransform="matrix(1 -0.0024 0.0024 1 203.6899 -340.6919)">
			<stop  offset="0" style="stop-color:#B167FE"/>
			<stop  offset="1" style="stop-color:#1BB1E7"/>
		</linearGradient>
		<polygon fill="url(#SVGID_3_)" points="130.785,302.357 188.821,302.219 130.636,239.014 		"/>
		
			<linearGradient id="SVGID_4_" gradientUnits="userSpaceOnUse" x1="134.1028" y1="609.8828" x2="165.7714" y2="641.5514" gradientTransform="matrix(1 -0.0024 0.0024 1 203.6899 -340.6919)">
			<stop  offset="0" style="stop-color:#9077F9"/>
			<stop  offset="0.0527" style="stop-color:#7B81F6"/>
			<stop  offset="0.1439" style="stop-color:#5D90F1"/>
			<stop  offset="0.2452" style="stop-color:#459CED"/>
			<stop  offset="0.3589" style="stop-color:#32A5EB"/>
			<stop  offset="0.492" style="stop-color:#25ACE9"/>
			<stop  offset="0.6624" style="stop-color:#1DB0E7"/>
			<stop  offset="1" style="stop-color:#1BB1E7"/>
		</linearGradient>
		<polygon fill="url(#SVGID_4_)" points="369.677,301.793 369.53,238.451 311.639,301.93 		"/>
	</g>
	<g>
		<g>
			<g>
				<defs>
					<polygon id="SVGID_5_" points="33.5,424.252 114.461,424.252 144.223,483.865 112.031,483.865 101.705,462.519 
						101.705,432.668 93.114,432.668 93.114,483.865 67.602,483.865 67.602,432.668 59.011,432.668 59.011,483.865 33.5,483.865 
											"/>
				</defs>
				<clipPath id="SVGID_6_">
					<use xlink:href="#SVGID_5_"  overflow="visible"/>
				</clipPath>
				
					<linearGradient id="SVGID_7_" gradientUnits="userSpaceOnUse" x1="-82.2688" y1="110.4321" x2="375.2366" y2="110.4321" gradientTransform="matrix(1 0 0 -1 102.3999 557.3281)">
					<stop  offset="0" style="stop-color:#B167FE"/>
					<stop  offset="1" style="stop-color:#1BB1E7"/>
				</linearGradient>
				<rect x="20.131" y="398.882" clip-path="url(#SVGID_6_)" fill="url(#SVGID_7_)" width="457.506" height="96.028"/>
			</g>
		</g>
		<g>
			<g>
				<defs>
					<polygon id="SVGID_8_" points="188.218,432.668 175.376,432.668 175.376,483.865 149.777,483.865 149.777,432.668 
						137.023,432.668 137.023,424.252 188.218,424.252 					"/>
				</defs>
				<clipPath id="SVGID_9_">
					<use xlink:href="#SVGID_8_"  overflow="visible"/>
				</clipPath>
				
					<linearGradient id="SVGID_10_" gradientUnits="userSpaceOnUse" x1="-82.2688" y1="110.4321" x2="375.2366" y2="110.4321" gradientTransform="matrix(1 0 0 -1 102.3999 557.3281)">
					<stop  offset="0" style="stop-color:#B167FE"/>
					<stop  offset="1" style="stop-color:#1BB1E7"/>
				</linearGradient>
				<rect x="20.131" y="398.882" clip-path="url(#SVGID_9_)" fill="url(#SVGID_10_)" width="457.506" height="96.028"/>
			</g>
		</g>
		<g>
			<g>
				<defs>
					<path id="SVGID_11_" d="M254.948,466.77c0,2.604-0.405,4.962-1.217,7.072c-0.81,2.113-1.951,3.906-3.427,5.382
						c-1.475,1.474-3.269,2.617-5.379,3.426c-2.112,0.813-4.441,1.216-6.985,1.216H208.09c-2.602,0-4.945-0.403-7.028-1.216
						c-2.082-0.809-3.876-1.952-5.379-3.426c-1.505-1.476-2.662-3.27-3.472-5.382c-0.811-2.11-1.215-4.467-1.215-7.072v-25.51
						c0-2.604,0.404-4.946,1.215-7.028c0.81-2.082,1.966-3.861,3.472-5.338c1.503-1.475,3.297-2.616,5.379-3.428
						c2.083-0.81,4.426-1.214,7.028-1.214h29.851c2.544,0,4.873,0.404,6.985,1.214c2.111,0.812,3.905,1.953,5.379,3.428
						c1.476,1.476,2.617,3.254,3.427,5.338c0.812,2.082,1.217,4.424,1.217,7.028V466.77z M227.614,475.36v-42.692h-8.503v42.692
						H227.614z"/>
				</defs>
				<clipPath id="SVGID_12_">
					<use xlink:href="#SVGID_11_"  overflow="visible"/>
				</clipPath>
				
					<linearGradient id="SVGID_13_" gradientUnits="userSpaceOnUse" x1="-82.2688" y1="110.4321" x2="375.2366" y2="110.4321" gradientTransform="matrix(1 0 0 -1 102.3999 557.3281)">
					<stop  offset="0" style="stop-color:#B167FE"/>
					<stop  offset="1" style="stop-color:#1BB1E7"/>
				</linearGradient>
				<rect x="20.131" y="398.882" clip-path="url(#SVGID_12_)" fill="url(#SVGID_13_)" width="457.506" height="96.028"/>
			</g>
		</g>
		<g>
			<g>
				<defs>
					<rect id="SVGID_14_" x="262.497" y="424.252" width="25.597" height="59.613"/>
				</defs>
				<clipPath id="SVGID_15_">
					<use xlink:href="#SVGID_14_"  overflow="visible"/>
				</clipPath>
				
					<linearGradient id="SVGID_16_" gradientUnits="userSpaceOnUse" x1="-82.2688" y1="110.4321" x2="375.2366" y2="110.4321" gradientTransform="matrix(1 0 0 -1 102.3999 557.3281)">
					<stop  offset="0" style="stop-color:#B167FE"/>
					<stop  offset="1" style="stop-color:#1BB1E7"/>
				</linearGradient>
				<rect x="20.131" y="398.882" clip-path="url(#SVGID_15_)" fill="url(#SVGID_16_)" width="457.506" height="96.028"/>
			</g>
		</g>
		<g>
			<g>
				<defs>
					<polygon id="SVGID_17_" points="330.44,483.865 300.33,483.865 295.731,474.494 295.731,432.668 299.983,424.252 
						329.486,424.252 313.432,452.539 					"/>
				</defs>
				<clipPath id="SVGID_18_">
					<use xlink:href="#SVGID_17_"  overflow="visible"/>
				</clipPath>
				
					<linearGradient id="SVGID_19_" gradientUnits="userSpaceOnUse" x1="-82.2688" y1="110.4321" x2="375.2366" y2="110.4321" gradientTransform="matrix(1 0 0 -1 102.3999 557.3281)">
					<stop  offset="0" style="stop-color:#B167FE"/>
					<stop  offset="1" style="stop-color:#1BB1E7"/>
				</linearGradient>
				<rect x="20.131" y="398.882" clip-path="url(#SVGID_18_)" fill="url(#SVGID_19_)" width="457.506" height="96.028"/>
			</g>
		</g>
		<g>
			<g>
				<defs>
					<polygon id="SVGID_20_" points="395.521,483.865 335.82,483.865 335.82,424.252 395.173,424.252 395.173,441.26 
						369.921,441.26 369.921,432.667 361.417,432.667 361.417,449.503 387.018,449.503 387.018,458.094 361.417,458.094 
						361.417,475.359 369.921,475.359 369.921,466.77 395.521,466.77 					"/>
				</defs>
				<clipPath id="SVGID_21_">
					<use xlink:href="#SVGID_20_"  overflow="visible"/>
				</clipPath>
				
					<linearGradient id="SVGID_22_" gradientUnits="userSpaceOnUse" x1="-82.2688" y1="110.4321" x2="375.2366" y2="110.4321" gradientTransform="matrix(1 0 0 -1 102.3999 557.3281)">
					<stop  offset="0" style="stop-color:#B167FE"/>
					<stop  offset="1" style="stop-color:#1BB1E7"/>
				</linearGradient>
				<rect x="20.131" y="398.882" clip-path="url(#SVGID_21_)" fill="url(#SVGID_22_)" width="457.506" height="96.028"/>
			</g>
		</g>
		<g>
			<g>
				<defs>
					<path id="SVGID_23_" d="M466.5,483.865h-28.115v-51.197h-8.59v51.197h-27.246v-59.613h46.942c5.207,0,9.343,1.533,12.409,4.599
						c3.066,3.066,4.6,7.201,4.6,12.409V483.865L466.5,483.865z"/>
				</defs>
				<clipPath id="SVGID_24_">
					<use xlink:href="#SVGID_23_"  overflow="visible"/>
				</clipPath>
				
					<linearGradient id="SVGID_25_" gradientUnits="userSpaceOnUse" x1="-82.2688" y1="110.4321" x2="375.2366" y2="110.4321" gradientTransform="matrix(1 0 0 -1 102.3999 557.3281)">
					<stop  offset="0" style="stop-color:#B167FE"/>
					<stop  offset="1" style="stop-color:#1BB1E7"/>
				</linearGradient>
				<rect x="20.131" y="398.882" clip-path="url(#SVGID_24_)" fill="url(#SVGID_25_)" width="457.506" height="96.028"/>
			</g>
		</g>
	</g>
</g>
</svg>
