<?xml version="1.0" encoding="utf-8"?>
<!-- Generator: Adobe Illustrator 16.0.0, SVG Export Plug-In . SVG Version: 6.00 Build 0)  -->
<!DOCTYPE svg PUBLIC "-//W3C//DTD SVG 1.1//EN" "http://www.w3.org/Graphics/SVG/1.1/DTD/svg11.dtd">
<svg version="1.1" id="Layer_1" xmlns="http://www.w3.org/2000/svg" xmlns:xlink="http://www.w3.org/1999/xlink" x="0px" y="0px"
	 width="1643.021px" height="452.977px" viewBox="0 0 1643.021 452.977" enable-background="new 0 0 1643.021 452.977"
	 xml:space="preserve">
<g>
	<g>
		
			<linearGradient id="SVGID_1_" gradientUnits="userSpaceOnUse" x1="13.4153" y1="354.6611" x2="305.627" y2="61.0684" gradientTransform="matrix(1 -0.0024 -0.0024 -1 103.3163 434.7374)">
			<stop  offset="0" style="stop-color:#B167FE"/>
			<stop  offset="1" style="stop-color:#1BB1E7"/>
		</linearGradient>
		<path fill="url(#SVGID_1_)" d="M262.824,433.699c-114.255,0.27-207.427-92.463-207.696-206.717
			c-0.27-114.26,92.465-207.436,206.72-207.705c114.259-0.269,207.435,92.47,207.702,206.729
			C469.82,340.258,377.082,433.431,262.824,433.699z M261.871,29.277c-108.74,0.256-196.999,88.937-196.743,197.682
			c0.257,108.74,88.933,196.997,197.673,196.74c108.745-0.256,197.007-88.93,196.749-197.67
			C459.294,117.284,370.615,29.021,261.871,29.277z"/>
	</g>
	<g>
		
			<linearGradient id="SVGID_2_" gradientUnits="userSpaceOnUse" x1="-29.4387" y1="413.8584" x2="143.7154" y2="587.0126" gradientTransform="matrix(1 -0.0024 0.0024 1 203.839 -339.3202)">
			<stop  offset="0" style="stop-color:#B167FE"/>
			<stop  offset="1" style="stop-color:#1BB1E7"/>
		</linearGradient>
		<polygon fill="url(#SVGID_2_)" points="393.107,118.532 262.421,261.828 131.066,119.149 131.236,191.443 262.591,334.135 
			393.277,190.826 		"/>
		
			<linearGradient id="SVGID_3_" gradientUnits="userSpaceOnUse" x1="-91.2507" y1="621.4775" x2="-24.6812" y2="688.0471" gradientTransform="matrix(1 -0.0024 0.0024 1 203.839 -339.3202)">
			<stop  offset="0" style="stop-color:#B167FE"/>
			<stop  offset="1" style="stop-color:#1BB1E7"/>
		</linearGradient>
		<polygon fill="url(#SVGID_3_)" points="131.573,334.444 195.232,334.295 131.409,264.963 		"/>
		
			<linearGradient id="SVGID_4_" gradientUnits="userSpaceOnUse" x1="154.8743" y1="637.4043" x2="189.6123" y2="672.1423" gradientTransform="matrix(1 -0.0024 0.0024 1 203.839 -339.3202)">
			<stop  offset="0" style="stop-color:#9077F9"/>
			<stop  offset="0.0527" style="stop-color:#7B81F6"/>
			<stop  offset="0.1439" style="stop-color:#5D90F1"/>
			<stop  offset="0.2452" style="stop-color:#459CED"/>
			<stop  offset="0.3589" style="stop-color:#32A5EB"/>
			<stop  offset="0.492" style="stop-color:#25ACE9"/>
			<stop  offset="0.6624" style="stop-color:#1DB0E7"/>
			<stop  offset="1" style="stop-color:#1BB1E7"/>
		</linearGradient>
		<polygon fill="url(#SVGID_4_)" points="393.613,333.826 393.449,264.347 329.949,333.977 		"/>
	</g>
	<g>
		<g>
			<g>
				<defs>
					<polygon id="SVGID_5_" points="536.448,154.109 733.041,154.109 805.316,298.867 727.141,298.867 702.068,247.031 
						702.068,174.549 681.205,174.549 681.205,298.867 619.257,298.867 619.257,174.547 598.398,174.547 598.398,298.866 
						536.448,298.866 536.448,154.109 					"/>
				</defs>
				<clipPath id="SVGID_6_">
					<use xlink:href="#SVGID_5_"  overflow="visible"/>
				</clipPath>
				
					<linearGradient id="SVGID_7_" gradientUnits="userSpaceOnUse" x1="401.5867" y1="224.0415" x2="1512.5364" y2="224.0415" gradientTransform="matrix(1 0 0 -1 102.3999 433.1367)">
					<stop  offset="0" style="stop-color:#B167FE"/>
					<stop  offset="1" style="stop-color:#1BB1E7"/>
				</linearGradient>
				<rect x="503.987" y="92.503" clip-path="url(#SVGID_6_)" fill="url(#SVGID_7_)" width="1110.949" height="233.183"/>
			</g>
		</g>
		<g>
			<g>
				<defs>
					<polygon id="SVGID_8_" points="912.148,174.547 880.962,174.547 880.962,298.866 818.801,298.866 818.801,174.547 
						787.827,174.547 787.827,154.109 912.147,154.109 912.147,174.547 					"/>
				</defs>
				<clipPath id="SVGID_9_">
					<use xlink:href="#SVGID_8_"  overflow="visible"/>
				</clipPath>
				
					<linearGradient id="SVGID_10_" gradientUnits="userSpaceOnUse" x1="401.5867" y1="224.0415" x2="1512.5364" y2="224.0415" gradientTransform="matrix(1 0 0 -1 102.3999 433.1367)">
					<stop  offset="0" style="stop-color:#B167FE"/>
					<stop  offset="1" style="stop-color:#1BB1E7"/>
				</linearGradient>
				<rect x="503.987" y="92.503" clip-path="url(#SVGID_9_)" fill="url(#SVGID_10_)" width="1110.949" height="233.183"/>
			</g>
		</g>
		<g>
			<g>
				<defs>
					<path id="SVGID_11_" d="M1074.188,257.355c0,6.322-0.986,12.047-2.953,17.175s-4.738,9.481-8.322,13.063
						c-3.581,3.58-7.938,6.355-13.063,8.322c-5.13,1.969-10.784,2.95-16.963,2.95h-72.486c-6.321,0-12.008-0.981-17.066-2.95
						c-5.058-1.967-9.411-4.742-13.063-8.322c-3.657-3.582-6.465-7.937-8.431-13.063c-1.97-5.128-2.95-10.853-2.95-17.175v-61.948
						c0-6.321,0.98-12.009,2.95-17.067c1.966-5.057,4.772-9.377,8.431-12.958c3.65-3.582,8.005-6.354,13.063-8.323
						c5.06-1.965,10.745-2.948,17.066-2.948h72.486c6.179,0,11.833,0.983,16.963,2.948c5.125,1.97,9.48,4.741,13.063,8.323
						c3.584,3.582,6.355,7.902,8.322,12.958c1.967,5.06,2.953,10.746,2.953,17.067V257.355z M1007.812,278.217v-103.67h-20.65
						v103.67H1007.812z"/>
				</defs>
				<clipPath id="SVGID_12_">
					<use xlink:href="#SVGID_11_"  overflow="visible"/>
				</clipPath>
				
					<linearGradient id="SVGID_13_" gradientUnits="userSpaceOnUse" x1="401.5867" y1="224.0415" x2="1512.5364" y2="224.0415" gradientTransform="matrix(1 0 0 -1 102.3999 433.1367)">
					<stop  offset="0" style="stop-color:#B167FE"/>
					<stop  offset="1" style="stop-color:#1BB1E7"/>
				</linearGradient>
				<rect x="503.987" y="92.503" clip-path="url(#SVGID_12_)" fill="url(#SVGID_13_)" width="1110.949" height="233.183"/>
			</g>
		</g>
		<g>
			<g>
				<defs>
					<rect id="SVGID_14_" x="1092.516" y="154.109" width="62.158" height="144.758"/>
				</defs>
				<clipPath id="SVGID_15_">
					<use xlink:href="#SVGID_14_"  overflow="visible"/>
				</clipPath>
				
					<linearGradient id="SVGID_16_" gradientUnits="userSpaceOnUse" x1="401.5867" y1="224.0415" x2="1512.5364" y2="224.0415" gradientTransform="matrix(1 0 0 -1 102.3999 433.1367)">
					<stop  offset="0" style="stop-color:#B167FE"/>
					<stop  offset="1" style="stop-color:#1BB1E7"/>
				</linearGradient>
				<rect x="503.987" y="92.503" clip-path="url(#SVGID_15_)" fill="url(#SVGID_16_)" width="1110.949" height="233.183"/>
			</g>
		</g>
		<g>
			<g>
				<defs>
					<polygon id="SVGID_17_" points="1257.502,298.867 1184.388,298.867 1173.22,276.11 1173.22,174.547 1183.545,154.109 
						1255.185,154.109 1216.201,222.801 					"/>
				</defs>
				<clipPath id="SVGID_18_">
					<use xlink:href="#SVGID_17_"  overflow="visible"/>
				</clipPath>
				
					<linearGradient id="SVGID_19_" gradientUnits="userSpaceOnUse" x1="401.5867" y1="224.0415" x2="1512.5364" y2="224.0415" gradientTransform="matrix(1 0 0 -1 102.3999 433.1367)">
					<stop  offset="0" style="stop-color:#B167FE"/>
					<stop  offset="1" style="stop-color:#1BB1E7"/>
				</linearGradient>
				<rect x="503.987" y="92.503" clip-path="url(#SVGID_18_)" fill="url(#SVGID_19_)" width="1110.949" height="233.183"/>
			</g>
		</g>
		<g>
			<g>
				<defs>
					<polygon id="SVGID_20_" points="1415.536,298.867 1270.565,298.867 1270.565,154.109 1414.693,154.109 1414.693,195.407 
						1353.373,195.407 1353.373,174.549 1332.724,174.549 1332.724,215.424 1394.887,215.424 1394.887,236.287 1332.724,236.287 
						1332.724,278.217 1353.373,278.217 1353.373,257.356 1415.536,257.356 					"/>
				</defs>
				<clipPath id="SVGID_21_">
					<use xlink:href="#SVGID_20_"  overflow="visible"/>
				</clipPath>
				
					<linearGradient id="SVGID_22_" gradientUnits="userSpaceOnUse" x1="401.5867" y1="224.0415" x2="1512.5364" y2="224.0415" gradientTransform="matrix(1 0 0 -1 102.3999 433.1367)">
					<stop  offset="0" style="stop-color:#B167FE"/>
					<stop  offset="1" style="stop-color:#1BB1E7"/>
				</linearGradient>
				<rect x="503.987" y="92.503" clip-path="url(#SVGID_21_)" fill="url(#SVGID_22_)" width="1110.949" height="233.183"/>
			</g>
		</g>
		<g>
			<g>
				<defs>
					<path id="SVGID_23_" d="M1587.896,298.867h-68.272v-124.32h-20.856v124.319h-66.163V154.109h113.992
						c12.643,0,22.687,3.723,30.133,11.166c7.444,7.447,11.168,17.489,11.168,30.132L1587.896,298.867L1587.896,298.867z"/>
				</defs>
				<clipPath id="SVGID_24_">
					<use xlink:href="#SVGID_23_"  overflow="visible"/>
				</clipPath>
				
					<linearGradient id="SVGID_25_" gradientUnits="userSpaceOnUse" x1="401.5867" y1="224.0415" x2="1512.5364" y2="224.0415" gradientTransform="matrix(1 0 0 -1 102.3999 433.1367)">
					<stop  offset="0" style="stop-color:#B167FE"/>
					<stop  offset="1" style="stop-color:#1BB1E7"/>
				</linearGradient>
				<rect x="503.987" y="92.503" clip-path="url(#SVGID_24_)" fill="url(#SVGID_25_)" width="1110.949" height="233.183"/>
			</g>
		</g>
	</g>
</g>
</svg>
