<?xml version="1.0" encoding="utf-8"?>
<!-- Generator: Adobe Illustrator 16.0.0, SVG Export Plug-In . SVG Version: 6.00 Build 0)  -->
<!DOCTYPE svg PUBLIC "-//W3C//DTD SVG 1.1//EN" "http://www.w3.org/Graphics/SVG/1.1/DTD/svg11.dtd">
<svg version="1.1" id="Layer_1" xmlns="http://www.w3.org/2000/svg" xmlns:xlink="http://www.w3.org/1999/xlink" x="0px" y="0px"
	 width="500px" height="500px" viewBox="0 0 500 500" enable-background="new 0 0 500 500" xml:space="preserve">
<g>
	<polygon fill="#FFFFFF" points="123.176,276.467 119.018,345.566 173.189,351.663 199.278,349.556 149.265,274.36 	"/>
	<path fill="#FFFFFF" d="M220.172,44.499L220.172,44.499l0.029-0.002C220.192,44.498,220.182,44.498,220.172,44.499z"/>
	<polygon fill="#FFFFFF" points="287.833,364.565 342.012,370.662 368.101,368.556 372.258,299.456 346.169,301.563 	"/>
	<polygon fill="#FFFFFF" points="376.657,226.339 380.983,154.439 354.895,156.546 250.833,268.918 157.991,129.343 131.901,131.45 
		127.575,203.35 230.507,358.113 256.597,356.007 	"/>
	<path fill="#FFFFFF" d="M439.689,261.503c0.02-0.671,0.04-1.343,0.055-2.014c0.037-1.688,0.056-3.371,0.058-5.052
		c0-0.316,0.012-0.635,0.011-0.951c0-0.109-0.003-0.219-0.004-0.328c-0.001-0.35-0.008-0.699-0.011-1.049
		c-0.011-1.246-0.03-2.49-0.06-3.732c-0.011-0.479-0.023-0.957-0.038-1.435c-0.037-1.265-0.085-2.528-0.142-3.789
		c-0.015-0.317-0.025-0.634-0.041-0.95c-0.067-1.377-0.146-2.752-0.236-4.123c-0.01-0.144-0.022-0.288-0.033-0.432
		c-0.042-0.623-0.094-1.243-0.141-1.865c-0.077-1.012-0.155-2.022-0.245-3.031c-0.059-0.67-0.125-1.337-0.189-2.006
		c-0.093-0.957-0.189-1.913-0.294-2.867c-0.074-0.684-0.152-1.367-0.232-2.049c-0.111-0.945-0.229-1.887-0.351-2.829
		c-0.087-0.67-0.175-1.339-0.267-2.007c-0.043-0.311-0.08-0.623-0.124-0.933c-0.054-0.375-0.12-0.747-0.176-1.122
		c-0.215-1.464-0.443-2.924-0.686-4.38c-0.1-0.604-0.198-1.208-0.303-1.81c-0.313-1.804-0.645-3.602-0.998-5.391
		c-0.036-0.182-0.067-0.365-0.104-0.546c-0.394-1.965-0.815-3.918-1.256-5.864c-0.126-0.557-0.26-1.111-0.39-1.667
		c-0.335-1.432-0.682-2.859-1.041-4.281c-0.085-0.334-0.159-0.672-0.245-1.006c-0.104-0.405-0.217-0.807-0.323-1.21
		c-0.145-0.547-0.29-1.094-0.438-1.64c-0.272-1.004-0.553-2.004-0.838-3.002c-0.139-0.487-0.274-0.975-0.417-1.46
		c-0.424-1.45-0.857-2.895-1.308-4.331c-0.043-0.136-0.089-0.271-0.132-0.406c-0.414-1.314-0.84-2.622-1.276-3.924
		c-0.166-0.497-0.338-0.991-0.508-1.486c-0.326-0.952-0.656-1.901-0.993-2.847c-0.192-0.54-0.387-1.078-0.583-1.615
		c-0.342-0.937-0.69-1.87-1.044-2.801c-0.188-0.493-0.372-0.987-0.563-1.478c-0.471-1.215-0.951-2.423-1.44-3.626
		c-0.077-0.188-0.15-0.379-0.228-0.567c-0.561-1.367-1.136-2.725-1.721-4.076c-0.201-0.466-0.408-0.927-0.612-1.391
		c-0.402-0.915-0.81-1.826-1.224-2.733c-0.235-0.516-0.473-1.031-0.712-1.544c-0.41-0.881-0.826-1.758-1.246-2.632
		c-0.231-0.481-0.462-0.964-0.696-1.443c-0.523-1.068-1.056-2.13-1.594-3.188c-0.135-0.264-0.265-0.53-0.399-0.793
		c-0.666-1.295-1.346-2.58-2.034-3.858c-0.229-0.422-0.461-0.84-0.691-1.261c-0.481-0.88-0.967-1.757-1.459-2.628
		c-0.274-0.485-0.552-0.968-0.829-1.451c-0.212-0.369-0.42-0.743-0.634-1.11c-0.151-0.26-0.313-0.512-0.465-0.771
		c-0.779-1.325-1.571-2.638-2.375-3.942c-0.233-0.378-0.462-0.759-0.697-1.136c-1.024-1.639-2.068-3.262-3.132-4.867
		c-0.219-0.33-0.443-0.653-0.663-0.982c-0.866-1.291-1.744-2.57-2.635-3.837c-0.328-0.468-0.658-0.934-0.99-1.398
		c-0.901-1.26-1.814-2.508-2.74-3.745c-0.177-0.236-0.346-0.48-0.523-0.716c-0.071-0.095-0.146-0.187-0.217-0.282
		c-0.383-0.504-0.771-1-1.158-1.5c-0.546-0.708-1.092-1.416-1.646-2.116c-0.398-0.502-0.803-0.997-1.204-1.495
		c-0.554-0.685-1.107-1.369-1.668-2.045c-0.413-0.499-0.832-0.992-1.25-1.486c-0.559-0.661-1.119-1.32-1.685-1.973
		c-0.433-0.499-0.869-0.993-1.306-1.486c-0.32-0.362-0.636-0.731-0.958-1.09c-0.152-0.169-0.311-0.329-0.463-0.498
		c-1.421-1.571-2.857-3.123-4.32-4.642c-0.193-0.201-0.391-0.396-0.585-0.595c-1.334-1.374-2.688-2.723-4.057-4.052
		c-0.202-0.196-0.396-0.403-0.599-0.598c-0.141-0.136-0.287-0.264-0.428-0.398c-1.373-1.313-2.758-2.609-4.163-3.877
		c-0.139-0.125-0.281-0.246-0.421-0.371c-1.281-1.149-2.579-2.275-3.888-3.386c-0.187-0.158-0.366-0.325-0.554-0.482
		c-0.244-0.206-0.496-0.4-0.742-0.605c-0.968-0.807-1.943-1.602-2.926-2.386c-0.43-0.343-0.857-0.689-1.289-1.029
		c-1.339-1.05-2.687-2.084-4.05-3.094c-0.046-0.034-0.09-0.07-0.136-0.104c-0.006-0.005-0.013-0.009-0.02-0.014
		c-1.344-0.993-2.702-1.962-4.069-2.916c-0.436-0.303-0.878-0.597-1.315-0.896c-0.941-0.643-1.885-1.281-2.836-1.905
		c-0.2-0.131-0.396-0.27-0.596-0.4c-0.347-0.225-0.7-0.437-1.049-0.66c-0.819-0.524-1.643-1.044-2.47-1.554
		c-0.571-0.352-1.144-0.7-1.718-1.045c-0.836-0.502-1.676-0.995-2.52-1.482c-0.349-0.202-0.692-0.415-1.043-0.614
		c-0.222-0.126-0.447-0.243-0.669-0.367c-0.827-0.465-1.66-0.919-2.494-1.37c-0.574-0.31-1.146-0.624-1.723-0.927
		c-0.903-0.475-1.813-0.934-2.725-1.392c-0.418-0.211-0.831-0.433-1.252-0.64c-0.091-0.045-0.185-0.086-0.275-0.13
		c-1.022-0.501-2.052-0.983-3.084-1.462c-0.396-0.184-0.788-0.377-1.186-0.558c-1.427-0.649-2.862-1.278-4.307-1.887
		c-0.026-0.011-0.053-0.024-0.08-0.035c-0.328-0.138-0.662-0.263-0.991-0.399c-1.094-0.451-2.189-0.898-3.293-1.326
		c-0.546-0.212-1.099-0.41-1.647-0.615c-0.924-0.347-1.848-0.693-2.778-1.022c-0.146-0.051-0.288-0.108-0.433-0.159
		c-0.452-0.159-0.91-0.3-1.363-0.455c-0.896-0.305-1.793-0.609-2.695-0.898c-0.641-0.206-1.284-0.401-1.929-0.598
		c-0.872-0.268-1.745-0.532-2.623-0.785c-0.278-0.08-0.554-0.17-0.833-0.249c-0.372-0.105-0.75-0.195-1.123-0.297
		c-0.904-0.248-1.811-0.488-2.721-0.72c-0.655-0.167-1.312-0.331-1.969-0.489c-0.912-0.22-1.827-0.429-2.744-0.633
		c-0.418-0.093-0.832-0.199-1.252-0.289c-0.232-0.05-0.469-0.089-0.702-0.137c-1.095-0.229-2.195-0.44-3.297-0.645
		c-0.538-0.1-1.074-0.208-1.615-0.303c-1.637-0.287-3.28-0.554-4.933-0.789c-0.006,0-0.011-0.001-0.016-0.002
		c-1.498-0.213-3.002-0.405-4.512-0.575c-1.192-0.134-2.383-0.253-3.572-0.359c-0.398-0.035-0.797-0.062-1.195-0.094
		c-0.698-0.057-1.397-0.118-2.094-0.165c-0.095-0.006-0.188-0.01-0.283-0.016c-0.357-0.023-0.715-0.041-1.071-0.062
		c-0.789-0.046-1.577-0.089-2.363-0.123c-0.42-0.018-0.84-0.032-1.259-0.046c-0.729-0.025-1.456-0.046-2.182-0.061
		c-0.432-0.009-0.862-0.017-1.292-0.021c-0.736-0.009-1.471-0.01-2.204-0.008c-0.403,0.001-0.807,0-1.209,0.004
		c-0.153,0.002-0.307,0-0.459,0.002c-0.252,0.003-0.501,0.018-0.752,0.023c-1.177,0.022-2.351,0.058-3.521,0.107
		c-0.424,0.018-0.847,0.035-1.27,0.057c-1.484,0.076-2.965,0.165-4.44,0.284c-0.002,0-0.005,0-0.007,0l-26.06,2.105l0,0
		c-0.01,0.001-0.02,0.001-0.029,0.002c0.035-0.003,0.069-0.004,0.104-0.007c0.296-0.023,0.595-0.035,0.892-0.057
		C136.264,50.724,66.787,128.726,60.62,231.21c-6.837,113.628,66.7,214.972,163.929,225.914c10.316,1.161,20.489,1.248,30.444,0.358
		c-0.407,0.037-0.812,0.082-1.22,0.115c-0.015,0.001-0.028,0.003-0.043,0.004l0.007-0.001c-0.002,0.001-0.004,0.001-0.006,0.001
		c8.696-0.703,17.392-1.405,26.088-2.107c1.226-0.099,2.447-0.217,3.666-0.345c0.391-0.042,0.778-0.09,1.167-0.134
		c0.835-0.095,1.668-0.193,2.498-0.303c0.45-0.059,0.899-0.121,1.349-0.185c0.777-0.108,1.555-0.223,2.329-0.344
		c0.453-0.071,0.905-0.142,1.356-0.217c0.802-0.133,1.601-0.273,2.399-0.419c0.406-0.074,0.813-0.146,1.219-0.223
		c1.001-0.191,1.998-0.394,2.993-0.604c0.193-0.041,0.388-0.078,0.581-0.119c1.186-0.257,2.367-0.528,3.544-0.813
		c0.34-0.082,0.678-0.171,1.017-0.256c0.84-0.209,1.678-0.422,2.514-0.646c0.428-0.114,0.854-0.233,1.281-0.352
		c0.752-0.208,1.503-0.421,2.251-0.641c0.44-0.129,0.88-0.26,1.319-0.394c0.755-0.229,1.507-0.465,2.258-0.705
		c0.41-0.132,0.82-0.261,1.229-0.396c0.868-0.286,1.732-0.583,2.595-0.885c0.281-0.098,0.563-0.191,0.843-0.291
		c1.135-0.403,2.265-0.821,3.39-1.252c0.285-0.109,0.567-0.225,0.853-0.336c0.843-0.328,1.684-0.66,2.521-1.004
		c0.405-0.166,0.809-0.338,1.212-0.507c0.72-0.302,1.437-0.607,2.151-0.92c0.428-0.188,0.854-0.377,1.28-0.567
		c0.703-0.315,1.405-0.638,2.104-0.963c0.408-0.19,0.816-0.38,1.224-0.573c0.766-0.365,1.527-0.739,2.288-1.116
		c0.328-0.163,0.659-0.321,0.986-0.487c1.074-0.542,2.145-1.096,3.208-1.663c0.2-0.106,0.397-0.219,0.598-0.326
		c0.868-0.469,1.734-0.942,2.595-1.427c0.376-0.212,0.748-0.429,1.122-0.643c0.686-0.394,1.371-0.79,2.052-1.194
		c0.406-0.24,0.81-0.483,1.214-0.728c0.656-0.397,1.311-0.8,1.963-1.206c0.396-0.247,0.793-0.494,1.188-0.745
		c0.688-0.438,1.371-0.882,2.053-1.33c0.343-0.226,0.688-0.447,1.029-0.675c0.988-0.659,1.972-1.328,2.947-2.01
		c0.057-0.039,0.112-0.079,0.169-0.118c0.969-0.678,1.93-1.368,2.886-2.068c0.329-0.241,0.656-0.488,0.984-0.731
		c0.663-0.493,1.325-0.989,1.983-1.493c0.369-0.282,0.736-0.569,1.104-0.855c0.618-0.481,1.234-0.967,1.847-1.458
		c0.367-0.294,0.734-0.588,1.1-0.886c0.635-0.517,1.265-1.04,1.894-1.566c0.324-0.272,0.65-0.542,0.974-0.816
		c0.798-0.679,1.589-1.365,2.376-2.06c0.145-0.127,0.291-0.25,0.435-0.378c0.862-0.765,1.72-1.539,2.569-2.323
		c0.056-0.051,0.108-0.104,0.164-0.155c1.093-1.011,2.176-2.037,3.248-3.079c0.225-0.218,0.444-0.442,0.668-0.662
		c0.85-0.835,1.694-1.678,2.531-2.531c0.355-0.363,0.706-0.732,1.059-1.099c0.704-0.731,1.404-1.468,2.098-2.212
		c0.372-0.399,0.742-0.801,1.11-1.204c0.688-0.751,1.368-1.509,2.045-2.273c0.223-0.252,0.452-0.496,0.674-0.749
		c0.141-0.161,0.278-0.326,0.419-0.488c0.4-0.46,0.797-0.926,1.194-1.391c0.465-0.546,0.929-1.092,1.388-1.644
		c0.389-0.466,0.774-0.936,1.159-1.406c0.459-0.562,0.915-1.125,1.368-1.692c0.377-0.471,0.751-0.944,1.124-1.42
		c0.456-0.583,0.909-1.169,1.359-1.758c0.356-0.466,0.712-0.934,1.065-1.403c0.186-0.248,0.376-0.491,0.562-0.74
		c0.146-0.195,0.282-0.398,0.427-0.595c1.165-1.581,2.317-3.176,3.441-4.801c0.018-0.024,0.034-0.051,0.052-0.075
		c1.119-1.619,2.21-3.266,3.286-4.927c0.128-0.198,0.264-0.389,0.392-0.587c0.105-0.164,0.204-0.333,0.31-0.497
		c0.973-1.522,1.932-3.057,2.868-4.612c0.093-0.153,0.181-0.31,0.272-0.462c0.847-1.416,1.676-2.849,2.492-4.292
		c0.126-0.223,0.26-0.438,0.385-0.662c0.129-0.229,0.249-0.465,0.377-0.694c0.688-1.239,1.365-2.488,2.031-3.746
		c0.153-0.29,0.311-0.575,0.463-0.865c0.809-1.546,1.598-3.108,2.372-4.683c0.056-0.113,0.115-0.224,0.171-0.338
		c0.139-0.283,0.268-0.573,0.405-0.856c0.553-1.143,1.097-2.291,1.631-3.447c0.229-0.498,0.458-0.996,0.685-1.496
		c0.542-1.198,1.073-2.405,1.595-3.619c0.121-0.281,0.25-0.557,0.37-0.839c0.039-0.093,0.076-0.188,0.115-0.281
		c0.65-1.535,1.286-3.082,1.904-4.641c0.11-0.279,0.216-0.563,0.325-0.843c0.501-1.278,0.991-2.563,1.47-3.857
		c0.072-0.192,0.148-0.382,0.22-0.575c0.128-0.35,0.246-0.706,0.373-1.057c0.372-1.031,0.737-2.065,1.096-3.105
		c0.199-0.579,0.397-1.159,0.592-1.741c0.358-1.07,0.707-2.146,1.051-3.227c0.121-0.382,0.252-0.758,0.371-1.141
		c0.046-0.148,0.088-0.299,0.134-0.447c0.46-1.484,0.906-2.977,1.337-4.479c0.031-0.107,0.064-0.214,0.096-0.322
		c0.464-1.626,0.907-3.264,1.337-4.91c0.03-0.114,0.063-0.228,0.094-0.343h0.001c0.102-0.392,0.191-0.789,0.292-1.183
		c0.286-1.129,0.567-2.261,0.838-3.398c0.143-0.602,0.281-1.204,0.419-1.809c0.251-1.092,0.493-2.189,0.729-3.29
		c0.077-0.36,0.163-0.717,0.238-1.078c0.05-0.237,0.091-0.478,0.14-0.716c0.264-1.279,0.514-2.566,0.756-3.856
		c0.082-0.438,0.17-0.872,0.25-1.311c0.313-1.723,0.608-3.453,0.885-5.193c0.011-0.067,0.023-0.133,0.034-0.2
		c0.045-0.285,0.081-0.575,0.125-0.861c0.222-1.439,0.432-2.885,0.628-4.336c0.079-0.584,0.153-1.169,0.228-1.755
		c0.165-1.292,0.319-2.588,0.464-3.888c0.039-0.349,0.087-0.692,0.124-1.041c0.024-0.225,0.041-0.452,0.064-0.678
		c0.126-1.213,0.238-2.431,0.347-3.65c0.046-0.519,0.097-1.035,0.14-1.556c0.143-1.74,0.271-3.485,0.376-5.24
		c0.03-0.507,0.06-1.015,0.087-1.521c0.022-0.42,0.029-0.838,0.05-1.258C439.583,264.508,439.644,263.004,439.689,261.503z
		 M345.217,417.795c-0.625,0.549-1.252,1.093-1.883,1.631c0.922-0.786,1.838-1.581,2.746-2.39c-0.063,0.056-0.124,0.113-0.186,0.169
		C345.67,417.404,345.441,417.598,345.217,417.795z M340.223,422.021c-0.077,0.063-0.154,0.125-0.232,0.188
		c0.787-0.639,1.568-1.285,2.345-1.938c-0.111,0.094-0.224,0.188-0.335,0.281C341.41,421.045,340.818,421.536,340.223,422.021z
		 M333.147,427.491c-0.093,0.067-0.188,0.133-0.281,0.201c0.747-0.544,1.487-1.1,2.228-1.657c-0.291,0.219-0.58,0.439-0.871,0.656
		C333.864,426.958,333.508,427.228,333.147,427.491z M329.92,429.795c-0.164,0.113-0.329,0.223-0.493,0.336
		c0.715-0.494,1.425-0.997,2.133-1.502c-0.359,0.256-0.716,0.518-1.077,0.771C330.295,429.532,330.107,429.664,329.92,429.795z
		 M326.09,432.377c-0.055,0.036-0.11,0.071-0.165,0.107c0.71-0.465,1.417-0.937,2.121-1.412c-0.288,0.195-0.574,0.396-0.863,0.589
		C326.819,431.903,326.454,432.139,326.09,432.377z M322.862,434.442c-0.17,0.106-0.341,0.209-0.511,0.314
		c0.724-0.448,1.445-0.899,2.163-1.359c-0.137,0.088-0.272,0.178-0.409,0.265C323.692,433.926,323.277,434.184,322.862,434.442z
		 M306.896,443.2c-0.093,0.044-0.186,0.086-0.277,0.13c0.965-0.458,1.926-0.926,2.882-1.403c-0.135,0.067-0.271,0.134-0.406,0.201
		C308.362,442.49,307.631,442.85,306.896,443.2z M298.877,446.751c-0.076,0.031-0.153,0.061-0.229,0.092
		c0.827-0.337,1.648-0.687,2.47-1.037c-0.318,0.136-0.637,0.274-0.956,0.408C299.733,446.394,299.307,446.575,298.877,446.751z
		 M295.508,448.089c-0.243,0.094-0.49,0.18-0.734,0.271c0.796-0.3,1.589-0.609,2.38-0.922c-0.225,0.089-0.448,0.181-0.673,0.268
		C296.155,447.833,295.833,447.965,295.508,448.089z M291.194,449.659c-0.113,0.04-0.229,0.078-0.343,0.117
		c0.792-0.274,1.581-0.555,2.368-0.842c-0.354,0.129-0.707,0.266-1.063,0.393C291.837,449.441,291.516,449.548,291.194,449.659z
		 M287.419,450.922c-0.185,0.059-0.369,0.114-0.553,0.172c0.804-0.254,1.606-0.512,2.406-0.779
		c-0.183,0.062-0.363,0.126-0.547,0.187C288.291,450.645,287.854,450.782,287.419,450.922z M283.86,452.014
		c-0.359,0.104-0.72,0.204-1.08,0.307c0.845-0.24,1.688-0.484,2.528-0.739c-0.021,0.006-0.041,0.013-0.062,0.019
		C284.786,451.74,284.323,451.878,283.86,452.014z M273.304,454.706c-0.005,0.001-0.011,0.002-0.016,0.003
		c1.285-0.277,2.564-0.576,3.84-0.887c-0.105,0.025-0.211,0.054-0.316,0.079C275.646,454.184,274.478,454.452,273.304,454.706z
		 M269.731,455.43c-0.105,0.021-0.212,0.038-0.317,0.058c1.192-0.225,2.381-0.461,3.565-0.715c-0.126,0.027-0.254,0.052-0.38,0.078
		C271.646,455.052,270.69,455.247,269.731,455.43z M261.046,456.822c-0.06,0.009-0.12,0.015-0.181,0.022
		c0.886-0.114,1.769-0.242,2.65-0.372c-0.36,0.053-0.72,0.109-1.081,0.16C261.973,456.697,261.51,456.762,261.046,456.822z
		 M265.352,456.193c0.871-0.139,1.74-0.289,2.607-0.443c-0.613,0.109-1.226,0.22-1.841,0.321
		C265.862,456.113,265.606,456.153,265.352,456.193z M278.488,453.478c0.85-0.216,1.699-0.436,2.545-0.666
		c-0.231,0.063-0.463,0.129-0.694,0.19C279.724,453.166,279.105,453.32,278.488,453.478z M238.527,448.062
		c-0.212-0.004-0.423-0.006-0.635-0.011c0.203,0.005,0.405,0.006,0.607,0.01C238.509,448.062,238.518,448.062,238.527,448.062z
		 M229.484,447.596c0.223,0.019,0.446,0.035,0.668,0.053c-0.341-0.027-0.682-0.051-1.023-0.08
		C229.248,447.578,229.366,447.586,229.484,447.596z M234.067,447.905c-0.263-0.014-0.527-0.03-0.79-0.045
		C233.54,447.875,233.804,447.892,234.067,447.905z M69.484,227.21c-0.004,0.05-0.01,0.1-0.014,0.149
		c0.01-0.124,0.02-0.248,0.029-0.372C69.494,227.061,69.49,227.136,69.484,227.21z M69.91,222.585
		c0.025-0.248,0.049-0.495,0.075-0.742c-0.015,0.141-0.025,0.283-0.04,0.424C69.934,222.374,69.921,222.479,69.91,222.585z
		 M123.538,102.282c-0.157,0.162-0.314,0.324-0.47,0.487c0.298-0.313,0.595-0.626,0.895-0.936
		C123.82,101.98,123.68,102.133,123.538,102.282z M120.479,105.54c-0.076,0.083-0.153,0.165-0.229,0.248
		c0.209-0.23,0.417-0.462,0.627-0.69C120.742,105.243,120.612,105.393,120.479,105.54z M218.464,54.698
		c0.38-0.038,0.762-0.071,1.143-0.105C219.226,54.627,218.844,54.66,218.464,54.698z M214.711,55.113
		c0.048-0.006,0.098-0.011,0.146-0.017C214.809,55.102,214.76,55.107,214.711,55.113z M210.508,55.712
		c-0.097,0.015-0.195,0.028-0.292,0.043c0.256-0.041,0.512-0.08,0.769-0.119C210.825,55.661,210.667,55.688,210.508,55.712z
		 M206.938,56.317c-0.21,0.038-0.422,0.071-0.632,0.11c0.285-0.053,0.571-0.1,0.856-0.151
		C207.087,56.29,207.013,56.303,206.938,56.317z M202.373,57.218c-0.003,0-0.007,0.001-0.01,0.002
		c0.021-0.004,0.04-0.009,0.061-0.014C202.406,57.21,202.389,57.214,202.373,57.218z M198.027,58.236
		c-0.114,0.028-0.228,0.057-0.342,0.086c0.296-0.075,0.591-0.154,0.888-0.227C198.39,58.141,198.209,58.19,198.027,58.236z
		 M194.418,59.185c-0.172,0.048-0.344,0.094-0.516,0.142c0.283-0.079,0.565-0.159,0.849-0.236
		C194.639,59.121,194.529,59.154,194.418,59.185z M190.311,60.38c0.156-0.048,0.314-0.092,0.47-0.14
		C190.625,60.288,190.467,60.332,190.311,60.38z M185.784,61.868c0.331-0.114,0.66-0.23,0.991-0.342
		C186.444,61.637,186.115,61.753,185.784,61.868z M182.089,63.197c0.363-0.136,0.727-0.27,1.09-0.403
		C182.816,62.927,182.452,63.061,182.089,63.197z M178.6,64.553c0.188-0.076,0.377-0.147,0.565-0.223
		C178.978,64.405,178.788,64.477,178.6,64.553z M174.788,66.163c-0.07,0.031-0.14,0.06-0.21,0.09
		c0.197-0.087,0.395-0.173,0.592-0.259C175.043,66.049,174.916,66.107,174.788,66.163z M171.569,67.619
		c-0.193,0.09-0.389,0.175-0.582,0.266c0.238-0.112,0.478-0.218,0.716-0.329C171.658,67.577,171.614,67.598,171.569,67.619z
		 M167.298,69.686c-0.011,0.006-0.022,0.011-0.033,0.017c0.056-0.028,0.112-0.058,0.167-0.086
		C167.388,69.639,167.343,69.663,167.298,69.686z M163.715,71.559c-0.203,0.109-0.404,0.221-0.606,0.331
		c0.273-0.149,0.545-0.301,0.819-0.448C163.856,71.479,163.786,71.52,163.715,71.559z M160.156,73.54
		c-0.183,0.104-0.366,0.208-0.549,0.314c0.285-0.165,0.569-0.33,0.855-0.492C160.359,73.419,160.258,73.48,160.156,73.54z
		 M156.349,75.787c0.227-0.138,0.455-0.271,0.682-0.409C156.803,75.516,156.575,75.649,156.349,75.787z M152.401,78.289
		c0.258-0.169,0.515-0.34,0.773-0.507C152.916,77.949,152.66,78.12,152.401,78.289z M149.013,80.563
		c0.324-0.224,0.649-0.446,0.975-0.667C149.662,80.117,149.337,80.34,149.013,80.563z M145.888,82.771
		c0.232-0.169,0.467-0.333,0.7-0.5C146.355,82.438,146.121,82.602,145.888,82.771z M142.558,85.257
		c-0.042,0.032-0.085,0.063-0.127,0.095c0.142-0.109,0.284-0.219,0.426-0.327C142.757,85.102,142.658,85.181,142.558,85.257z
		 M139.75,87.458c-0.159,0.127-0.32,0.25-0.479,0.378c0.184-0.149,0.372-0.293,0.556-0.44
		C139.802,87.416,139.776,87.438,139.75,87.458z M135.97,90.574c-0.017,0.014-0.033,0.027-0.05,0.042
		c0.08-0.067,0.158-0.137,0.237-0.204C136.095,90.464,136.033,90.52,135.97,90.574z M132.435,93.671
		c0.203-0.183,0.404-0.369,0.608-0.551C132.839,93.302,132.638,93.488,132.435,93.671z M128.936,96.913
		c0.39-0.371,0.777-0.744,1.17-1.11C129.713,96.169,129.326,96.542,128.936,96.913z M117.569,108.793
		c0.096-0.11,0.189-0.223,0.285-0.333C117.758,108.57,117.665,108.683,117.569,108.793z M115.04,111.765
		c-0.075,0.09-0.152,0.178-0.227,0.269c0.142-0.171,0.285-0.342,0.427-0.512C115.173,111.602,115.107,111.684,115.04,111.765z
		 M112.642,114.706c-0.148,0.186-0.3,0.368-0.448,0.554c0.156-0.197,0.316-0.389,0.472-0.585
		C112.658,114.685,112.65,114.695,112.642,114.706z M109.262,119.07c-0.014,0.019-0.029,0.038-0.042,0.057
		c0.139-0.186,0.275-0.375,0.416-0.561C109.51,118.732,109.388,118.903,109.262,119.07z M106.262,123.191
		c0.295-0.417,0.587-0.836,0.885-1.25C106.849,122.355,106.557,122.775,106.262,123.191z M101.881,129.653
		c-0.063,0.099-0.131,0.193-0.194,0.292c0.223-0.346,0.449-0.689,0.674-1.033C102.2,129.158,102.042,129.406,101.881,129.653z
		 M103.771,126.794c0.316-0.469,0.631-0.94,0.951-1.405C104.402,125.854,104.087,126.326,103.771,126.794z M99.123,134.034
		c0.311-0.51,0.625-1.017,0.939-1.522C99.748,133.017,99.434,133.524,99.123,134.034z M96.924,137.725
		c0.297-0.513,0.599-1.021,0.9-1.53C97.523,136.704,97.222,137.212,96.924,137.725z M95.136,140.876
		c-0.11,0.198-0.223,0.394-0.333,0.592c0.161-0.292,0.323-0.584,0.486-0.875C95.237,140.687,95.188,140.783,95.136,140.876z
		 M93.196,144.453c-0.109,0.205-0.224,0.405-0.331,0.611c0.197-0.377,0.404-0.746,0.604-1.121
		C93.378,144.113,93.286,144.282,93.196,144.453z M90.787,149.137c0.115-0.232,0.235-0.46,0.352-0.691
		C91.022,148.677,90.902,148.905,90.787,149.137z M88.4,154.144c-0.001,0.001-0.002,0.003-0.002,0.005
		c0.166-0.359,0.327-0.723,0.495-1.081C88.726,153.424,88.565,153.786,88.4,154.144z M86.425,158.562
		c0.218-0.502,0.432-1.007,0.653-1.507C86.856,157.554,86.643,158.059,86.425,158.562z M84.66,162.762
		c0.226-0.554,0.449-1.108,0.679-1.659C85.109,161.653,84.886,162.208,84.66,162.762z M83.626,165.347
		c-0.208,0.532-0.413,1.065-0.617,1.6c0.216-0.567,0.433-1.133,0.654-1.697C83.65,165.282,83.639,165.315,83.626,165.347z
		 M81.674,170.542c-0.074,0.207-0.15,0.412-0.224,0.619c0.147-0.414,0.294-0.83,0.444-1.242
		C81.819,170.126,81.749,170.336,81.674,170.542z M80.07,175.149c-0.03,0.089-0.061,0.177-0.09,0.266
		c0.093-0.28,0.183-0.562,0.277-0.841C80.193,174.764,80.134,174.958,80.07,175.149z M79.068,178.226
		c-0.111,0.35-0.23,0.695-0.34,1.046c0.131-0.419,0.272-0.833,0.405-1.25C79.112,178.09,79.09,178.158,79.068,178.226z
		 M77.347,183.891c-0.014,0.049-0.029,0.097-0.043,0.146c0.141-0.489,0.289-0.973,0.433-1.46
		C77.607,183.015,77.474,183.451,77.347,183.891z M76.087,188.447c0.043-0.166,0.091-0.329,0.136-0.495
		C76.179,188.118,76.131,188.281,76.087,188.447z M74.792,193.645c-0.009,0.037-0.019,0.074-0.028,0.111
		c0.068-0.289,0.133-0.58,0.203-0.868C74.907,193.139,74.852,193.393,74.792,193.645z M73.703,198.479
		c-0.016,0.074-0.033,0.147-0.049,0.221c0.093-0.44,0.185-0.881,0.281-1.319C73.855,197.746,73.781,198.113,73.703,198.479z
		 M72.635,203.795c0.117-0.624,0.233-1.248,0.356-1.869C72.868,202.547,72.752,203.172,72.635,203.795z M71.807,208.462
		c0.108-0.649,0.217-1.297,0.331-1.943C72.023,207.166,71.915,207.813,71.807,208.462z M71.078,213.139
		c0.095-0.654,0.193-1.307,0.293-1.959C71.271,211.832,71.173,212.484,71.078,213.139z M70.565,216.928
		c-0.04,0.307-0.082,0.613-0.12,0.92c0.056-0.456,0.114-0.91,0.172-1.364C70.599,216.631,70.584,216.78,70.565,216.928z
		 M246.928,444.524c-1.576-0.225-3.143-0.479-4.705-0.753c-0.49-0.087-0.977-0.185-1.466-0.275
		c-1.082-0.201-2.162-0.409-3.237-0.634c-0.585-0.122-1.168-0.253-1.751-0.382c-0.906-0.201-1.811-0.407-2.712-0.625
		c-0.605-0.146-1.209-0.297-1.812-0.45c-0.887-0.227-1.771-0.461-2.652-0.702c-0.602-0.165-1.203-0.331-1.802-0.504
		c-0.857-0.246-1.711-0.504-2.563-0.766c-0.592-0.183-1.185-0.362-1.774-0.551c-0.89-0.285-1.774-0.585-2.658-0.887
		c-0.538-0.183-1.077-0.361-1.612-0.551c-0.919-0.324-1.832-0.666-2.744-1.009c-0.494-0.186-0.991-0.362-1.482-0.554
		c-1.125-0.435-2.242-0.89-3.355-1.351c-0.263-0.109-0.529-0.211-0.792-0.321c-1.384-0.582-2.759-1.186-4.126-1.808
		c-0.342-0.155-0.679-0.322-1.02-0.48c-1.019-0.473-2.037-0.949-3.047-1.444c-0.462-0.227-0.919-0.464-1.379-0.695
		c-0.893-0.448-1.784-0.898-2.669-1.364c-0.529-0.278-1.054-0.565-1.58-0.851c-0.816-0.44-1.63-0.884-2.439-1.339
		c-0.528-0.297-1.052-0.601-1.577-0.904c-0.819-0.473-1.635-0.951-2.447-1.439c-0.536-0.321-1.07-0.646-1.603-0.975
		c-0.797-0.491-1.59-0.991-2.38-1.497c-0.516-0.33-1.031-0.659-1.543-0.994c-0.909-0.597-1.811-1.206-2.71-1.82
		c-0.416-0.284-0.835-0.563-1.249-0.851c-1.298-0.904-2.586-1.824-3.862-2.767c-0.081-0.06-0.159-0.121-0.239-0.181
		c-1.271-0.943-2.528-1.907-3.776-2.887c-0.41-0.321-0.815-0.649-1.222-0.975c-0.928-0.742-1.85-1.493-2.765-2.255
		c-0.426-0.354-0.851-0.71-1.274-1.068c-1.232-1.047-2.455-2.108-3.663-3.19c-0.14-0.125-0.283-0.247-0.422-0.373
		c-1.332-1.201-2.645-2.43-3.945-3.674c-0.337-0.322-0.67-0.65-1.005-0.976c-1.3-1.263-2.586-2.545-3.854-3.851
		c-0.181-0.186-0.365-0.367-0.544-0.554c-1.396-1.449-2.766-2.929-4.121-4.428c-0.444-0.491-0.886-0.985-1.326-1.482
		c-0.427-0.482-0.853-0.965-1.275-1.452c-0.525-0.605-1.045-1.218-1.564-1.831c-0.409-0.484-0.819-0.967-1.225-1.456
		c-0.526-0.635-1.046-1.276-1.565-1.919c-0.386-0.479-0.775-0.954-1.157-1.437c-0.542-0.683-1.075-1.375-1.609-2.066
		c-0.348-0.452-0.7-0.899-1.044-1.354c-0.259-0.341-0.511-0.688-0.767-1.032c-0.859-1.147-1.707-2.306-2.543-3.476
		c-0.329-0.461-0.656-0.922-0.981-1.386c-0.829-1.181-1.646-2.372-2.453-3.573c-0.225-0.335-0.455-0.666-0.678-1.003
		c-1.004-1.515-1.99-3.048-2.958-4.596c-0.239-0.382-0.472-0.771-0.708-1.154c-0.746-1.21-1.48-2.428-2.203-3.656
		c-0.37-0.629-0.74-1.257-1.104-1.892c-0.242-0.421-0.484-0.843-0.724-1.267c-0.501-0.887-0.996-1.779-1.485-2.675
		c-0.188-0.346-0.38-0.688-0.567-1.035c-0.67-1.242-1.331-2.492-1.978-3.751c-0.083-0.162-0.164-0.327-0.247-0.489
		c-0.561-1.098-1.113-2.201-1.656-3.312c-0.199-0.407-0.394-0.816-0.59-1.225c-0.428-0.888-0.851-1.779-1.267-2.675
		c-0.207-0.445-0.413-0.891-0.617-1.338c-0.421-0.923-0.835-1.851-1.245-2.781c-0.17-0.387-0.343-0.771-0.511-1.16
		c-0.569-1.314-1.128-2.634-1.673-3.963c-0.025-0.063-0.05-0.127-0.076-0.189c-0.516-1.263-1.019-2.532-1.513-3.809
		c-0.162-0.417-0.319-0.838-0.478-1.257c-0.357-0.939-0.71-1.882-1.055-2.829c-0.172-0.473-0.343-0.945-0.513-1.42
		c-0.338-0.947-0.669-1.897-0.995-2.852c-0.147-0.431-0.297-0.86-0.442-1.293c-0.439-1.313-0.87-2.629-1.286-3.953
		c-0.019-0.062-0.039-0.121-0.059-0.182c-0.434-1.384-0.852-2.775-1.26-4.172c-0.126-0.432-0.247-0.867-0.371-1.301
		c-0.28-0.979-0.555-1.959-0.822-2.943c-0.136-0.504-0.271-1.008-0.404-1.513c-0.188-0.715-0.37-1.433-0.551-2.15
		c-0.34-1.344-0.668-2.692-0.984-4.046c-0.125-0.533-0.253-1.065-0.375-1.601c-0.418-1.848-0.819-3.702-1.192-5.568
		c-0.039-0.193-0.072-0.389-0.11-0.583c-0.332-1.68-0.643-3.367-0.937-5.061c-0.103-0.587-0.198-1.176-0.296-1.765
		c-0.227-1.367-0.441-2.739-0.644-4.114c-0.099-0.669-0.2-1.337-0.292-2.008c-0.085-0.615-0.165-1.231-0.245-1.848
		c-0.12-0.92-0.234-1.84-0.343-2.763c-0.074-0.63-0.146-1.261-0.215-1.893c-0.102-0.929-0.196-1.86-0.286-2.793
		c-0.06-0.616-0.121-1.233-0.175-1.852c-0.088-0.99-0.165-1.984-0.24-2.979c-0.042-0.558-0.089-1.115-0.127-1.674
		c-0.099-1.451-0.186-2.904-0.258-4.361c-0.015-0.302-0.025-0.604-0.039-0.905c-0.054-1.2-0.1-2.403-0.135-3.608
		c-0.014-0.452-0.025-0.905-0.036-1.358c-0.028-1.191-0.047-2.384-0.057-3.58c-0.002-0.322-0.009-0.644-0.01-0.967
		c-0.001-0.416,0.007-0.834,0.007-1.25c0.002-1.591,0.02-3.186,0.054-4.784c0.014-0.637,0.033-1.275,0.053-1.914
		c0.043-1.435,0.101-2.873,0.171-4.313c0.043-0.876,0.077-1.75,0.129-2.628c0.1-1.663,0.221-3.318,0.356-4.967
		c0.043-0.53,0.096-1.057,0.143-1.586c0.1-1.119,0.203-2.237,0.318-3.35c0.06-0.579,0.126-1.156,0.19-1.733
		c0.134-1.207,0.278-2.41,0.431-3.609c0.073-0.572,0.145-1.145,0.222-1.716c0.187-1.38,0.387-2.755,0.598-4.125
		c0.051-0.331,0.097-0.664,0.149-0.994c0.262-1.652,0.543-3.295,0.84-4.931c0.081-0.445,0.17-0.887,0.254-1.331
		c0.225-1.198,0.457-2.392,0.701-3.58c0.119-0.577,0.242-1.15,0.364-1.724c0.224-1.049,0.455-2.096,0.694-3.138
		c0.132-0.574,0.264-1.149,0.399-1.721c0.261-1.097,0.532-2.188,0.808-3.276c0.122-0.48,0.24-0.962,0.365-1.44
		c0.406-1.556,0.826-3.104,1.264-4.641c0.032-0.111,0.066-0.22,0.098-0.331c0.408-1.422,0.832-2.835,1.267-4.24
		c0.157-0.506,0.321-1.008,0.481-1.512c0.327-1.028,0.659-2.053,1-3.072c0.186-0.554,0.375-1.107,0.564-1.658
		c0.34-0.988,0.688-1.971,1.041-2.95c0.188-0.521,0.375-1.043,0.567-1.562c0.449-1.215,0.911-2.422,1.38-3.623
		c0.111-0.285,0.218-0.573,0.331-0.857c0.583-1.473,1.185-2.934,1.799-4.385c0.163-0.384,0.332-0.764,0.497-1.146
		c0.488-1.133,0.984-2.26,1.49-3.379c0.217-0.481,0.437-0.96,0.658-1.438c0.501-1.086,1.013-2.165,1.531-3.237
		c0.192-0.396,0.38-0.795,0.574-1.189c0.733-1.492,1.481-2.971,2.247-4.435c0.147-0.281,0.3-0.559,0.448-0.839
		c0.636-1.201,1.282-2.394,1.94-3.576c0.232-0.418,0.466-0.834,0.701-1.25c0.784-1.387,1.58-2.762,2.394-4.122
		c0.084-0.14,0.165-0.282,0.249-0.422c0.889-1.477,1.8-2.934,2.723-4.378c0.228-0.356,0.458-0.71,0.688-1.065
		c1.025-1.58,2.063-3.147,3.127-4.688c0.012-0.017,0.023-0.035,0.035-0.052c1.074-1.553,2.176-3.078,3.291-4.589
		c0.305-0.414,0.609-0.829,0.918-1.24c0.34-0.453,0.683-0.903,1.026-1.353c0.429-0.561,0.861-1.12,1.296-1.675
		c0.351-0.448,0.704-0.895,1.059-1.34c0.437-0.546,0.876-1.089,1.319-1.63c0.36-0.44,0.72-0.879,1.084-1.315
		c0.447-0.537,0.898-1.068,1.351-1.599c0.367-0.43,0.733-0.859,1.103-1.285c0.356-0.41,0.718-0.814,1.077-1.22
		c0.632-0.713,1.268-1.422,1.909-2.123c0.36-0.394,0.722-0.786,1.085-1.175c0.649-0.697,1.304-1.386,1.962-2.07
		c0.346-0.359,0.689-0.72,1.038-1.076c0.788-0.805,1.585-1.599,2.387-2.386c0.218-0.214,0.432-0.434,0.651-0.646
		c1.021-0.993,2.054-1.971,3.097-2.935c0.855-0.792,1.717-1.575,2.587-2.346c0.151-0.134,0.305-0.264,0.456-0.397
		c0.736-0.648,1.476-1.291,2.222-1.925c0.311-0.264,0.624-0.523,0.936-0.785c0.596-0.499,1.193-0.995,1.794-1.485
		c0.349-0.284,0.699-0.565,1.05-0.846c0.582-0.466,1.167-0.928,1.755-1.385c0.351-0.273,0.701-0.546,1.053-0.815
		c0.629-0.481,1.262-0.956,1.896-1.428c0.308-0.229,0.614-0.46,0.923-0.687c0.929-0.68,1.863-1.351,2.804-2.01
		c0.013-0.009,0.026-0.019,0.039-0.028c0.954-0.667,1.914-1.319,2.88-1.963c0.316-0.211,0.636-0.417,0.954-0.625
		c0.658-0.432,1.317-0.861,1.98-1.283c0.37-0.235,0.742-0.467,1.113-0.699c0.627-0.391,1.257-0.778,1.889-1.16
		c0.377-0.228,0.755-0.456,1.134-0.681c0.659-0.391,1.321-0.774,1.985-1.154c0.346-0.198,0.69-0.399,1.038-0.595
		c0.836-0.471,1.677-0.932,2.521-1.387c0.173-0.093,0.345-0.19,0.519-0.283c1.016-0.542,2.038-1.071,3.064-1.589
		c0.305-0.154,0.612-0.301,0.917-0.453c0.73-0.362,1.461-0.721,2.196-1.071c0.385-0.184,0.771-0.362,1.157-0.542
		c0.67-0.312,1.341-0.62,2.015-0.922c0.401-0.18,0.802-0.357,1.204-0.533c0.685-0.3,1.373-0.593,2.062-0.882
		c0.381-0.16,0.762-0.322,1.145-0.479c0.796-0.326,1.597-0.643,2.398-0.955c0.272-0.106,0.542-0.217,0.815-0.321
		c1.07-0.41,2.145-0.807,3.225-1.191c0.267-0.095,0.536-0.184,0.803-0.277c0.819-0.287,1.641-0.568,2.465-0.84
		c0.392-0.129,0.786-0.253,1.179-0.379c0.711-0.228,1.424-0.452,2.14-0.669c0.42-0.127,0.84-0.252,1.261-0.376
		c0.71-0.208,1.423-0.411,2.138-0.608c0.407-0.113,0.814-0.227,1.223-0.335c0.792-0.212,1.588-0.415,2.386-0.613
		c0.324-0.081,0.648-0.166,0.973-0.244c1.121-0.271,2.244-0.53,3.373-0.773c0.182-0.04,0.366-0.074,0.549-0.113
		c0.947-0.201,1.897-0.394,2.85-0.576c0.388-0.074,0.778-0.142,1.167-0.213c0.348-0.063,0.698-0.122,1.046-0.183
		c4.853,0.054,9.745,0.338,14.675,0.893c92.542,10.415,162.532,106.881,156.025,215.022
		c-5.528,91.893-64.536,163.088-138.916,176.033c-0.018,0-0.034,0-0.051,0c-0.406-0.005-0.812-0.012-1.218-0.021
		c-0.695-0.014-1.391-0.034-2.088-0.058c-0.397-0.015-0.795-0.027-1.192-0.045c-0.753-0.032-1.508-0.073-2.264-0.117
		c-0.334-0.02-0.667-0.035-1.002-0.058c-0.775-0.051-1.552-0.114-2.329-0.177c-0.356-0.029-0.713-0.053-1.069-0.085
		c-1.135-0.101-2.271-0.214-3.409-0.342C249.795,444.911,248.359,444.728,246.928,444.524z M409.621,300.598
		c-0.005,0.026-0.01,0.052-0.015,0.078c0.142-0.757,0.28-1.516,0.415-2.276c-0.053,0.299-0.099,0.601-0.152,0.898
		C409.79,299.733,409.703,300.164,409.621,300.598z M393.044,352.862c-0.003,0.006-0.006,0.012-0.009,0.019
		c0.292-0.634,0.58-1.271,0.867-1.909c-0.059,0.13-0.114,0.263-0.173,0.393C393.503,351.865,393.273,352.364,393.044,352.862z
		 M382.457,372.886c-0.139,0.232-0.287,0.456-0.427,0.688c0.312-0.514,0.621-1.029,0.93-1.547c-0.101,0.167-0.194,0.34-0.295,0.507
		C382.595,372.65,382.527,372.77,382.457,372.886z M375.546,383.594c-0.179,0.259-0.369,0.508-0.549,0.766
		c0.268-0.383,0.538-0.762,0.804-1.147c-0.083,0.121-0.162,0.247-0.246,0.368C375.552,383.585,375.549,383.589,375.546,383.594z
		 M368.687,392.896c-0.062,0.078-0.124,0.156-0.186,0.234c0.581-0.738,1.156-1.482,1.728-2.231
		c-0.069,0.091-0.139,0.183-0.208,0.273C369.579,391.751,369.135,392.325,368.687,392.896z M362.47,400.433
		c-0.009,0.01-0.017,0.019-0.024,0.028c0.636-0.731,1.264-1.473,1.89-2.215c-0.239,0.283-0.477,0.567-0.717,0.849
		C363.236,399.542,362.854,399.99,362.47,400.433z M348.567,414.78c-0.483,0.446-0.973,0.884-1.461,1.324
		c0.622-0.562,1.242-1.127,1.856-1.699C348.83,414.528,348.701,414.657,348.567,414.78z M350.922,412.55
		c0.472-0.453,0.946-0.903,1.414-1.362c-0.158,0.155-0.313,0.314-0.473,0.469C351.553,411.959,351.234,412.25,350.922,412.55z
		 M354.317,409.207c0.356-0.36,0.716-0.718,1.069-1.081c-0.111,0.114-0.221,0.229-0.332,0.344
		C354.812,408.719,354.563,408.96,354.317,409.207z M357.697,405.701c0.23-0.245,0.463-0.488,0.692-0.735
		c-0.063,0.067-0.125,0.136-0.188,0.203C358.035,405.348,357.865,405.522,357.697,405.701z M361.211,401.855
		c0.05-0.056,0.1-0.111,0.149-0.167c-0.01,0.011-0.019,0.021-0.028,0.033C361.292,401.767,361.251,401.811,361.211,401.855z
		 M365.692,396.62c0.615-0.746,1.227-1.497,1.832-2.254c-0.445,0.557-0.894,1.109-1.343,1.66
		C366.019,396.225,365.855,396.422,365.692,396.62z M372.063,388.451c-0.271,0.368-0.543,0.737-0.816,1.103
		c0.327-0.437,0.648-0.88,0.973-1.32C372.166,388.305,372.115,388.379,372.063,388.451z M379.565,377.537
		c-0.071,0.111-0.145,0.222-0.216,0.333c0.157-0.245,0.312-0.493,0.468-0.739C379.732,377.266,379.65,377.403,379.565,377.537z
		 M385.048,368.431c0.139-0.244,0.279-0.487,0.417-0.731c-0.076,0.135-0.152,0.271-0.229,0.407
		C385.175,368.215,385.109,368.321,385.048,368.431z M388.449,362.215c0.037-0.071,0.072-0.145,0.109-0.216
		c-0.032,0.062-0.062,0.125-0.094,0.187C388.459,362.195,388.454,362.205,388.449,362.215z M390.779,357.617
		c0.276-0.561,0.544-1.128,0.815-1.692c-0.059,0.123-0.115,0.247-0.175,0.37c-0.195,0.403-0.388,0.811-0.585,1.213
		C390.816,357.544,390.798,357.58,390.779,357.617z M395.214,347.996c0.282-0.654,0.563-1.309,0.841-1.967
		c-0.082,0.195-0.159,0.394-0.242,0.589c-0.163,0.384-0.332,0.764-0.496,1.146C395.282,347.842,395.247,347.919,395.214,347.996z
		 M397.222,343.183c0.264-0.652,0.529-1.305,0.786-1.962c-0.099,0.254-0.193,0.51-0.294,0.763
		C397.555,342.387,397.384,342.781,397.222,343.183z M399.182,338.143c0.165-0.44,0.333-0.879,0.495-1.321
		c-0.055,0.149-0.107,0.299-0.162,0.447C399.406,337.562,399.291,337.85,399.182,338.143z M401.012,333.069
		c0.084-0.241,0.171-0.482,0.254-0.725c-0.022,0.064-0.044,0.129-0.065,0.192C401.139,332.716,401.074,332.892,401.012,333.069z
		 M403.339,326.007c-0.002,0.007-0.004,0.014-0.006,0.021c0.029-0.096,0.057-0.192,0.086-0.288
		C403.392,325.828,403.367,325.918,403.339,326.007z M404.697,321.46c0.172-0.598,0.331-1.203,0.498-1.803
		c-0.143,0.51-0.273,1.026-0.419,1.535C404.751,321.282,404.723,321.37,404.697,321.46z M406.084,316.393
		c0.183-0.697,0.354-1.401,0.53-2.103c-0.042,0.167-0.081,0.336-0.124,0.503c-0.129,0.507-0.253,1.018-0.385,1.522
		C406.099,316.342,406.091,316.367,406.084,316.393z M407.471,310.785c0.136-0.579,0.267-1.161,0.398-1.742
		c-0.039,0.171-0.074,0.344-0.113,0.515C407.662,309.967,407.566,310.376,407.471,310.785z M408.861,304.48
		c-0.082,0.395-0.167,0.788-0.25,1.182c0.13-0.615,0.255-1.231,0.38-1.85C408.946,304.034,408.906,304.259,408.861,304.48z
		 M410.563,295.223c0.121-0.741,0.242-1.484,0.356-2.229c-0.005,0.035-0.01,0.07-0.016,0.105c-0.051,0.329-0.096,0.66-0.147,0.988
		C410.696,294.468,410.625,294.843,410.563,295.223z M411.426,289.505c0.07-0.509,0.143-1.017,0.21-1.526
		c-0.032,0.246-0.063,0.493-0.096,0.738C411.505,288.98,411.463,289.241,411.426,289.505z M412.184,283.483
		c0.021-0.193,0.045-0.386,0.066-0.579c-0.009,0.08-0.018,0.161-0.026,0.241C412.211,283.259,412.196,283.37,412.184,283.483z
		 M412.704,278.367c0.023-0.258,0.05-0.516,0.072-0.773c-0.008,0.09-0.016,0.179-0.024,0.269
		C412.737,278.031,412.72,278.199,412.704,278.367z M247.39,447.963c-0.341,0.014-0.681,0.033-1.022,0.045
		C246.709,447.996,247.049,447.977,247.39,447.963z M251.61,447.724c-0.447,0.032-0.895,0.064-1.344,0.093
		C250.715,447.788,251.163,447.756,251.61,447.724z M302.829,445.063c0.818-0.361,1.633-0.731,2.445-1.107
		c-0.565,0.262-1.132,0.522-1.7,0.777C303.326,444.845,303.077,444.954,302.829,445.063z M310.264,441.547
		c1.134-0.572,2.26-1.16,3.381-1.761c-0.103,0.055-0.203,0.112-0.306,0.167C312.319,440.497,311.294,441.026,310.264,441.547z
		 M314.837,439.132c0.771-0.422,1.542-0.848,2.308-1.282c-0.206,0.116-0.41,0.236-0.616,0.353
		C315.967,438.518,315.401,438.823,314.837,439.132z M318.684,436.959c0.746-0.436,1.491-0.873,2.231-1.32
		c-0.405,0.244-0.811,0.489-1.218,0.73C319.36,436.568,319.021,436.762,318.684,436.959z M336.557,424.925
		c0.76-0.586,1.516-1.18,2.268-1.779c-0.511,0.407-1.021,0.812-1.536,1.212C337.045,424.548,336.801,424.736,336.557,424.925z
		 M245.246,44.575c0.177,0.015,0.353,0.026,0.53,0.042c1.188,0.106,2.379,0.225,3.572,0.359
		C247.978,44.821,246.611,44.692,245.246,44.575z M229.396,44.05c0.411-0.008,0.821-0.021,1.233-0.025
		c0.08-0.001,0.161,0,0.241-0.001c-0.684,0.006-1.365,0.028-2.047,0.043C229.015,44.063,229.205,44.054,229.396,44.05z
		 M234.031,44.029c0.392,0.004,0.784,0.012,1.176,0.02c-1.084-0.021-2.166-0.029-3.246-0.027
		C232.65,44.02,233.34,44.021,234.031,44.029z M237.494,44.11c0.428,0.015,0.856,0.029,1.285,0.048
		c0.233,0.01,0.468,0.025,0.702,0.036c-0.935-0.044-1.867-0.079-2.799-0.106C236.953,44.096,237.223,44.101,237.494,44.11z
		 M241.123,44.28c0.359,0.021,0.718,0.038,1.078,0.062c0.551,0.036,1.104,0.083,1.656,0.126c-0.965-0.074-1.929-0.141-2.891-0.196
		C241.018,44.274,241.07,44.277,241.123,44.28z M224.606,44.215c0.434-0.022,0.868-0.04,1.302-0.058c0.002,0,0.004,0,0.006,0
		c-0.655,0.027-1.308,0.064-1.961,0.1C224.171,44.245,224.388,44.226,224.606,44.215z M127.12,98.661
		c-0.047,0.046-0.093,0.094-0.141,0.141c-0.342,0.336-0.682,0.674-1.021,1.014C126.344,99.429,126.73,99.043,127.12,98.661z
		 M241.785,448.089c0.008,0,0.016,0,0.023,0c0.215-0.001,0.432,0.004,0.646,0.003C242.232,448.093,242.008,448.089,241.785,448.089z
		 M259.237,457.041c-0.215,0.026-0.43,0.054-0.645,0.078c-0.4,0.046-0.801,0.096-1.202,0.138c-0.235,0.025-0.474,0.043-0.71,0.067
		C257.535,457.238,258.387,457.143,259.237,457.041z"/>
</g>
<g>
	<g enable-background="new    ">
		<g enable-background="new    ">
			<defs>
				<path id="SVGID_8_" enable-background="new    " d="M220.984,54.466c8.697-0.702,17.393-1.404,26.089-2.107
					c-80.375,6.491-146.01,80.546-151.855,177.702c-6.507,108.15,63.485,204.599,156.018,215.013l-26.089,2.106
					C132.614,436.767,62.622,340.318,69.129,232.167C74.975,135.012,140.609,60.957,220.984,54.466z"/>
			</defs>
			<clipPath id="SVGID_1_">
				<use xlink:href="#SVGID_8_"  overflow="visible"/>
			</clipPath>
			<g clip-path="url(#SVGID_1_)" enable-background="new    ">
				<path fill="#858585" d="M220.984,54.466l26.089-2.107c-33.755,2.726-64.91,17.369-90.128,40.634L130.856,95.1
					C156.074,71.834,187.229,57.192,220.984,54.466"/>
				<path fill="#8A8A8A" d="M130.856,95.1l26.089-2.107c-4.511,4.161-8.831,8.598-12.942,13.292l-26.09,2.107
					C122.025,103.698,126.346,99.261,130.856,95.1"/>
				<path fill="#8F8F8F" d="M117.913,108.392l26.09-2.107c-3.187,3.638-6.248,7.431-9.175,11.369l-26.089,2.107
					C111.666,115.822,114.727,112.03,117.913,108.392"/>
				<path fill="#949494" d="M108.739,119.76l26.089-2.107c-2.512,3.38-4.924,6.867-7.232,10.455l-26.089,2.107
					C103.814,126.627,106.227,123.14,108.739,119.76"/>
				<path fill="#999999" d="M101.506,130.216l26.089-2.107c-2.095,3.258-4.104,6.599-6.022,10.02l-26.089,2.107
					C97.402,136.814,99.411,133.473,101.506,130.216"/>
				<path fill="#9E9E9E" d="M95.484,140.235l26.089-2.107c-1.799,3.208-3.518,6.485-5.154,9.829l-26.089,2.107
					C91.966,146.72,93.685,143.443,95.484,140.235"/>
				<path fill="#A3A3A3" d="M90.33,150.064l26.089-2.107c-1.563,3.195-3.051,6.45-4.46,9.764l-26.089,2.107
					C87.278,156.515,88.766,153.259,90.33,150.064"/>
				<path fill="#A8A8A8" d="M85.87,159.828l26.089-2.107c-1.353,3.183-2.634,6.419-3.839,9.706l-26.089,2.107
					C83.236,166.247,84.517,163.011,85.87,159.828"/>
				<path fill="#ADADAD" d="M82.03,169.534l26.089-2.107c-1.177,3.21-2.283,6.47-3.314,9.775l-26.089,2.107
					C79.747,176.004,80.853,172.745,82.03,169.534"/>
				<path fill="#B3B3B3" d="M78.716,179.31l26.089-2.107c-1.025,3.287-1.977,6.619-2.853,9.994l-26.09,2.107
					C76.738,185.929,77.69,182.596,78.716,179.31"/>
				<path fill="#B8B8B8" d="M75.862,189.304l26.09-2.107c-0.875,3.371-1.674,6.785-2.395,10.239l-26.09,2.107
					C74.188,196.088,74.988,192.675,75.862,189.304"/>
				<path fill="#BDBDBD" d="M73.468,199.542l26.089-2.107c-0.738,3.536-1.394,7.114-1.964,10.732l-26.09,2.107
					C72.074,206.657,72.73,203.079,73.468,199.542"/>
				<path fill="#C2C2C2" d="M71.503,210.275l26.09-2.107c-0.589,3.728-1.087,7.497-1.493,11.306l-26.089,2.107
					C70.416,217.772,70.915,214.002,71.503,210.275"/>
				<path fill="#C7C7C7" d="M70.01,221.581l26.089-2.107c-0.373,3.496-0.667,7.026-0.881,10.586
					c-0.029,0.482-0.057,0.965-0.083,1.448l-26.089,2.107c0.026-0.482,0.053-0.965,0.083-1.448
					C69.343,228.607,69.638,225.077,70.01,221.581"/>
				<path fill="#CCCCCC" d="M69.046,233.615l26.089-2.107c-0.237,4.395-0.348,8.771-0.336,13.121l-26.089,2.107
					C68.698,242.386,68.809,238.011,69.046,233.615"/>
				<path fill="#D1D1D1" d="M68.71,246.736l26.089-2.107c0.013,4.922,0.184,9.813,0.505,14.663l-26.089,2.107
					C68.894,256.549,68.724,251.658,68.71,246.736"/>
				<path fill="#D6D6D6" d="M69.216,261.399l26.089-2.107c0.383,5.776,0.981,11.496,1.786,17.149l-26.089,2.106
					C70.197,272.896,69.599,267.175,69.216,261.399"/>
				<path fill="#DBDBDB" d="M71.001,278.548l26.089-2.106c1.2,8.433,2.858,16.716,4.946,24.807l-26.089,2.107
					C73.86,295.264,72.201,286.981,71.001,278.548"/>
				<path fill="#E0E0E0" d="M75.948,303.355l26.089-2.107c5.14,19.92,12.881,38.681,22.785,55.675l-26.089,2.106
					C88.829,342.035,81.088,323.275,75.948,303.355"/>
				<path fill="#DBDBDB" d="M98.732,359.029l26.089-2.106c4.144,7.11,8.666,13.912,13.534,20.36l-26.089,2.106
					C107.398,372.941,102.876,366.141,98.732,359.029"/>
				<path fill="#D6D6D6" d="M112.267,379.39l26.089-2.106c3.357,4.446,6.88,8.726,10.556,12.821l-26.089,2.107
					C119.146,388.115,115.624,383.837,112.267,379.39"/>
				<path fill="#D1D1D1" d="M122.823,392.212l26.089-2.107c3.074,3.425,6.256,6.723,9.539,9.884l-26.089,2.106
					C129.079,398.934,125.897,395.637,122.823,392.212"/>
				<path fill="#CCCCCC" d="M132.362,402.095l26.089-2.106c2.92,2.811,5.92,5.514,8.997,8.104l-26.089,2.106
					C138.282,407.609,135.282,404.906,132.362,402.095"/>
				<path fill="#C7C7C7" d="M141.358,410.198l26.089-2.106c2.837,2.388,5.739,4.679,8.701,6.869l-26.089,2.106
					C147.097,414.878,144.195,412.587,141.358,410.198"/>
				<path fill="#C2C2C2" d="M150.06,417.067l26.089-2.106c2.751,2.033,5.556,3.979,8.41,5.834l-26.089,2.107
					C155.615,421.047,152.811,419.102,150.06,417.067"/>
				<path fill="#BDBDBD" d="M158.47,422.902l26.089-2.107c2.746,1.784,5.538,3.484,8.374,5.096l-26.089,2.107
					C164.007,426.386,161.215,424.687,158.47,422.902"/>
				<path fill="#B8B8B8" d="M166.843,427.998l26.089-2.107c2.771,1.575,5.583,3.066,8.435,4.47l-26.089,2.107
					C172.426,431.063,169.614,429.572,166.843,427.998"/>
				<path fill="#B3B3B3" d="M175.278,432.468l26.089-2.107c2.796,1.377,5.63,2.67,8.5,3.876l-26.089,2.107
					C180.908,435.137,178.074,433.844,175.278,432.468"/>
				<path fill="#ADADAD" d="M183.778,436.344l26.089-2.107c2.866,1.205,5.767,2.323,8.702,3.352l-26.089,2.107
					C189.545,438.666,186.644,437.548,183.778,436.344"/>
				<path fill="#A8A8A8" d="M192.48,439.695l26.089-2.107c2.962,1.039,5.959,1.987,8.987,2.841l-26.089,2.107
					C198.438,441.682,195.442,440.734,192.48,439.695"/>
				<path fill="#A3A3A3" d="M201.467,442.536l26.089-2.107c3.079,0.868,6.192,1.64,9.335,2.311l-26.089,2.107
					C207.659,444.176,204.547,443.404,201.467,442.536"/>
				<path fill="#9E9E9E" d="M210.802,444.847l26.089-2.107c3.317,0.709,6.669,1.306,10.052,1.787l-26.089,2.106
					C217.471,446.151,214.12,445.555,210.802,444.847"/>
				<path fill="#999999" d="M220.854,446.633l26.089-2.106c1.426,0.202,2.857,0.385,4.293,0.547l-26.089,2.106
					C223.711,447.019,222.28,446.836,220.854,446.633"/>
			</g>
		</g>
		<g>
			<polygon fill="#B2B2B2" points="123.176,276.467 173.189,351.663 119.018,345.566 			"/>
		</g>
		<g>
			<polygon fill="#EBEBEB" points="123.176,276.467 149.265,274.36 199.278,349.556 173.189,351.663 			"/>
		</g>
		<g>
			<polygon fill="#EBEBEB" points="131.901,131.45 157.991,129.343 260.924,284.088 234.834,286.195 			"/>
		</g>
		<g enable-background="new    ">
			<defs>
				<path id="SVGID_6_" enable-background="new    " d="M279.011,445.527c-8.696,0.702-17.393,1.404-26.09,2.106
					c-9.091,0.734-18.37,0.604-27.773-0.454l26.089-2.106C260.64,446.131,269.92,446.262,279.011,445.527z"/>
			</defs>
			<clipPath id="SVGID_3_">
				<use xlink:href="#SVGID_6_"  overflow="visible"/>
			</clipPath>
			<g clip-path="url(#SVGID_3_)" enable-background="new    ">
				<path fill="#999999" d="M225.147,447.18l26.089-2.106c2.185,0.246,4.362,0.441,6.533,0.588l-26.09,2.107
					C229.51,447.622,227.332,447.426,225.147,447.18"/>
				<path fill="#949494" d="M231.68,447.769l26.09-2.107c3.937,0.266,7.848,0.369,11.73,0.315l-26.089,2.106
					C239.528,448.137,235.616,448.034,231.68,447.769"/>
				<path fill="#8F8F8F" d="M243.411,448.083l26.089-2.106c3.191-0.045,6.362-0.195,9.511-0.449l-26.089,2.106
					C249.773,447.889,246.602,448.039,243.411,448.083"/>
			</g>
		</g>
		<g enable-background="new    ">
			<defs>
				<path id="SVGID_4_" enable-background="new    " d="M220.172,44.499c8.697-0.703,17.393-1.405,26.09-2.107
					c9.549-0.771,19.297-0.635,29.174,0.477l-26.089,2.107C239.47,43.864,229.722,43.728,220.172,44.499z"/>
			</defs>
			<clipPath id="SVGID_5_">
				<use xlink:href="#SVGID_4_"  overflow="visible"/>
			</clipPath>
			<g clip-path="url(#SVGID_5_)" enable-background="new    ">
				<path fill="#8F8F8F" d="M220.172,44.499l26.089-2.107c3.308-0.267,6.639-0.425,9.991-0.472l-26.089,2.107
					C226.812,44.073,223.48,44.231,220.172,44.499"/>
				<path fill="#949494" d="M230.164,44.027l26.089-2.107c4.078-0.057,8.188,0.052,12.322,0.331l-26.089,2.107
					C238.351,44.079,234.242,43.97,230.164,44.027"/>
				<path fill="#999999" d="M242.486,44.358l26.089-2.107c2.279,0.154,4.567,0.359,6.861,0.618l-26.089,2.107
					C247.053,44.717,244.766,44.512,242.486,44.358"/>
			</g>
		</g>
		<g>
			<polygon fill="#D8D8D8" points="346.169,301.563 372.258,299.456 368.101,368.556 342.012,370.662 			"/>
		</g>
		<g>
			<polygon fill="#B2B2B2" points="346.169,301.563 342.012,370.662 287.833,364.565 			"/>
		</g>
		<g>
			<polygon fill="#919191" points="350.568,228.446 376.657,226.339 256.597,356.007 230.507,358.113 			"/>
		</g>
		<g>
			<polygon fill="#D8D8D8" points="354.895,156.546 380.983,154.439 376.657,226.339 350.568,228.446 			"/>
		</g>
		<g enable-background="new    ">
			<defs>
				<path id="SVGID_2_" enable-background="new    " d="M279.819,455.494c-8.696,0.702-17.392,1.404-26.088,2.107
					c84.455-6.821,153.41-84.619,159.552-186.702c6.837-113.627-66.7-214.98-163.936-225.924l26.089-2.107
					c97.236,10.943,170.773,112.296,163.937,225.923C433.23,370.876,364.275,448.674,279.819,455.494z"/>
			</defs>
			<clipPath id="SVGID_7_">
				<use xlink:href="#SVGID_2_"  overflow="visible"/>
			</clipPath>
			<g clip-path="url(#SVGID_7_)" enable-background="new    ">
				<path fill="#999999" d="M249.348,44.976l26.089-2.107c1.51,0.17,3.014,0.361,4.512,0.575l-26.089,2.107
					C252.361,45.337,250.857,45.146,249.348,44.976"/>
				<path fill="#9E9E9E" d="M253.859,45.55l26.089-2.107c3.556,0.506,7.077,1.133,10.563,1.877l-26.089,2.107
					C260.936,46.684,257.414,46.056,253.859,45.55"/>
				<path fill="#A3A3A3" d="M264.422,47.428l26.089-2.107c3.303,0.706,6.573,1.516,9.809,2.428l-26.089,2.107
					C270.995,48.943,267.725,48.133,264.422,47.428"/>
				<path fill="#A8A8A8" d="M274.23,49.855l26.089-2.107c3.183,0.897,6.331,1.893,9.443,2.985l-26.089,2.107
					C280.561,51.749,277.412,50.753,274.23,49.855"/>
				<path fill="#ADADAD" d="M283.674,52.84l26.089-2.107c3.084,1.081,6.132,2.256,9.143,3.521l-26.089,2.107
					C289.806,55.097,286.757,53.922,283.674,52.84"/>
				<path fill="#B3B3B3" d="M292.816,56.362l26.089-2.107c3.016,1.268,5.994,2.626,8.932,4.073l-26.089,2.107
					C298.81,58.988,295.832,57.63,292.816,56.362"/>
				<path fill="#B8B8B8" d="M301.748,60.435l26.089-2.107c2.997,1.475,5.952,3.042,8.862,4.696l-26.089,2.107
					C307.699,63.477,304.744,61.91,301.748,60.435"/>
				<path fill="#BDBDBD" d="M310.61,65.131l26.089-2.107c2.98,1.694,5.914,3.48,8.799,5.354l-26.09,2.107
					C316.523,68.611,313.59,66.825,310.61,65.131"/>
				<path fill="#C2C2C2" d="M319.408,70.485l26.09-2.107c2.999,1.949,5.945,3.994,8.836,6.13l-26.089,2.107
					C325.354,74.479,322.407,72.435,319.408,70.485"/>
				<path fill="#C7C7C7" d="M328.245,76.616l26.089-2.107c3.113,2.301,6.162,4.708,9.143,7.218l-26.089,2.107
					C334.406,81.324,331.358,78.917,328.245,76.616"/>
				<path fill="#CCCCCC" d="M337.388,83.833l26.089-2.107c3.232,2.721,6.385,5.561,9.453,8.515l-26.09,2.107
					C343.772,89.395,340.62,86.554,337.388,83.833"/>
				<path fill="#D1D1D1" d="M346.84,92.348l26.09-2.107c3.45,3.321,6.793,6.786,10.023,10.385l-26.09,2.107
					C353.634,99.134,350.29,95.669,346.84,92.348"/>
				<path fill="#D6D6D6" d="M356.863,102.733l26.09-2.107c3.863,4.304,7.564,8.8,11.092,13.473l-26.089,2.107
					C364.428,111.533,360.727,107.037,356.863,102.733"/>
				<path fill="#DBDBDB" d="M367.956,116.206l26.089-2.107c5.115,6.775,9.867,13.922,14.221,21.394l-26.089,2.107
					C377.822,130.128,373.071,122.981,367.956,116.206"/>
				<path fill="#E0E0E0" d="M382.177,137.6l26.089-2.107c10.406,17.857,18.541,37.571,23.942,58.502l-26.089,2.107
					C400.718,175.17,392.583,155.457,382.177,137.6"/>
				<path fill="#DBDBDB" d="M406.119,196.102l26.089-2.107c2.194,8.502,3.937,17.205,5.197,26.066l-26.089,2.107
					C410.056,213.307,408.313,204.604,406.119,196.102"/>
				<path fill="#D6D6D6" d="M411.316,222.168l26.089-2.107c0.845,5.939,1.474,11.95,1.876,18.019l-26.089,2.107
					C412.789,234.118,412.161,228.107,411.316,222.168"/>
				<path fill="#D1D1D1" d="M413.192,240.187l26.089-2.107c0.339,5.097,0.518,10.235,0.531,15.407l-26.089,2.106
					C413.709,250.421,413.53,245.284,413.192,240.187"/>
				<path fill="#CCCCCC" d="M413.724,255.593l26.089-2.106c0.013,4.57-0.104,9.167-0.353,13.784l-26.09,2.107
					C413.619,264.76,413.735,260.163,413.724,255.593"/>
				<path fill="#C7C7C7" d="M413.37,269.378l26.09-2.107c-0.027,0.507-0.057,1.015-0.087,1.521
					c-0.226,3.741-0.535,7.45-0.927,11.124l-26.089,2.107c0.392-3.674,0.701-7.383,0.926-11.124
					C413.314,270.392,413.343,269.885,413.37,269.378"/>
				<path fill="#C2C2C2" d="M412.357,282.023l26.089-2.107c-0.426,4.003-0.95,7.964-1.568,11.881l-26.09,2.106
					C411.407,289.986,411.931,286.025,412.357,282.023"/>
				<path fill="#BDBDBD" d="M410.788,293.903l26.09-2.106c-0.601,3.802-1.289,7.562-2.064,11.276l-26.09,2.107
					C409.499,301.465,410.188,297.705,410.788,293.903"/>
				<path fill="#B8B8B8" d="M408.724,305.181l26.09-2.107c-0.758,3.63-1.597,7.217-2.516,10.758l-26.09,2.107
					C407.127,312.396,407.967,308.81,408.724,305.181"/>
				<path fill="#B3B3B3" d="M406.208,315.938l26.089-2.107c-0.92,3.547-1.92,7.048-2.997,10.501l-26.09,2.107
					C404.287,322.985,405.288,319.484,406.208,315.938"/>
				<path fill="#ADADAD" d="M403.21,326.439l26.09-2.107c-1.084,3.473-2.245,6.897-3.482,10.271l-26.09,2.107
					C400.965,333.336,402.127,329.912,403.21,326.439"/>
				<path fill="#A8A8A8" d="M399.728,336.71l26.09-2.107c-1.267,3.453-2.612,6.854-4.034,10.197l-26.089,2.106
					C397.116,343.563,398.461,340.163,399.728,336.71"/>
				<path fill="#A3A3A3" d="M395.694,346.906l26.089-2.106c-1.479,3.481-3.043,6.901-4.686,10.258l-26.089,2.106
					C392.651,353.809,394.214,350.388,395.694,346.906"/>
				<path fill="#9E9E9E" d="M391.009,357.164l26.089-2.106c-1.719,3.513-3.524,6.956-5.414,10.326l-26.09,2.106
					C387.483,364.121,389.29,360.678,391.009,357.164"/>
				<path fill="#999999" d="M385.594,367.49l26.09-2.106c-2.016,3.594-4.126,7.104-6.327,10.525l-26.09,2.107
					C381.468,374.595,383.578,371.084,385.594,367.49"/>
				<path fill="#949494" d="M379.267,378.017l26.09-2.107c-2.425,3.771-4.959,7.434-7.598,10.984L371.669,389
					C374.308,385.45,376.842,381.787,379.267,378.017"/>
				<path fill="#8F8F8F" d="M371.669,389l26.09-2.106c-3.075,4.137-6.291,8.121-9.639,11.942l-26.089,2.107
					C365.379,397.121,368.595,393.138,371.669,389"/>
				<path fill="#8A8A8A" d="M362.031,400.943l26.089-2.107c-4.319,4.932-8.858,9.593-13.597,13.965l-26.09,2.106
					C353.172,410.536,357.711,405.875,362.031,400.943"/>
				<path fill="#858585" d="M348.434,414.907l26.09-2.106c-26.498,24.444-59.233,39.829-94.704,42.693l-26.089,2.107
					C289.2,454.736,321.937,439.353,348.434,414.907"/>
			</g>
		</g>
		<g>
			<path fill="#B2B2B2" d="M249.348,44.976c97.235,10.943,170.772,112.296,163.936,225.924
				c-6.837,113.628-91.498,197.168-188.734,186.225C127.32,446.182,53.783,344.838,60.62,231.21S152.119,34.033,249.348,44.976z
				 M225.147,447.18c92.541,10.415,173.12-69.087,179.627-177.238c6.507-108.141-63.483-204.607-156.025-215.022
				c-92.533-10.414-173.113,69.107-179.62,177.248C62.622,340.318,132.614,436.767,225.147,447.18"/>
		</g>
		<g>
			<polygon fill="#B2B2B2" points="354.895,156.546 350.568,228.446 230.507,358.113 127.575,203.35 131.901,131.45 
				234.834,286.195 			"/>
		</g>
	</g>
</g>
</svg>
