<?xml version="1.0" encoding="utf-8"?>
<!-- Generator: Adobe Illustrator 16.0.0, SVG Export Plug-In . SVG Version: 6.00 Build 0)  -->
<!DOCTYPE svg PUBLIC "-//W3C//DTD SVG 1.1//EN" "http://www.w3.org/Graphics/SVG/1.1/DTD/svg11.dtd">
<svg version="1.1" id="레이어_1" xmlns="http://www.w3.org/2000/svg" xmlns:xlink="http://www.w3.org/1999/xlink" x="0px"
	 y="0px" width="1040.56px" height="793px" viewBox="0 0 1040.56 793" enable-background="new 0 0 1040.56 793"
	 xml:space="preserve">
<g>
	<rect y="-4" fill="#FAFAFA" width="1041" height="793"/>
</g>
<g>
	<path d="M708.736,246.624v-18.506l-4.932,2.233v-4.119l5.599-2.553h3.974v22.944H708.736z"/>
	<path d="M729.877,246.624l-5.104-13.372v13.372h-4.642V223.68h4.845l6.874,17.984l6.875-17.984h4.844v22.944h-4.641v-13.372
		l-5.105,13.372H729.877z"/>
	<path d="M754.176,223.68h16.941v3.975h-6.092v18.97h-4.787v-18.97h-6.063V223.68z"/>
	<path d="M788.459,243.927c-1.479,1.973-3.713,3.104-7.049,3.104c-3.365,0-5.569-1.131-7.049-3.104
		c-1.711-2.263-2.205-5.366-2.205-8.789c0-3.394,0.494-6.498,2.205-8.76c1.479-1.973,3.684-3.104,7.049-3.104
		c3.336,0,5.569,1.132,7.049,3.104c1.711,2.262,2.176,5.366,2.176,8.76C790.635,238.561,790.17,241.664,788.459,243.927z
		 M778.104,241.433c0.695,1.044,1.799,1.595,3.307,1.595s2.61-0.551,3.307-1.595c0.813-1.189,1.131-2.901,1.131-6.295
		c0-3.365-0.318-5.076-1.131-6.266c-0.696-1.044-1.799-1.596-3.307-1.596s-2.611,0.552-3.307,1.596
		c-0.813,1.189-1.16,2.9-1.16,6.266C776.943,238.531,777.291,240.243,778.104,241.433z"/>
	<path d="M804.204,234.848l7.28,11.776h-5.25l-5.889-9.775h-2.029v9.775h-4.758V223.68h4.758v9.195h2.029l5.076-9.195h5.193
		L804.204,234.848z"/>
	<path d="M813.133,223.68h14.242v3.975h-9.484v5.221h8.296v3.974h-8.296v5.802h9.63v3.974h-14.388V223.68z"/>
	<path d="M835.088,231.918v14.706h-4.758V223.68h4.814l7.281,14.735V223.68h4.786v22.944h-4.844L835.088,231.918z"/>
	<path d="M859.293,222.979h22.574v5.369h-22.574V222.979z M859.293,232.528h22.574v5.413h-22.574V232.528z"/>
	<path d="M915.041,236.445c0-3.653-1.848-5.369-5.191-5.369h-3.081v-5.589h3.081c2.596,0,4.268-1.452,4.268-4.4
		c0-2.597-1.496-4.137-3.784-4.137c-2.245,0-3.784,1.54-3.784,4.137v0.439h-6.865v-0.924c0-5.368,3.961-9.373,10.649-9.373
		c6.733,0,10.693,4.005,10.693,9.373c0,3.917-2.112,6.557-5.237,7.569c4.006,1.012,6.25,4.093,6.25,8.625
		c0,6.381-4.709,10.474-11.706,10.474c-6.909,0-11.706-4.093-11.706-10.474v-0.836h7.041v0.484c0,3.256,1.849,5.104,4.665,5.104
		S915.041,239.701,915.041,236.445z"/>
	<path d="M930.016,238.094h-4.272v-2.904h10.921c1.271,0,2.352-0.024,3.385-0.288v2.761c-1.009,0.336-2.186,0.432-3.529,0.432
		h-2.855v3.288h-3.648V238.094z M926.512,230.221c0-1.248,0.479-2.256,1.319-2.928c1.152-0.937,2.929-1.393,4.944-1.393
		c1.969,0,3.744,0.456,4.896,1.393c0.84,0.672,1.368,1.68,1.368,2.928c0,1.272-0.528,2.232-1.368,2.929
		c-1.152,0.96-2.928,1.368-4.896,1.368c-2.016,0-3.792-0.408-4.944-1.368C926.991,232.453,926.512,231.493,926.512,230.221z
		 M944.92,245.414v3.001h-17.186v-6.457h3.648v3.456H944.92z M929.896,230.221c0,0.408,0.168,0.744,0.479,0.984
		c0.457,0.408,1.344,0.576,2.4,0.576s1.896-0.168,2.377-0.576c0.287-0.24,0.479-0.576,0.479-0.984c0-0.432-0.192-0.768-0.479-1.008
		c-0.48-0.384-1.32-0.576-2.377-0.576s-1.943,0.192-2.4,0.576C930.063,229.453,929.896,229.789,929.896,230.221z M944.561,226.021
		v16.874h-3.648v-1.345H936.4v-2.736h4.512v-12.793H944.561z"/>
</g>
<g>
	<polygon fill="#6A6EB0" points="59,418 59,159 575.592,159 	"/>
</g>
<g>
	<g>
		<rect x="977" y="706" fill="#000222" width="12" height="12"/>
	</g>
	<g>
		<path fill="#000222" d="M965,718h-12v-12h12V718z M941,718h-12v-12h12V718z M917,718h-12v-12h12V718z M893,718h-12v-12h12V718z
			 M869,718h-12v-12h12V718z M845,718h-12v-12h12V718z M821,718h-12v-12h12V718z M797,718h-12v-12h12V718z M773,718h-12v-12h12V718z
			 M749,718h-12v-12h12V718z M725,718h-12v-12h12V718z M701,718h-12v-12h12V718z M677,718h-12v-12h12V718z M653,718h-12v-12h12V718z
			 M629,718h-12v-12h12V718z M605,718h-12v-12h12V718z M581,718h-12v-12h12V718z M557,718h-12v-12h12V718z M533,718h-12v-12h12V718z
			 M509,718h-12v-12h12V718z M485,718h-12v-12h12V718z M461,718h-12v-12h12V718z M437,718h-12v-12h12V718z M413,718h-12v-12h12V718z
			 M389,718h-12v-12h12V718z M365,718h-12v-12h12V718z M341,718h-12v-12h12V718z M317,718h-12v-12h12V718z M293,718h-12v-12h12V718z
			 M269,718h-12v-12h12V718z M245,718h-12v-12h12V718z M221,718h-12v-12h12V718z M197,718h-12v-12h12V718z M173,718h-12v-12h12V718z
			 M149,718h-12v-12h12V718z M125,718h-12v-12h12V718z M101,718H89v-12h12V718z M77,718h-7v-12h7V718z"/>
	</g>
	<g>
		<rect x="52" y="706" fill="#000222" width="12" height="12"/>
	</g>
	<g>
		<path fill="#000222" d="M64,693H52v-12h12V693z M64,669H52v-12h12V669z M64,645H52v-12h12V645z M64,621H52v-12h12V621z M64,597H52
			v-12h12V597z M64,573H52v-12h12V573z M64,549H52v-12h12V549z M64,525H52v-12h12V525z M64,501H52v-12h12V501z M64,477H52v-12h12
			V477z M64,453H52v-12h12V453z"/>
	</g>
	<g>
		<polygon fill="#000222" points="64,424 52,424 52,414.904 60.491,410.275 66.235,420.811 64,422.029 		"/>
	</g>
	<g>
		<path fill="#000222" d="M76.629,415.742l-5.381-10.727l10.756-5.396l5.381,10.727L76.629,415.742z M98.143,404.948l-5.381-10.727
			l10.756-5.396l5.381,10.727L98.143,404.948z M119.655,394.154l-5.381-10.727l10.757-5.396l5.381,10.727L119.655,394.154z
			 M141.168,383.36l-5.381-10.727l10.756-5.396l5.381,10.727L141.168,383.36z M162.682,372.566l-5.381-10.727l10.756-5.396
			l5.381,10.727L162.682,372.566z M184.194,361.772l-5.381-10.727l10.757-5.396l5.381,10.727L184.194,361.772z M205.708,350.979
			l-5.381-10.727l10.756-5.396l5.381,10.727L205.708,350.979z M227.221,340.185l-5.381-10.727l10.756-5.396l5.381,10.727
			L227.221,340.185z M248.733,329.391l-5.381-10.727l10.757-5.396l5.381,10.727L248.733,329.391z M270.247,318.597l-5.381-10.727
			l10.756-5.396l5.381,10.727L270.247,318.597z M291.76,307.803l-5.381-10.726l10.756-5.396l5.381,10.726L291.76,307.803z
			 M313.273,297.009l-5.382-10.726l10.756-5.397l5.382,10.726L313.273,297.009z M334.786,286.215l-5.382-10.726l10.756-5.397
			l5.382,10.726L334.786,286.215z M356.298,275.421l-5.381-10.726l10.756-5.397l5.381,10.726L356.298,275.421z M377.812,264.627
			l-5.382-10.726l10.756-5.397l5.382,10.726L377.812,264.627z M399.325,253.833l-5.382-10.726l10.757-5.397l5.381,10.726
			L399.325,253.833z M420.838,243.039l-5.382-10.726l10.757-5.397l5.381,10.726L420.838,243.039z M442.351,232.245l-5.381-10.726
			l10.757-5.397l5.381,10.726L442.351,232.245z M463.863,221.451l-5.381-10.726l10.757-5.397l5.381,10.726L463.863,221.451z
			 M485.377,210.657l-5.381-10.726l10.756-5.397l5.381,10.726L485.377,210.657z M506.89,199.863l-5.381-10.726l10.757-5.397
			l5.381,10.726L506.89,199.863z M528.402,189.069l-5.381-10.726l10.757-5.397l5.381,10.726L528.402,189.069z M549.916,178.276
			l-5.382-10.726l10.757-5.397l5.381,10.726L549.916,178.276z M571.429,167.299l-5.381-10.634l6.759-3.346l7.315-0.158L580.12,165
			h-4.474L571.429,167.299z M965.224,165.462l-12.034-0.003l0.003-12l12.033,0.003L965.224,165.462z M941.154,165.457l-12.034-0.003
			l0.002-12l12.035,0.003L941.154,165.457z M917.085,165.45l-12.033-0.003l0.002-12l12.035,0.003L917.085,165.45z M893.017,165.444
			l-12.035-0.003l0.004-12l12.033,0.003L893.017,165.444z M868.948,165.438l-12.035-0.003l0.003-12l12.034,0.003L868.948,165.438z
			 M844.878,165.433l-12.033-0.003l0.002-12l12.034,0.003L844.878,165.433z M820.809,165.426l-12.033-0.003l0.002-12l12.035,0.003
			L820.809,165.426z M796.741,165.42l-12.036-0.003l0.004-12l12.035,0.003L796.741,165.42z M772.672,165.415l-12.035-0.003l0.004-12
			l12.033,0.003L772.672,165.415z M748.602,165.409l-12.033-0.003l0.002-12l12.035,0.003L748.602,165.409z M724.533,165.402
			l-12.035-0.003l0.003-12l12.036,0.003L724.533,165.402z M700.465,165.396l-12.035-0.003l0.004-12l12.033,0.003L700.465,165.396z
			 M676.396,165.391l-12.034-0.003l0.003-12l12.033,0.003L676.396,165.391z M652.326,165.385l-12.034-0.003l0.002-12l12.035,0.003
			L652.326,165.385z M628.257,165.378l-12.033-0.003l0.002-12l12.035,0.003L628.257,165.378z M604.188,165.373l-12.035-0.003
			l0.004-12l12.033,0.003L604.188,165.373z"/>
	</g>
	<g>
		<polygon fill="#000222" points="982.766,165.462 976.766,165.228 977.234,153.236 989,153.697 989,165 982.783,165 		"/>
	</g>
	<g>
		<path fill="#000222" d="M989,693h-12v-12h12V693z M989,669h-12v-12h12V669z M989,645h-12v-12h12V645z M989,621h-12v-12h12V621z
			 M989,597h-12v-12h12V597z M989,573h-12v-12h12V573z M989,549h-12v-12h12V549z M989,525h-12v-12h12V525z M989,501h-12v-12h12V501z
			 M989,477h-12v-12h12V477z M989,453h-12v-12h12V453z M989,429h-12v-12h12V429z M989,405h-12v-12h12V405z M989,381h-12v-12h12V381z
			 M989,357h-12v-12h12V357z M989,333h-12v-12h12V333z M989,309h-12v-12h12V309z M989,285h-12v-12h12V285z M989,261h-12v-12h12V261z
			 M989,237h-12v-12h12V237z M989,213h-12v-12h12V213z M989,189h-12v-12h12V189z"/>
	</g>
</g>
<g>
	<path fill="#050505" d="M480.549,282.709v-13.785h-3.803v-4.248h23.451v4.248h-3.938v7.639c-0.045,2.169-0.227,4.429-0.725,6.146
		h1.358c3.622,0,6.384-0.678,8.014-1.854v-16.678h4.935v11.164h5.976v4.339h-5.976v13.197h-4.935v-8.045
		c-1.721,1.401-4.663,2.034-9.281,2.034h-19.377v-4.158H480.549z M484.442,291.432v9.672h26.168v4.249h-31.058v-13.921H484.442z
		 M491.46,276.2v-7.276h-6.066v13.785h5.478C491.324,280.901,491.46,278.506,491.46,276.2z"/>
	<path fill="#050505" d="M536.824,264.901v37.513H521.25v-37.513H536.824z M526.004,298.257h6.066v-29.152h-6.066V298.257z
		 M554.933,305.172h-4.799v-20.384h-4.617v19.886h-4.709v-40.225h4.709v16.045h4.617v-16.316h4.799V305.172z"/>
	<path fill="#050505" d="M574.944,262.009v4.339c-4.256,0-6.247,2.351-6.247,18.576c0,16.271,1.991,18.575,6.247,18.575v4.384
		c-7.561,0-11.228-3.66-11.228-22.959C563.717,265.67,567.384,262.009,574.944,262.009z"/>
	<path fill="#050505" d="M596.947,283.975v0.587h-4.98v-0.633c0-1.853-1.539-3.39-4.481-3.39c-2.988,0-4.527,1.537-4.527,3.345
		c0,2.757,2.264,2.803,6.972,3.797c5.479,0.994,7.968,3.345,7.968,7.729c0,4.339-3.893,7.638-10.005,7.638
		c-6.066,0-10.051-3.209-10.051-7.638v-0.724h4.98v0.724c0,2.305,2.037,3.661,5.07,3.661c2.988,0,5.025-1.401,5.025-3.525
		c0-2.938-2.354-3.255-6.927-4.203c-5.479-0.949-7.968-3.164-7.968-7.367c0-4.339,3.485-7.412,9.462-7.412
		C593.416,276.563,596.947,279.545,596.947,283.975z"/>
	<path fill="#050505" d="M606.591,291.342c0.181,4.745,2.037,7.547,6.293,7.547c3.169,0,5.07-1.536,5.433-4.022h5.115
		c-0.814,5.107-4.481,8.181-10.548,8.181c-7.606,0-11.318-4.79-11.318-13.242c0-8.406,3.712-13.242,11.228-13.242
		c7.47,0,11.183,4.836,11.183,13.242c0,0.542,0,1.039-0.046,1.537H606.591z M606.636,287.545h12.269
		c-0.361-4.249-2.127-6.825-6.111-6.825C608.719,280.72,606.998,283.296,606.636,287.545z"/>
	<path fill="#050505" d="M628.82,302.46v-35.435h4.979v35.435H628.82z"/>
	<path fill="#050505" d="M639.686,302.46v-35.435h4.98v35.435H639.686z"/>
	<path fill="#050505" d="M648.514,307.883v-4.384c4.301,0,6.293-2.305,6.293-18.575c0-16.226-1.992-18.576-6.293-18.576v-4.339
		c7.606,0,11.318,3.661,11.318,22.915C659.832,304.223,656.12,307.883,648.514,307.883z"/>
	<path fill="#050505" d="M679.843,284.155v-4.158h36.987v4.158h-16.117v3.525h13.446v10.938h-26.711v2.982h27.616v3.978h-32.506
		v-10.893h26.666v-3.027h-26.666v-3.978h13.311v-3.525H679.843z M714.159,264.676v12.429h-31.601v-12.429H714.159z M687.448,273.127
		h21.776v-4.429h-21.776V273.127z"/>
	<path fill="#050505" d="M742.545,287.003h-18.426v-13.288h15.076v-4.927h-15.076v-4.112h19.965v13.151h-15.03v5.107h14.759
		c3.713,0,6.248-0.497,8.014-1.808v-16.949h4.935v5.243h5.75v4.294h-5.75v4.972h5.75v4.339h-5.75v6.237h-4.935v-4.294
		C750.105,286.37,747.163,287.003,742.545,287.003z M725.93,298.347c0-2.44,1.223-4.158,3.306-5.424
		c2.807-1.717,7.243-2.44,12.631-2.44c5.342,0,9.778,0.724,12.586,2.44c2.082,1.266,3.305,2.983,3.305,5.424
		c0,2.351-1.223,4.158-3.305,5.424c-2.808,1.672-7.244,2.351-12.586,2.351c-5.388,0-9.824-0.679-12.631-2.351
		C727.152,302.505,725.93,300.697,725.93,298.347z M730.865,298.347c0,0.813,0.452,1.582,1.357,2.124
		c1.812,1.04,5.207,1.492,9.644,1.492c4.481,0,7.787-0.452,9.598-1.492c0.905-0.542,1.358-1.311,1.358-2.124
		c0-0.903-0.453-1.627-1.358-2.124c-1.811-1.085-5.116-1.537-9.598-1.537c-4.437,0-7.832,0.452-9.644,1.537
		C731.317,296.72,730.865,297.443,730.865,298.347z"/>
	<path fill="#050505" d="M790.671,285.827h-3.667v-4.339h3.667c3.169,0,5.206-2.169,5.206-5.288c0-3.254-2.219-5.333-5.297-5.333
		c-3.215,0-5.297,2.079-5.297,5.333v0.362h-5.116v-0.769c0-5.333,3.849-9.355,10.413-9.355s10.367,4.022,10.367,9.355
		c0,3.661-2.082,6.779-5.387,7.818c3.893,1.13,6.429,4.204,6.429,8.949c0,6.418-4.754,10.485-11.409,10.485
		s-11.499-4.067-11.499-10.621v-0.542h5.161v0.271c0,4.157,2.671,6.463,6.338,6.463c3.576,0,6.293-2.26,6.293-6.373
		C796.873,288.223,794.292,285.827,790.671,285.827z"/>
	<path fill="#050505" d="M826.663,299.884c-1.946,2.079-4.708,3.163-8.104,3.163s-6.248-1.084-8.149-3.163
		c-2.535-2.803-3.622-7.051-3.622-15.142c0-8.09,1.087-12.338,3.622-15.141c1.901-2.079,4.754-3.163,8.149-3.163
		s6.157,1.084,8.104,3.163c2.535,2.803,3.622,7.051,3.622,15.141C830.285,292.833,829.198,297.081,826.663,299.884z
		 M823.132,272.901c-1.132-1.356-2.581-2.079-4.572-2.079c-1.992,0-3.486,0.723-4.618,2.079c-1.494,1.853-2.082,5.107-2.082,11.841
		c0,6.734,0.588,9.989,2.082,11.842c1.132,1.356,2.626,2.079,4.618,2.079c1.991,0,3.44-0.723,4.572-2.079
		c1.494-1.853,2.037-5.107,2.037-11.842C825.169,278.009,824.626,274.754,823.132,272.901z"/>
	<path fill="#050505" d="M854.552,299.884c-1.946,2.079-4.708,3.163-8.104,3.163s-6.248-1.084-8.149-3.163
		c-2.535-2.803-3.622-7.051-3.622-15.142c0-8.09,1.087-12.338,3.622-15.141c1.901-2.079,4.754-3.163,8.149-3.163
		s6.157,1.084,8.104,3.163c2.535,2.803,3.622,7.051,3.622,15.141C858.174,292.833,857.087,297.081,854.552,299.884z
		 M851.021,272.901c-1.132-1.356-2.581-2.079-4.572-2.079c-1.992,0-3.486,0.723-4.618,2.079c-1.494,1.853-2.082,5.107-2.082,11.841
		c0,6.734,0.588,9.989,2.082,11.842c1.132,1.356,2.626,2.079,4.618,2.079c1.991,0,3.44-0.723,4.572-2.079
		c1.494-1.853,2.037-5.107,2.037-11.842C853.058,278.009,852.515,274.754,851.021,272.901z"/>
	<path fill="#050505" d="M864.422,275.206c0-3.978,1.268-7.005,3.576-8.949c1.766-1.536,4.256-2.35,7.199-2.35
		c2.987,0,5.433,0.813,7.198,2.35c1.901,1.582,3.078,3.842,3.44,6.734h7.38v-8.813h4.935v23.684h-4.935v-10.666h-7.335
		c-0.362,3.027-1.539,5.378-3.485,7.005c-1.766,1.491-4.211,2.351-7.198,2.351c-2.943,0-5.434-0.859-7.199-2.351
		C865.689,282.257,864.422,279.184,864.422,275.206z M893.216,305.85v-11.028h-26.259v-4.294h31.193v15.322H893.216z
		 M869.221,275.206c0,2.576,0.725,4.475,1.992,5.649c1.041,0.949,2.354,1.492,3.984,1.492c1.629,0,2.987-0.543,3.983-1.492
		c1.313-1.175,1.992-3.073,1.992-5.649c0-2.485-0.679-4.429-1.992-5.649c-0.996-0.904-2.354-1.401-3.983-1.401
		c-1.63,0-2.943,0.497-3.984,1.401C869.945,270.777,869.221,272.721,869.221,275.206z"/>
	<path fill="#050505" d="M918.705,277.692v-8.452h-10.231v-4.339h15.075v12.52c0,13.152-4.481,22.191-15.528,25.355v-4.746
		C914.721,295.681,918.705,288.9,918.705,277.692z M942.156,305.172h-4.799v-20.384h-4.618v19.886h-4.708v-40.225h4.708v16.045
		h4.618v-16.316h4.799V305.172z"/>
</g>
<g>
	<path fill="#050505" d="M292.084,403.841v-36.876l-9.844,4.45v-8.207l11.176-5.087h7.934v45.72H292.084z"/>
	<path fill="#050505" d="M331.813,403.841v-45.72h17.604c9.729,0,14.65,4.277,14.65,12.485c0,4.797-2.432,8.034-6.543,9.421
		c4.864,1.329,7.875,5.317,7.875,10.636c0,8.612-5.038,13.178-14.998,13.178H331.813z M347.912,365.866h-6.543v10.751h6.543
		c4.459,0,6.775-1.271,6.775-5.375C354.687,367.196,352.371,365.866,347.912,365.866z M348.954,384.189h-7.586v11.964h7.586
		c4.69,0,6.891-1.676,6.891-6.011S353.645,384.189,348.954,384.189z"/>
	<path fill="#050505" d="M367.142,358.121h33.817v7.919h-12.16v37.801h-9.555V366.04h-12.103V358.121z"/>
	<path fill="#050505" d="M407.449,363.497c2.953-3.931,7.354-6.186,14.072-6.186c10.885,0,17.371,6.358,17.951,16.416h-9.498
		c-0.348-5.26-3.242-8.439-8.453-8.439c-3.012,0-5.213,1.099-6.602,3.18c-1.621,2.369-2.316,5.779-2.316,12.484
		c0,6.763,0.695,10.173,2.316,12.543c1.389,2.081,3.59,3.179,6.602,3.179c5.211,0,8.105-3.179,8.453-8.438h9.498
		c-0.58,10.057-7.066,16.415-17.951,16.415c-6.719,0-11.119-2.254-14.072-6.185c-3.416-4.509-4.4-10.693-4.4-17.514
		C403.049,374.189,404.033,368.005,407.449,363.497z"/>
	<path fill="#050505" d="M461.193,372.745H490.9v7.051h-29.707V372.745z M461.193,385.287H490.9v7.109h-29.707V385.287z"/>
	<path fill="#050505" d="M538.504,382.34l-12.219,14.045h17.488v7.456h-29.418v-6.82l16.504-19.016
		c2.143-2.486,2.953-4.336,2.953-6.879c0-3.93-1.91-6.3-5.385-6.3s-5.443,2.312-5.443,6.3v1.677h-9.266v-1.677
		c0-7.571,5.213-13.814,14.709-13.814s14.65,6.243,14.65,13.814C543.078,375.808,541.979,378.352,538.504,382.34z"/>
	<path fill="#050505" d="M560.57,403.841c0,4.683-3.068,8.093-9.496,8.266v-4.104c3.127-0.115,4.807-1.503,4.807-4.162h-4.807
		v-9.421h9.496V403.841z"/>
	<path fill="#050505" d="M594.102,400.315c-2.49,2.89-6.197,4.335-11.004,4.335c-4.805,0-8.512-1.445-11.002-4.335
		c-3.301-3.757-4.807-9.479-4.807-19.363c0-9.826,1.506-15.548,4.807-19.305c2.49-2.891,6.197-4.336,11.002-4.336
		c4.807,0,8.514,1.445,11.004,4.336c3.242,3.757,4.805,9.479,4.805,19.305C598.906,390.836,597.344,396.559,594.102,400.315z
		 M578.523,394.882c1.1,1.561,2.549,2.255,4.574,2.255c1.969,0,3.418-0.694,4.576-2.255c1.504-2.196,1.969-6.185,1.969-13.93
		c0-7.688-0.465-11.676-1.969-13.872c-1.158-1.561-2.607-2.254-4.576-2.254c-2.025,0-3.475,0.693-4.574,2.254
		c-1.506,2.196-1.969,6.185-1.969,13.872C576.555,388.697,577.018,392.686,578.523,394.882z"/>
	<path fill="#050505" d="M630.471,400.315c-2.49,2.89-6.197,4.335-11.004,4.335c-4.805,0-8.512-1.445-11.002-4.335
		c-3.301-3.757-4.807-9.479-4.807-19.363c0-9.826,1.506-15.548,4.807-19.305c2.49-2.891,6.197-4.336,11.002-4.336
		c4.807,0,8.514,1.445,11.004,4.336c3.242,3.757,4.805,9.479,4.805,19.305C635.275,390.836,633.713,396.559,630.471,400.315z
		 M614.893,394.882c1.1,1.561,2.549,2.255,4.574,2.255c1.969,0,3.418-0.694,4.576-2.255c1.504-2.196,1.969-6.185,1.969-13.93
		c0-7.688-0.465-11.676-1.969-13.872c-1.158-1.561-2.607-2.254-4.576-2.254c-2.025,0-3.475,0.693-4.574,2.254
		c-1.506,2.196-1.969,6.185-1.969,13.872C612.924,388.697,613.387,392.686,614.893,394.882z"/>
	<path fill="#050505" d="M666.84,400.315c-2.49,2.89-6.195,4.335-11.002,4.335s-8.512-1.445-11.002-4.335
		c-3.301-3.757-4.807-9.479-4.807-19.363c0-9.826,1.506-15.548,4.807-19.305c2.49-2.891,6.195-4.336,11.002-4.336
		s8.512,1.445,11.002,4.336c3.242,3.757,4.807,9.479,4.807,19.305C671.646,390.836,670.082,396.559,666.84,400.315z
		 M651.264,394.882c1.1,1.561,2.547,2.255,4.574,2.255c1.969,0,3.416-0.694,4.574-2.255c1.506-2.196,1.969-6.185,1.969-13.93
		c0-7.688-0.463-11.676-1.969-13.872c-1.158-1.561-2.605-2.254-4.574-2.254c-2.027,0-3.475,0.693-4.574,2.254
		c-1.506,2.196-1.969,6.185-1.969,13.872C649.295,388.697,649.758,392.686,651.264,394.882z"/>
	<path fill="#050505" d="M687.863,403.841c0,4.683-3.068,8.093-9.496,8.266v-4.104c3.127-0.115,4.807-1.503,4.807-4.162h-4.807
		v-9.421h9.496V403.841z"/>
	<path fill="#050505" d="M721.395,400.315c-2.49,2.89-6.197,4.335-11.004,4.335c-4.805,0-8.512-1.445-11.002-4.335
		c-3.301-3.757-4.807-9.479-4.807-19.363c0-9.826,1.506-15.548,4.807-19.305c2.49-2.891,6.197-4.336,11.002-4.336
		c4.807,0,8.514,1.445,11.004,4.336c3.242,3.757,4.805,9.479,4.805,19.305C726.199,390.836,724.637,396.559,721.395,400.315z
		 M705.816,394.882c1.1,1.561,2.549,2.255,4.574,2.255c1.969,0,3.418-0.694,4.576-2.255c1.504-2.196,1.969-6.185,1.969-13.93
		c0-7.688-0.465-11.676-1.969-13.872c-1.158-1.561-2.607-2.254-4.576-2.254c-2.025,0-3.475,0.693-4.574,2.254
		c-1.506,2.196-1.969,6.185-1.969,13.872C703.848,388.697,704.311,392.686,705.816,394.882z"/>
	<path fill="#050505" d="M757.764,400.315c-2.49,2.89-6.195,4.335-11.002,4.335s-8.512-1.445-11.002-4.335
		c-3.301-3.757-4.807-9.479-4.807-19.363c0-9.826,1.506-15.548,4.807-19.305c2.49-2.891,6.195-4.336,11.002-4.336
		s8.512,1.445,11.002,4.336c3.242,3.757,4.807,9.479,4.807,19.305C762.57,390.836,761.006,396.559,757.764,400.315z
		 M742.188,394.882c1.1,1.561,2.547,2.255,4.574,2.255c1.969,0,3.416-0.694,4.574-2.255c1.506-2.196,1.969-6.185,1.969-13.93
		c0-7.688-0.463-11.676-1.969-13.872c-1.158-1.561-2.605-2.254-4.574-2.254c-2.027,0-3.475,0.693-4.574,2.254
		c-1.506,2.196-1.969,6.185-1.969,13.872C740.219,388.697,740.682,392.686,742.188,394.882z"/>
	<path fill="#050505" d="M794.133,400.315c-2.49,2.89-6.195,4.335-11.002,4.335s-8.512-1.445-11.002-4.335
		c-3.301-3.757-4.807-9.479-4.807-19.363c0-9.826,1.506-15.548,4.807-19.305c2.49-2.891,6.195-4.336,11.002-4.336
		s8.512,1.445,11.002,4.336c3.242,3.757,4.807,9.479,4.807,19.305C798.939,390.836,797.375,396.559,794.133,400.315z
		 M778.557,394.882c1.1,1.561,2.547,2.255,4.574,2.255c1.969,0,3.416-0.694,4.574-2.255c1.506-2.196,1.969-6.185,1.969-13.93
		c0-7.688-0.463-11.676-1.969-13.872c-1.158-1.561-2.605-2.254-4.574-2.254c-2.027,0-3.475,0.693-4.574,2.254
		c-1.506,2.196-1.969,6.185-1.969,13.872C776.588,388.697,777.051,392.686,778.557,394.882z"/>
	<path fill="#050505" d="M841.217,403.841l-10.191-26.646v26.646h-9.266v-45.72h9.67l13.725,35.836l13.725-35.836h9.67v45.72h-9.266
		v-26.646l-10.191,26.646H841.217z"/>
	<path fill="#050505" d="M872.725,358.121h33.818v7.919h-12.16v37.801h-9.555V366.04h-12.104V358.121z"/>
	<path fill="#050505" d="M913.033,363.497c2.953-3.931,7.354-6.186,14.07-6.186c10.887,0,17.373,6.358,17.951,16.416h-9.496
		c-0.348-5.26-3.242-8.439-8.455-8.439c-3.01,0-5.211,1.099-6.602,3.18c-1.621,2.369-2.316,5.779-2.316,12.484
		c0,6.763,0.695,10.173,2.316,12.543c1.391,2.081,3.592,3.179,6.602,3.179c5.213,0,8.107-3.179,8.455-8.438h9.496
		c-0.578,10.057-7.064,16.415-17.951,16.415c-6.717,0-11.117-2.254-14.07-6.185c-3.416-4.509-4.402-10.693-4.402-17.514
		C908.631,374.189,909.617,368.005,913.033,363.497z"/>
</g>
<g>
	<path fill="#050505" d="M75.193,744.642c-0.881,2.288-3.217,4.137-5.773,4.973v-2.2c2.402-1.101,4.583-3.125,4.583-8.691v-7.481
		h2.38v7.481c0,5.566,2.181,7.569,4.561,8.691v2.2C78.433,748.756,76.097,746.908,75.193,744.642z M86.254,731v19.956h-2.402V731
		H86.254z"/>
	<path fill="#050505" d="M94.833,745.323c-0.793,1.761-2.468,3.367-4.495,4.291v-2.223c2.005-1.21,3.305-3.234,3.305-7.657v-8.493
		H96v8.493c0,4.445,1.3,6.426,3.327,7.68v2.2C97.3,748.712,95.647,747.062,94.833,745.323z M103.315,750.715h-2.335v-10.386h-3.019
		v-2.068h3.019v-7.129h2.335V750.715z M107.722,750.956h-2.336V731h2.336V750.956z"/>
	<path fill="#050505" d="M112.245,740.438c0-4.796,0.419-7.238,1.564-8.493c0.595-0.616,1.366-0.945,2.424-0.945
		s1.851,0.329,2.424,0.945c1.036,1.122,1.476,3.169,1.564,6.976h2.181v-7.789h2.335v19.583h-2.335v-9.704h-2.159
		c-0.044,4.423-0.463,6.711-1.586,7.921c-0.573,0.595-1.366,0.902-2.424,0.902s-1.829-0.308-2.424-0.902
		C112.664,747.678,112.245,745.235,112.245,740.438z M114.537,740.438c0,4.115,0.176,6.096,0.793,6.909
		c0.22,0.309,0.529,0.44,0.903,0.44c0.396,0,0.683-0.132,0.925-0.44c0.617-0.813,0.771-2.794,0.771-6.909
		c0-4.114-0.154-6.116-0.771-6.908c-0.242-0.309-0.529-0.463-0.925-0.463c-0.375,0-0.683,0.154-0.903,0.463
		C114.713,734.322,114.537,736.324,114.537,740.438z M128.881,750.956h-2.335V731h2.335V750.956z"/>
	<path fill="#050505" d="M147.86,733.464v14.06h1.807c1.741,0,3.063-0.33,3.878-1.012V731h2.402v8.141h2.864v2.091h-2.864v9.725
		h-2.402v-2.464c-0.793,0.726-2.379,1.122-4.296,1.122h-9.408v-18.263h11.501v2.112H147.86z M145.503,747.523v-14.06h-3.305v14.06
		H145.503z"/>
	<path fill="#050505" d="M169.857,749.614h-8.659v-10.275h7.006v-5.875h-7.006v-2.112h9.386v10.077h-7.007v6.095h6.72
		c1.829,0,3.283-0.396,4.121-1.144V731h2.401v8.141h3.129v2.091h-3.129v9.725h-2.401v-2.596
		C173.603,749.152,171.884,749.614,169.857,749.614z"/>
	<path fill="#050505" d="M188.682,733.464v-2.112h10.841v2.112h-4.23v5.369c0,5.324,2.093,7.48,4.407,8.581v2.2
		c-2.49-0.858-4.649-2.795-5.619-4.907c-0.97,2.112-3.151,4.071-5.619,4.907v-2.2c2.27-1.078,4.407-3.257,4.407-8.581v-5.369
		H188.682z M204.876,731v19.956h-2.402V731H204.876z"/>
	<path fill="#050505" d="M209.268,741.363v-2.091h18.001v2.091H209.268z M223.568,734.895v-1.563h-13.11v-2.091h15.512v3.564
		c0,1.122-0.132,2.398-0.375,3.279h-2.336C223.48,737.204,223.568,735.973,223.568,734.895z M210.59,742.969h2.38v2.091h10.598
		v-2.091h2.402v8.186h-15.38V742.969z M223.568,749.152v-2.068H212.97v2.068H223.568z"/>
	<path fill="#050505" d="M239.792,742.111h-8.968v-6.469h7.337v-2.398h-7.337v-2.003h9.717v6.403h-7.315v2.486h7.183
		c1.807,0,3.041-0.242,3.9-0.88V731h2.401v2.552h2.798v2.091h-2.798v2.42h2.798v2.112h-2.798v3.036h-2.401v-2.09
		C243.471,741.803,242.039,742.111,239.792,742.111z M231.705,747.634c0-1.188,0.595-2.024,1.608-2.641
		c1.366-0.836,3.525-1.188,6.147-1.188c2.6,0,4.759,0.352,6.125,1.188c1.014,0.616,1.608,1.452,1.608,2.641
		c0,1.145-0.595,2.024-1.608,2.641c-1.366,0.814-3.525,1.144-6.125,1.144c-2.622,0-4.781-0.329-6.147-1.144
		C232.3,749.658,231.705,748.778,231.705,747.634z M234.107,747.634c0,0.396,0.22,0.771,0.661,1.034
		c0.881,0.506,2.534,0.727,4.693,0.727c2.181,0,3.79-0.221,4.671-0.727c0.44-0.264,0.661-0.638,0.661-1.034
		c0-0.44-0.22-0.792-0.661-1.034c-0.881-0.528-2.49-0.748-4.671-0.748c-2.159,0-3.812,0.22-4.693,0.748
		C234.327,746.842,234.107,747.193,234.107,747.634z"/>
	<path fill="#050505" d="M252.159,740.438c0-3.608,0.353-6.314,1.63-7.877c0.815-1.012,2.049-1.562,3.525-1.562
		c1.499,0,2.71,0.55,3.547,1.562c1.278,1.563,1.631,4.269,1.631,7.877c0,3.609-0.353,6.315-1.631,7.878
		c-0.837,1.012-2.049,1.518-3.547,1.518c-1.476,0-2.71-0.506-3.525-1.518C252.511,746.754,252.159,744.048,252.159,740.438z
		 M260.113,740.438c0-3.168-0.22-5.479-1.058-6.534c-0.396-0.551-1.014-0.837-1.741-0.837c-0.705,0-1.322,0.286-1.741,0.837
		c-0.793,1.056-1.035,3.366-1.035,6.534c0,3.169,0.242,5.479,1.035,6.558c0.419,0.506,1.036,0.792,1.741,0.792
		c0.727,0,1.344-0.286,1.741-0.792C259.893,745.918,260.113,743.607,260.113,740.438z M268.354,731v19.956h-2.402V731H268.354z"/>
	<path fill="#050505" d="M285.703,731.132v2.464c0,3.455,1.895,5.237,4.451,6.007v2.112c-2.512-0.528-4.605-1.937-5.641-3.608
		c-0.947,1.738-3.063,3.234-5.663,3.851v-2.112c2.622-0.836,4.473-2.883,4.473-6.249v-2.464H285.703z M280.437,747.172
		c0-1.21,0.573-2.135,1.476-2.816c1.433-1.012,3.68-1.431,6.28-1.431c2.578,0,4.848,0.419,6.258,1.431
		c0.903,0.682,1.476,1.606,1.476,2.816c0,1.232-0.573,2.156-1.476,2.838c-1.41,1.013-3.68,1.408-6.258,1.408
		c-2.6,0-4.847-0.396-6.28-1.408C281.009,749.328,280.437,748.404,280.437,747.172z M282.838,747.172
		c0,0.55,0.286,1.012,0.815,1.364c0.881,0.594,2.49,0.836,4.539,0.836c2.027,0,3.636-0.242,4.561-0.836
		c0.507-0.353,0.771-0.814,0.771-1.364s-0.264-1.012-0.771-1.364c-0.925-0.572-2.534-0.836-4.561-0.836
		c-2.049,0-3.658,0.264-4.539,0.836C283.125,746.16,282.838,746.622,282.838,747.172z M295.441,731v4.488h2.909v2.09h-2.909v4.797
		h-2.401V731H295.441z"/>
	<path fill="#050505" d="M300.891,740.438c0-3.608,0.353-6.314,1.63-7.877c0.815-1.012,2.049-1.562,3.525-1.562
		c1.499,0,2.71,0.55,3.548,1.562c1.278,1.563,1.63,4.269,1.63,7.877c0,3.609-0.353,6.315-1.63,7.878
		c-0.837,1.012-2.049,1.518-3.548,1.518c-1.476,0-2.71-0.506-3.525-1.518C301.243,746.754,300.891,744.048,300.891,740.438z
		 M308.845,740.438c0-3.168-0.22-5.479-1.058-6.534c-0.396-0.551-1.013-0.837-1.741-0.837c-0.705,0-1.322,0.286-1.74,0.837
		c-0.793,1.056-1.036,3.366-1.036,6.534c0,3.169,0.242,5.479,1.036,6.558c0.418,0.506,1.035,0.792,1.74,0.792
		c0.728,0,1.344-0.286,1.741-0.792C308.625,745.918,308.845,743.607,308.845,740.438z M317.085,731v19.956h-2.402V731H317.085z"/>
	<path fill="#050505" d="M338.973,734.234h-11.37v-1.915h4.561v-1.892h2.38v1.892h4.429V734.234z M328.199,738.393
		c0-1.034,0.507-1.849,1.41-2.42c0.881-0.507,2.115-0.793,3.702-0.793c1.498,0,2.732,0.286,3.635,0.793
		c0.926,0.55,1.454,1.363,1.454,2.42s-0.484,1.87-1.366,2.398c-0.859,0.55-2.137,0.858-3.724,0.858
		c-1.521,0-2.798-0.286-3.702-0.837C328.728,740.285,328.199,739.449,328.199,738.393z M331.812,749.351h12.604v1.804h-14.983
		v-5.083h12.339v-1.518h-12.339v-1.826h14.74v5.104h-12.361V749.351z M330.512,738.393c0,0.396,0.22,0.704,0.595,0.946
		c0.507,0.308,1.3,0.462,2.204,0.462c0.837,0,1.586-0.11,2.115-0.396c0.418-0.22,0.683-0.55,0.683-1.012
		c0-0.418-0.243-0.727-0.639-0.968c-0.529-0.265-1.278-0.418-2.159-0.418c-0.859,0-1.653,0.153-2.16,0.418
		C330.754,737.666,330.512,737.975,330.512,738.393z M344.173,735.422h2.909v2.091h-2.909v4.026h-2.401V731h2.401V735.422z"/>
	<path fill="#050505" d="M355.595,745.918v-2.112h17.737v2.112h-7.712v5.368h-2.38v-5.368H355.595z M364.453,736.391
		c-1.344,2.244-4.385,3.96-8.527,4.599v-2.112c4.407-0.814,7.315-3.037,7.315-6.909v-0.836h2.38v0.836
		c0,3.872,2.952,6.073,7.359,6.909v2.112C368.859,740.351,365.796,738.635,364.453,736.391z"/>
	<path fill="#050505" d="M383.432,736.148c0-1.849,0.595-3.257,1.675-4.159c0.903-0.726,2.137-1.122,3.569-1.122
		c1.454,0,2.666,0.396,3.569,1.122c1.08,0.902,1.675,2.311,1.675,4.159c0,1.826-0.595,3.234-1.675,4.137
		c-0.903,0.748-2.115,1.122-3.569,1.122c-1.433,0-2.666-0.374-3.569-1.122C384.027,739.383,383.432,737.975,383.432,736.148z
		 M392.444,751.177c-1.41-0.528-2.908-1.761-3.636-3.037c-0.837,1.32-2.776,2.575-4.781,3.037v-2.091
		c2.05-0.704,3.548-2.376,3.548-5.061v-0.704h2.401v0.704c0,2.311,1.08,3.982,2.468,4.906c1.366-0.924,2.512-2.596,2.512-4.906
		v-0.704h2.38v0.704c0,2.685,1.454,4.335,3.548,5.061v2.091c-2.027-0.462-3.967-1.694-4.804-3.037
		C395.375,749.416,393.942,750.604,392.444,751.177z M385.768,736.148c0,1.1,0.33,1.958,0.925,2.508
		c0.507,0.44,1.168,0.704,1.983,0.704s1.498-0.264,1.983-0.704c0.595-0.55,0.925-1.408,0.925-2.508c0-1.101-0.33-1.958-0.925-2.509
		c-0.485-0.462-1.168-0.704-1.983-0.704s-1.477,0.242-1.983,0.704C386.098,734.19,385.768,735.048,385.768,736.148z
		 M399.847,742.133h-2.401V731h2.401V742.133z"/>
	<path fill="#050505" d="M404.195,741.781v-2.024h18.002v2.024H404.195z M413.162,735.004c-1.631,1.782-4.936,3.169-8.395,3.433
		v-2.068c3.57-0.396,7.205-2.024,7.205-4.818v-0.418h2.379v0.418c0,2.794,3.525,4.356,7.25,4.818v2.068
		C418.031,738.129,414.881,736.786,413.162,735.004z M405.518,743.277h2.379v1.893h10.598v-1.893h2.402v7.877h-15.379V743.277z
		 M418.494,749.152v-1.959h-10.598v1.959H418.494z"/>
	<path fill="#050505" d="M435.027,749.614h-8.857v-18.373h2.379v16.282h6.918c1.873,0,3.371-0.418,4.254-1.188V731h2.4v19.956h-2.4
		v-2.684C438.883,749.13,437.119,749.614,435.027,749.614z"/>
	<path fill="#050505" d="M455.832,749.614h-8.658v-18.263h9.629v2.112h-7.25v14.06h6.721c1.828,0,3.283-0.396,4.119-1.144V731h2.402
		v8.141h3.129v2.091h-3.129v9.725h-2.402v-2.596C459.578,749.152,457.859,749.614,455.832,749.614z"/>
	<path fill="#050505" d="M470.867,749.636h-2.732v-2.926h2.732V749.636z"/>
</g>
<g>
	<path fill="#050505" d="M386.832,471.679v-36.876l-9.844,4.45v-8.207l11.176-5.087h7.933v45.72H386.832z"/>
	<path fill="#050505" d="M426.619,425.959h28.432v7.919h-18.936v10.403h16.563v7.919h-16.563v11.561h19.227v7.918h-28.723V425.959z"
		/>
	<path fill="#050505" d="M458.297,425.959h33.818v7.919h-12.16v37.801H470.4v-37.801h-12.104V425.959z"/>
	<path fill="#050505" d="M519.74,452.2h-14.014v19.479h-9.496v-45.72h9.496v18.322h14.014v-18.322h9.555v45.72h-9.555V452.2z"/>
	<path fill="#050505" d="M552.117,440.582h29.707v7.052h-29.707V440.582z M552.117,453.125h29.707v7.109h-29.707V453.125z"/>
	<path fill="#050505" d="M624.736,437.114c-0.348-3.063-1.91-4.739-4.922-4.739c-4.227,0-6.021,3.988-6.195,13.583
		c1.447-2.428,4.342-3.931,7.99-3.931c7.529,0,13.377,5.549,13.377,15.144c0,9.479-6.195,15.317-15.172,15.317
		c-5.211,0-9.729-1.965-12.393-6.3c-2.547-3.988-3.127-9.422-3.127-16.011c0-17.86,4.807-25.028,15.637-25.028
		c7.99,0,13.318,4.335,14.129,11.965H624.736z M619.699,464.975c3.822,0,6.021-2.833,6.021-7.861s-2.199-7.86-6.021-7.86
		s-6.08,2.832-6.08,7.86S615.877,464.975,619.699,464.975z"/>
	<path fill="#050505" d="M661.105,437.114c-0.348-3.063-1.91-4.739-4.922-4.739c-4.227,0-6.021,3.988-6.195,13.583
		c1.447-2.428,4.342-3.931,7.99-3.931c7.529,0,13.377,5.549,13.377,15.144c0,9.479-6.195,15.317-15.172,15.317
		c-5.211,0-9.729-1.965-12.393-6.3c-2.547-3.988-3.127-9.422-3.127-16.011c0-17.86,4.807-25.028,15.637-25.028
		c7.99,0,13.318,4.335,14.129,11.965H661.105z M656.068,464.975c3.822,0,6.021-2.833,6.021-7.861s-2.199-7.86-6.021-7.86
		s-6.08,2.832-6.08,7.86S652.246,464.975,656.068,464.975z"/>
	<path fill="#050505" d="M687.863,471.679c0,4.683-3.068,8.093-9.496,8.266v-4.104c3.127-0.116,4.807-1.503,4.807-4.162h-4.807
		v-9.421h9.496V471.679z"/>
	<path fill="#050505" d="M721.395,468.153c-2.49,2.89-6.197,4.335-11.004,4.335c-4.805,0-8.512-1.445-11.002-4.335
		c-3.301-3.757-4.807-9.479-4.807-19.363c0-9.826,1.506-15.548,4.807-19.306c2.49-2.89,6.197-4.335,11.002-4.335
		c4.807,0,8.514,1.445,11.004,4.335c3.242,3.758,4.805,9.479,4.805,19.306C726.199,458.674,724.637,464.396,721.395,468.153z
		 M705.816,462.72c1.1,1.561,2.549,2.255,4.574,2.255c1.969,0,3.418-0.694,4.576-2.255c1.504-2.196,1.969-6.185,1.969-13.93
		c0-7.688-0.465-11.676-1.969-13.872c-1.158-1.561-2.607-2.254-4.576-2.254c-2.025,0-3.475,0.693-4.574,2.254
		c-1.506,2.196-1.969,6.185-1.969,13.872C703.848,456.535,704.311,460.523,705.816,462.72z"/>
	<path fill="#050505" d="M757.764,468.153c-2.49,2.89-6.195,4.335-11.002,4.335s-8.512-1.445-11.002-4.335
		c-3.301-3.757-4.807-9.479-4.807-19.363c0-9.826,1.506-15.548,4.807-19.306c2.49-2.89,6.195-4.335,11.002-4.335
		s8.512,1.445,11.002,4.335c3.242,3.758,4.807,9.479,4.807,19.306C762.57,458.674,761.006,464.396,757.764,468.153z M742.188,462.72
		c1.1,1.561,2.547,2.255,4.574,2.255c1.969,0,3.416-0.694,4.574-2.255c1.506-2.196,1.969-6.185,1.969-13.93
		c0-7.688-0.463-11.676-1.969-13.872c-1.158-1.561-2.605-2.254-4.574-2.254c-2.027,0-3.475,0.693-4.574,2.254
		c-1.506,2.196-1.969,6.185-1.969,13.872C740.219,456.535,740.682,460.523,742.188,462.72z"/>
	<path fill="#050505" d="M794.133,468.153c-2.49,2.89-6.195,4.335-11.002,4.335s-8.512-1.445-11.002-4.335
		c-3.301-3.757-4.807-9.479-4.807-19.363c0-9.826,1.506-15.548,4.807-19.306c2.49-2.89,6.195-4.335,11.002-4.335
		s8.512,1.445,11.002,4.335c3.242,3.758,4.807,9.479,4.807,19.306C798.939,458.674,797.375,464.396,794.133,468.153z
		 M778.557,462.72c1.1,1.561,2.547,2.255,4.574,2.255c1.969,0,3.416-0.694,4.574-2.255c1.506-2.196,1.969-6.185,1.969-13.93
		c0-7.688-0.463-11.676-1.969-13.872c-1.158-1.561-2.605-2.254-4.574-2.254c-2.027,0-3.475,0.693-4.574,2.254
		c-1.506,2.196-1.969,6.185-1.969,13.872C776.588,456.535,777.051,460.523,778.557,462.72z"/>
	<path fill="#050505" d="M841.217,471.679l-10.191-26.646v26.646h-9.266v-45.72h9.67l13.725,35.836l13.725-35.836h9.67v45.72h-9.266
		v-26.646l-10.191,26.646H841.217z"/>
	<path fill="#050505" d="M872.725,425.959h33.818v7.919h-12.16v37.801h-9.555v-37.801h-12.104V425.959z"/>
	<path fill="#050505" d="M913.031,431.334c2.953-3.93,7.355-6.185,14.072-6.185c10.887,0,17.371,6.358,17.951,16.416h-9.496
		c-0.348-5.26-3.244-8.439-8.455-8.439c-3.012,0-5.213,1.099-6.602,3.18c-1.621,2.369-2.316,5.779-2.316,12.484
		c0,6.763,0.695,10.173,2.316,12.543c1.389,2.081,3.59,3.179,6.602,3.179c5.211,0,8.107-3.179,8.455-8.438h9.496
		c-0.58,10.057-7.064,16.415-17.951,16.415c-6.717,0-11.119-2.254-14.072-6.185c-3.416-4.509-4.4-10.693-4.4-17.514
		C908.631,442.027,909.615,435.843,913.031,431.334z"/>
</g>
<g>
	<path fill="#000222" d="M131.097,187.474c0-10.927-4.423-14.96-14.569-14.96h-7.935v-18.472h7.935
		c7.285,0,12.098-3.382,12.098-12.228c0-6.894-3.512-10.796-9.366-10.796s-9.366,3.902-9.366,10.796v1.821H86.739v-2.861
		c0-16.911,11.968-28.488,32.521-28.488c20.423,0,32.65,11.708,32.65,28.098c0,12.488-6.374,19.513-15.87,22.374
		c12.358,2.992,18.992,12.357,18.992,25.756c0,18.862-14.309,31.22-35.772,31.22s-35.643-12.357-35.643-31.22v-3.252h23.805v2.212
		c0,8.715,4.292,13.528,11.837,13.528C126.804,201.002,131.097,196.188,131.097,187.474z"/>
	<path fill="#000222" d="M228.657,209.717c-5.723,6.635-14.309,10.017-25.756,10.017c-11.577,0-20.163-3.382-25.886-10.017
		c-7.544-8.845-10.797-22.113-10.797-43.707s3.252-34.861,10.797-43.707c5.724-6.634,14.309-10.017,25.886-10.017
		c11.447,0,20.033,3.383,25.756,10.017c7.545,8.846,10.797,22.113,10.797,43.707S236.202,200.872,228.657,209.717z M211.876,135.831
		c-2.211-3.382-5.073-4.813-8.976-4.813s-7.024,1.431-9.105,4.813c-2.732,4.553-3.643,13.919-3.643,30.179
		c0,16.261,0.911,25.496,3.643,30.179c2.081,3.383,5.203,4.813,9.105,4.813s6.764-1.431,8.976-4.813
		c2.732-4.683,3.642-13.918,3.642-30.179C215.519,149.75,214.608,140.384,211.876,135.831z"/>
	<path fill="#000222" d="M311.908,209.717c-5.723,6.635-14.309,10.017-25.756,10.017c-11.577,0-20.163-3.382-25.886-10.017
		c-7.544-8.845-10.797-22.113-10.797-43.707s3.252-34.861,10.797-43.707c5.724-6.634,14.309-10.017,25.886-10.017
		c11.447,0,20.033,3.383,25.756,10.017c7.545,8.846,10.797,22.113,10.797,43.707S319.453,200.872,311.908,209.717z M295.127,135.831
		c-2.211-3.382-5.073-4.813-8.976-4.813s-7.024,1.431-9.105,4.813c-2.732,4.553-3.643,13.919-3.643,30.179
		c0,16.261,0.911,25.496,3.643,30.179c2.081,3.383,5.203,4.813,9.105,4.813s6.764-1.431,8.976-4.813
		c2.732-4.683,3.642-13.918,3.642-30.179C298.77,149.75,297.859,140.384,295.127,135.831z"/>
</g>
<g>
	<path fill="#000222" d="M347.34,141.275c0-4.933,1.731-8.815,4.775-11.229c2.204-1.784,5.248-2.729,8.711-2.729
		s6.455,0.944,8.659,2.729c2.204,1.731,3.726,4.25,4.408,7.398h5.3v-9.865h9.183v28.757h-9.183v-11.388h-5.3
		c-0.63,3.201-2.151,5.772-4.408,7.557c-2.204,1.784-5.195,2.781-8.659,2.781s-6.507-0.997-8.711-2.781
		C349.071,150.091,347.34,146.261,347.34,141.275z M350.331,165.834v-7.557h38.044v19.258h-9.183v-11.701H350.331z M365.496,141.275
		c0-2.414-0.577-4.303-1.627-5.353c-0.787-0.84-1.784-1.312-3.043-1.312c-1.259,0-2.256,0.472-3.043,1.312
		c-1.049,1.05-1.679,2.938-1.679,5.353s0.63,4.303,1.679,5.405c0.787,0.787,1.784,1.259,3.043,1.259c1.26,0,2.256-0.472,3.043-1.259
		C364.919,145.578,365.496,143.689,365.496,141.275z"/>
	<path fill="#000222" d="M409.363,144.948v-9.025H398.5v-7.504h19.154v15.9c0,17.054-5.195,26.237-19.731,29.857v-7.976
		C405.742,163.63,409.363,157.385,409.363,144.948z M439.379,127.579v49.169h-8.135v-23.142h-2.729v22.67h-7.976v-48.382h7.976
		v18.051h2.729v-18.366H439.379z"/>
</g>
<g>
	<path fill="#000222" d="M311.959,70.64h-36.063v-5.911h14.247v-3.572h7.399v3.572h14.417V70.64z M277.683,79.314
		c0-2.296,1.106-3.997,3.104-5.188c2.807-1.7,7.442-2.381,13.183-2.381c5.699,0,10.334,0.681,13.141,2.381
		c1.999,1.191,3.147,2.893,3.147,5.188c0,2.339-1.148,4.04-3.147,5.188c-2.807,1.743-7.442,2.382-13.141,2.382
		c-5.741,0-10.376-0.639-13.183-2.382C278.789,83.354,277.683,81.653,277.683,79.314z M309.535,54.097h-11.184
		c1.744,2.169,6.166,3.146,11.609,3.317v5.57c-5.613-0.085-12.545-1.531-16.075-4.167c-3.487,2.679-9.994,4.125-16.032,4.167v-5.57
		c5.273-0.171,9.781-1.106,11.524-3.317h-11.057v-5.698h11.822v-3.615h7.442v3.615h11.95V54.097z M284.955,79.314
		c0,0.468,0.34,0.851,0.893,1.148c1.191,0.638,3.955,0.808,8.123,0.808c4.125,0,6.889-0.17,8.123-0.808
		c0.51-0.298,0.808-0.681,0.808-1.148c0-0.425-0.298-0.808-0.808-1.105c-1.233-0.638-3.998-0.894-8.123-0.894
		c-4.167,0-6.932,0.256-8.123,0.894C285.295,78.507,284.955,78.89,284.955,79.314z"/>
	<path fill="#000222" d="M337.13,46.569v4.423h6.676v-4.423h6.932v19.052h-20.668V46.569H337.13z M362.178,79.569h-22.709v1.659
		h23.177v5.103h-30.491V74.424h22.624v-1.743h-22.624v-5.188h30.023V79.569z M337.13,60.136h6.676v-3.7h-6.676V60.136z
		 M354.736,46.102h7.442v7.145h5.23v6.209h-5.23v6.592h-7.442V46.102z"/>
	<path fill="#000222" d="M388.244,48.398v5.443h-17.988v-5.443h5.826v-3.402h6.677v3.402H388.244z M370.808,62.389
		c0-2.466,1.021-4.593,2.807-5.953c1.488-1.148,3.487-1.786,5.826-1.786c2.296,0,4.295,0.638,5.826,1.786
		c1.743,1.36,2.764,3.487,2.764,5.953c0,2.51-1.021,4.594-2.764,5.997c-1.531,1.105-3.53,1.743-5.826,1.743
		c-2.339,0-4.338-0.638-5.826-1.743C371.829,66.982,370.808,64.898,370.808,62.389z M373.02,79.017c0-2.509,1.233-4.295,3.359-5.528
		c2.849-1.658,7.357-2.339,12.715-2.339c5.316,0,9.824,0.681,12.715,2.339c2.126,1.233,3.36,3.02,3.36,5.528
		c0,2.51-1.234,4.253-3.36,5.528c-2.892,1.659-7.399,2.297-12.715,2.297c-5.358,0-9.866-0.638-12.715-2.297
		C374.252,83.27,373.02,81.526,373.02,79.017z M377.017,62.389c0,0.809,0.255,1.489,0.723,1.872
		c0.468,0.425,1.063,0.595,1.701,0.595c0.638,0,1.19-0.17,1.658-0.595c0.468-0.383,0.723-1.063,0.723-1.872
		c0-0.765-0.255-1.445-0.723-1.871c-0.468-0.382-1.021-0.553-1.658-0.553c-0.638,0-1.233,0.171-1.701,0.553
		C377.272,60.943,377.017,61.624,377.017,62.389z M380.334,79.017c0,0.511,0.297,0.851,0.851,1.191
		c1.318,0.68,3.997,0.893,7.91,0.893s6.634-0.213,7.867-0.893c0.553-0.341,0.851-0.681,0.851-1.191c0-0.51-0.297-0.893-0.851-1.19
		c-1.233-0.681-3.955-0.893-7.867-0.893s-6.591,0.212-7.91,0.893C380.631,78.124,380.334,78.507,380.334,79.017z M404.488,46.102
		v24.367h-6.548v-9.058h-2.339v8.505h-6.293v-23.56h6.293v8.804h2.339v-9.059H404.488z"/>
	<path fill="#000222" d="M428.555,68.938h-16.84V54.947h13.226v-2.765h-13.226v-5.613h20.412v13.906h-13.141v2.892h10.59
		c3.359,0,5.357-0.34,6.804-1.233V46.102h7.442v4.168h5.146v6.166h-5.146v3.189h5.146v6.166h-5.146v4.551h-7.442V67.45
		C434.934,68.513,432.468,68.938,428.555,68.938z M413.288,78.847c0-2.424,1.148-4.21,3.062-5.485
		c2.765-1.786,7.23-2.595,12.674-2.595c5.4,0,9.865,0.809,12.588,2.595c1.955,1.275,3.104,3.062,3.104,5.485
		c0,2.382-1.148,4.168-3.104,5.443c-2.723,1.829-7.188,2.552-12.588,2.552c-5.443,0-9.909-0.723-12.674-2.552
		C414.437,83.015,413.288,81.229,413.288,78.847z M420.646,78.847c0,0.468,0.298,0.936,0.765,1.233
		c1.191,0.766,3.785,1.021,7.613,1.021c3.784,0,6.379-0.255,7.569-1.021c0.553-0.298,0.765-0.766,0.765-1.233
		c0-0.553-0.212-0.936-0.765-1.275c-1.19-0.681-3.785-0.979-7.569-0.979c-3.828,0-6.422,0.298-7.613,0.979
		C420.943,77.911,420.646,78.294,420.646,78.847z"/>
</g>
<g>
	<path fill="#000222" d="M93.774,83.033l-6.061-15.982v15.982h-7.104V52.227h7.065l8.917,23.395l8.841-23.395h7.103v30.807h-7.103
		V67.051l-6.061,15.982H93.774z"/>
	<path fill="#000222" d="M126.502,52.227h23.201v5.945h-7.914v24.861h-7.374V58.172h-7.914V52.227z"/>
	<path fill="#000222" d="M173.133,79.598c-2.123,2.625-5.134,3.977-9.535,3.977s-7.412-1.352-9.497-3.977
		c-2.355-2.934-3.166-7.104-3.166-11.968s0.811-9.033,3.166-11.967c2.084-2.626,5.096-3.977,9.497-3.977s7.412,1.351,9.535,3.977
		c2.355,2.934,3.127,7.103,3.127,11.967S175.488,76.664,173.133,79.598z M159.699,75.698c0.849,1.274,2.123,1.892,3.899,1.892
		s3.05-0.617,3.899-1.892c1.042-1.505,1.429-3.744,1.429-8.068c0-4.323-0.386-6.563-1.429-8.068
		c-0.849-1.273-2.123-1.892-3.899-1.892s-3.05,0.618-3.899,1.892c-1.004,1.506-1.39,3.745-1.39,8.068
		C158.309,71.954,158.695,74.193,159.699,75.698z"/>
	<path fill="#000222" d="M195.557,67.244l9.111,15.789h-8.03l-7.026-12.816h-2.432v12.816h-7.335V52.227h7.335v12.045h2.432
		l5.984-12.045h7.953L195.557,67.244z"/>
	<path fill="#000222" d="M206.516,52.227h19.573v5.945h-12.238v6.1h10.655v5.945h-10.655v6.871h12.431v5.945h-19.766V52.227z"/>
	<path fill="#000222" d="M236.971,64.696v18.337h-7.258V52.227h7.258l8.647,18.338V52.227h7.258v30.807h-7.258L236.971,64.696z"/>
</g>
<g>
	<path fill="#050505" d="M125.457,580.88v-45.215l-12.536,5.575v-7.479l13.694-6.188h6.541v53.307H125.457z"/>
	<path fill="#050505" d="M152.298,537.501v-6.392h12.945v-9.587h7.358v9.587h13.149v6.392h-13.149v9.994
		c0,16.455,6.541,23.118,13.694,26.518v6.8c-7.699-2.652-14.375-8.636-17.305-15.163c-2.998,6.527-9.811,12.579-17.373,15.163v-6.8
		c7.018-3.331,13.626-10.063,13.626-26.518v-9.994H152.298z M201.284,523.29v25.157h9.675v6.46h-9.675v30.053h-7.426v-61.67H201.284
		z"/>
	<path fill="#050505" d="M236.051,517.827h38.875v10.96h-25.729v15.28h22.924v10.96h-22.924v26.081h-13.146V517.827z"/>
	<path fill="#050505" d="M313.957,567.428c-0.401-6.4-2.966-8.8-9.699-8.8H294.8v22.48h-13.146v-63.281h25.97
		c13.466,0,20.52,7.28,20.52,19.36c0,8.4-3.848,13.92-11.302,15.92c6.893,0.96,9.699,5.12,10.18,13.44l0.561,8.8
		c0.16,2.4,0.561,4.32,1.202,5.761H315.48c-0.561-1.36-0.882-3.521-1.042-5.681L313.957,567.428z M305.3,547.667
		c6.012,0,9.539-2.479,9.539-9.439c0-6.881-3.527-9.44-9.539-9.44h-10.5v18.88H305.3z"/>
	<path fill="#050505" d="M336.556,517.827h39.356v10.96h-26.21v14.4h22.924v10.96h-22.924v16.001h26.611v10.96h-39.757V517.827z"/>
	<path fill="#050505" d="M384.083,517.827h39.355v10.96h-26.209v14.4h22.923v10.96h-22.923v16.001h26.611v10.96h-39.756V517.827z"/>
	<path fill="#050505" d="M476.735,582.229c-14.428,0-22.845-7.921-22.845-19.041v-1.199h13.146v1.359c0,4.88,3.607,8.24,9.699,8.24
		c6.011,0,9.618-3.36,9.618-8.24c0-4.32-2.726-7.28-8.656-8.48l-6.813-1.359c-10.66-2.08-17.153-7.841-17.153-18.48
		c0-10.08,7.615-18.32,21.722-18.32c14.107,0,21.723,8.32,21.723,18v0.96h-13.146v-0.96c0-4.32-3.046-7.28-8.577-7.28
		c-5.61,0-8.576,2.96-8.576,7.28c0,4.4,2.726,6.641,8.817,7.92l6.813,1.36c11.062,2.24,17.073,8.48,17.073,18.961
		C499.579,574.148,491.323,582.229,476.735,582.229z"/>
	<path fill="#050505" d="M543.659,581.108l-3.446-12.16h-21.321l-3.446,12.16h-13.466l20.278-63.281h14.589l20.278,63.281H543.659z
		 M521.857,558.228h15.31l-7.614-26.881L521.857,558.228z"/>
	<path fill="#050505" d="M562.571,517.827h13.145v52.321h26.611v10.96h-39.756V517.827z"/>
	<path fill="#050505" d="M608.175,517.827h39.355v10.96h-26.211v14.4h22.925v10.96h-22.925v16.001h26.611v10.96h-39.756V517.827z"/>
	<path fill="#050505" d="M684.763,557.219h-7.631l1.363-29.646h27.32v6.664h-20.167l-0.817,16.25
		c1.431-2.447,4.769-4.147,8.788-4.147c8.653,0,15.125,5.983,15.125,17.814c0,11.15-6.404,17.61-16.76,17.61
		c-9.606,0-16.011-5.712-16.691-15.163h7.63c0.613,5.644,4.02,8.636,9.062,8.636c5.655,0,9.062-3.944,9.062-11.22
		c0-7.274-3.406-11.083-9.062-11.083C688.646,552.935,686.125,554.567,684.763,557.219z"/>
	<path fill="#050505" d="M737.834,549.739v8.839h-7.427v-8.839h-12.944v-5.779h28.069c4.974,0,9.334-0.204,12.74-1.156v5.439
		c-3.134,1.021-7.63,1.496-12.535,1.496H737.834z M719.779,532.062c0-2.924,1.566-5.032,3.951-6.527
		c3.202-1.836,7.972-2.652,13.081-2.652c5.042,0,9.812,0.816,13.013,2.652c2.453,1.495,3.884,3.604,3.884,6.527
		c0,2.787-1.431,4.896-3.884,6.391c-3.201,1.904-7.971,2.652-13.013,2.652c-5.109,0-9.879-0.748-13.081-2.652
		C721.346,536.957,719.779,534.849,719.779,532.062z M730.816,580.2h39.516v5.371H723.39v-14.89h38.767v-4.284H723.39v-5.371h46.193
		v14.958h-38.767V580.2z M726.864,532.062c0,0.884,0.546,1.632,1.499,2.176c1.703,1.088,4.77,1.428,8.448,1.428
		c3.543,0,6.677-0.34,8.448-1.428c0.954-0.544,1.363-1.292,1.363-2.176c0-0.952-0.409-1.7-1.363-2.244
		c-1.771-1.156-4.905-1.496-8.448-1.496c-3.679,0-6.745,0.34-8.448,1.496C727.41,530.361,726.864,531.109,726.864,532.062z
		 M769.583,558.646h-7.427v-1.632h-13.49v-5.371h13.49V523.29h7.427V558.646z"/>
	<path fill="#050505" d="M819.312,580.88v-45.215l-12.536,5.575v-7.479l13.694-6.188h6.54v53.307H819.312z"/>
	<path fill="#050505" d="M873.131,577.005c-2.93,3.127-7.086,4.76-12.195,4.76c-5.11,0-9.402-1.633-12.264-4.76
		c-3.815-4.216-5.45-10.607-5.45-22.778s1.635-18.562,5.45-22.777c2.861-3.128,7.153-4.76,12.264-4.76
		c5.109,0,9.266,1.632,12.195,4.76c3.815,4.216,5.45,10.606,5.45,22.777S876.946,572.789,873.131,577.005z M867.816,536.413
		c-1.703-2.04-3.883-3.128-6.881-3.128s-5.246,1.088-6.949,3.128c-2.249,2.787-3.135,7.683-3.135,17.813
		c0,10.132,0.886,15.026,3.135,17.814c1.703,2.04,3.951,3.128,6.949,3.128s5.178-1.088,6.881-3.128
		c2.248-2.788,3.066-7.683,3.066-17.814C870.883,544.096,870.064,539.2,867.816,536.413z"/>
	<path fill="#050505" d="M887.98,537.704c0-5.031,2.112-8.906,5.587-11.559c2.726-2.107,6.473-3.264,10.628-3.264
		c4.225,0,7.903,1.156,10.697,3.264c3.406,2.652,5.519,6.527,5.519,11.559c0,5.032-2.112,9.044-5.519,11.56
		c-2.794,2.107-6.473,3.264-10.697,3.264c-4.155,0-7.902-1.156-10.628-3.264C890.093,546.748,887.98,542.736,887.98,537.704z
		 M899.972,574.217v5.372h39.516v5.982h-46.942v-17.202h38.767v-5.507h-38.767v-5.916h46.193v17.271H899.972z M895.202,537.704
		c0,2.856,1.091,5.1,2.861,6.664c1.567,1.292,3.68,2.107,6.132,2.107c2.453,0,4.633-0.815,6.2-2.107
		c1.703-1.564,2.793-3.808,2.793-6.664c0-2.787-1.09-5.031-2.793-6.527c-1.567-1.359-3.747-2.107-6.2-2.107
		c-2.452,0-4.564,0.748-6.132,2.107C896.293,532.673,895.202,534.917,895.202,537.704z M938.738,553.071h-7.427V523.29h7.427
		V553.071z"/>
</g>
<g>
	<path fill="#050505" d="M466.576,660.147l-9.357-24.631v24.631h-10.967v-47.477h10.906l13.77,36.054l13.648-36.054h10.967v47.477
		h-10.967v-24.631l-9.357,24.631H466.576z"/>
	<path fill="#050505" d="M528.682,612.671h11.621l-14.721,28.735v18.741h-11.324v-18.741l-14.781-28.735h11.621l8.822,19.276
		L528.682,612.671z"/>
	<path fill="#050505" d="M595.195,654.852c-3.279,4.046-7.928,6.128-14.723,6.128c-6.793,0-11.443-2.082-14.66-6.128
		c-3.637-4.521-4.889-10.946-4.889-18.442s1.252-13.922,4.889-18.443c3.217-4.046,7.867-6.128,14.66-6.128
		c6.795,0,11.443,2.082,14.723,6.128c3.635,4.521,4.828,10.947,4.828,18.443S598.83,650.33,595.195,654.852z M574.453,648.843
		c1.313,1.964,3.279,2.916,6.02,2.916c2.742,0,4.709-0.952,6.021-2.916c1.607-2.32,2.205-5.771,2.205-12.434
		c0-6.664-0.598-10.114-2.205-12.435c-1.313-1.963-3.279-2.915-6.021-2.915c-2.74,0-4.707,0.952-6.02,2.915
		c-1.549,2.32-2.145,5.771-2.145,12.435C572.309,643.072,572.904,646.522,574.453,648.843z"/>
	<path fill="#050505" d="M605.566,612.671h29.859v9.162h-18.535v10.055h16.449v9.162h-16.449v19.098h-11.324V612.671z"/>
	<path fill="#050505" d="M640.074,612.671h29.859v9.162h-18.535v10.055h16.449v9.162h-16.449v19.098h-11.324V612.671z"/>
	<path fill="#050505" d="M685.908,660.147h-11.324v-47.477h11.324V660.147z"/>
	<path fill="#050505" d="M696.219,617.966c3.219-4.046,7.867-6.128,14.662-6.128c11.861,0,18.715,6.723,19.072,17.372h-11.264
		c-0.299-5.116-2.922-8.15-7.809-8.15c-2.742,0-4.709,0.952-6.02,2.915c-1.551,2.32-2.146,5.712-2.146,12.435
		s0.596,10.113,2.146,12.434c1.311,1.964,3.277,2.916,6.02,2.916c4.887,0,7.568-3.034,7.809-8.151h11.264
		c-0.357,10.649-7.211,17.372-19.072,17.372c-6.795,0-11.443-2.082-14.662-6.128c-3.635-4.521-4.887-10.946-4.887-18.442
		S692.584,622.487,696.219,617.966z"/>
	<path fill="#050505" d="M735.258,612.671h30.219v9.162h-18.895v9.399h16.449v9.162h-16.449v10.591h19.191v9.162h-30.516V612.671z"
		/>
	<path fill="#050505" d="M822.037,654.852c-3.279,4.046-7.928,6.128-14.723,6.128c-6.793,0-11.443-2.082-14.66-6.128
		c-3.637-4.521-4.889-10.946-4.889-18.442s1.252-13.922,4.889-18.443c3.217-4.046,7.867-6.128,14.66-6.128
		c6.795,0,11.443,2.082,14.723,6.128c3.635,4.521,4.828,10.947,4.828,18.443S825.672,650.33,822.037,654.852z M801.295,648.843
		c1.313,1.964,3.279,2.916,6.02,2.916c2.742,0,4.709-0.952,6.021-2.916c1.607-2.32,2.205-5.771,2.205-12.434
		c0-6.664-0.598-10.114-2.205-12.435c-1.313-1.963-3.279-2.915-6.021-2.915c-2.74,0-4.707,0.952-6.02,2.915
		c-1.549,2.32-2.145,5.771-2.145,12.435C799.15,643.072,799.746,646.522,801.295,648.843z"/>
	<path fill="#050505" d="M843.732,643.786v16.361h-11.324v-47.477h19.607c10.252,0,15.973,5.651,15.973,15.527
		c0,9.936-5.721,15.588-15.973,15.588H843.732z M850.348,634.624c4.172,0,6.316-2.082,6.316-6.426c0-4.283-2.145-6.365-6.316-6.365
		h-6.615v12.791H850.348z"/>
	<path fill="#050505" d="M872.578,612.671h30.219v9.162h-18.895v9.399h16.449v9.162h-16.449v10.591h19.191v9.162h-30.516V612.671z"
		/>
	<path fill="#050505" d="M919.604,631.888v28.26h-11.205v-47.477h11.205l13.352,28.26v-28.26h11.203v47.477h-11.203L919.604,631.888
		z"/>
</g>
</svg>
