<?xml version="1.0" encoding="utf-8"?>
<!-- Generator: Adobe Illustrator 16.0.0, SVG Export Plug-In . SVG Version: 6.00 Build 0)  -->
<!DOCTYPE svg PUBLIC "-//W3C//DTD SVG 1.1//EN" "http://www.w3.org/Graphics/SVG/1.1/DTD/svg11.dtd">
<svg version="1.1" id="Layer_1" xmlns="http://www.w3.org/2000/svg" xmlns:xlink="http://www.w3.org/1999/xlink" x="0px" y="0px"
	 width="720px" height="1575.952px" viewBox="0 0 720 1575.952" enable-background="new 0 0 720 1575.952" xml:space="preserve">
<g>
	<rect x="47.5" y="850.049" fill="#FFFFFF" width="3" height="10"/>
	<rect x="47.5" y="790.049" fill="#FFFFFF" width="3" height="10"/>
	<rect x="47.5" y="830.049" fill="#FFFFFF" width="3" height="10"/>
	<rect x="47.5" y="810.049" fill="#FFFFFF" width="3" height="10"/>
	<rect x="47.5" y="730.049" fill="#FFFFFF" width="3" height="10"/>
	<rect x="47.5" y="770.049" fill="#FFFFFF" width="3" height="10"/>
	<rect x="47.5" y="710.049" fill="#FFFFFF" width="3" height="10"/>
	<rect x="47.5" y="750.049" fill="#FFFFFF" width="3" height="10"/>
	<rect x="47.5" y="970.049" fill="#FFFFFF" width="3" height="10"/>
	<rect x="47.5" y="990.049" fill="#FFFFFF" width="3" height="10"/>
	<rect x="47.5" y="870.049" fill="#FFFFFF" width="3" height="10"/>
	<rect x="47.5" y="950.049" fill="#FFFFFF" width="3" height="10"/>
	<rect x="47.5" y="930.049" fill="#FFFFFF" width="3" height="10"/>
	<rect x="47.5" y="890.049" fill="#FFFFFF" width="3" height="10"/>
	<rect x="47.5" y="910.049" fill="#FFFFFF" width="3" height="10"/>
	<rect x="47.5" y="670.048" fill="#FFFFFF" width="3" height="10"/>
	<rect x="47.5" y="490.048" fill="#FFFFFF" width="3" height="10"/>
	<rect x="47.5" y="510.048" fill="#FFFFFF" width="3" height="10"/>
	<rect x="47.5" y="470.048" fill="#FFFFFF" width="3" height="10"/>
	<rect x="47.5" y="430.048" fill="#FFFFFF" width="3" height="10"/>
	<rect x="47.5" y="530.048" fill="#FFFFFF" width="3" height="10"/>
	<rect x="47.5" y="450.048" fill="#FFFFFF" width="3" height="10"/>
	<rect x="47.5" y="590.048" fill="#FFFFFF" width="3" height="10"/>
	<rect x="47.5" y="630.048" fill="#FFFFFF" width="3" height="10"/>
	<rect x="47.5" y="650.048" fill="#FFFFFF" width="3" height="10"/>
	<rect x="47.5" y="1010.049" fill="#FFFFFF" width="3" height="10"/>
	<rect x="47.5" y="550.048" fill="#FFFFFF" width="3" height="10"/>
	<rect x="47.5" y="570.048" fill="#FFFFFF" width="3" height="10"/>
	<rect x="47.5" y="610.048" fill="#FFFFFF" width="3" height="10"/>
	<rect x="47.5" y="690.049" fill="#FFFFFF" width="3" height="10"/>
	<rect x="668.5" y="1035.441" fill="#FFFFFF" width="3" height="10"/>
	<rect x="668.5" y="875.441" fill="#FFFFFF" width="3" height="10"/>
	<rect x="668.5" y="835.441" fill="#FFFFFF" width="3" height="10"/>
	<rect x="668.5" y="855.441" fill="#FFFFFF" width="3" height="10"/>
	<rect x="668.5" y="735.441" fill="#FFFFFF" width="3" height="10"/>
	<rect x="668.5" y="795.441" fill="#FFFFFF" width="3" height="10"/>
	<rect x="668.5" y="755.441" fill="#FFFFFF" width="3" height="10"/>
	<rect x="668.5" y="775.441" fill="#FFFFFF" width="3" height="10"/>
	<rect x="668.5" y="815.441" fill="#FFFFFF" width="3" height="10"/>
	<rect x="668.5" y="995.441" fill="#FFFFFF" width="3" height="10"/>
	<rect x="668.5" y="975.441" fill="#FFFFFF" width="3" height="10"/>
	<rect x="668.5" y="1015.441" fill="#FFFFFF" width="3" height="10"/>
	<rect x="668.5" y="915.441" fill="#FFFFFF" width="3" height="10"/>
	<rect x="668.5" y="895.441" fill="#FFFFFF" width="3" height="10"/>
	<rect x="668.5" y="935.441" fill="#FFFFFF" width="3" height="10"/>
	<rect x="668.5" y="955.441" fill="#FFFFFF" width="3" height="10"/>
	<rect x="668.5" y="555.441" fill="#FFFFFF" width="3" height="10"/>
	<rect x="47.5" y="1030.049" fill="#FFFFFF" width="3" height="10"/>
	<rect x="668.5" y="515.441" fill="#FFFFFF" width="3" height="10"/>
	<rect x="668.5" y="535.441" fill="#FFFFFF" width="3" height="10"/>
	<rect x="668.5" y="495.441" fill="#FFFFFF" width="3" height="10"/>
	<rect x="668.5" y="455.441" fill="#FFFFFF" width="3" height="10"/>
	<rect x="668.5" y="475.441" fill="#FFFFFF" width="3" height="10"/>
	<rect x="668.5" y="435.441" fill="#FFFFFF" width="3" height="10"/>
	<rect x="668.5" y="695.441" fill="#FFFFFF" width="3" height="10"/>
	<rect x="668.5" y="675.441" fill="#FFFFFF" width="3" height="10"/>
	<rect x="668.5" y="655.441" fill="#FFFFFF" width="3" height="10"/>
	<rect x="668.5" y="715.441" fill="#FFFFFF" width="3" height="10"/>
	<rect x="668.5" y="615.441" fill="#FFFFFF" width="3" height="10"/>
	<rect x="668.5" y="635.441" fill="#FFFFFF" width="3" height="10"/>
	<rect x="668.5" y="595.441" fill="#FFFFFF" width="3" height="10"/>
	<rect x="668.5" y="575.441" fill="#FFFFFF" width="3" height="10"/>
	<path fill="#FFFFFF" d="M703.573,43.5H553.099v3h147.475v1449.832h-83.544v-16.904c0-16.485-6.297-29.849-14.064-27.849H117.036
		c-7.769-2-14.065,11.363-14.065,27.849v16.904H20.77V46.5h147.474v-3H17.77v1455.832h85.201v18.894
		c0,16.485,6.297,29.849,14.065,31.849h485.929c7.768-2,14.064-15.363,14.064-31.849v-18.894h86.544V43.5z M519.199,1503.546h16.25
		v2.525h-16.25V1503.546z M506.424,1503.171h2.875v5.075h1.9v-5.325h2.875v15.575h-2.875v-7.825h-1.9v5.351h-2.875V1503.171z
		 M474.6,1503.472h16.25v2.399H474.6V1503.472z M474.324,1509.097h2.975l-0.149-2.65h3.125l0.101,2.65h4.674l0.125-2.65h3.101
		l-0.175,2.65h3v2.225h-16.775V1509.097z M427.549,1493.021v2.625h-15.149v-7.15h3.075v4.525H427.549z M424,1472.921h3.074v16.476
		H424V1472.921z M409.049,1477.446c0.301-0.733,0.721-1.371,1.264-1.912c0.541-0.542,1.188-0.967,1.938-1.275
		s1.574-0.463,2.475-0.463s1.732,0.154,2.5,0.463c0.766,0.309,1.425,0.733,1.975,1.275c0.551,0.541,0.979,1.179,1.287,1.912
		s0.463,1.533,0.463,2.4c0,0.833-0.154,1.612-0.463,2.337c-0.309,0.726-0.736,1.354-1.287,1.888
		c-0.55,0.533-1.209,0.954-1.975,1.263c-0.768,0.309-1.6,0.462-2.5,0.462s-1.729-0.153-2.488-0.462
		c-0.758-0.309-1.404-0.729-1.938-1.263s-0.949-1.162-1.25-1.888c-0.299-0.725-0.449-1.504-0.449-2.337
		C408.6,1478.979,408.75,1478.18,409.049,1477.446z M406.549,1507.296h3.5v-4.375h3.101v11.851h-3.101v-5.125h-3.5V1507.296z
		 M402.675,1472.921h2.85v23.176h-2.85V1472.921z M398.274,1473.171h2.8v22.351h-2.8v-11h-2.649v-2.55h2.649V1473.171z
		 M388.125,1473.746h6.449v2.601h-6.449V1473.746z M362.313,1482.921c1.041-0.616,1.912-1.346,2.612-2.188
		c0.7-0.841,1.226-1.813,1.575-2.912s0.508-2.375,0.475-3.825h3.1c0.033,0.634,0.021,1.246-0.037,1.838s-0.154,1.171-0.287,1.737
		c0.916,1.684,2.05,3.084,3.4,4.2c1.35,1.116,3.016,2.042,5,2.774l-1.875,2.351c-1.717-0.616-3.217-1.446-4.5-2.487
		c-1.284-1.042-2.385-2.288-3.301-3.738c-0.85,1.467-1.963,2.729-3.338,3.788s-2.871,1.879-4.487,2.462l-1.9-2.35
		C360.083,1484.088,361.271,1483.538,362.313,1482.921z M357.6,1490.271h21.45v2.575H357.6V1490.271z M316.45,1474.871h14.7v2.625
		h-11.6v6.101h11.8v2.699h-14.9V1474.871z M302.65,1473.171h2.975v5.575h1.9v-5.825h3v17.176h-3v-8.75h-1.9v8.274h-2.975V1473.171z
		 M291.688,1477.371c0.258-0.733,0.616-1.35,1.075-1.85s0.996-0.884,1.613-1.15c0.616-0.267,1.275-0.399,1.975-0.399
		c0.7,0,1.358,0.133,1.975,0.399s1.15,0.65,1.6,1.15s0.808,1.116,1.075,1.85c0.266,0.733,0.4,1.567,0.4,2.5
		c0,0.934-0.134,1.767-0.4,2.5c-0.267,0.733-0.625,1.351-1.075,1.851s-0.983,0.883-1.6,1.149s-1.275,0.4-1.975,0.4
		c-0.7,0-1.358-0.134-1.975-0.4c-0.617-0.267-1.154-0.649-1.613-1.149s-0.817-1.117-1.075-1.851c-0.259-0.733-0.388-1.566-0.388-2.5
		C291.3,1478.938,291.429,1478.104,291.688,1477.371z M290.674,1504.871h16v2.575h-16V1504.871z M290.274,1514.021h2.925
		l-0.175-5.825h3.1l0.125,5.85h4.8l0.175-5.85h3.1l-0.275,5.825h3v2.575h-16.775V1514.021z M281.8,1502.921h3.075v16.476H281.8
		V1502.921z M228.4,1506.321h3.2v-3.4h3.1v13.926h-3.1v-3h-3.825v-2.525h3.85v-2.525H228.4V1506.321z M199.175,1503.271h9.3v2.6
		h-9.3V1503.271z M195.275,1507.097H212.4v2.524h-17.125V1507.097z M171.725,1511.608c-0.3-0.708-0.45-1.479-0.45-2.313
		c0-0.8,0.15-1.554,0.45-2.262c0.3-0.709,0.716-1.325,1.25-1.851c0.533-0.524,1.166-0.941,1.9-1.25
		c0.733-0.308,1.542-0.462,2.425-0.462s1.696,0.154,2.438,0.462c0.742,0.309,1.375,0.726,1.9,1.25
		c0.525,0.525,0.934,1.142,1.225,1.851c0.292,0.708,0.438,1.462,0.438,2.262c0,0.834-0.146,1.604-0.438,2.313
		c-0.292,0.709-0.7,1.321-1.225,1.838c-0.525,0.517-1.158,0.925-1.9,1.225c-0.742,0.301-1.554,0.45-2.438,0.45
		s-1.692-0.149-2.425-0.45c-0.734-0.3-1.367-0.708-1.9-1.225C172.441,1512.93,172.025,1512.317,171.725,1511.608z M189.05,1525.746
		h-14.575v-8.75h14.575V1525.746z M192.525,1510.396h-3.475v5.6h-3.075v-13.075h3.075v4.875h3.475V1510.396z M214.55,1523.046H193.1
		v-2.574h9.175v-1.825c-0.867-0.101-1.625-0.279-2.275-0.538c-0.65-0.258-1.188-0.57-1.612-0.938
		c-0.425-0.366-0.742-0.774-0.95-1.225s-0.313-0.916-0.313-1.4c0-0.566,0.138-1.104,0.413-1.612
		c0.275-0.508,0.688-0.954,1.238-1.337c0.55-0.384,1.246-0.688,2.087-0.913c0.841-0.225,1.837-0.337,2.987-0.337
		c1.117,0,2.091,0.112,2.925,0.337c0.833,0.226,1.529,0.529,2.087,0.913c0.558,0.383,0.979,0.829,1.262,1.337
		c0.283,0.509,0.425,1.046,0.425,1.612c0,0.484-0.109,0.95-0.325,1.4c-0.217,0.45-0.542,0.858-0.975,1.225
		c-0.434,0.367-0.971,0.68-1.612,0.938c-0.642,0.259-1.388,0.438-2.237,0.538v1.825h9.15V1523.046z M215.825,1514.097
		c2.683-0.851,4.741-1.93,6.175-3.238c1.433-1.308,2.292-2.804,2.575-4.487c-0.584,0.017-1.325,0.029-2.225,0.038
		c-0.9,0.008-1.85,0.012-2.85,0.012h-2.2v-2.524h3.525c1.15,0,2.3,0,3.45,0s2.425-0.017,3.825-0.05c-0.1,1.434-0.4,2.8-0.9,4.1
		s-1.196,2.487-2.088,3.563s-1.967,2.025-3.225,2.85c-1.259,0.825-2.705,1.488-4.338,1.988L215.825,1514.097z M234.425,1523.409
		c-0.333,0.574-0.833,1.074-1.5,1.5c-0.667,0.425-1.487,0.758-2.462,1c-0.975,0.241-2.112,0.362-3.413,0.362
		c-1.3,0-2.438-0.121-3.412-0.362c-0.975-0.242-1.788-0.575-2.438-1c-0.65-0.426-1.142-0.926-1.475-1.5
		c-0.333-0.575-0.5-1.196-0.5-1.863c0-0.666,0.167-1.291,0.5-1.875c0.333-0.583,0.825-1.087,1.475-1.512
		c0.65-0.426,1.462-0.763,2.438-1.013c0.975-0.25,2.112-0.375,3.412-0.375c1.3,0,2.438,0.125,3.413,0.375s1.796,0.587,2.462,1.013
		c0.667,0.425,1.167,0.929,1.5,1.512c0.333,0.584,0.5,1.209,0.5,1.875C234.925,1522.213,234.758,1522.834,234.425,1523.409z
		 M253.15,1525.521h-2.875v-7.075l-1.975,1.925c-0.767-0.683-1.475-1.421-2.125-2.212c-0.65-0.792-1.233-1.646-1.75-2.563
		c-0.567,0.949-1.221,1.871-1.962,2.762c-0.742,0.893-1.58,1.779-2.513,2.663l-2.275-1.7c1.066-0.916,2.008-1.871,2.825-2.862
		c0.816-0.991,1.508-1.991,2.075-3c0.566-1.009,1.008-2.017,1.325-3.025c0.316-1.008,0.516-1.987,0.6-2.938
		c-0.55,0.034-1.096,0.05-1.638,0.05c-0.542,0-1.079,0-1.612,0h-2.125v-2.625h3.175c0.866,0,1.729,0,2.587,0s1.729-0.016,2.613-0.05
		c0,1.4-0.142,2.775-0.425,4.125c-0.284,1.351-0.717,2.7-1.3,4.05c0.533,1.051,1.191,2,1.975,2.851
		c0.783,0.85,1.625,1.649,2.525,2.399v-4.725h-2.65v-2.575h2.65v-7.825h2.875V1525.521z M257.725,1526.097H254.8v-23.176h2.925
		V1526.097z M268.1,1514.071c-0.534-0.533-0.95-1.162-1.25-1.888c-0.3-0.725-0.45-1.504-0.45-2.337c0-0.867,0.15-1.667,0.45-2.4
		c0.3-0.733,0.721-1.371,1.263-1.912c0.542-0.542,1.188-0.967,1.938-1.275s1.575-0.463,2.475-0.463c0.9,0,1.733,0.154,2.5,0.463
		c0.766,0.309,1.425,0.733,1.975,1.275c0.55,0.541,0.979,1.179,1.288,1.912c0.308,0.733,0.462,1.533,0.462,2.4
		c0,0.833-0.154,1.612-0.462,2.337c-0.309,0.726-0.737,1.354-1.288,1.888c-0.55,0.533-1.208,0.954-1.975,1.263
		c-0.767,0.309-1.6,0.462-2.5,0.462c-0.9,0-1.729-0.153-2.488-0.462S268.633,1514.604,268.1,1514.071z M285.35,1525.646H270.2v-7.15
		h3.075v4.525h12.075V1525.646z M309.35,1522.871h-21.45v-2.6h21.45V1522.871z M310.9,1495.646h-15.175v-7.476h3.125v4.851h12.05
		V1495.646z M324.475,1519.722c-0.566,0.149-1.204,0.287-1.912,0.412c-0.709,0.125-1.45,0.233-2.225,0.325s-1.575,0.167-2.4,0.225
		c-0.825,0.059-1.638,0.088-2.438,0.088h-4.15v-9.55h7.2v-3.875h-7.225v-2.625H321.7v9.1h-7.225v4.35h1.75
		c1.517,0,2.958-0.096,4.325-0.287c1.366-0.191,2.675-0.429,3.925-0.713V1519.722z M332.125,1514.271H328.5v11.825h-3.1v-23.176h3.1
		v8.7h3.625V1514.271z M334.45,1492.746H313v-2.575h21.45V1492.746z M337.7,1488.847c-0.533-0.717-0.946-1.596-1.237-2.638
		c-0.292-1.042-0.438-2.237-0.438-3.588c0-1.35,0.146-2.546,0.438-3.587c0.292-1.042,0.704-1.921,1.237-2.638
		s1.171-1.259,1.913-1.625s1.571-0.55,2.488-0.55c1.616,0,2.958,0.566,4.025,1.699c1.066,1.134,1.716,2.784,1.95,4.95h3.425v-7.95
		h3.1v23.176h-3.1v-12.476h-3.35c-0.15,2.4-0.767,4.233-1.85,5.5s-2.483,1.9-4.2,1.9c-0.917,0-1.746-0.184-2.488-0.55
		C338.871,1490.104,338.233,1489.563,337.7,1488.847z M345.412,1520.271c0.658,1.95,1.779,4.024,3.363,6.225h-2.525
		c-0.7-0.75-1.358-1.592-1.975-2.524c-0.617-0.934-1.154-1.913-1.613-2.938c-0.458-1.025-0.817-2.079-1.075-3.163
		c-0.259-1.083-0.388-2.149-0.388-3.2c0-1.083,0.121-2.158,0.362-3.225s0.588-2.104,1.038-3.112c0.45-1.009,0.983-1.979,1.6-2.913
		c0.616-0.933,1.3-1.808,2.05-2.625h2.525c-0.834,1.101-1.529,2.172-2.088,3.213c-0.559,1.042-1.004,2.055-1.337,3.037
		c-0.333,0.984-0.571,1.942-0.712,2.875c-0.142,0.934-0.212,1.851-0.212,2.75C344.425,1516.455,344.753,1518.321,345.412,1520.271z
		 M364.55,1519.271c-0.55,0.149-1.184,0.292-1.9,0.425c-0.717,0.134-1.471,0.25-2.262,0.35c-0.792,0.101-1.6,0.176-2.425,0.226
		c-0.825,0.05-1.621,0.075-2.387,0.075h-4.8v-15.5h11.05v2.649h-7.899v10.2h2.35c1.467,0,2.913-0.108,4.338-0.325
		c1.425-0.216,2.737-0.441,3.938-0.675V1519.271z M368.55,1526.097h-3.101v-23.176h3.101V1526.097z M385.199,1520.896
		c-1.033-0.75-1.963-1.563-2.787-2.438c-0.825-0.875-1.613-1.821-2.363-2.838c-0.883,1.2-1.871,2.305-2.962,3.313
		c-1.092,1.009-2.255,1.888-3.487,2.638l-2.1-2.025c1.449-0.833,2.725-1.774,3.824-2.824c1.1-1.051,2.025-2.117,2.775-3.2
		s1.328-2.15,1.737-3.2c0.408-1.05,0.653-1.991,0.737-2.825c-0.816,0.034-1.629,0.05-2.438,0.05s-1.612,0-2.412,0H373.1v-2.649
		h3.925c1.05,0,2.134-0.004,3.25-0.013c1.116-0.008,2.384-0.021,3.8-0.037c-0.033,1.416-0.254,2.82-0.662,4.212
		s-0.979,2.737-1.713,4.038c0.767,1.083,1.613,2.092,2.537,3.024c0.926,0.934,1.963,1.784,3.113,2.55L385.199,1520.896z
		 M390.85,1526.097h-3.1v-23.176h3.1V1526.097z M393.85,1488.821c-0.584-0.666-1.108-1.375-1.575-2.125
		c-0.649,0.934-1.379,1.805-2.188,2.612c-0.809,0.809-1.704,1.563-2.688,2.263l-2.125-1.975c1.066-0.617,2.025-1.342,2.875-2.176
		c0.851-0.833,1.575-1.691,2.175-2.574c0.601-0.884,1.071-1.75,1.413-2.601c0.341-0.85,0.528-1.6,0.563-2.25
		c-0.634,0.034-1.255,0.05-1.862,0.05c-0.609,0-1.229,0-1.863,0h-1.925v-2.55h2.851c1.033,0,2.05,0,3.05,0s2.024-0.017,3.075-0.05
		c-0.167,2.316-0.775,4.542-1.825,6.675c0.566,0.934,1.188,1.759,1.862,2.476s1.479,1.425,2.412,2.125l-2.175,1.975
		C395.116,1490.113,394.433,1489.488,393.85,1488.821z M395.249,1503.796h10.15v2.426h-7v1.574h6.675v2.351h-6.675v1.774h1.975
		c1.283,0,2.583-0.07,3.9-0.212c1.316-0.142,2.733-0.354,4.25-0.638v2.3c-1.45,0.334-2.904,0.571-4.362,0.713
		c-1.459,0.142-2.972,0.212-4.538,0.212h-4.375V1503.796z M413.6,1525.847h-15.25v-6.325h11.725v-1.25H398.35v-2.525h14.8v6.25
		h-11.775v1.325H413.6V1525.847z M434.225,1520.746c-0.983-0.783-1.85-1.575-2.6-2.375s-1.459-1.675-2.125-2.625
		c-0.801,1.101-1.7,2.125-2.7,3.075s-2.084,1.834-3.25,2.65l-2.25-2c1.267-0.767,2.408-1.646,3.425-2.638s1.896-2.025,2.638-3.101
		c0.741-1.074,1.325-2.146,1.75-3.212s0.671-2.066,0.737-3c-0.8,0.05-1.588,0.079-2.362,0.087c-0.775,0.009-1.513,0.013-2.213,0.013
		h-2.5v-2.725h3.875c1.066,0,2.15,0,3.25,0c1.101,0,2.241-0.017,3.425-0.05c-0.017,1.449-0.212,2.866-0.587,4.25
		c-0.375,1.383-0.913,2.725-1.612,4.024c0.716,1.101,1.504,2.101,2.362,3c0.858,0.9,1.846,1.75,2.962,2.55L434.225,1520.746z
		 M440.05,1526.097h-3.101v-23.176h3.101v8.625h3.625v2.65h-3.625V1526.097z M443.549,1515.071c1.117-0.666,2.08-1.392,2.889-2.175
		c0.808-0.783,1.462-1.642,1.962-2.575s0.851-1.95,1.05-3.05c0.2-1.101,0.267-2.309,0.2-3.625h3.149c0.018,0.816-0.016,1.6-0.1,2.35
		s-0.209,1.476-0.375,2.175c0.4,0.717,0.809,1.363,1.225,1.938c0.417,0.575,0.871,1.104,1.363,1.588
		c0.491,0.483,1.029,0.93,1.612,1.338s1.233,0.813,1.95,1.212l-1.926,2.125c-1.149-0.633-2.179-1.366-3.087-2.2
		c-0.909-0.833-1.704-1.75-2.388-2.75c-0.617,1.2-1.392,2.263-2.324,3.188c-0.934,0.926-2,1.729-3.201,2.413L443.549,1515.071z
		 M462.774,1525.646h-14.7v-7.2h3.125v4.575h11.575V1525.646z M465.774,1511.946h-3.476v7.95h-3.074v-16.976h3.074v6.375h3.476
		V1511.946z M490.85,1526.097H475.1v-6h12.074v-1.176H475.1v-2.475h15.175v5.925h-12.101v1.25h12.676V1526.097z M493.649,1514.996
		H471.75v-2.425h21.899V1514.996z M495.549,1506.472v-2.476h8.475v7.025h-5.324v2.475h0.824c1.066,0,2.117-0.054,3.15-0.162
		s2.108-0.304,3.225-0.588v2.476c-1.149,0.316-2.391,0.529-3.725,0.637c-1.334,0.109-2.767,0.163-4.3,0.163H495.6v-7.325h5.475
		v-2.225H495.549z M513.924,1526.097c-1.517-0.317-2.949-0.847-4.3-1.588c-1.351-0.742-2.5-1.696-3.45-2.862
		c-0.9,1.1-2.025,2.033-3.375,2.8s-2.809,1.316-4.375,1.65l-1.875-2.325c1.283-0.284,2.426-0.621,3.426-1.013
		s1.854-0.871,2.563-1.438c0.707-0.566,1.258-1.221,1.649-1.963c0.392-0.741,0.612-1.604,0.663-2.587h3.225
		c-0.033,0.833-0.184,1.625-0.45,2.375c0.851,1.233,1.938,2.221,3.263,2.962c1.324,0.742,2.912,1.279,4.762,1.613L513.924,1526.097z
		 M534.85,1525.746h-15.125v-7.675h15.125V1525.746z M538.25,1516.621h-21.9v-2.55h9.324v-1.75h-6.75v-2.425h3.025l-0.15-3.075
		h3.125l0.101,3.075h4.575l0.15-3.075h3.074l-0.175,3.075h3.05v2.425h-6.9v1.75h9.451V1516.621z M545.937,1517.871
		c-0.259,1.084-0.616,2.138-1.075,3.163c-0.458,1.024-0.996,2.004-1.612,2.938c-0.616,0.933-1.274,1.774-1.975,2.524h-2.525
		c1.583-2.2,2.704-4.274,3.362-6.225s0.988-3.816,0.988-5.601c0-0.899-0.071-1.816-0.213-2.75c-0.142-0.933-0.379-1.891-0.713-2.875
		c-0.333-0.982-0.779-1.995-1.337-3.037c-0.559-1.041-1.255-2.112-2.088-3.213h2.525c0.75,0.817,1.433,1.692,2.05,2.625
		c0.616,0.934,1.15,1.904,1.6,2.913c0.45,1.009,0.796,2.046,1.038,3.112c0.241,1.066,0.362,2.142,0.362,3.225
		C546.324,1515.722,546.195,1516.788,545.937,1517.871z"/>
	<polygon fill="#FFFFFF" points="227.883,44.447 231.358,44.447 231.358,41.846 227.883,41.846 227.883,36.971 224.809,36.971 
		224.809,50.046 227.883,50.046 	"/>
	<path fill="#FFFFFF" d="M211.809,47.497c0.533,0.517,1.166,0.925,1.9,1.225c0.733,0.301,1.542,0.45,2.425,0.45
		s1.696-0.149,2.438-0.45c0.742-0.3,1.375-0.708,1.9-1.225c0.525-0.517,0.934-1.129,1.225-1.838
		c0.292-0.708,0.438-1.479,0.438-2.313c0-0.8-0.146-1.554-0.438-2.262c-0.292-0.709-0.7-1.325-1.225-1.851
		c-0.525-0.524-1.158-0.941-1.9-1.25c-0.742-0.308-1.554-0.462-2.438-0.462s-1.692,0.154-2.425,0.462
		c-0.734,0.309-1.367,0.726-1.9,1.25c-0.534,0.525-0.95,1.142-1.25,1.851c-0.3,0.708-0.45,1.462-0.45,2.262
		c0,0.834,0.15,1.604,0.45,2.313C210.858,46.368,211.275,46.98,211.809,47.497z M213.383,42.046c0.15-0.399,0.354-0.745,0.613-1.037
		c0.258-0.292,0.57-0.517,0.938-0.675c0.366-0.158,0.766-0.238,1.2-0.238c0.917,0,1.646,0.305,2.188,0.913s0.813,1.388,0.813,2.337
		c0,1-0.271,1.797-0.813,2.388c-0.542,0.592-1.271,0.888-2.188,0.888c-0.883,0-1.6-0.296-2.15-0.888
		c-0.55-0.591-0.825-1.388-0.825-2.388C213.158,42.88,213.233,42.447,213.383,42.046z"/>
	<path fill="#FFFFFF" d="M213.309,51.046v8.75h14.575v-8.75H213.309z M224.809,57.272h-8.4v-3.726h8.4V57.272z"/>
	<rect x="238.008" y="37.322" fill="#FFFFFF" width="9.3" height="2.6"/>
	<rect x="234.108" y="41.147" fill="#FFFFFF" width="17.125" height="2.524"/>
	<path fill="#FFFFFF" d="M253.383,54.522h-9.15v-1.825c0.85-0.101,1.596-0.279,2.237-0.538c0.642-0.258,1.179-0.57,1.612-0.938
		c0.434-0.366,0.758-0.774,0.975-1.225c0.216-0.45,0.325-0.916,0.325-1.4c0-0.566-0.142-1.104-0.425-1.612
		c-0.283-0.508-0.704-0.954-1.262-1.337c-0.559-0.384-1.254-0.688-2.087-0.913c-0.834-0.225-1.809-0.337-2.925-0.337
		c-1.15,0-2.146,0.112-2.987,0.337c-0.842,0.226-1.538,0.529-2.087,0.913c-0.55,0.383-0.963,0.829-1.238,1.337
		c-0.275,0.509-0.413,1.046-0.413,1.612c0,0.484,0.104,0.95,0.313,1.4s0.525,0.858,0.95,1.225c0.425,0.367,0.962,0.68,1.612,0.938
		c0.65,0.259,1.408,0.438,2.275,0.538v1.825h-9.175v2.574h21.45V54.522z M240.921,50.284c-0.459-0.107-0.825-0.25-1.1-0.425
		s-0.467-0.37-0.575-0.587s-0.163-0.441-0.163-0.676c0-0.232,0.054-0.462,0.163-0.688c0.108-0.225,0.3-0.42,0.575-0.587
		s0.641-0.3,1.1-0.4c0.458-0.1,1.037-0.149,1.737-0.149s1.279,0.05,1.737,0.149c0.458,0.101,0.825,0.233,1.1,0.4
		s0.471,0.362,0.587,0.587c0.117,0.226,0.175,0.455,0.175,0.688c0,0.234-0.059,0.459-0.175,0.676s-0.313,0.412-0.587,0.587
		s-0.642,0.317-1.1,0.425c-0.458,0.109-1.037,0.163-1.737,0.163S241.379,50.393,240.921,50.284z"/>
	<polygon fill="#FFFFFF" points="270.458,45.372 266.608,45.372 266.608,47.897 270.434,47.897 270.434,50.897 273.534,50.897 
		273.534,36.971 270.434,36.971 270.434,40.372 267.233,40.372 267.233,42.846 270.458,42.846 	"/>
	<path fill="#FFFFFF" d="M271.758,52.209c-0.667-0.426-1.487-0.763-2.462-1.013s-2.112-0.375-3.413-0.375
		c-1.3,0-2.438,0.125-3.412,0.375c-0.975,0.25-1.788,0.587-2.438,1.013c-0.65,0.425-1.142,0.929-1.475,1.512
		c-0.333,0.584-0.5,1.209-0.5,1.875c0,0.667,0.167,1.288,0.5,1.863c0.333,0.574,0.825,1.074,1.475,1.5
		c0.65,0.425,1.462,0.758,2.438,1c0.975,0.241,2.112,0.362,3.412,0.362c1.3,0,2.438-0.121,3.413-0.362
		c0.975-0.242,1.796-0.575,2.462-1c0.667-0.426,1.167-0.926,1.5-1.5c0.333-0.575,0.5-1.196,0.5-1.863c0-0.666-0.167-1.291-0.5-1.875
		C272.925,53.138,272.425,52.634,271.758,52.209z M270.346,56.434c-0.175,0.275-0.45,0.521-0.825,0.737s-0.862,0.388-1.462,0.513
		s-1.325,0.188-2.175,0.188c-0.85,0-1.575-0.063-2.175-0.188s-1.087-0.296-1.462-0.513s-0.646-0.462-0.813-0.737
		c-0.167-0.275-0.25-0.554-0.25-0.838c0-0.3,0.083-0.583,0.25-0.85c0.167-0.267,0.438-0.508,0.813-0.725s0.862-0.388,1.462-0.513
		s1.325-0.188,2.175-0.188c0.85,0,1.575,0.063,2.175,0.188s1.087,0.296,1.462,0.513s0.65,0.458,0.825,0.725
		c0.175,0.267,0.262,0.55,0.262,0.85C270.608,55.88,270.521,56.159,270.346,56.434z"/>
	<path fill="#FFFFFF" d="M254.659,48.147l1.725,2.25c1.633-0.5,3.079-1.163,4.338-1.988c1.258-0.824,2.333-1.774,3.225-2.85
		s1.588-2.263,2.088-3.563s0.8-2.666,0.9-4.1c-1.4,0.033-2.675,0.05-3.825,0.05s-2.3,0-3.45,0h-3.525v2.524h2.2
		c1,0,1.95-0.004,2.85-0.012c0.9-0.009,1.641-0.021,2.225-0.038c-0.284,1.684-1.142,3.18-2.575,4.487
		C259.4,46.217,257.342,47.296,254.659,48.147z"/>
	<rect x="293.633" y="36.971" fill="#FFFFFF" width="2.925" height="23.176"/>
	<path fill="#FFFFFF" d="M281.408,47.509c-0.567,1.009-1.258,2.009-2.075,3c-0.817,0.991-1.759,1.946-2.825,2.862l2.275,1.7
		c0.933-0.884,1.771-1.771,2.513-2.663c0.741-0.891,1.396-1.813,1.962-2.762c0.517,0.916,1.1,1.771,1.75,2.563
		c0.65,0.791,1.358,1.529,2.125,2.212l1.975-1.925v7.075h2.875V37.221h-2.875v7.825h-2.65v2.575h2.65v4.725
		c-0.9-0.75-1.742-1.55-2.525-2.399c-0.784-0.851-1.442-1.8-1.975-2.851c0.583-1.35,1.016-2.699,1.3-4.05
		c0.283-1.35,0.425-2.725,0.425-4.125c-0.884,0.034-1.754,0.05-2.613,0.05s-1.721,0-2.587,0h-3.175v2.625h2.125
		c0.533,0,1.07,0,1.612,0c0.542,0,1.087-0.016,1.638-0.05c-0.084,0.95-0.284,1.93-0.6,2.938
		C282.417,45.493,281.975,46.5,281.408,47.509z"/>
	<path fill="#FFFFFF" d="M303.396,55.084c0.458,1.024,0.996,2.004,1.613,2.938c0.616,0.933,1.275,1.774,1.975,2.524h2.525
		c-1.584-2.2-2.705-4.274-3.363-6.225c-0.659-1.95-0.987-3.816-0.987-5.601c0-0.899,0.071-1.816,0.212-2.75
		c0.142-0.933,0.379-1.891,0.712-2.875c0.333-0.982,0.779-1.995,1.337-3.037c0.559-1.041,1.254-2.112,2.088-3.213h-2.525
		c-0.75,0.817-1.434,1.692-2.05,2.625c-0.617,0.934-1.15,1.904-1.6,2.913c-0.45,1.009-0.796,2.046-1.038,3.112
		s-0.362,2.142-0.362,3.225c0,1.051,0.129,2.117,0.388,3.2C302.579,53.005,302.937,54.059,303.396,55.084z"/>
	<path fill="#FFFFFF" d="M328.183,37.247h-3.125v2.1h-8.675v-2.1h-3.15v8.2h14.95V37.247z M325.083,43.072h-8.775v-1.351h8.775
		V43.072z"/>
	<rect x="309.783" y="46.647" fill="#FFFFFF" width="21.9" height="2.399"/>
	<polygon fill="#FFFFFF" points="313.133,54.147 313.133,60.147 328.883,60.147 328.883,57.697 316.183,57.697 316.183,56.421 
		328.308,56.421 328.308,50.471 313.133,50.471 313.133,52.921 325.208,52.921 325.208,54.147 	"/>
	<polygon fill="#FFFFFF" points="353.983,49.546 344.533,49.546 344.533,47.697 350.858,47.697 350.858,45.296 338.583,45.296 
		338.583,43.846 350.358,43.846 350.358,37.596 335.533,37.596 335.533,40.122 347.283,40.122 347.283,41.546 335.533,41.546 
		335.533,47.697 341.408,47.697 341.408,49.546 332.083,49.546 332.083,52.096 353.983,52.096 	"/>
	<polygon fill="#FFFFFF" points="350.583,60.197 350.583,53.346 335.083,53.346 335.083,55.872 347.508,55.872 347.508,60.197 	"/>
	<polygon fill="#FFFFFF" points="364.708,48.572 367.357,48.572 367.357,59.572 370.158,59.572 370.158,37.221 367.357,37.221 
		367.357,46.022 364.708,46.022 	"/>
	<rect x="371.758" y="36.971" fill="#FFFFFF" width="2.85" height="23.176"/>
	<path fill="#FFFFFF" d="M359.408,48.897c-0.6,0.883-1.325,1.741-2.175,2.574c-0.85,0.834-1.809,1.559-2.875,2.176l2.125,1.975
		c0.983-0.7,1.879-1.454,2.688-2.263c0.809-0.808,1.538-1.679,2.187-2.612c0.467,0.75,0.992,1.459,1.576,2.125
		c0.582,0.667,1.266,1.292,2.049,1.875l2.176-1.975c-0.934-0.7-1.738-1.408-2.412-2.125c-0.676-0.717-1.297-1.542-1.863-2.476
		c1.051-2.133,1.658-4.358,1.825-6.675c-1.05,0.033-2.075,0.05-3.075,0.05c-1,0-2.017,0-3.05,0h-2.85v2.55h1.925
		c0.633,0,1.254,0,1.862,0s1.229-0.016,1.862-0.05c-0.033,0.65-0.221,1.4-0.562,2.25C360.479,47.147,360.008,48.013,359.408,48.897z
		"/>
	<rect x="357.208" y="37.796" fill="#FFFFFF" width="6.45" height="2.601"/>
	<polygon fill="#FFFFFF" points="384.559,52.546 381.482,52.546 381.482,59.697 396.633,59.697 396.633,57.072 384.559,57.072 	"/>
	<path fill="#FFFFFF" d="M379.383,48.122c0.533,0.533,1.18,0.954,1.938,1.263s1.588,0.462,2.488,0.462
		c0.899,0,1.732-0.153,2.5-0.462c0.766-0.309,1.424-0.729,1.975-1.263c0.55-0.533,0.979-1.162,1.287-1.888
		c0.309-0.725,0.463-1.504,0.463-2.337c0-0.867-0.154-1.667-0.463-2.4s-0.737-1.371-1.287-1.912
		c-0.551-0.542-1.209-0.967-1.975-1.275c-0.768-0.309-1.601-0.463-2.5-0.463c-0.9,0-1.726,0.154-2.476,0.463
		s-1.396,0.733-1.938,1.275c-0.542,0.541-0.962,1.179-1.263,1.912c-0.3,0.733-0.449,1.533-0.449,2.4
		c0,0.833,0.149,1.612,0.449,2.337C378.434,46.959,378.85,47.588,379.383,48.122z M381.684,41.359
		c0.533-0.608,1.258-0.912,2.174-0.912c0.9,0,1.625,0.304,2.176,0.912c0.55,0.608,0.824,1.454,0.824,2.538
		c0,1.017-0.274,1.82-0.824,2.412c-0.551,0.592-1.275,0.888-2.176,0.888c-0.934,0-1.662-0.296-2.188-0.888
		c-0.524-0.592-0.787-1.396-0.787-2.412C380.883,42.813,381.149,41.967,381.684,41.359z"/>
	<rect x="393.083" y="36.971" fill="#FFFFFF" width="3.075" height="16.476"/>
	<path fill="#FFFFFF" d="M422.308,52.209c-0.667-0.426-1.487-0.763-2.462-1.013c-0.976-0.25-2.113-0.375-3.413-0.375
		s-2.438,0.125-3.412,0.375c-0.976,0.25-1.788,0.587-2.438,1.013c-0.65,0.425-1.142,0.929-1.476,1.512
		c-0.333,0.584-0.5,1.209-0.5,1.875c0,0.667,0.167,1.288,0.5,1.863c0.334,0.574,0.825,1.074,1.476,1.5
		c0.649,0.425,1.462,0.758,2.438,1c0.975,0.241,2.112,0.362,3.412,0.362s2.438-0.121,3.413-0.362c0.975-0.242,1.795-0.575,2.462-1
		c0.667-0.426,1.167-0.926,1.5-1.5c0.333-0.575,0.5-1.196,0.5-1.863c0-0.666-0.167-1.291-0.5-1.875
		C423.475,53.138,422.975,52.634,422.308,52.209z M420.896,56.434c-0.175,0.275-0.45,0.521-0.825,0.737s-0.862,0.388-1.463,0.513
		c-0.6,0.125-1.324,0.188-2.175,0.188c-0.85,0-1.575-0.063-2.175-0.188s-1.088-0.296-1.463-0.513s-0.646-0.462-0.813-0.737
		c-0.166-0.275-0.25-0.554-0.25-0.838c0-0.3,0.084-0.583,0.25-0.85c0.167-0.267,0.438-0.508,0.813-0.725s0.863-0.388,1.463-0.513
		s1.325-0.188,2.175-0.188c0.851,0,1.575,0.063,2.175,0.188c0.601,0.125,1.088,0.296,1.463,0.513s0.65,0.458,0.825,0.725
		s0.263,0.55,0.263,0.85C421.158,55.88,421.07,56.159,420.896,56.434z"/>
	<path fill="#FFFFFF" d="M405.208,48.147l1.725,2.25c1.634-0.5,3.079-1.163,4.338-1.988c1.258-0.824,2.333-1.774,3.225-2.85
		s1.588-2.263,2.088-3.563s0.8-2.666,0.899-4.1c-1.399,0.033-2.675,0.05-3.824,0.05c-1.15,0-2.301,0-3.45,0h-3.525v2.524h2.2
		c1,0,1.95-0.004,2.85-0.012c0.9-0.009,1.642-0.021,2.226-0.038c-0.284,1.684-1.142,3.18-2.575,4.487
		C409.949,46.217,407.891,47.296,405.208,48.147z"/>
	<polygon fill="#FFFFFF" points="421.008,45.372 417.158,45.372 417.158,47.897 420.982,47.897 420.982,50.897 424.083,50.897 
		424.083,36.971 420.982,36.971 420.982,40.372 417.783,40.372 417.783,42.846 421.008,42.846 	"/>
	<path fill="#FFFFFF" d="M431.958,47.509c-0.567,1.009-1.259,2.009-2.075,3s-1.758,1.946-2.824,2.862l2.274,1.7
		c0.933-0.884,1.771-1.771,2.513-2.663c0.741-0.891,1.396-1.813,1.963-2.762c0.516,0.916,1.1,1.771,1.75,2.563
		c0.649,0.791,1.357,1.529,2.125,2.212l1.975-1.925v7.075h2.875V37.221h-2.875v7.825h-2.65v2.575h2.65v4.725
		c-0.9-0.75-1.742-1.55-2.525-2.399c-0.783-0.851-1.441-1.8-1.975-2.851c0.583-1.35,1.016-2.699,1.3-4.05
		c0.283-1.35,0.425-2.725,0.425-4.125c-0.883,0.034-1.754,0.05-2.612,0.05s-1.722,0-2.587,0h-3.176v2.625h2.125
		c0.533,0,1.07,0,1.613,0c0.541,0,1.087-0.016,1.637-0.05c-0.084,0.95-0.283,1.93-0.6,2.938
		C432.967,45.493,432.524,46.5,431.958,47.509z"/>
	<rect x="444.184" y="36.971" fill="#FFFFFF" width="2.924" height="23.176"/>
	<path fill="#FFFFFF" d="M449.283,60.546h2.525c0.699-0.75,1.357-1.592,1.975-2.524c0.616-0.934,1.154-1.913,1.612-2.938
		c0.458-1.025,0.816-2.079,1.075-3.163c0.258-1.083,0.387-2.149,0.387-3.2c0-1.083-0.121-2.158-0.361-3.225
		c-0.242-1.066-0.588-2.104-1.038-3.112s-0.983-1.979-1.601-2.913c-0.616-0.933-1.299-1.808-2.049-2.625h-2.525
		c0.833,1.101,1.529,2.172,2.088,3.213c0.558,1.042,1.004,2.055,1.337,3.037c0.333,0.984,0.571,1.942,0.712,2.875
		c0.143,0.934,0.213,1.851,0.213,2.75c0,1.784-0.329,3.65-0.987,5.601C451.986,56.272,450.866,58.346,449.283,60.546z"/>
	<path fill="#FFFFFF" d="M472.07,51.822c1.008-0.033,2.025-0.079,3.051-0.138c1.024-0.059,2.028-0.133,3.012-0.225
		s1.916-0.196,2.801-0.313v-2.551c-0.9,0.117-1.851,0.213-2.851,0.288s-2,0.146-3,0.212v-1.55c0.7-0.149,1.321-0.388,1.862-0.712
		c0.541-0.325,0.992-0.709,1.35-1.15c0.359-0.441,0.634-0.925,0.826-1.45c0.191-0.524,0.287-1.07,0.287-1.638
		c0-0.666-0.129-1.304-0.388-1.912s-0.642-1.15-1.149-1.625c-0.51-0.475-1.135-0.854-1.875-1.138
		c-0.742-0.283-1.588-0.425-2.538-0.425s-1.796,0.142-2.538,0.425c-0.741,0.284-1.366,0.663-1.875,1.138
		c-0.508,0.475-0.891,1.017-1.149,1.625s-0.388,1.246-0.388,1.912c0,0.567,0.096,1.121,0.287,1.663s0.476,1.033,0.851,1.475
		c0.375,0.442,0.841,0.825,1.399,1.15s1.196,0.554,1.913,0.688v1.625c-0.483,0.017-0.962,0.029-1.438,0.037
		c-0.476,0.009-0.929,0.013-1.362,0.013h-3.125v2.625h3.15C470.1,51.872,471.063,51.855,472.07,51.822z M471.208,44.434
		c-0.467-0.508-0.7-1.121-0.7-1.838c0-0.35,0.059-0.683,0.176-1c0.115-0.316,0.295-0.591,0.537-0.824
		c0.241-0.233,0.545-0.421,0.912-0.563s0.809-0.213,1.325-0.213c1.033,0,1.788,0.254,2.263,0.763s0.713,1.121,0.713,1.837
		c0,0.717-0.238,1.33-0.713,1.838c-0.475,0.509-1.229,0.763-2.263,0.763C472.424,45.197,471.674,44.943,471.208,44.434z"/>
	<polygon fill="#FFFFFF" points="484.658,47.471 487.857,47.471 487.857,44.846 484.658,44.846 484.658,36.971 481.607,36.971 
		481.607,54.897 484.658,54.897 	"/>
	<polygon fill="#FFFFFF" points="469.708,53.221 469.708,59.697 485.033,59.697 485.033,57.072 472.833,57.072 472.833,53.221 	"/>
	<polygon fill="#FFFFFF" points="504.633,50.846 507.732,50.846 507.732,36.971 504.633,36.971 504.633,41.671 500.308,41.671 
		500.308,44.221 504.633,44.221 	"/>
	<path fill="#FFFFFF" d="M506.008,52.372c-0.667-0.416-1.488-0.746-2.463-0.987s-2.112-0.362-3.412-0.362
		c-1.301,0-2.438,0.121-3.412,0.362c-0.976,0.241-1.788,0.571-2.438,0.987c-0.65,0.417-1.143,0.912-1.476,1.487
		s-0.5,1.188-0.5,1.838c0,0.649,0.167,1.254,0.5,1.813c0.333,0.558,0.825,1.046,1.476,1.462c0.649,0.417,1.462,0.746,2.438,0.988
		c0.975,0.241,2.111,0.362,3.412,0.362c1.3,0,2.438-0.121,3.412-0.362c0.975-0.242,1.796-0.571,2.463-0.988
		c0.666-0.416,1.166-0.904,1.5-1.462c0.333-0.559,0.5-1.163,0.5-1.813c0-0.65-0.167-1.263-0.5-1.838
		C507.174,53.284,506.674,52.789,506.008,52.372z M504.596,56.509c-0.176,0.258-0.451,0.487-0.826,0.688s-0.861,0.362-1.462,0.487
		s-1.325,0.188-2.175,0.188s-1.575-0.063-2.176-0.188c-0.6-0.125-1.087-0.287-1.462-0.487s-0.646-0.43-0.813-0.688
		c-0.167-0.259-0.25-0.529-0.25-0.813s0.083-0.559,0.25-0.825s0.438-0.5,0.813-0.7s0.862-0.362,1.462-0.487
		c0.601-0.125,1.326-0.188,2.176-0.188s1.574,0.063,2.175,0.188s1.087,0.287,1.462,0.487s0.65,0.434,0.826,0.7
		c0.174,0.267,0.262,0.542,0.262,0.825S504.77,56.25,504.596,56.509z"/>
	<path fill="#FFFFFF" d="M493.533,48.084c0.899-0.842,1.666-1.805,2.299-2.888c0.667,0.95,1.451,1.8,2.351,2.55s1.941,1.417,3.125,2
		l1.851-2.05c-0.717-0.366-1.367-0.741-1.951-1.125c-0.583-0.384-1.116-0.8-1.6-1.25s-0.93-0.941-1.338-1.476
		c-0.408-0.533-0.787-1.116-1.137-1.75c0.383-1.383,0.559-2.899,0.525-4.55h-3.201c0.066,1.267,0,2.425-0.199,3.476
		c-0.2,1.05-0.551,2.017-1.051,2.899c-0.5,0.884-1.154,1.692-1.962,2.425c-0.809,0.734-1.779,1.417-2.913,2.051l2.125,1.875
		C491.607,49.655,492.633,48.926,493.533,48.084z"/>
	<path fill="#FFFFFF" d="M326.48,253.021l8.851-8.85c2.922-2.922,4.914-6.453,5.607-9.944c0.271-1.362,0.331-2.66,0.196-3.866
		l0.459,0.394c3.106-3.624,6.902-6.79,8.011-6.666c2.887,0.36,42.056,0.037,46.513-0.001l0.235-0.002l0.224-0.074
		c0.273-0.091,6.752-2.26,11.538-5.669l0.157-0.112l24.541-29.337c4.117-4.927,3.462-12.284-1.462-16.401
		c-4.923-4.119-12.281-3.464-16.37,1.424l-15.602,17.512c-1.849-2.878-5.07-4.794-8.737-4.794h-33.62
		c-9.438-4.023-18.087-4.455-25.711-1.28c-10.237,4.263-15.487,13.694-17.118,17.135c-0.761-0.175-1.564-0.274-2.411-0.274
		c-4.174,0-8.859,2.194-12.535,5.87l-8.852,8.85L326.48,253.021z M332.488,188.114c6.914-2.871,14.864-2.4,23.628,1.397l0.285,0.124
		h34.239c4.072,0,7.386,3.313,7.386,7.386s-3.313,7.386-7.386,7.386h-23.158v3h23.158c5.727,0,10.386-4.659,10.386-10.386
		c0-0.884-0.123-1.739-0.332-2.559l16.556-18.584c3.059-3.656,8.52-4.141,12.176-1.083c3.654,3.056,4.141,8.518,1.084,12.175
		l-24.292,29.04c-3.934,2.754-9.243,4.687-10.371,5.081c-17.426,0.147-43.847,0.273-45.872,0.022
		c-2.839-0.355-7.106,3.758-9.588,6.48c-0.413-0.931-0.967-1.777-1.688-2.497l-20.377-20.376c-0.41-0.41-0.859-0.771-1.343-1.083
		C318.535,200.449,323.421,191.877,332.488,188.114z M301.368,210.207c3.125-3.125,7.018-4.991,10.414-4.991
		c1.828,0,3.356,0.562,4.419,1.625l20.378,20.377c1.449,1.448,1.952,3.729,1.417,6.425c-0.579,2.915-2.279,5.901-4.786,8.407
		l-6.729,6.729l-31.842-31.843L301.368,210.207z"/>
	<path fill="#FFFFFF" d="M327.245,140.275c0,22.653,18.43,41.083,41.083,41.083c22.652,0,41.082-18.43,41.082-41.083
		s-18.43-41.083-41.082-41.083C345.675,99.192,327.245,117.622,327.245,140.275z M406.41,140.275
		c0,20.999-17.084,38.083-38.082,38.083c-20.999,0-38.083-17.084-38.083-38.083s17.084-38.083,38.083-38.083
		C389.326,102.192,406.41,119.276,406.41,140.275z"/>
	<path fill="#FFFFFF" d="M349.094,121.848v14.225l19.233,20.992l19.234-20.992v-14.226l-19.234,20.991L349.094,121.848z
		 M384.562,134.906l-16.234,17.718l-16.233-17.718v-5.344l16.233,17.716l16.234-17.716V134.906z"/>
	<path fill="#FFFFFF" d="M349.094,156.345h13.525l-13.525-14.763V156.345z M352.094,149.298l3.708,4.047h-3.708V149.298z"/>
	<path fill="#FFFFFF" d="M387.562,156.345v-14.763l-13.524,14.763H387.562z M384.562,153.345h-3.708l3.708-4.047V153.345z"/>
	<path fill="#FFFFFF" d="M251.476,279.221c0,3.5,0.563,6.045,1.688,7.637s2.712,2.389,4.762,2.389c2.05,0,3.638-0.797,4.763-2.389
		s1.688-4.137,1.688-7.637s-0.563-6.047-1.688-7.639c-1.125-1.59-2.712-2.387-4.763-2.387c-2.05,0-3.637,0.797-4.762,2.387
		C252.038,273.174,251.476,275.721,251.476,279.221z M255.463,273.457c0.591-1.191,1.413-1.787,2.462-1.787
		c1.05,0,1.871,0.596,2.463,1.787c0.591,1.193,0.887,3.113,0.887,5.764s-0.296,4.57-0.887,5.762
		c-0.592,1.191-1.413,1.787-2.463,1.787c-1.05,0-1.871-0.596-2.462-1.787c-0.592-1.191-0.887-3.111-0.887-5.762
		S254.871,274.65,255.463,273.457z"/>
	<path fill="#FFFFFF" d="M269.975,271.082c-0.6,0.477-1.25,0.863-1.95,1.164v1.824c0,0.217,0.1,0.283,0.3,0.199
		c0.533-0.199,1.087-0.449,1.663-0.75c0.575-0.299,1.104-0.641,1.587-1.023h0.025v16.35h3.1v-19.35h-3.1
		C271.117,270.078,270.575,270.607,269.975,271.082z"/>
	<path fill="#FFFFFF" d="M289.95,278.746c-0.584,1.217-1.305,2.299-2.163,3.25c-0.859,0.949-1.813,1.816-2.863,2.6l2.25,1.799
		c1.25-0.916,2.354-1.941,3.313-3.074s1.754-2.408,2.388-3.824c1.366,2.6,3.258,4.75,5.675,6.449l2.075-2.1
		c-1.567-1.066-2.875-2.275-3.925-3.625c-1.05-1.35-1.9-2.926-2.55-4.725c0.183-0.918,0.321-1.875,0.413-2.875
		c0.091-1,0.121-2.059,0.087-3.176h-3.2c0.116,1.934,0.041,3.662-0.225,5.188C290.958,276.158,290.533,277.529,289.95,278.746z"/>
	<polygon fill="#FFFFFF" points="300.925,268.07 300.925,291.246 304.025,291.246 304.025,278.971 307.7,278.971 307.7,276.32 
		304.025,276.32 304.025,268.07 	"/>
	<path fill="#FFFFFF" d="M307.875,279.121v2.574h21.9v-2.574h-5.35v-3.227c0.716-0.383,1.263-0.85,1.638-1.398
		c0.375-0.551,0.563-1.176,0.563-1.875c0-0.65-0.171-1.26-0.513-1.826c-0.342-0.566-0.846-1.059-1.513-1.475
		s-1.483-0.742-2.45-0.975c-0.967-0.234-2.075-0.35-3.325-0.35s-2.358,0.121-3.325,0.361c-0.967,0.242-1.784,0.566-2.45,0.975
		c-0.667,0.41-1.171,0.896-1.513,1.463s-0.512,1.176-0.512,1.826c0,1.365,0.716,2.449,2.15,3.25v3.25H307.875z M321.325,279.145
		h-5.075v-2.324c0.383,0.066,0.791,0.113,1.225,0.137c0.434,0.025,0.883,0.039,1.35,0.039c0.45,0,0.883-0.014,1.3-0.039
		c0.416-0.023,0.816-0.07,1.2-0.137V279.145z M314.5,271.846c0.166-0.268,0.429-0.504,0.787-0.713s0.829-0.375,1.413-0.5
		s1.292-0.188,2.125-0.188c0.816,0,1.513,0.063,2.087,0.188c0.575,0.125,1.046,0.291,1.413,0.5s0.633,0.449,0.8,0.725
		c0.166,0.275,0.25,0.555,0.25,0.838c0,0.268-0.084,0.521-0.25,0.762c-0.167,0.242-0.434,0.451-0.8,0.625
		c-0.367,0.176-0.837,0.318-1.413,0.426c-0.575,0.109-1.271,0.162-2.087,0.162c-0.833,0-1.542-0.053-2.125-0.162
		c-0.583-0.107-1.054-0.25-1.413-0.426c-0.358-0.174-0.621-0.383-0.787-0.625c-0.167-0.24-0.25-0.494-0.25-0.762
		C314.25,272.395,314.333,272.111,314.5,271.846z"/>
	<path fill="#FFFFFF" d="M318.825,282.57c-2.583,0-4.55,0.404-5.9,1.213s-2.025,1.879-2.025,3.213c0,1.316,0.667,2.383,2,3.199
		c1.333,0.816,3.308,1.225,5.925,1.225c2.583,0,4.55-0.408,5.9-1.225c1.35-0.816,2.025-1.883,2.025-3.199
		c0-1.334-0.675-2.404-2.025-3.213C323.375,282.975,321.408,282.57,318.825,282.57z M323.262,287.746
		c-0.159,0.25-0.417,0.465-0.775,0.648s-0.837,0.334-1.438,0.451c-0.6,0.115-1.342,0.174-2.225,0.174s-1.625-0.059-2.225-0.174
		c-0.6-0.117-1.079-0.268-1.438-0.451s-0.617-0.398-0.775-0.648c-0.159-0.25-0.237-0.5-0.237-0.75s0.079-0.496,0.237-0.738
		c0.158-0.242,0.417-0.453,0.775-0.637s0.838-0.33,1.438-0.438c0.6-0.109,1.342-0.164,2.225-0.164s1.625,0.055,2.225,0.164
		c0.6,0.107,1.079,0.254,1.438,0.438s0.616,0.395,0.775,0.637c0.158,0.242,0.238,0.488,0.238,0.738S323.42,287.496,323.262,287.746z
		"/>
	<polygon fill="#FFFFFF" points="345.575,268.07 345.575,291.246 348.675,291.246 348.675,279.346 352.3,279.346 352.3,276.695 
		348.675,276.695 348.675,268.07 	"/>
	<path fill="#FFFFFF" d="M335.988,278.883c-0.742,1.074-1.621,2.109-2.638,3.1c-1.017,0.992-2.159,1.871-3.425,2.639l2.25,2
		c1.166-0.816,2.25-1.701,3.25-2.65c1-0.951,1.9-1.975,2.7-3.076c0.667,0.951,1.375,1.826,2.125,2.625
		c0.75,0.801,1.617,1.592,2.6,2.375l2.225-2.074c-1.117-0.801-2.104-1.65-2.962-2.551c-0.859-0.898-1.646-1.898-2.363-3
		c0.7-1.299,1.238-2.641,1.613-4.023c0.375-1.385,0.57-2.801,0.587-4.25c-1.184,0.033-2.325,0.049-3.425,0.049
		c-1.1,0-2.184,0-3.25,0H331.4v2.725h2.5c0.7,0,1.438-0.004,2.213-0.012c0.775-0.008,1.563-0.037,2.362-0.088
		c-0.067,0.934-0.313,1.934-0.737,3C337.313,276.736,336.729,277.809,335.988,278.883z"/>
	<path fill="#FFFFFF" d="M357.987,280.795c0.758,0.316,1.613,0.475,2.563,0.475c0.95,0,1.804-0.158,2.563-0.475
		s1.396-0.74,1.913-1.275c0.516-0.533,0.912-1.152,1.188-1.861c0.274-0.709,0.412-1.455,0.412-2.238
		c0-0.799-0.138-1.553-0.412-2.262c-0.275-0.709-0.672-1.33-1.188-1.863c-0.518-0.533-1.154-0.953-1.913-1.262
		s-1.612-0.463-2.563-0.463c-0.95,0-1.804,0.158-2.563,0.475s-1.396,0.742-1.913,1.275s-0.912,1.154-1.188,1.863
		c-0.275,0.707-0.412,1.453-0.412,2.236s0.137,1.529,0.412,2.238c0.275,0.709,0.671,1.328,1.188,1.861
		C356.591,280.055,357.229,280.479,357.987,280.795z M358.375,272.996c0.516-0.566,1.241-0.852,2.175-0.852
		c0.899,0,1.612,0.285,2.138,0.852s0.787,1.375,0.787,2.424c0,1.051-0.262,1.863-0.787,2.438c-0.525,0.576-1.238,0.863-2.138,0.863
		c-0.934,0-1.659-0.287-2.175-0.863c-0.517-0.574-0.775-1.387-0.775-2.438C357.6,274.371,357.858,273.563,358.375,272.996z"/>
	<rect x="369.425" y="268.07" fill="#FFFFFF" width="3.101" height="23.176"/>
	<path fill="#FFFFFF" d="M353,286.52h3.975c0.9,0,1.854-0.012,2.862-0.037c1.008-0.025,2.02-0.07,3.038-0.137
		c1.016-0.066,2.016-0.143,3-0.225c0.982-0.084,1.916-0.191,2.8-0.326v-2.549c-0.917,0.115-1.88,0.217-2.888,0.299
		c-1.008,0.084-2.025,0.15-3.05,0.201c-1.024,0.049-2.034,0.086-3.025,0.111c-0.992,0.025-1.913,0.037-2.763,0.037H353V286.52z"/>
	<rect x="383.725" y="268.721" fill="#FFFFFF" width="7.95" height="2.449"/>
	<rect x="380.775" y="272.27" fill="#FFFFFF" width="13.85" height="2.4"/>
	<path fill="#FFFFFF" d="M384.887,285.195c-0.441,0-0.871,0-1.287,0h-3.225v2.551h3.25c0.916,0,1.879-0.018,2.887-0.051
		c1.009-0.033,2.025-0.078,3.051-0.137s2.029-0.135,3.012-0.227c0.984-0.09,1.917-0.203,2.801-0.336v-2.477
		c-0.934,0.135-1.904,0.238-2.912,0.313c-1.01,0.076-2.029,0.146-3.063,0.213v-1.85c1.232-0.232,2.17-0.703,2.813-1.412
		c0.641-0.709,0.962-1.537,0.962-2.488c0-0.566-0.116-1.092-0.351-1.574c-0.232-0.484-0.583-0.908-1.049-1.275
		c-0.467-0.367-1.038-0.654-1.713-0.863c-0.676-0.207-1.446-0.313-2.313-0.313c-0.884,0-1.662,0.105-2.338,0.313
		c-0.675,0.209-1.242,0.496-1.699,0.863c-0.459,0.367-0.805,0.791-1.038,1.275c-0.233,0.482-0.351,1.008-0.351,1.574
		c0,0.967,0.334,1.809,1,2.525c0.667,0.717,1.65,1.184,2.951,1.4v1.949C385.791,285.188,385.328,285.195,384.887,285.195z
		 M385.787,280.57c-0.375-0.35-0.563-0.775-0.563-1.275c0-0.482,0.188-0.9,0.563-1.25s1.029-0.525,1.963-0.525
		c0.916,0,1.566,0.176,1.949,0.525c0.384,0.35,0.576,0.768,0.576,1.25c0,0.5-0.192,0.926-0.576,1.275
		c-0.383,0.35-1.033,0.525-1.949,0.525C386.816,281.096,386.162,280.92,385.787,280.57z"/>
	<polygon fill="#FFFFFF" points="396,268.07 396,291.246 398.975,291.246 398.975,280.221 402.35,280.221 402.35,277.621 
		398.975,277.621 398.975,268.07 	"/>
	<rect x="420.024" y="268.07" fill="#FFFFFF" width="2.875" height="23.176"/>
	<path fill="#FFFFFF" d="M402.975,285.096h5.775c1.05,0,2.104-0.041,3.162-0.125s2.07-0.268,3.037-0.551v-2.525
		c-0.483,0.117-0.958,0.213-1.425,0.289c-0.467,0.074-0.917,0.137-1.35,0.188l0.2-9.051h-2.65l-0.075,9.199H407.5l-0.125-9.199
		h-2.676l0.15,9.199h-1.875V285.096z"/>
	<rect x="403.225" y="270.02" fill="#FFFFFF" width="10.675" height="2.551"/>
	<polygon fill="#FFFFFF" points="418.725,290.67 418.725,268.32 415.975,268.32 415.975,273.846 413.425,273.846 413.425,276.27 
		416,276.27 416,278.846 413.425,278.846 413.425,281.27 415.975,281.27 415.975,290.67 	"/>
	<polygon fill="#FFFFFF" points="440.35,268.07 440.35,279.57 443.425,279.57 443.425,275.07 446.9,275.07 446.9,272.496 
		443.425,272.496 443.425,268.07 	"/>
	<path fill="#FFFFFF" d="M426.125,268.746v10.148h10.824v-10.148h-3v3h-4.774v-3H426.125z M433.975,274.096v2.4h-4.824v-2.4H433.975
		z"/>
	<polygon fill="#FFFFFF" points="443.425,286.895 443.425,280.545 428.775,280.545 428.775,283.07 440.375,283.07 440.375,284.42 
		428.775,284.42 428.775,290.996 443.9,290.996 443.9,288.471 431.85,288.471 431.85,286.895 	"/>
	<path fill="#FFFFFF" d="M453.475,290.082c0.666,0.408,1.496,0.734,2.488,0.977c0.99,0.24,2.145,0.361,3.462,0.361
		c1.316,0,2.471-0.121,3.462-0.361c0.992-0.242,1.826-0.568,2.5-0.977c0.676-0.408,1.184-0.891,1.525-1.449s0.513-1.162,0.513-1.813
		s-0.171-1.254-0.513-1.813s-0.85-1.045-1.525-1.463c-0.674-0.416-1.508-0.746-2.5-0.986c-0.991-0.242-2.146-0.363-3.462-0.363
		c-1.317,0-2.472,0.121-3.462,0.363c-0.992,0.24-1.822,0.57-2.488,0.986c-0.666,0.418-1.166,0.904-1.5,1.463s-0.5,1.162-0.5,1.813
		s0.166,1.254,0.5,1.813S452.809,289.674,453.475,290.082z M454.862,286.033c0.175-0.258,0.454-0.488,0.837-0.688
		c0.384-0.201,0.879-0.363,1.488-0.488c0.607-0.125,1.354-0.188,2.237-0.188s1.629,0.063,2.237,0.188s1.104,0.287,1.488,0.488
		c0.383,0.199,0.662,0.43,0.837,0.688s0.263,0.521,0.263,0.787c0,0.283-0.088,0.555-0.263,0.813s-0.454,0.488-0.837,0.688
		c-0.385,0.199-0.88,0.363-1.488,0.488s-1.354,0.188-2.237,0.188s-1.63-0.063-2.237-0.188c-0.609-0.125-1.104-0.289-1.488-0.488
		c-0.383-0.199-0.662-0.43-0.837-0.688s-0.263-0.529-0.263-0.813C454.6,286.555,454.688,286.291,454.862,286.033z"/>
	<path fill="#FFFFFF" d="M455.662,274.82c-0.275-0.482-0.521-1.016-0.737-1.6c0.134-0.701,0.229-1.426,0.288-2.176
		c0.058-0.75,0.078-1.533,0.063-2.35h-3.101c0.083,1.199,0.083,2.309,0,3.324c-0.083,1.018-0.313,1.967-0.688,2.852
		c-0.375,0.883-0.917,1.707-1.625,2.475c-0.708,0.766-1.646,1.5-2.813,2.199l2.125,1.975c1.066-0.699,1.971-1.445,2.712-2.236
		c0.742-0.791,1.354-1.654,1.838-2.588c0.517,0.883,1.108,1.68,1.775,2.387c0.666,0.709,1.425,1.305,2.275,1.789l1.725-1.727v2.301
		h3v-5.699h1.8v6.398h3V268.07h-3v5.125h-1.8v-4.875h-3v10.324c-0.617-0.416-1.158-0.824-1.625-1.225s-0.884-0.813-1.25-1.236
		C456.258,275.758,455.938,275.305,455.662,274.82z"/>
	<polygon fill="#FFFFFF" points="339.002,323.597 360,346.429 380.998,323.597 380.998,311.494 360,334.326 339.002,311.494 	"/>
	<polygon fill="#FFFFFF" points="380.998,1158.777 360,1135.945 339.002,1158.777 339.002,1170.88 360,1148.048 380.998,1170.88 	
		"/>
	<path fill="#FFFFFF" d="M286.613,634.882c-1.125,1.592-1.688,4.138-1.688,7.638s0.563,6.046,1.688,7.638
		c1.125,1.591,2.712,2.388,4.762,2.388c2.05,0,3.638-0.797,4.763-2.388c1.125-1.592,1.688-4.138,1.688-7.638
		s-0.563-6.046-1.688-7.638c-1.125-1.591-2.712-2.388-4.763-2.388C289.326,632.494,287.738,633.291,286.613,634.882z
		 M288.913,636.757c0.591-1.191,1.413-1.787,2.462-1.787c1.05,0,1.871,0.596,2.463,1.787c0.591,1.192,0.887,3.112,0.887,5.763
		s-0.296,4.571-0.887,5.763c-0.592,1.191-1.413,1.787-2.463,1.787c-1.05,0-1.871-0.596-2.462-1.787
		c-0.592-1.191-0.887-3.112-0.887-5.763S288.321,637.949,288.913,636.757z"/>
	<path fill="#FFFFFF" d="M308.113,640.17c-0.225,0.449-0.529,0.941-0.913,1.475s-0.875,1.125-1.475,1.775l-5.825,6.375v2.35h12.225
		v-2.5h-8.675v-0.05l4.7-5.025c0.5-0.533,0.975-1.079,1.425-1.638c0.45-0.558,0.846-1.125,1.188-1.699
		c0.342-0.575,0.608-1.158,0.8-1.75c0.191-0.592,0.288-1.18,0.288-1.763c0-1.767-0.509-3.079-1.525-3.938s-2.458-1.288-4.325-1.288
		c-1.067,0-2.075,0.2-3.025,0.601c-0.95,0.399-1.784,0.925-2.5,1.575v2.449c0,0.101,0.033,0.167,0.1,0.2
		c0.066,0.034,0.142,0.017,0.225-0.05c0.833-0.783,1.671-1.362,2.513-1.737c0.841-0.375,1.679-0.563,2.512-0.563
		c0.983,0,1.708,0.259,2.175,0.774c0.466,0.518,0.7,1.176,0.7,1.976c0,0.384-0.042,0.774-0.125,1.175S308.338,639.72,308.113,640.17
		z"/>
	<rect x="319.225" y="648.72" fill="#FFFFFF" width="21.45" height="2.575"/>
	<path fill="#FFFFFF" d="M331.7,632.444h-3.1c0.033,1.45-0.125,2.726-0.475,3.825c-0.35,1.1-0.875,2.071-1.575,2.912
		c-0.7,0.842-1.571,1.571-2.613,2.188c-1.042,0.617-2.229,1.167-3.563,1.65l1.9,2.35c1.616-0.583,3.112-1.403,4.487-2.462
		s2.487-2.321,3.337-3.788c0.917,1.45,2.017,2.696,3.3,3.738c1.283,1.041,2.783,1.871,4.5,2.487l1.875-2.351
		c-1.984-0.732-3.65-1.658-5-2.774c-1.35-1.116-2.484-2.517-3.4-4.2c0.133-0.566,0.229-1.146,0.288-1.737
		C331.721,633.69,331.733,633.078,331.7,632.444z"/>
	<path fill="#FFFFFF" d="M342.775,633.295v15.1H353.4v-15.1H342.775z M350.325,645.819H345.9v-9.975h4.425V645.819z"/>
	<polygon fill="#FFFFFF" points="356.725,631.369 356.725,654.545 359.825,654.545 359.825,641.944 363.45,641.944 363.45,639.295 
		359.825,639.295 359.825,631.369 	"/>
	<rect x="363.825" y="648.744" fill="#FFFFFF" width="21.45" height="2.575"/>
	<polygon fill="#FFFFFF" points="381.95,635.694 381.95,633.095 367.225,633.095 367.225,645.694 382.25,645.694 382.25,643.145 
		370.275,643.145 370.275,640.494 381.551,640.494 381.551,637.994 370.275,637.994 370.275,635.694 	"/>
	<path fill="#FFFFFF" d="M397.375,642.257c-0.55,1.009-1.262,1.983-2.137,2.925c-0.875,0.942-1.955,1.821-3.238,2.638l2.176,1.976
		c1.966-1.301,3.533-2.788,4.699-4.463s2.033-3.546,2.6-5.612h2.826v2.625h-3.125v2.575h3.1v9.05h2.875v-22.351h-2.875v5.525h-2.25
		c0.1-0.616,0.175-1.246,0.225-1.888c0.051-0.642,0.092-1.296,0.125-1.962c-0.867,0.017-1.767,0.029-2.699,0.037
		c-0.934,0.009-1.9,0.013-2.9,0.013h-3.5v2.55h2.125c0.65,0,1.258,0,1.824,0s1.184-0.017,1.851-0.05
		c-0.05,1.1-0.208,2.191-0.476,3.274C398.334,640.203,397.926,641.249,397.375,642.257z"/>
	<rect x="408.85" y="631.369" fill="#FFFFFF" width="2.9" height="23.176"/>
	<polygon fill="#FFFFFF" points="432.275,631.369 429.2,631.369 429.2,644.845 432.275,644.845 432.275,641.494 435.65,641.494 
		435.65,638.97 432.25,638.97 432.25,636.869 435.65,636.869 435.65,634.319 432.275,634.319 	"/>
	<path fill="#FFFFFF" d="M414.95,635.52c-0.3,0.717-0.45,1.483-0.45,2.3c0,0.817,0.15,1.584,0.45,2.3
		c0.3,0.717,0.716,1.338,1.25,1.863c0.533,0.524,1.166,0.938,1.899,1.237s1.542,0.45,2.426,0.45c0.899,0,1.721-0.15,2.462-0.45
		s1.379-0.713,1.913-1.237c0.533-0.525,0.949-1.142,1.25-1.851c0.3-0.708,0.449-1.479,0.449-2.313c0-0.816-0.149-1.583-0.449-2.3
		c-0.301-0.717-0.717-1.342-1.25-1.875c-0.534-0.533-1.172-0.954-1.913-1.263c-0.741-0.308-1.563-0.462-2.462-0.462
		c-0.884,0-1.692,0.154-2.426,0.462c-0.733,0.309-1.366,0.729-1.899,1.263C415.666,634.178,415.25,634.803,414.95,635.52z
		 M418.388,635.432c0.541-0.607,1.254-0.912,2.138-0.912c0.933,0,1.666,0.305,2.199,0.912c0.533,0.609,0.801,1.404,0.801,2.388
		s-0.268,1.775-0.801,2.375c-0.533,0.601-1.267,0.9-2.199,0.9c-0.9,0-1.617-0.3-2.15-0.9c-0.533-0.6-0.8-1.392-0.8-2.375
		S417.846,636.041,418.388,635.432z"/>
	<polygon fill="#FFFFFF" points="432.275,654.595 432.275,645.819 417.35,645.819 417.35,648.369 429.2,648.369 429.2,654.595 	"/>
	<path fill="#FFFFFF" d="M286.613,1015.187c1.125,1.591,2.712,2.388,4.762,2.388c2.05,0,3.638-0.797,4.763-2.388
		c1.125-1.592,1.688-4.138,1.688-7.638s-0.563-6.046-1.688-7.638c-1.125-1.591-2.712-2.388-4.763-2.388
		c-2.05,0-3.637,0.797-4.762,2.388c-1.125,1.592-1.688,4.138-1.688,7.638S285.488,1013.595,286.613,1015.187z M288.913,1001.786
		c0.591-1.191,1.413-1.787,2.462-1.787c1.05,0,1.871,0.596,2.463,1.787c0.591,1.192,0.887,3.112,0.887,5.763
		s-0.296,4.571-0.887,5.763c-0.592,1.191-1.413,1.787-2.463,1.787c-1.05,0-1.871-0.596-2.462-1.787
		c-0.592-1.191-0.887-3.112-0.887-5.763S288.321,1002.979,288.913,1001.786z"/>
	<path fill="#FFFFFF" d="M308.238,1014.036c-0.309,0.275-0.667,0.487-1.075,0.638c-0.409,0.15-0.846,0.225-1.313,0.225
		c-1,0-1.934-0.183-2.8-0.55c-0.867-0.366-1.767-0.975-2.7-1.825c-0.084-0.066-0.163-0.078-0.238-0.037
		c-0.075,0.042-0.112,0.112-0.112,0.213v2.6c0.7,0.684,1.563,1.204,2.587,1.563s2.112,0.537,3.263,0.537
		c1.033,0,1.954-0.158,2.762-0.475c0.808-0.316,1.492-0.742,2.05-1.275c0.558-0.533,0.983-1.141,1.275-1.824
		c0.292-0.684,0.438-1.4,0.438-2.15c0-1.283-0.388-2.32-1.163-3.112s-1.779-1.313-3.013-1.563v-0.05
		c0.533-0.101,1.025-0.283,1.475-0.551c0.45-0.266,0.841-0.596,1.175-0.987c0.333-0.392,0.596-0.837,0.787-1.337
		s0.288-1.033,0.288-1.601c0-1.583-0.546-2.808-1.637-3.675c-1.092-0.866-2.596-1.3-4.513-1.3c-1.15,0.017-2.179,0.217-3.087,0.6
		c-0.909,0.384-1.638,0.825-2.188,1.325v2.45c0,0.1,0.038,0.171,0.112,0.212c0.075,0.042,0.154,0.029,0.238-0.037
		c0.45-0.4,0.875-0.733,1.275-1s0.795-0.479,1.188-0.638c0.391-0.158,0.779-0.271,1.163-0.337c0.383-0.066,0.783-0.101,1.2-0.101
		c0.883,0,1.617,0.222,2.2,0.663c0.583,0.441,0.875,1.137,0.875,2.087c0,0.634-0.096,1.15-0.288,1.55
		c-0.192,0.4-0.462,0.713-0.813,0.938c-0.35,0.226-0.759,0.388-1.225,0.488c-0.467,0.1-0.975,0.158-1.525,0.175h-0.7v2.475h0.625
		c1.6,0,2.733,0.275,3.4,0.825c0.666,0.55,1,1.408,1,2.575c0,0.483-0.088,0.917-0.263,1.3
		C308.788,1013.433,308.546,1013.762,308.238,1014.036z"/>
	<path fill="#FFFFFF" d="M331.7,997.474h-3.1c0.033,1.45-0.125,2.726-0.475,3.825c-0.35,1.1-0.875,2.071-1.575,2.912
		c-0.7,0.842-1.571,1.571-2.613,2.188c-1.042,0.617-2.229,1.167-3.563,1.65l1.9,2.35c1.616-0.583,3.112-1.403,4.487-2.462
		s2.487-2.321,3.337-3.788c0.917,1.45,2.017,2.696,3.3,3.738c1.283,1.041,2.783,1.871,4.5,2.487l1.875-2.351
		c-1.984-0.732-3.65-1.658-5-2.774c-1.35-1.116-2.484-2.517-3.4-4.2c0.133-0.566,0.229-1.146,0.288-1.737
		C331.721,998.72,331.733,998.107,331.7,997.474z"/>
	<rect x="319.225" y="1013.749" fill="#FFFFFF" width="21.45" height="2.575"/>
	<polygon fill="#FFFFFF" points="356.725,996.398 356.725,1019.574 359.825,1019.574 359.825,1006.974 363.45,1006.974 
		363.45,1004.324 359.825,1004.324 359.825,996.398 	"/>
	<path fill="#FFFFFF" d="M353.4,1013.424v-15.1h-10.625v15.1H353.4z M345.9,1000.874h4.425v9.975H345.9V1000.874z"/>
	<polygon fill="#FFFFFF" points="381.95,1000.724 381.95,998.124 367.225,998.124 367.225,1010.724 382.25,1010.724 
		382.25,1008.174 370.275,1008.174 370.275,1005.523 381.551,1005.523 381.551,1003.023 370.275,1003.023 370.275,1000.724 	"/>
	<rect x="363.825" y="1013.773" fill="#FFFFFF" width="21.45" height="2.575"/>
	<polygon fill="#FFFFFF" points="410.025,1007.674 413.65,1007.674 413.65,1005.023 410.025,1005.023 410.025,996.398 
		406.926,996.398 406.926,1019.574 410.025,1019.574 	"/>
	<path fill="#FFFFFF" d="M397.338,1007.211c-0.742,1.075-1.621,2.109-2.638,3.101s-2.159,1.871-3.425,2.638l2.25,2
		c1.166-0.816,2.25-1.7,3.25-2.65s1.9-1.975,2.699-3.075c0.667,0.95,1.375,1.825,2.125,2.625s1.617,1.592,2.601,2.375l2.226-2.075
		c-1.117-0.8-2.105-1.649-2.963-2.55c-0.859-0.899-1.646-1.899-2.363-3c0.701-1.3,1.238-2.642,1.613-4.024
		c0.375-1.384,0.57-2.801,0.588-4.25c-1.184,0.033-2.326,0.05-3.426,0.05s-2.184,0-3.25,0h-3.875v2.725h2.5
		c0.7,0,1.438-0.004,2.213-0.013c0.775-0.008,1.563-0.037,2.362-0.087c-0.067,0.934-0.313,1.934-0.737,3
		C398.662,1005.065,398.079,1006.137,397.338,1007.211z"/>
	<polygon fill="#FFFFFF" points="432.75,1016.499 421.175,1016.499 421.175,1011.924 418.05,1011.924 418.05,1019.124 
		432.75,1019.124 	"/>
	<polygon fill="#FFFFFF" points="435.75,1002.773 432.275,1002.773 432.275,996.398 429.2,996.398 429.2,1013.374 432.275,1013.374 
		432.275,1005.424 435.75,1005.424 	"/>
	<path fill="#FFFFFF" d="M418.725,1008.086c0.934-0.925,1.709-1.987,2.325-3.188c0.684,1,1.479,1.917,2.388,2.75
		c0.908,0.834,1.938,1.567,3.088,2.2l1.925-2.125c-0.717-0.399-1.367-0.804-1.95-1.212c-0.584-0.408-1.121-0.854-1.612-1.338
		c-0.492-0.483-0.946-1.013-1.362-1.588c-0.417-0.574-0.825-1.221-1.226-1.938c0.167-0.699,0.292-1.425,0.375-2.175
		s0.116-1.533,0.101-2.35h-3.15c0.066,1.316,0,2.524-0.2,3.625c-0.2,1.1-0.55,2.116-1.05,3.05s-1.154,1.792-1.963,2.575
		s-1.771,1.509-2.887,2.175l2,1.95C416.725,1009.815,417.791,1009.012,418.725,1008.086z"/>
	<path fill="#FFFFFF" d="M428.992,518.899c-0.577-3.303-3.019-5.791-5.937-5.791s-5.36,2.488-5.938,5.791h-0.202v70.834h-0.38
		l0.38,0.761v2.239h1.117l5.022,10.063l5.024-10.063h1.116v-2.235l0.382-0.765h-0.382v-70.834H428.992z M423.056,516.108
		c1.287,0,2.41,1.181,2.856,2.791h-5.714C420.645,517.289,421.769,516.108,423.056,516.108z M419.916,521.899h6.28v67.834h-6.28
		V521.899z M423.056,596.08l-1.67-3.347h3.341L423.056,596.08z"/>
	<rect x="318.715" y="515.214" fill="#FFFFFF" width="81.009" height="3"/>
	<rect x="318.715" y="498.16" fill="#FFFFFF" width="81.009" height="3"/>
	<rect x="318.715" y="531.586" fill="#FFFFFF" width="81.009" height="3"/>
	<rect x="318.715" y="551.368" fill="#FFFFFF" width="81.009" height="3"/>
	<path fill="#FFFFFF" d="M302.174,578.647v9.194h-6.313c-0.462-2.133-2.194-3.728-4.267-3.728c-2.426,0-4.399,2.176-4.399,4.851
		c0,2.676,1.973,4.853,4.399,4.853c1.822,0,3.388-1.229,4.055-2.976h9.525v-9.194h4.57v20.407h101.705v-94.407h7.569v-9.196h6.465
		c0.573,1.88,2.168,3.246,4.063,3.246c2.375,0,4.307-2.129,4.307-4.746c0-2.615-1.932-4.742-4.307-4.742
		c-1.895,0-3.489,1.364-4.063,3.242h-9.465v9.196h-4.569V483.22l-19.519-21.318h-82.187v27.612h-9.424v-8.004
		c1.633-0.675,2.804-2.398,2.804-4.431c0-2.615-1.931-4.742-4.304-4.742c-2.373,0-4.304,2.127-4.304,4.742
		c0,2.032,1.171,3.756,2.804,4.431v11.004h12.424v37.965h-9.666c-0.573-1.879-2.167-3.244-4.063-3.244
		c-2.374,0-4.305,2.128-4.305,4.744c0,2.615,1.931,4.743,4.305,4.743c1.895,0,3.489-1.365,4.062-3.243h9.666v45.169H302.174z
		 M291.594,590.817c-0.758,0-1.399-0.849-1.399-1.853c0-1.003,0.641-1.851,1.399-1.851c0.758,0,1.398,0.848,1.398,1.851
		C292.992,589.969,292.352,590.817,291.594,590.817z M429.546,495.209c0.708,0,1.307,0.798,1.307,1.742
		c0,0.946-0.599,1.746-1.307,1.746c-0.707,0-1.304-0.8-1.304-1.746C428.242,496.007,428.839,495.209,429.546,495.209z
		 M298.82,475.337c0.707,0,1.304,0.798,1.304,1.742c0,0.945-0.597,1.744-1.304,1.744c-0.707,0-1.304-0.799-1.304-1.744
		C297.516,476.135,298.113,475.337,298.82,475.337z M296.016,533.722c-0.708,0-1.305-0.798-1.305-1.743s0.598-1.744,1.305-1.744
		c0.707,0,1.304,0.799,1.304,1.744S296.723,533.722,296.016,533.722z M392.664,467.145l14.046,15.342h-14.046V467.145z
		 M312.744,464.901h76.92v20.585h18.785v113.568h-95.705V464.901z"/>
	<path fill="#FFFFFF" d="M319.285,868.608v25.644l39.924,43.576l39.927-43.576v-25.644l-39.927,43.572L319.285,868.608z
		 M396.136,893.086l-36.927,40.301l-36.924-40.301v-16.763l36.924,40.299l36.927-40.299V893.086z"/>
	<path fill="#FFFFFF" d="M319.285,937.107h23.578l-23.578-25.734V937.107z M322.285,919.088l13.761,15.02h-13.761V919.088z"/>
	<path fill="#FFFFFF" d="M399.136,937.107v-25.734l-23.579,25.734H399.136z M396.136,934.107h-13.761l13.761-15.02V934.107z"/>
	<path fill="#FFFFFF" d="M416.816,876.8l10.516,9.895l2.057-2.186l-12.572-11.829v-0.214h-0.227l-57.379-53.989l-70.179,66.032
		l2.056,2.186l11.433-10.758v86.071h114.296V876.8z M305.521,959.008v-85.894l53.69-50.519l54.605,51.381v85.031H305.521z"/>
	<rect x="358.5" y="684.502" fill="#FFFFFF" width="3" height="5"/>
	<rect x="358.5" y="694.502" fill="#FFFFFF" width="3" height="5"/>
	<rect x="358.5" y="764.502" fill="#FFFFFF" width="3" height="5"/>
	<rect x="358.5" y="774.502" fill="#FFFFFF" width="3" height="5"/>
	<rect x="358.5" y="794.502" fill="#FFFFFF" width="3" height="3.062"/>
	<rect x="358.5" y="784.502" fill="#FFFFFF" width="3" height="5"/>
	<rect x="358.5" y="754.502" fill="#FFFFFF" width="3" height="5"/>
	<rect x="358.5" y="704.502" fill="#FFFFFF" width="3" height="5"/>
	<rect x="358.5" y="714.502" fill="#FFFFFF" width="3" height="5"/>
	<rect x="358.5" y="744.502" fill="#FFFFFF" width="3" height="5"/>
	<rect x="358.5" y="724.502" fill="#FFFFFF" width="3" height="5"/>
	<rect x="358.5" y="734.502" fill="#FFFFFF" width="3" height="5"/>
	<rect x="216.625" y="398.334" fill="#FFFFFF" width="8.4" height="3.727"/>
	<path fill="#FFFFFF" d="M420.287,398.811c-0.375-0.217-0.861-0.389-1.462-0.514s-1.325-0.188-2.175-0.188s-1.575,0.063-2.176,0.188
		c-0.6,0.125-1.087,0.297-1.462,0.514s-0.646,0.457-0.813,0.725c-0.167,0.266-0.25,0.549-0.25,0.85c0,0.283,0.083,0.563,0.25,0.838
		s0.438,0.52,0.813,0.736s0.862,0.389,1.462,0.514c0.601,0.125,1.326,0.188,2.176,0.188s1.574-0.063,2.175-0.188
		s1.087-0.297,1.462-0.514s0.65-0.461,0.826-0.736c0.174-0.275,0.262-0.555,0.262-0.838c0-0.301-0.088-0.584-0.262-0.85
		C420.938,399.268,420.662,399.027,420.287,398.811z"/>
	<path fill="#FFFFFF" d="M676.513,363.663H43.488v61.805h633.024V363.663z M418,385.16h3.2v-3.4h3.101v13.926H421.2v-3h-3.825
		v-2.525h3.85v-2.525H418V385.16z M393.301,381.76h3.074v16.475h-3.074V381.76z M357.425,382.584h6.45v2.602h-6.45V382.584z
		 M313.45,382.035h3.15v2.1h8.675v-2.1h3.125v8.199h-14.95V382.035z M267.451,385.16h3.2v-3.4h3.1v13.926h-3.1v-3h-3.825v-2.525
		h3.85v-2.525h-3.225V385.16z M238.226,382.109h9.3v2.6h-9.3V382.109z M234.326,385.936h17.125v2.523h-17.125V385.936z
		 M210.776,390.447c-0.3-0.709-0.45-1.479-0.45-2.313c0-0.801,0.15-1.555,0.45-2.262c0.3-0.709,0.716-1.326,1.25-1.852
		c0.533-0.523,1.166-0.941,1.9-1.25c0.733-0.307,1.542-0.461,2.425-0.461s1.696,0.154,2.438,0.461c0.742,0.309,1.375,0.727,1.9,1.25
		c0.525,0.525,0.934,1.143,1.225,1.852c0.292,0.707,0.438,1.461,0.438,2.262c0,0.834-0.146,1.604-0.438,2.313s-0.7,1.32-1.225,1.838
		c-0.525,0.516-1.158,0.924-1.9,1.225s-1.554,0.449-2.438,0.449s-1.692-0.148-2.425-0.449c-0.734-0.301-1.367-0.709-1.9-1.225
		C211.492,391.768,211.076,391.156,210.776,390.447z M228.101,404.584h-14.575v-8.75h14.575V404.584z M231.576,389.234h-3.475v5.6
		h-3.075V381.76h3.075v4.875h3.475V389.234z M253.601,401.885h-21.45v-2.574h9.175v-1.826c-0.867-0.1-1.625-0.279-2.275-0.537
		c-0.65-0.258-1.188-0.57-1.612-0.938s-0.742-0.775-0.95-1.225c-0.208-0.451-0.313-0.916-0.313-1.4c0-0.566,0.138-1.104,0.413-1.613
		c0.275-0.508,0.688-0.953,1.238-1.336c0.55-0.385,1.246-0.688,2.087-0.914c0.841-0.225,1.837-0.336,2.987-0.336
		c1.117,0,2.091,0.111,2.925,0.336c0.833,0.227,1.529,0.529,2.087,0.914c0.558,0.383,0.979,0.828,1.262,1.336
		c0.283,0.51,0.425,1.047,0.425,1.613c0,0.484-0.109,0.949-0.325,1.4c-0.217,0.449-0.542,0.857-0.975,1.225s-0.971,0.68-1.612,0.938
		s-1.388,0.438-2.237,0.537v1.826h9.15V401.885z M254.876,392.936c2.683-0.852,4.741-1.93,6.175-3.238
		c1.433-1.309,2.292-2.805,2.575-4.488c-0.584,0.018-1.325,0.029-2.225,0.039c-0.9,0.008-1.85,0.012-2.85,0.012h-2.2v-2.525h3.525
		c1.15,0,2.3,0,3.45,0s2.425-0.016,3.825-0.049c-0.1,1.434-0.4,2.799-0.9,4.1c-0.5,1.299-1.196,2.486-2.088,3.563
		c-0.892,1.074-1.967,2.025-3.225,2.85c-1.259,0.824-2.705,1.488-4.338,1.988L254.876,392.936z M273.476,402.248
		c-0.333,0.574-0.833,1.074-1.5,1.5c-0.667,0.424-1.487,0.758-2.462,1c-0.975,0.24-2.112,0.361-3.413,0.361
		c-1.3,0-2.438-0.121-3.412-0.361c-0.975-0.242-1.788-0.576-2.438-1c-0.65-0.426-1.142-0.926-1.475-1.5
		c-0.333-0.576-0.5-1.197-0.5-1.863s0.167-1.291,0.5-1.875c0.333-0.584,0.825-1.088,1.475-1.512c0.65-0.426,1.462-0.764,2.438-1.014
		c0.975-0.25,2.112-0.375,3.412-0.375c1.3,0,2.438,0.125,3.413,0.375s1.796,0.588,2.462,1.014c0.667,0.424,1.167,0.928,1.5,1.512
		s0.5,1.209,0.5,1.875S273.809,401.672,273.476,402.248z M292.201,404.359h-2.875v-7.074l-1.975,1.924
		c-0.767-0.682-1.475-1.42-2.125-2.211c-0.65-0.793-1.233-1.646-1.75-2.563c-0.567,0.949-1.221,1.871-1.962,2.762
		c-0.742,0.893-1.58,1.779-2.513,2.662l-2.275-1.699c1.066-0.916,2.008-1.871,2.825-2.863c0.816-0.99,1.508-1.99,2.075-3
		c0.566-1.008,1.008-2.016,1.325-3.025c0.316-1.008,0.516-1.986,0.6-2.938c-0.55,0.035-1.096,0.051-1.638,0.051
		c-0.542,0-1.079,0-1.612,0h-2.125v-2.625h3.175c0.866,0,1.729,0,2.587,0s1.729-0.016,2.613-0.051c0,1.4-0.142,2.775-0.425,4.125
		c-0.284,1.352-0.717,2.701-1.3,4.051c0.533,1.051,1.191,2,1.975,2.85c0.783,0.85,1.625,1.65,2.525,2.4v-4.725h-2.65v-2.576h2.65
		v-7.824h2.875V404.359z M296.775,404.936h-2.925V381.76h2.925V404.936z M306.363,399.109c0.658,1.951,1.779,4.025,3.363,6.225
		H307.2c-0.7-0.75-1.358-1.592-1.975-2.523c-0.617-0.934-1.154-1.914-1.613-2.938c-0.458-1.025-0.817-2.08-1.075-3.164
		c-0.259-1.082-0.388-2.148-0.388-3.199c0-1.084,0.121-2.158,0.362-3.225s0.588-2.104,1.038-3.113c0.45-1.008,0.983-1.979,1.6-2.912
		c0.616-0.934,1.3-1.809,2.05-2.625h2.525c-0.834,1.1-1.529,2.172-2.088,3.213s-1.004,2.055-1.337,3.037
		c-0.333,0.984-0.571,1.941-0.712,2.875s-0.212,1.85-0.212,2.75C305.375,395.293,305.704,397.16,306.363,399.109z M329.1,404.936
		h-15.75v-6h12.075v-1.227H313.35v-2.449h15.175v5.949H316.4v1.275h12.7V404.936z M331.9,393.834H310v-2.398h21.9V393.834z
		 M350.801,404.984h-3.075v-4.324h-12.425v-2.525h15.5V404.984z M354.201,396.885h-21.9v-2.551h9.325v-1.85h-5.875v-6.15h11.75
		v-1.424h-11.75v-2.525h14.825v6.25h-11.775v1.449h12.275v2.4h-6.325v1.85h9.45V396.885z M365.2,399.535
		c-0.783-0.584-1.467-1.209-2.05-1.875c-0.584-0.666-1.108-1.375-1.575-2.125c-0.65,0.934-1.379,1.805-2.188,2.611
		c-0.809,0.809-1.704,1.563-2.688,2.264l-2.125-1.975c1.066-0.617,2.025-1.342,2.875-2.176c0.85-0.834,1.575-1.691,2.175-2.574
		c0.6-0.885,1.071-1.75,1.413-2.602c0.341-0.85,0.528-1.6,0.563-2.25c-0.634,0.035-1.254,0.051-1.863,0.051s-1.229,0-1.862,0h-1.925
		v-2.551h2.85c1.033,0,2.05,0,3.05,0s2.024-0.016,3.075-0.049c-0.167,2.316-0.775,4.541-1.825,6.674
		c0.566,0.934,1.188,1.76,1.862,2.477s1.479,1.424,2.412,2.125L365.2,399.535z M370.375,404.359h-2.8v-11h-2.649v-2.549h2.649
		v-8.801h2.8V404.359z M374.825,404.936h-2.85V381.76h2.85V404.936z M379.6,392.91c-0.533-0.533-0.949-1.162-1.25-1.889
		c-0.299-0.725-0.449-1.504-0.449-2.336c0-0.867,0.15-1.668,0.449-2.4c0.301-0.734,0.721-1.371,1.264-1.912
		c0.541-0.543,1.188-0.967,1.938-1.275s1.574-0.463,2.475-0.463s1.732,0.154,2.5,0.463c0.766,0.309,1.425,0.732,1.975,1.275
		c0.551,0.541,0.979,1.178,1.287,1.912c0.309,0.732,0.463,1.533,0.463,2.4c0,0.832-0.154,1.611-0.463,2.336
		c-0.309,0.727-0.736,1.355-1.287,1.889c-0.55,0.533-1.209,0.953-1.975,1.262c-0.768,0.309-1.6,0.463-2.5,0.463
		s-1.729-0.154-2.488-0.463C380.779,393.863,380.133,393.443,379.6,392.91z M396.85,404.484H381.7v-7.15h3.075v4.525h12.074V404.484
		z M405.426,392.936c2.683-0.852,4.74-1.93,6.174-3.238s2.292-2.805,2.576-4.488c-0.584,0.018-1.326,0.029-2.226,0.039
		c-0.899,0.008-1.851,0.012-2.851,0.012H406.9v-2.525h3.525c1.149,0,2.299,0,3.449,0s2.426-0.016,3.825-0.049
		c-0.101,1.434-0.399,2.799-0.899,4.1c-0.5,1.299-1.197,2.486-2.088,3.563c-0.893,1.074-1.967,2.025-3.225,2.85
		c-1.26,0.824-2.705,1.488-4.338,1.988L405.426,392.936z M424.025,402.248c-0.334,0.574-0.834,1.074-1.5,1.5
		c-0.667,0.424-1.488,0.758-2.463,1c-0.975,0.24-2.112,0.361-3.412,0.361c-1.301,0-2.438-0.121-3.412-0.361
		c-0.976-0.242-1.788-0.576-2.438-1c-0.65-0.426-1.143-0.926-1.476-1.5c-0.333-0.576-0.5-1.197-0.5-1.863s0.167-1.291,0.5-1.875
		s0.825-1.088,1.476-1.512c0.649-0.426,1.462-0.764,2.438-1.014c0.975-0.25,2.111-0.375,3.412-0.375c1.3,0,2.438,0.125,3.412,0.375
		s1.796,0.588,2.463,1.014c0.666,0.424,1.166,0.928,1.5,1.512c0.333,0.584,0.5,1.209,0.5,1.875S424.358,401.672,424.025,402.248z
		 M442.75,404.359h-2.875v-7.074l-1.975,1.924c-0.767-0.682-1.475-1.42-2.125-2.211c-0.65-0.793-1.233-1.646-1.75-2.563
		c-0.566,0.949-1.221,1.871-1.963,2.762c-0.741,0.893-1.579,1.779-2.512,2.662l-2.275-1.699c1.066-0.916,2.008-1.871,2.825-2.863
		c0.816-0.99,1.508-1.99,2.075-3c0.566-1.008,1.008-2.016,1.324-3.025c0.316-1.008,0.517-1.986,0.601-2.938
		c-0.55,0.035-1.097,0.051-1.638,0.051c-0.542,0-1.079,0-1.612,0h-2.125v-2.625h3.175c0.866,0,1.729,0,2.588,0
		c0.857,0,1.729-0.016,2.612-0.051c0,1.4-0.142,2.775-0.425,4.125c-0.284,1.352-0.717,2.701-1.301,4.051
		c0.533,1.051,1.191,2,1.976,2.85c0.783,0.85,1.625,1.65,2.524,2.4v-4.725h-2.649v-2.576h2.649v-7.824h2.875V404.359z
		 M447.325,404.936H444.4V381.76h2.925V404.936z M456.688,396.709c-0.258,1.084-0.617,2.139-1.074,3.164
		c-0.459,1.023-0.996,2.004-1.613,2.938c-0.617,0.932-1.275,1.773-1.975,2.523H449.5c1.584-2.199,2.704-4.273,3.363-6.225
		c0.658-1.949,0.986-3.816,0.986-5.6c0-0.9-0.07-1.816-0.212-2.75s-0.38-1.891-0.712-2.875c-0.334-0.982-0.779-1.996-1.338-3.037
		s-1.254-2.113-2.088-3.213h2.525c0.75,0.816,1.434,1.691,2.05,2.625s1.149,1.904,1.601,2.912c0.449,1.01,0.795,2.047,1.037,3.113
		c0.241,1.066,0.362,2.141,0.362,3.225C457.075,394.561,456.945,395.627,456.688,396.709z M479.301,399.635
		c-2.418-1.699-4.309-3.85-5.676-6.449c-0.633,1.416-1.43,2.691-2.387,3.824c-0.959,1.133-2.063,2.158-3.313,3.074l-2.25-1.799
		c1.049-0.783,2.004-1.65,2.861-2.6c0.859-0.951,1.58-2.033,2.163-3.25s1.009-2.588,1.274-4.113
		c0.268-1.525,0.342-3.254,0.226-5.188h3.2c0.033,1.117,0.004,2.176-0.088,3.176s-0.229,1.957-0.412,2.875
		c0.65,1.799,1.5,3.375,2.55,4.725s2.358,2.559,3.925,3.625L479.301,399.635z M485.65,404.936h-3.1V381.76h3.1V404.936z
		 M488.3,393.209c1.283-0.549,2.429-1.158,3.438-1.824s1.866-1.35,2.575-2.051c0.708-0.699,1.271-1.391,1.688-2.074
		c0.416-0.684,0.675-1.324,0.775-1.926c-0.7,0.035-1.393,0.051-2.075,0.051c-0.684,0-1.375,0-2.075,0h-2.75v-2.6h3.8
		c1.116,0,2.237,0,3.362,0s2.254-0.018,3.388-0.051c-0.134,1.25-0.384,2.389-0.75,3.412c-0.366,1.025-0.842,1.98-1.425,2.863
		c0.717,0.801,1.529,1.525,2.438,2.176c0.908,0.648,1.813,1.174,2.713,1.574l-1.801,2.199c-0.934-0.465-1.813-1.027-2.637-1.688
		c-0.825-0.658-1.604-1.412-2.338-2.262c-0.85,0.9-1.816,1.705-2.9,2.412c-1.083,0.709-2.25,1.371-3.5,1.988L488.3,393.209z
		 M506.9,405.01h-3.075v-6.051h-11.851v-2.549H506.9V405.01z M510.375,389.709H506.9v5.701h-3.075v-13.65h3.075v5.35h3.475V389.709z
		"/>
	<path fill="#FFFFFF" d="M386.25,391.098c0.551-0.592,0.825-1.396,0.825-2.412c0-1.084-0.274-1.93-0.825-2.539
		c-0.55-0.607-1.275-0.912-2.175-0.912c-0.917,0-1.642,0.305-2.175,0.912c-0.533,0.609-0.801,1.455-0.801,2.539
		c0,1.016,0.264,1.82,0.788,2.412s1.254,0.887,2.188,0.887C384.975,391.984,385.7,391.689,386.25,391.098z"/>
	<path fill="#FFFFFF" d="M245.713,394.646c0.275-0.174,0.471-0.369,0.587-0.586s0.175-0.441,0.175-0.676
		c0-0.232-0.059-0.463-0.175-0.688s-0.313-0.42-0.587-0.588c-0.275-0.166-0.642-0.299-1.1-0.4c-0.458-0.1-1.037-0.148-1.737-0.148
		s-1.279,0.049-1.737,0.148c-0.459,0.102-0.825,0.234-1.1,0.4c-0.275,0.168-0.467,0.363-0.575,0.588s-0.163,0.455-0.163,0.688
		c0,0.234,0.054,0.459,0.163,0.676s0.3,0.412,0.575,0.586c0.275,0.176,0.641,0.318,1.1,0.426c0.458,0.109,1.037,0.162,1.737,0.162
		s1.279-0.053,1.737-0.162C245.071,394.965,245.438,394.822,245.713,394.646z"/>
	<path fill="#FFFFFF" d="M216.351,391.41c0.917,0,1.646-0.297,2.188-0.889c0.542-0.59,0.813-1.387,0.813-2.387
		c0-0.949-0.271-1.729-0.813-2.338c-0.542-0.607-1.271-0.912-2.188-0.912c-0.434,0-0.833,0.08-1.2,0.238
		c-0.367,0.158-0.68,0.383-0.938,0.674c-0.259,0.293-0.463,0.639-0.613,1.037c-0.15,0.4-0.225,0.834-0.225,1.301
		c0,1,0.275,1.797,0.825,2.387C214.75,391.113,215.467,391.41,216.351,391.41z"/>
	<path fill="#FFFFFF" d="M269.738,398.811c-0.375-0.217-0.862-0.389-1.462-0.514s-1.325-0.188-2.175-0.188
		c-0.85,0-1.575,0.063-2.175,0.188s-1.087,0.297-1.462,0.514s-0.646,0.457-0.813,0.725c-0.167,0.266-0.25,0.549-0.25,0.85
		c0,0.283,0.083,0.563,0.25,0.838c0.167,0.275,0.438,0.52,0.813,0.736s0.862,0.389,1.462,0.514s1.325,0.188,2.175,0.188
		c0.85,0,1.575-0.063,2.175-0.188s1.087-0.297,1.462-0.514s0.65-0.461,0.825-0.736c0.175-0.275,0.262-0.555,0.262-0.838
		c0-0.301-0.087-0.584-0.262-0.85C270.388,399.268,270.113,399.027,269.738,398.811z"/>
	<rect x="316.525" y="386.51" fill="#FFFFFF" width="8.775" height="1.35"/>
	<path fill="#FFFFFF" d="M436.2,1087.441c-0.366-0.199-0.842-0.361-1.425-0.486c-0.584-0.125-1.292-0.188-2.125-0.188
		c-0.834,0-1.542,0.063-2.125,0.188c-0.584,0.125-1.055,0.287-1.412,0.486c-0.359,0.201-0.621,0.434-0.788,0.701
		c-0.167,0.266-0.25,0.541-0.25,0.824s0.083,0.555,0.25,0.813s0.429,0.488,0.788,0.688c0.357,0.201,0.828,0.363,1.412,0.488
		c0.583,0.125,1.291,0.188,2.125,0.188c0.833,0,1.541-0.063,2.125-0.188c0.583-0.125,1.059-0.287,1.425-0.488
		c0.366-0.199,0.634-0.43,0.8-0.688s0.25-0.529,0.25-0.813s-0.084-0.559-0.25-0.824
		C436.834,1087.875,436.566,1087.643,436.2,1087.441z"/>
	<path fill="#FFFFFF" d="M676.513,1052.146H50.5v-2.098h-3v2.098h-4.012v61.805h633.024V1052.146z M334.051,1074.617h3.5v-4.375h3.1
		v11.85h-3.1v-5.125h-3.5V1074.617z M292.051,1086.592c-0.55,0.15-1.184,0.293-1.9,0.426s-1.471,0.25-2.262,0.35
		c-0.792,0.1-1.6,0.176-2.425,0.225c-0.825,0.051-1.621,0.076-2.387,0.076h-4.8v-15.5h11.05v2.648h-7.9v10.201h2.35
		c1.467,0,2.913-0.109,4.338-0.326c1.425-0.215,2.737-0.441,3.938-0.674V1086.592z M296.051,1093.418h-3.1v-23.176h3.1V1093.418z
		 M312.7,1088.217c-1.033-0.75-1.962-1.563-2.787-2.438c-0.825-0.875-1.613-1.82-2.363-2.838c-0.883,1.201-1.871,2.305-2.962,3.313
		c-1.092,1.01-2.254,1.889-3.487,2.639l-2.1-2.025c1.45-0.834,2.725-1.775,3.825-2.824c1.1-1.051,2.025-2.117,2.775-3.201
		c0.75-1.082,1.329-2.15,1.737-3.199c0.408-1.051,0.654-1.992,0.737-2.826c-0.816,0.035-1.629,0.051-2.438,0.051s-1.612,0-2.412,0
		h-2.625v-2.65h3.925c1.05,0,2.133-0.004,3.25-0.012c1.116-0.008,2.383-0.021,3.8-0.037c-0.033,1.416-0.254,2.82-0.662,4.211
		c-0.409,1.393-0.979,2.738-1.713,4.039c0.767,1.082,1.613,2.092,2.538,3.023c0.925,0.934,1.962,1.785,3.113,2.551L312.7,1088.217z
		 M318.351,1093.418h-3.1v-23.176h3.1V1093.418z M322.75,1071.117h10.15v2.426h-7v1.574h6.675v2.35h-6.675v1.775h1.975
		c1.283,0,2.583-0.07,3.9-0.213c1.316-0.141,2.733-0.354,4.25-0.637v2.299c-1.45,0.334-2.904,0.572-4.363,0.713
		c-1.458,0.143-2.971,0.213-4.538,0.213h-4.375V1071.117z M341.101,1093.168h-15.25v-6.326h11.725v-1.25h-11.725v-2.525h14.8v6.25
		h-11.775v1.326h12.225V1093.168z M361.726,1088.066c-0.983-0.783-1.85-1.574-2.6-2.375c-0.75-0.799-1.458-1.674-2.125-2.625
		c-0.8,1.102-1.7,2.125-2.7,3.076c-1,0.949-2.084,1.834-3.25,2.65l-2.25-2c1.266-0.768,2.408-1.646,3.425-2.639
		c1.017-0.99,1.896-2.025,2.638-3.1c0.741-1.074,1.325-2.146,1.75-3.213c0.425-1.066,0.67-2.066,0.737-3
		c-0.8,0.051-1.587,0.08-2.362,0.088c-0.775,0.008-1.513,0.012-2.213,0.012h-2.5v-2.725h3.875c1.066,0,2.15,0,3.25,0
		c1.1,0,2.242-0.016,3.425-0.049c-0.017,1.449-0.212,2.865-0.587,4.25c-0.375,1.383-0.913,2.725-1.613,4.023
		c0.716,1.102,1.504,2.102,2.363,3c0.857,0.9,1.846,1.75,2.963,2.551L361.726,1088.066z M367.551,1093.418h-3.1v-23.176h3.1v8.625
		h3.625v2.65h-3.625V1093.418z M371.051,1082.393c1.116-0.666,2.078-1.393,2.887-2.176s1.463-1.641,1.963-2.574
		s0.85-1.951,1.05-3.051s0.267-2.309,0.2-3.625h3.15c0.016,0.816-0.018,1.6-0.101,2.35s-0.208,1.477-0.375,2.176
		c0.4,0.717,0.809,1.363,1.226,1.938c0.416,0.574,0.87,1.104,1.362,1.588c0.491,0.482,1.028,0.93,1.612,1.338
		c0.583,0.408,1.233,0.813,1.95,1.211l-1.925,2.125c-1.15-0.633-2.18-1.365-3.088-2.199s-1.704-1.75-2.388-2.75
		c-0.616,1.199-1.392,2.262-2.325,3.188s-2,1.729-3.199,2.412L371.051,1082.393z M390.275,1092.967h-14.7v-7.199h3.125v4.574h11.575
		V1092.967z M393.275,1079.268h-3.475v7.949h-3.075v-16.975h3.075v6.375h3.475V1079.268z M414.676,1092.842h-2.875v-6.299
		l-2.025,1.5c-0.801-0.783-1.529-1.672-2.188-2.664c-0.658-0.99-1.238-2.07-1.738-3.236c-0.467,1.232-1.063,2.391-1.787,3.475
		s-1.612,2.117-2.662,3.1l-2.301-1.75c1.051-0.934,1.93-1.949,2.639-3.049c0.707-1.102,1.27-2.283,1.688-3.551
		c0.416-1.266,0.695-2.625,0.837-4.074c0.142-1.451,0.171-3,0.087-4.65h3c0.018,1.049,0,2.063-0.049,3.037
		c-0.051,0.975-0.143,1.912-0.275,2.813c0.449,1.768,1.083,3.313,1.9,4.637c0.816,1.326,1.774,2.563,2.875,3.713v-5.875h-2.9v-2.625
		h2.9v-6.85h2.875V1092.842z M419.475,1093.418h-2.899v-23.176h2.899V1093.418z M421.25,1081.643c1.117-0.633,2.084-1.316,2.9-2.051
		c0.816-0.732,1.482-1.537,2-2.412c0.516-0.875,0.883-1.838,1.1-2.887c0.217-1.051,0.291-2.209,0.225-3.477h3.15
		c0.017,0.801-0.012,1.572-0.088,2.313c-0.074,0.742-0.203,1.455-0.387,2.139c0.6,1.217,1.357,2.275,2.275,3.174
		c0.916,0.9,2.1,1.709,3.549,2.426l-1.899,2.025c-1.067-0.518-2.029-1.158-2.888-1.926c-0.858-0.766-1.604-1.65-2.237-2.65
		c-0.616,1.117-1.384,2.117-2.3,3c-0.917,0.885-1.975,1.676-3.176,2.375L421.25,1081.643z M439.9,1090.779
		c-0.334,0.559-0.825,1.047-1.475,1.463c-0.65,0.416-1.459,0.746-2.426,0.988c-0.967,0.24-2.084,0.361-3.35,0.361
		c-1.268,0-2.379-0.121-3.338-0.361c-0.959-0.242-1.762-0.572-2.412-0.988s-1.138-0.904-1.463-1.463
		c-0.324-0.559-0.487-1.162-0.487-1.813s0.163-1.262,0.487-1.838c0.325-0.574,0.813-1.07,1.463-1.486s1.453-0.746,2.412-0.988
		c0.959-0.24,2.07-0.361,3.338-0.361c1.266,0,2.383,0.121,3.35,0.361c0.967,0.242,1.775,0.572,2.426,0.988
		c0.649,0.416,1.141,0.912,1.475,1.486c0.333,0.576,0.5,1.188,0.5,1.838S440.233,1090.221,439.9,1090.779z M443.426,1078.268h-3.476
		v5.775h-3.075v-13.801h3.075v5.426h3.476V1078.268z"/>
	<path fill="#FFFFFF" d="M424.147,1344.74c4.204,0,7.625-3.421,7.625-7.626c0-4.204-3.421-7.625-7.625-7.625
		c-3.69,0-6.776,2.637-7.476,6.125h-47.854c-0.568-3.76-3.504-6.746-7.24-7.389v-8.858c31.758-0.238,64.069-7.997,64.069-20.858
		v-68.337c0-13.063-33.338-20.87-65.569-20.87c-32.231,0-65.569,7.807-65.569,20.87v68.337c0,12.861,32.313,20.62,64.069,20.858
		v8.858c-3.736,0.643-6.672,3.628-7.24,7.389h-46.816c-0.699-3.488-3.784-6.125-7.475-6.125c-4.205,0-7.626,3.421-7.626,7.625
		c0,4.205,3.421,7.626,7.626,7.626c3.691,0,6.776-2.637,7.475-6.126h46.87c0.785,4.081,4.379,7.176,8.687,7.176
		c4.307,0,7.901-3.095,8.687-7.176h47.907C417.371,1342.104,420.457,1344.74,424.147,1344.74z M360.078,1212.302
		c37.428,0,62.569,9.24,62.569,17.87s-25.142,17.87-62.569,17.87c-37.427,0-62.569-9.24-62.569-17.87
		S322.651,1212.302,360.078,1212.302z M297.509,1236.639c8.868,9.129,36.084,14.403,62.569,14.403s53.701-5.274,62.569-14.402
		v16.498c0,8.63-25.142,17.87-62.569,17.87c-37.427,0-62.569-9.24-62.569-17.87V1236.639z M297.509,1259.605
		c8.868,9.128,36.084,14.402,62.569,14.402s53.701-5.274,62.569-14.402v16.319c0,8.63-25.142,17.87-62.569,17.87
		c-37.427,0-62.569-9.24-62.569-17.87V1259.605z M297.509,1298.509v-16.116c8.868,9.128,36.084,14.402,62.569,14.402
		s53.701-5.274,62.569-14.402v16.116c0,8.63-25.142,17.869-62.569,17.869C322.651,1316.378,297.509,1307.139,297.509,1298.509z
		 M360.078,1342.79c-3.226,0-5.851-2.625-5.851-5.851s2.625-5.851,5.851-5.851c3.226,0,5.851,2.625,5.851,5.851
		S363.304,1342.79,360.078,1342.79z"/>
	<path fill="#FFFFFF" d="M323.962,1385.055c-2.05,0-3.637,0.797-4.762,2.388c-1.125,1.592-1.688,4.138-1.688,7.638
		s0.563,6.046,1.688,7.638c1.125,1.591,2.712,2.388,4.762,2.388c2.05,0,3.638-0.797,4.763-2.388
		c1.125-1.592,1.688-4.138,1.688-7.638s-0.563-6.046-1.688-7.638C327.6,1385.852,326.013,1385.055,323.962,1385.055z
		 M326.425,1400.843c-0.592,1.191-1.413,1.787-2.463,1.787c-1.05,0-1.871-0.596-2.462-1.787c-0.592-1.191-0.887-3.112-0.887-5.763
		s0.295-4.57,0.887-5.763c0.591-1.191,1.413-1.787,2.462-1.787c1.05,0,1.871,0.596,2.463,1.787c0.591,1.192,0.887,3.112,0.887,5.763
		S327.017,1399.651,326.425,1400.843z"/>
	<path fill="#FFFFFF" d="M343.112,1404.705v-4.225h2.725v-2.5h-2.725v-12.625h-3.275l-8.2,12.524v2.601h8.4v4.225H343.112z
		 M334.162,1398.03v-0.05l5.2-8.025l0.85-1.65l-0.075,1.65v8.075H334.162z"/>
	<path fill="#FFFFFF" d="M358.012,1385.38h-4.75v19.325h4.75c1.433,0,2.792-0.188,4.075-0.563s2.408-0.958,3.375-1.75
		c0.967-0.791,1.733-1.804,2.3-3.037s0.851-2.7,0.851-4.4c0-3.267-0.884-5.679-2.65-7.237S361.545,1385.38,358.012,1385.38z
		 M363.412,1400.343c-1.233,1.175-2.925,1.763-5.075,1.763h-1.95v-14.125h2.05c2.283,0,3.992,0.57,5.125,1.712
		c1.133,1.142,1.699,2.913,1.699,5.313C365.262,1397.389,364.646,1399.168,363.412,1400.343z"/>
	<path fill="#FFFFFF" d="M375.712,1385.38l-6.425,19.325h3.15l1.725-5.3h6.574l1.701,5.3h3.149l-6.45-19.325H375.712z
		 M374.787,1396.905l2.15-6.851l0.5-1.85l0.5,1.85l2.149,6.851H374.787z"/>
	<path fill="#FFFFFF" d="M387.675,1402.08c0.725,0.884,1.612,1.579,2.662,2.088c1.05,0.508,2.241,0.762,3.575,0.762
		c1.35,0,2.55-0.254,3.6-0.762c1.051-0.509,1.938-1.204,2.663-2.088c0.725-0.883,1.278-1.925,1.662-3.125s0.575-2.491,0.575-3.875
		c0-1.383-0.191-2.679-0.575-3.888c-0.384-1.208-0.938-2.258-1.662-3.149c-0.726-0.892-1.612-1.596-2.663-2.113
		c-1.05-0.516-2.25-0.774-3.6-0.774c-1.334,0-2.525,0.259-3.575,0.774c-1.05,0.518-1.938,1.222-2.662,2.113
		c-0.726,0.892-1.275,1.941-1.65,3.149c-0.375,1.209-0.563,2.505-0.563,3.888c0,1.384,0.188,2.675,0.563,3.875
		S386.949,1401.197,387.675,1402.08z M389.037,1392.117c0.217-0.891,0.546-1.653,0.987-2.287c0.441-0.633,0.987-1.129,1.638-1.487
		s1.4-0.538,2.25-0.538c0.866,0,1.625,0.18,2.275,0.538c0.649,0.358,1.195,0.854,1.637,1.487c0.441,0.634,0.775,1.396,1,2.287
		c0.226,0.893,0.338,1.871,0.338,2.938c0,1.067-0.112,2.042-0.338,2.926c-0.225,0.883-0.559,1.646-1,2.287s-0.987,1.138-1.637,1.487
		c-0.65,0.351-1.409,0.525-2.275,0.525c-0.85,0-1.6-0.175-2.25-0.525c-0.65-0.35-1.196-0.846-1.638-1.487s-0.771-1.404-0.987-2.287
		c-0.217-0.884-0.325-1.858-0.325-2.926C388.712,1393.988,388.82,1393.01,389.037,1392.117z"/>
	<path fill="#FFFFFF" d="M230.688,1519.972c-0.375-0.217-0.862-0.388-1.462-0.513s-1.325-0.188-2.175-0.188
		c-0.85,0-1.575,0.063-2.175,0.188s-1.087,0.296-1.462,0.513s-0.646,0.458-0.813,0.725c-0.167,0.267-0.25,0.55-0.25,0.85
		c0,0.284,0.083,0.563,0.25,0.838c0.167,0.275,0.438,0.521,0.813,0.737s0.862,0.388,1.462,0.513s1.325,0.188,2.175,0.188
		c0.85,0,1.575-0.063,2.175-0.188s1.087-0.296,1.462-0.513s0.65-0.462,0.825-0.737c0.175-0.275,0.262-0.554,0.262-0.838
		c0-0.3-0.087-0.583-0.262-0.85C231.337,1520.43,231.063,1520.188,230.688,1519.972z"/>
	<path fill="#FFFFFF" d="M344.262,1486.847c0.508-1.017,0.763-2.426,0.763-4.226s-0.254-3.208-0.763-4.225s-1.229-1.525-2.162-1.525
		c-0.934,0-1.654,0.509-2.163,1.525c-0.509,1.017-0.763,2.425-0.763,4.225s0.254,3.209,0.763,4.226
		c0.508,1.017,1.229,1.524,2.163,1.524C343.033,1488.371,343.754,1487.863,344.262,1486.847z"/>
	<path fill="#FFFFFF" d="M206.662,1515.809c0.275-0.175,0.471-0.37,0.587-0.587s0.175-0.441,0.175-0.676
		c0-0.232-0.059-0.462-0.175-0.688c-0.117-0.225-0.313-0.42-0.587-0.587s-0.642-0.3-1.1-0.4c-0.458-0.1-1.037-0.149-1.737-0.149
		s-1.279,0.05-1.737,0.149c-0.459,0.101-0.825,0.233-1.1,0.4s-0.467,0.362-0.575,0.587c-0.108,0.226-0.163,0.455-0.163,0.688
		c0,0.234,0.054,0.459,0.163,0.676s0.3,0.412,0.575,0.587s0.641,0.317,1.1,0.425c0.458,0.109,1.037,0.163,1.737,0.163
		s1.279-0.054,1.737-0.163C206.021,1516.126,206.387,1515.983,206.662,1515.809z"/>
	<path fill="#FFFFFF" d="M274.75,1512.259c0.55-0.592,0.825-1.396,0.825-2.412c0-1.084-0.275-1.93-0.825-2.538
		c-0.55-0.608-1.275-0.912-2.175-0.912c-0.917,0-1.642,0.304-2.175,0.912c-0.534,0.608-0.8,1.454-0.8,2.538
		c0,1.017,0.263,1.82,0.788,2.412s1.254,0.888,2.188,0.888C273.475,1513.146,274.2,1512.851,274.75,1512.259z"/>
	<rect x="177.575" y="1519.496" fill="#FFFFFF" width="8.4" height="3.726"/>
	<path fill="#FFFFFF" d="M296.35,1483.196c0.633,0,1.146-0.267,1.538-0.8s0.587-1.366,0.587-2.5c0-1.15-0.196-2-0.587-2.55
		c-0.392-0.551-0.904-0.825-1.538-0.825s-1.142,0.274-1.525,0.825c-0.383,0.55-0.575,1.399-0.575,2.55
		c0,1.134,0.191,1.967,0.575,2.5S295.716,1483.196,296.35,1483.196z"/>
	<path fill="#FFFFFF" d="M177.3,1512.571c0.917,0,1.646-0.296,2.188-0.888c0.542-0.591,0.813-1.388,0.813-2.388
		c0-0.949-0.271-1.729-0.813-2.337s-1.271-0.913-2.188-0.913c-0.434,0-0.833,0.08-1.2,0.238c-0.367,0.158-0.68,0.383-0.938,0.675
		c-0.259,0.292-0.463,0.638-0.613,1.037c-0.15,0.4-0.225,0.834-0.225,1.3c0,1,0.275,1.797,0.825,2.388
		C175.7,1512.275,176.417,1512.571,177.3,1512.571z"/>
	<path fill="#FFFFFF" d="M414.774,1483.146c0.899,0,1.625-0.296,2.175-0.888c0.551-0.592,0.825-1.396,0.825-2.412
		c0-1.084-0.274-1.93-0.825-2.538c-0.55-0.608-1.275-0.912-2.175-0.912c-0.917,0-1.642,0.304-2.175,0.912s-0.801,1.454-0.801,2.538
		c0,1.017,0.264,1.82,0.788,2.412S413.841,1483.146,414.774,1483.146z"/>
	<rect x="522.774" y="1520.621" fill="#FFFFFF" width="9" height="2.55"/>
</g>
</svg>
