<?xml version="1.0" encoding="utf-8"?>
<!-- Generator: Adobe Illustrator 16.0.0, SVG Export Plug-In . SVG Version: 6.00 Build 0)  -->
<!DOCTYPE svg PUBLIC "-//W3C//DTD SVG 1.1//EN" "http://www.w3.org/Graphics/SVG/1.1/DTD/svg11.dtd">
<svg version="1.1" id="Layer_1" xmlns="http://www.w3.org/2000/svg" xmlns:xlink="http://www.w3.org/1999/xlink" x="0px" y="0px"
	 width="1600px" height="703.067px" viewBox="0 0 1600 703.067" enable-background="new 0 0 1600 703.067" xml:space="preserve">
<g>
	<rect x="437.363" y="325.899" fill="#FFFFFF" width="3" height="10"/>
	<rect x="437.363" y="345.899" fill="#FFFFFF" width="3" height="10"/>
	<rect x="437.363" y="425.899" fill="#FFFFFF" width="3" height="10"/>
	<rect x="437.363" y="285.899" fill="#FFFFFF" width="3" height="10"/>
	<rect x="437.363" y="365.899" fill="#FFFFFF" width="3" height="10"/>
	<rect x="437.363" y="405.899" fill="#FFFFFF" width="3" height="10"/>
	<rect x="437.363" y="385.899" fill="#FFFFFF" width="3" height="10"/>
	<rect x="437.363" y="305.899" fill="#FFFFFF" width="3" height="10"/>
	<rect x="437.363" y="265.899" fill="#FFFFFF" width="3" height="10"/>
	<rect x="437.363" y="165.9" fill="#FFFFFF" width="3" height="10"/>
	<rect x="437.363" y="185.9" fill="#FFFFFF" width="3" height="10"/>
	<rect x="437.363" y="245.9" fill="#FFFFFF" width="3" height="10"/>
	<rect x="437.363" y="225.9" fill="#FFFFFF" width="3" height="10"/>
	<rect x="437.363" y="205.9" fill="#FFFFFF" width="3" height="10"/>
	<rect x="1169.682" y="277.977" fill="#FFFFFF" width="3" height="10"/>
	<rect x="1169.682" y="317.977" fill="#FFFFFF" width="3" height="10"/>
	<rect x="1169.682" y="357.977" fill="#FFFFFF" width="3" height="10"/>
	<rect x="1169.682" y="337.977" fill="#FFFFFF" width="3" height="10"/>
	<rect x="1169.682" y="377.977" fill="#FFFFFF" width="3" height="10"/>
	<rect x="1169.682" y="437.977" fill="#FFFFFF" width="3" height="10"/>
	<rect x="1169.682" y="417.977" fill="#FFFFFF" width="3" height="10"/>
	<rect x="1169.682" y="397.977" fill="#FFFFFF" width="3" height="10"/>
	<rect x="1169.682" y="177.977" fill="#FFFFFF" width="3" height="10"/>
	<rect x="1169.682" y="297.977" fill="#FFFFFF" width="3" height="10"/>
	<rect x="1169.682" y="197.977" fill="#FFFFFF" width="3" height="10"/>
	<rect x="1169.682" y="217.977" fill="#FFFFFF" width="3" height="10"/>
	<rect x="437.363" y="445.899" fill="#FFFFFF" width="3" height="10"/>
	<rect x="1169.682" y="237.977" fill="#FFFFFF" width="3" height="10"/>
	<rect x="1169.682" y="257.977" fill="#FFFFFF" width="3" height="10"/>
	<path fill="#FFFFFF" d="M288,282.411c-2.801-2.344-6.347-3.45-9.986-3.133c-3.638,0.324-6.932,2.046-9.245,4.812l-18.994,21.319
		c-2.125-3.559-6.003-5.955-10.441-5.955h-40.411c-11.272-4.818-21.593-5.345-30.681-1.56
		c-12.413,5.168-18.674,16.729-20.491,20.633c-0.959-0.242-1.981-0.373-3.063-0.373c-4.931,0-10.476,2.601-14.832,6.956
		l-10.412,10.41l42.885,42.884l10.41-10.41c3.465-3.464,5.826-7.647,6.646-11.779c0.344-1.731,0.393-3.369,0.181-4.88l0.672,0.576
		c3.493-4.075,8.301-8.285,9.879-8.104c3.505,0.438,53.651,0.014,55.783-0.005l0.236-0.002l0.224-0.074
		c0.326-0.108,8.059-2.697,13.768-6.763l0.157-0.111l29.428-35.181C294.551,295.886,293.782,287.245,288,282.411z M176.445,355.63
		c-0.707,3.556-2.775,7.193-5.825,10.243l-8.289,8.289l-38.642-38.642l8.29-8.289c3.806-3.806,8.557-6.077,12.71-6.077
		c2.276,0,4.183,0.704,5.516,2.037l24.458,24.457C176.475,349.459,177.108,352.294,176.445,355.63z M258.234,334.63
		c-4.813,3.38-11.336,5.735-12.6,6.175c-14.654,0.124-52.412,0.365-55.143,0.026c-3.438-0.431-8.911,5.087-11.552,8.018
		c-0.49-1.257-1.21-2.377-2.156-3.322l-24.457-24.456c-0.539-0.539-1.141-0.997-1.791-1.391c1.739-3.638,7.662-14.365,18.885-19.026
		c8.379-3.479,18-2.914,28.597,1.677l0.285,0.124h41.031c5.053,0,9.164,4.111,9.164,9.165c0,5.053-4.111,9.164-9.164,9.164h-27.792
		v3h27.792c6.708,0,12.164-5.457,12.164-12.164c0-1.138-0.168-2.234-0.462-3.28l0.082,0.073l19.921-22.362
		c1.829-2.187,4.4-3.53,7.24-3.783c2.841-0.25,5.608,0.616,7.795,2.445c4.513,3.774,5.114,10.52,1.338,15.035L258.234,334.63z"/>
	<path fill="#FFFFFF" d="M212.555,292.52c27.021,0,49.005-21.984,49.005-49.006s-21.984-49.005-49.005-49.005
		c-27.022,0-49.006,21.984-49.006,49.005S185.533,292.52,212.555,292.52z M212.555,197.508c25.368,0,46.005,20.638,46.005,46.005
		c0,25.368-20.638,46.006-46.005,46.006c-25.368,0-46.006-20.638-46.006-46.006C166.549,218.146,187.187,197.508,212.555,197.508z"
		/>
	<path fill="#FFFFFF" d="M235.338,238.354V222.17l-22.785,24.864l-22.782-24.865v16.184l22.782,24.867L235.338,238.354z
		 M192.771,229.885l19.782,21.591l19.785-21.591v7.303l-19.785,21.592l-19.782-21.592V229.885z"/>
	<path fill="#FFFFFF" d="M189.771,245.856V262.5h15.25L189.771,245.856z M192.771,253.571l5.432,5.929h-5.432V253.571z"/>
	<path fill="#FFFFFF" d="M235.338,262.5v-16.644L220.087,262.5H235.338z M232.338,259.5h-5.433l5.433-5.93V259.5z"/>
	<path fill="#FFFFFF" d="M63.58,394.646c-2.87,0-5.093,1.114-6.667,3.342c-1.575,2.229-2.363,5.793-2.363,10.692
		c0,4.9,0.788,8.465,2.363,10.693c1.575,2.228,3.797,3.342,6.667,3.342c2.87,0,5.092-1.114,6.667-3.342
		c1.575-2.229,2.362-5.793,2.362-10.693c0-4.899-0.788-8.464-2.362-10.692C68.672,395.76,66.449,394.646,63.58,394.646z
		 M67.027,416.748c-0.829,1.668-1.978,2.502-3.447,2.502c-1.47,0-2.62-0.834-3.448-2.502c-0.829-1.668-1.243-4.358-1.243-8.068
		s0.414-6.398,1.243-8.067c0.828-1.668,1.978-2.502,3.448-2.502c1.47,0,2.619,0.834,3.447,2.502
		c0.828,1.669,1.243,4.357,1.243,8.067S67.855,415.08,67.027,416.748z"/>
	<path fill="#FFFFFF" d="M87.064,422.155v-27.09h-4.34c-0.677,0.816-1.435,1.558-2.275,2.222c-0.84,0.665-1.75,1.208-2.73,1.628
		v2.555c0,0.304,0.14,0.397,0.42,0.28c0.747-0.28,1.522-0.63,2.328-1.05c0.805-0.42,1.545-0.898,2.222-1.436h0.035v22.891H87.064z"
		/>
	<polygon fill="#FFFFFF" points="123.779,393.07 123.779,425.515 128.119,425.515 128.119,408.33 133.264,408.33 133.264,404.62 
		128.119,404.62 128.119,393.07 	"/>
	<path fill="#FFFFFF" d="M108.414,408.015c-0.817,1.704-1.826,3.221-3.027,4.551c-1.202,1.33-2.538,2.543-4.007,3.64l3.15,2.52
		c1.75-1.282,3.295-2.718,4.638-4.305c1.341-1.586,2.455-3.371,3.342-5.354c1.913,3.64,4.562,6.649,7.945,9.029l2.905-2.939
		c-2.194-1.493-4.025-3.186-5.495-5.075s-2.66-4.095-3.57-6.615c0.256-1.283,0.449-2.625,0.577-4.024
		c0.128-1.4,0.169-2.882,0.123-4.445h-4.48c0.163,2.707,0.058,5.128-0.315,7.263C109.825,404.393,109.23,406.313,108.414,408.015z"
		/>
	<path fill="#FFFFFF" d="M164.169,408.54h-7.49v-4.515c1.003-0.537,1.767-1.19,2.292-1.96c0.525-0.771,0.787-1.646,0.787-2.625
		c0-0.91-0.239-1.762-0.717-2.556c-0.479-0.793-1.185-1.481-2.118-2.064s-2.077-1.038-3.43-1.365
		c-1.354-0.326-2.905-0.49-4.655-0.49s-3.302,0.17-4.655,0.508c-1.354,0.339-2.497,0.793-3.43,1.365
		c-0.934,0.571-1.64,1.254-2.117,2.047c-0.479,0.794-0.718,1.646-0.718,2.556c0,1.913,1.003,3.43,3.01,4.55v4.55h-7.42v3.605h30.66
		V408.54z M152.339,408.575h-7.105v-3.255c0.537,0.094,1.108,0.157,1.715,0.192c0.606,0.035,1.236,0.053,1.89,0.053
		c0.63,0,1.237-0.018,1.82-0.053c0.583-0.035,1.143-0.099,1.68-0.192V408.575z M154.859,400.612c-0.233,0.339-0.607,0.63-1.12,0.875
		s-1.172,0.443-1.977,0.596c-0.805,0.151-1.78,0.228-2.923,0.228c-1.167,0-2.158-0.076-2.975-0.228
		c-0.817-0.152-1.476-0.351-1.977-0.596c-0.502-0.245-0.87-0.536-1.103-0.875c-0.234-0.338-0.35-0.693-0.35-1.067
		c0-0.42,0.116-0.816,0.35-1.189c0.233-0.373,0.6-0.706,1.103-0.998c0.501-0.291,1.16-0.524,1.977-0.7
		c0.817-0.175,1.808-0.262,2.975-0.262c1.143,0,2.118,0.087,2.923,0.262c0.805,0.176,1.464,0.409,1.977,0.7
		c0.513,0.292,0.887,0.63,1.12,1.016c0.233,0.385,0.35,0.775,0.35,1.172C155.209,399.919,155.092,400.274,154.859,400.612z"/>
	<path fill="#FFFFFF" d="M148.839,413.37c-3.617,0-6.37,0.566-8.26,1.697c-1.89,1.132-2.835,2.631-2.835,4.498
		c0,1.843,0.933,3.336,2.8,4.479c1.867,1.144,4.631,1.715,8.295,1.715c3.617,0,6.37-0.571,8.26-1.715
		c1.89-1.144,2.835-2.637,2.835-4.479c0-1.867-0.945-3.366-2.835-4.498C155.209,413.937,152.456,413.37,148.839,413.37z
		 M155.051,420.615c-0.222,0.35-0.583,0.652-1.085,0.91c-0.502,0.256-1.172,0.466-2.012,0.63c-0.84,0.163-1.878,0.245-3.115,0.245
		s-2.275-0.082-3.115-0.245c-0.84-0.164-1.511-0.374-2.013-0.63c-0.502-0.258-0.863-0.561-1.085-0.91
		c-0.222-0.351-0.333-0.7-0.333-1.05c0-0.351,0.11-0.694,0.333-1.033c0.222-0.338,0.583-0.635,1.085-0.893
		c0.501-0.256,1.172-0.46,2.013-0.612c0.84-0.151,1.878-0.228,3.115-0.228s2.275,0.076,3.115,0.228
		c0.84,0.152,1.51,0.356,2.012,0.612c0.501,0.258,0.863,0.555,1.085,0.893c0.222,0.339,0.333,0.683,0.333,1.033
		C155.384,419.915,155.273,420.265,155.051,420.615z"/>
	<path fill="#FFFFFF" d="M172.866,408.208c-1.039,1.505-2.27,2.951-3.692,4.34c-1.424,1.389-3.022,2.619-4.795,3.692l3.15,2.8
		c1.633-1.143,3.15-2.38,4.55-3.71s2.66-2.765,3.78-4.305c0.933,1.33,1.925,2.555,2.975,3.675c1.05,1.12,2.263,2.229,3.64,3.325
		l3.115-2.905c-1.563-1.12-2.946-2.31-4.147-3.57c-1.202-1.26-2.305-2.66-3.308-4.2c0.98-1.819,1.732-3.697,2.257-5.635
		c0.525-1.937,0.799-3.92,0.823-5.95c-1.657,0.048-3.255,0.07-4.795,0.07c-1.54,0-3.057,0-4.55,0h-5.425v3.815h3.5
		c0.98,0,2.012-0.006,3.097-0.018c1.085-0.012,2.188-0.053,3.308-0.123c-0.093,1.308-0.438,2.707-1.032,4.2
		C174.721,405.203,173.904,406.702,172.866,408.208z"/>
	<polygon fill="#FFFFFF" points="186.289,393.07 186.289,425.515 190.629,425.515 190.629,408.855 195.704,408.855 195.704,405.146 
		190.629,405.146 190.629,393.07 	"/>
	<path fill="#FFFFFF" d="M203.666,410.885c1.062,0.443,2.257,0.665,3.587,0.665s2.525-0.222,3.587-0.665
		c1.062-0.442,1.954-1.038,2.678-1.785c0.723-0.746,1.277-1.615,1.663-2.607c0.385-0.991,0.577-2.035,0.577-3.132
		c0-1.12-0.192-2.176-0.577-3.168c-0.385-0.991-0.94-1.86-1.663-2.607c-0.724-0.746-1.616-1.335-2.678-1.768
		c-1.062-0.432-2.257-0.647-3.587-0.647s-2.526,0.223-3.587,0.665c-1.062,0.443-1.955,1.039-2.678,1.785
		c-0.723,0.747-1.277,1.616-1.662,2.607c-0.385,0.992-0.578,2.036-0.578,3.133s0.192,2.141,0.578,3.132
		c0.385,0.992,0.939,1.861,1.662,2.607C201.711,409.847,202.604,410.442,203.666,410.885z M204.208,399.965
		c0.723-0.793,1.738-1.189,3.045-1.189c1.26,0,2.257,0.396,2.993,1.189c0.735,0.794,1.103,1.925,1.103,3.396
		c0,1.47-0.368,2.607-1.103,3.412c-0.735,0.805-1.732,1.208-2.993,1.208c-1.307,0-2.322-0.403-3.045-1.208
		c-0.724-0.805-1.085-1.942-1.085-3.412C203.124,401.89,203.485,400.759,204.208,399.965z"/>
	<rect x="219.678" y="393.07" fill="#FFFFFF" width="4.34" height="32.444"/>
	<path fill="#FFFFFF" d="M196.684,418.9h5.565c1.26,0,2.595-0.018,4.007-0.053c1.412-0.035,2.829-0.099,4.252-0.192
		c1.423-0.093,2.823-0.198,4.2-0.315c1.376-0.116,2.683-0.268,3.92-0.455v-3.569c-1.284,0.163-2.631,0.303-4.042,0.42
		c-1.412,0.117-2.835,0.21-4.27,0.279c-1.435,0.07-2.847,0.123-4.235,0.158c-1.389,0.035-2.678,0.052-3.868,0.052h-5.53V418.9z"/>
	<path fill="#FFFFFF" d="M241.326,417.045c-0.619,0-1.22,0-1.803,0h-4.515v3.57h4.55c1.283,0,2.63-0.023,4.042-0.07
		c1.412-0.046,2.835-0.11,4.27-0.192c1.435-0.081,2.84-0.187,4.217-0.315c1.376-0.128,2.683-0.285,3.92-0.472V416.1
		c-1.307,0.188-2.666,0.333-4.077,0.438c-1.412,0.105-2.841,0.205-4.288,0.298v-2.59c1.727-0.326,3.039-0.985,3.938-1.978
		c0.898-0.991,1.348-2.152,1.348-3.482c0-0.793-0.164-1.528-0.49-2.205c-0.327-0.677-0.817-1.271-1.47-1.785
		c-0.654-0.513-1.453-0.915-2.398-1.207c-0.945-0.292-2.024-0.438-3.237-0.438c-1.237,0-2.328,0.146-3.272,0.438
		s-1.739,0.694-2.38,1.207c-0.642,0.514-1.126,1.108-1.453,1.785c-0.327,0.677-0.49,1.412-0.49,2.205c0,1.354,0.467,2.532,1.4,3.535
		c0.933,1.003,2.31,1.657,4.13,1.96v2.729C242.591,417.033,241.944,417.045,241.326,417.045z M242.586,410.57
		c-0.525-0.49-0.788-1.085-0.788-1.785c0-0.677,0.263-1.26,0.788-1.75s1.44-0.735,2.748-0.735c1.283,0,2.193,0.245,2.73,0.735
		c0.537,0.49,0.805,1.073,0.805,1.75c0,0.7-0.269,1.295-0.805,1.785c-0.537,0.49-1.447,0.734-2.73,0.734
		C244.026,411.305,243.111,411.061,242.586,410.57z"/>
	<polygon fill="#FFFFFF" points="256.883,393.07 256.883,425.515 261.048,425.515 261.048,410.08 265.773,410.08 265.773,406.44 
		261.048,406.44 261.048,393.07 	"/>
	<rect x="239.699" y="393.98" fill="#FFFFFF" width="11.13" height="3.43"/>
	<rect x="235.568" y="398.95" fill="#FFFFFF" width="19.39" height="3.36"/>
	<rect x="266.999" y="395.8" fill="#FFFFFF" width="14.945" height="3.57"/>
	<path fill="#FFFFFF" d="M266.649,416.905h8.085c1.47,0,2.945-0.059,4.427-0.175c1.481-0.117,2.899-0.373,4.252-0.771v-3.535
		c-0.677,0.164-1.342,0.298-1.995,0.402c-0.654,0.105-1.284,0.193-1.89,0.263l0.28-12.67h-3.71l-0.105,12.88h-3.01l-0.175-12.88
		h-3.745l0.21,12.88h-2.625V416.905z"/>
	<polygon fill="#FFFFFF" points="288.699,424.71 288.699,393.42 284.849,393.42 284.849,401.155 281.279,401.155 281.279,404.55 
		284.884,404.55 284.884,408.155 281.279,408.155 281.279,411.55 284.849,411.55 284.849,424.71 	"/>
	<rect x="290.519" y="393.07" fill="#FFFFFF" width="4.025" height="32.444"/>
	<polygon fill="#FFFFFF" points="328.144,399.265 323.278,399.265 323.278,393.07 318.974,393.07 318.974,409.17 323.278,409.17 
		323.278,402.87 328.144,402.87 	"/>
	<path fill="#FFFFFF" d="M299.059,394.015v14.21h15.155v-14.21h-4.2v4.2h-6.685v-4.2H299.059z M310.048,401.505v3.36h-6.755v-3.36
		H310.048z"/>
	<polygon fill="#FFFFFF" points="323.943,421.63 307.073,421.63 307.073,419.425 323.278,419.425 323.278,410.535 302.769,410.535 
		302.769,414.07 319.008,414.07 319.008,415.96 302.769,415.96 302.769,425.165 323.943,425.165 	"/>
	<path fill="#FFFFFF" d="M337.348,423.888c0.933,0.571,2.094,1.026,3.482,1.365c1.388,0.338,3.004,0.507,4.848,0.507
		c1.843,0,3.459-0.169,4.848-0.507c1.388-0.339,2.555-0.794,3.5-1.365c0.945-0.572,1.656-1.249,2.135-2.03
		c0.478-0.782,0.718-1.627,0.718-2.537s-0.24-1.756-0.718-2.538c-0.479-0.781-1.19-1.464-2.135-2.047
		c-0.945-0.583-2.112-1.044-3.5-1.383c-1.389-0.338-3.005-0.508-4.848-0.508c-1.844,0-3.459,0.17-4.848,0.508
		c-1.388,0.339-2.549,0.8-3.482,1.383c-0.934,0.583-1.633,1.266-2.1,2.047c-0.467,0.782-0.7,1.628-0.7,2.538s0.233,1.755,0.7,2.537
		C335.715,422.639,336.415,423.315,337.348,423.888z M339.291,418.218c0.245-0.361,0.636-0.683,1.173-0.963
		c0.536-0.28,1.23-0.507,2.083-0.683c0.851-0.175,1.895-0.262,3.132-0.262c1.236,0,2.28,0.087,3.132,0.262
		c0.852,0.176,1.545,0.402,2.083,0.683c0.537,0.28,0.928,0.602,1.173,0.963c0.245,0.362,0.367,0.729,0.367,1.103
		c0,0.396-0.123,0.775-0.367,1.138c-0.245,0.361-0.636,0.682-1.173,0.962c-0.537,0.28-1.231,0.508-2.083,0.683
		c-0.852,0.175-1.896,0.263-3.132,0.263c-1.237,0-2.281-0.088-3.132-0.263c-0.852-0.175-1.546-0.402-2.083-0.683
		c-0.537-0.28-0.928-0.601-1.173-0.962c-0.245-0.362-0.367-0.741-0.367-1.138C338.923,418.947,339.046,418.58,339.291,418.218z"/>
	<path fill="#FFFFFF" d="M334.566,402.59c-0.525,1.237-1.284,2.393-2.275,3.465c-0.992,1.074-2.304,2.101-3.938,3.08l2.975,2.766
		c1.493-0.98,2.759-2.024,3.797-3.133s1.896-2.315,2.573-3.622c0.723,1.236,1.551,2.351,2.485,3.342
		c0.933,0.992,1.995,1.826,3.185,2.503l2.415-2.415v3.22h4.2v-7.979h2.52v8.96h4.2V393.07h-4.2v7.175h-2.52v-6.825h-4.2v14.455
		c-0.864-0.583-1.622-1.155-2.275-1.715c-0.654-0.561-1.237-1.138-1.75-1.732c-0.514-0.595-0.962-1.23-1.348-1.907
		c-0.385-0.677-0.729-1.424-1.032-2.24c0.186-0.98,0.32-1.995,0.402-3.045c0.082-1.05,0.11-2.146,0.087-3.29h-4.34
		c0.116,1.68,0.116,3.231,0,4.654C335.411,400.023,335.091,401.354,334.566,402.59z"/>
	<path fill="#FFFFFF" d="M499.842,422.715c2.87,0,5.092-1.114,6.667-3.342c1.575-2.229,2.362-5.793,2.362-10.693
		c0-4.899-0.788-8.464-2.362-10.692c-1.575-2.228-3.798-3.342-6.667-3.342c-2.87,0-5.093,1.114-6.667,3.342
		c-1.575,2.229-2.363,5.793-2.363,10.692c0,4.9,0.788,8.465,2.363,10.693C494.749,421.601,496.972,422.715,499.842,422.715z
		 M496.394,400.612c0.828-1.668,1.978-2.502,3.448-2.502c1.47,0,2.619,0.834,3.447,2.502c0.828,1.669,1.243,4.357,1.243,8.067
		s-0.415,6.4-1.243,8.068c-0.829,1.668-1.978,2.502-3.447,2.502c-1.47,0-2.62-0.834-3.448-2.502
		c-0.829-1.668-1.243-4.358-1.243-8.068S495.565,402.281,496.394,400.612z"/>
	<path fill="#FFFFFF" d="M523.274,405.39c-0.315,0.631-0.741,1.319-1.277,2.065c-0.537,0.747-1.225,1.575-2.065,2.485l-8.155,8.925
		v3.29h17.115v-3.5h-12.145v-0.07l6.58-7.035c0.7-0.746,1.365-1.51,1.995-2.292c0.63-0.781,1.184-1.575,1.663-2.38
		c0.478-0.806,0.852-1.622,1.12-2.45c0.268-0.828,0.402-1.65,0.402-2.468c0-2.473-0.712-4.311-2.135-5.513
		c-1.424-1.201-3.442-1.802-6.055-1.802c-1.494,0-2.905,0.279-4.235,0.84c-1.33,0.56-2.497,1.295-3.5,2.205v3.43
		c0,0.14,0.046,0.233,0.14,0.28s0.198,0.023,0.315-0.07c1.167-1.097,2.339-1.907,3.518-2.433c1.178-0.524,2.351-0.787,3.518-0.787
		c1.376,0,2.392,0.361,3.045,1.085s0.98,1.645,0.98,2.765c0,0.537-0.058,1.085-0.175,1.646
		C523.804,404.165,523.589,404.76,523.274,405.39z"/>
	<path fill="#FFFFFF" d="M556.296,394.575h-4.34c0.046,2.03-0.175,3.814-0.665,5.354c-0.49,1.54-1.225,2.9-2.205,4.078
		c-0.98,1.179-2.2,2.199-3.657,3.063c-1.458,0.863-3.121,1.633-4.988,2.31l2.66,3.29c2.263-0.816,4.357-1.965,6.282-3.447
		c1.925-1.481,3.483-3.249,4.673-5.303c1.283,2.03,2.823,3.774,4.62,5.232c1.797,1.459,3.896,2.62,6.3,3.482l2.625-3.29
		c-2.777-1.026-5.11-2.321-7-3.885c-1.89-1.563-3.477-3.522-4.76-5.88c0.187-0.793,0.321-1.604,0.403-2.433
		C556.325,396.319,556.342,395.462,556.296,394.575z"/>
	<rect x="538.831" y="417.36" fill="#FFFFFF" width="30.03" height="3.604"/>
	<path fill="#FFFFFF" d="M586.676,416.905v-21.141h-14.875v21.141H586.676z M576.176,399.335h6.195V413.3h-6.195V399.335z"/>
	<polygon fill="#FFFFFF" points="591.331,393.07 591.331,425.515 595.671,425.515 595.671,407.875 600.746,407.875 600.746,404.165 
		595.671,404.165 595.671,393.07 	"/>
	<polygon fill="#FFFFFF" points="626.646,399.125 626.646,395.485 606.031,395.485 606.031,413.125 627.066,413.125 
		627.066,409.555 610.301,409.555 610.301,405.845 626.086,405.845 626.086,402.345 610.301,402.345 610.301,399.125 	"/>
	<rect x="601.271" y="417.396" fill="#FFFFFF" width="30.03" height="3.604"/>
	<rect x="664.306" y="393.07" fill="#FFFFFF" width="4.06" height="32.444"/>
	<path fill="#FFFFFF" d="M661.926,424.71v-31.29h-4.025v7.735h-3.15c0.14-0.863,0.245-1.744,0.315-2.643
		c0.07-0.898,0.128-1.814,0.175-2.748c-1.214,0.024-2.474,0.041-3.78,0.053c-1.307,0.013-2.66,0.018-4.06,0.018h-4.9v3.57h2.975
		c0.91,0,1.761,0,2.555,0c0.793,0,1.657-0.023,2.59-0.07c-0.07,1.54-0.292,3.068-0.665,4.585c-0.374,1.518-0.945,2.981-1.715,4.393
		c-0.77,1.412-1.768,2.777-2.993,4.095c-1.225,1.319-2.736,2.55-4.533,3.692l3.045,2.766c2.753-1.82,4.946-3.902,6.58-6.248
		c1.633-2.345,2.847-4.964,3.64-7.857h3.955v3.676h-4.375v3.604h4.34v12.67H661.926z"/>
	<path fill="#FFFFFF" d="M686.776,396.255c-0.747-0.746-1.64-1.335-2.678-1.768c-1.039-0.432-2.188-0.647-3.447-0.647
		c-1.237,0-2.369,0.216-3.395,0.647c-1.027,0.433-1.914,1.021-2.66,1.768c-0.747,0.747-1.33,1.622-1.75,2.625
		c-0.42,1.004-0.63,2.077-0.63,3.22c0,1.144,0.21,2.218,0.63,3.221s1.003,1.872,1.75,2.607c0.747,0.734,1.633,1.313,2.66,1.732
		c1.026,0.42,2.158,0.63,3.395,0.63c1.26,0,2.409-0.21,3.447-0.63c1.038-0.42,1.931-0.998,2.678-1.732
		c0.746-0.735,1.33-1.598,1.75-2.59s0.63-2.07,0.63-3.238c0-1.143-0.21-2.216-0.63-3.22
		C688.106,397.877,687.522,397.002,686.776,396.255z M683.731,405.425c-0.747,0.84-1.774,1.261-3.08,1.261
		c-1.26,0-2.264-0.421-3.01-1.261c-0.747-0.84-1.12-1.947-1.12-3.325c0-1.376,0.379-2.49,1.138-3.342
		c0.758-0.852,1.755-1.277,2.993-1.277c1.306,0,2.333,0.426,3.08,1.277c0.746,0.852,1.12,1.966,1.12,3.342
		C684.851,403.478,684.477,404.585,683.731,405.425z"/>
	<polygon fill="#FFFFFF" points="692.796,393.07 692.796,411.936 697.101,411.936 697.101,407.245 701.826,407.245 701.826,403.71 
		697.066,403.71 697.066,400.771 701.826,400.771 701.826,397.2 697.101,397.2 697.101,393.07 	"/>
	<polygon fill="#FFFFFF" points="676.206,416.87 692.796,416.87 692.796,425.585 697.101,425.585 697.101,413.3 676.206,413.3 	"/>
	<path fill="#FFFFFF" d="M932.841,422.715c2.87,0,5.093-1.114,6.667-3.342c1.575-2.229,2.363-5.793,2.363-10.693
		c0-4.899-0.788-8.464-2.363-10.692c-1.574-2.228-3.797-3.342-6.667-3.342s-5.093,1.114-6.667,3.342
		c-1.576,2.229-2.363,5.793-2.363,10.692c0,4.9,0.787,8.465,2.363,10.693C927.748,421.601,929.971,422.715,932.841,422.715z
		 M929.393,400.612c0.828-1.668,1.979-2.502,3.448-2.502s2.618,0.834,3.447,2.502c0.828,1.669,1.243,4.357,1.243,8.067
		s-0.415,6.4-1.243,8.068c-0.829,1.668-1.978,2.502-3.447,2.502s-2.62-0.834-3.448-2.502s-1.242-4.358-1.242-8.068
		S928.564,402.281,929.393,400.612z"/>
	<path fill="#FFFFFF" d="M956.447,417.763c-0.432,0.385-0.934,0.683-1.504,0.893c-0.572,0.21-1.186,0.314-1.838,0.314
		c-1.4,0-2.707-0.256-3.92-0.77c-1.214-0.513-2.474-1.365-3.78-2.555c-0.116-0.094-0.228-0.111-0.333-0.053
		c-0.104,0.059-0.156,0.157-0.156,0.297v3.641c0.979,0.957,2.188,1.686,3.622,2.188c1.435,0.501,2.958,0.752,4.567,0.752
		c1.446,0,2.735-0.222,3.867-0.665s2.088-1.038,2.87-1.784c0.782-0.747,1.376-1.599,1.785-2.556c0.407-0.956,0.612-1.96,0.612-3.01
		c0-1.797-0.543-3.249-1.627-4.357c-1.086-1.108-2.491-1.838-4.218-2.188v-0.07c0.747-0.14,1.435-0.396,2.065-0.77
		c0.629-0.373,1.178-0.834,1.645-1.383c0.467-0.548,0.834-1.173,1.103-1.872c0.269-0.7,0.402-1.447,0.402-2.24
		c0-2.217-0.765-3.932-2.292-5.146c-1.529-1.213-3.635-1.819-6.318-1.819c-1.609,0.023-3.051,0.304-4.322,0.84
		c-1.271,0.537-2.293,1.155-3.063,1.854v3.431c0,0.14,0.053,0.239,0.158,0.297c0.104,0.059,0.215,0.041,0.332-0.052
		c0.63-0.561,1.225-1.027,1.785-1.4c0.56-0.373,1.113-0.671,1.662-0.893s1.091-0.379,1.627-0.473c0.537-0.093,1.098-0.14,1.681-0.14
		c1.236,0,2.263,0.31,3.08,0.928c0.816,0.618,1.226,1.592,1.226,2.922c0,0.888-0.135,1.61-0.403,2.17
		c-0.269,0.561-0.647,0.998-1.138,1.313c-0.49,0.315-1.062,0.543-1.715,0.683c-0.653,0.141-1.365,0.223-2.135,0.245h-0.98v3.465
		h0.875c2.24,0,3.827,0.386,4.76,1.155c0.934,0.77,1.4,1.972,1.4,3.605c0,0.677-0.122,1.283-0.367,1.819
		C957.218,416.917,956.879,417.378,956.447,417.763z"/>
	<path fill="#FFFFFF" d="M989.295,394.575h-4.34c0.047,2.03-0.176,3.814-0.665,5.354c-0.49,1.54-1.226,2.9-2.205,4.078
		c-0.979,1.179-2.2,2.199-3.657,3.063c-1.459,0.863-3.121,1.633-4.988,2.31l2.66,3.29c2.264-0.816,4.357-1.965,6.283-3.447
		c1.925-1.481,3.482-3.249,4.672-5.303c1.283,2.03,2.823,3.774,4.62,5.232c1.797,1.459,3.896,2.62,6.3,3.482l2.625-3.29
		c-2.777-1.026-5.109-2.321-7-3.885c-1.89-1.563-3.477-3.522-4.76-5.88c0.187-0.793,0.32-1.604,0.402-2.433
		C989.324,396.319,989.342,395.462,989.295,394.575z"/>
	<rect x="971.83" y="417.36" fill="#FFFFFF" width="30.029" height="3.604"/>
	<path fill="#FFFFFF" d="M1019.676,416.905v-21.141h-14.875v21.141H1019.676z M1009.176,399.335h6.194V413.3h-6.194V399.335z"/>
	<polygon fill="#FFFFFF" points="1024.33,393.07 1024.33,425.515 1028.67,425.515 1028.67,407.875 1033.745,407.875 
		1033.745,404.165 1028.67,404.165 1028.67,393.07 	"/>
	<rect x="1034.27" y="417.396" fill="#FFFFFF" width="30.03" height="3.604"/>
	<polygon fill="#FFFFFF" points="1059.645,399.125 1059.645,395.485 1039.029,395.485 1039.029,413.125 1060.064,413.125 
		1060.064,409.555 1043.3,409.555 1043.3,405.845 1059.085,405.845 1059.085,402.345 1043.3,402.345 1043.3,399.125 	"/>
	<polygon fill="#FFFFFF" points="1094.609,393.07 1094.609,425.515 1098.95,425.515 1098.95,408.855 1104.025,408.855 
		1104.025,405.146 1098.95,405.146 1098.95,393.07 	"/>
	<path fill="#FFFFFF" d="M1081.188,408.208c-1.039,1.505-2.27,2.951-3.692,4.34c-1.424,1.389-3.022,2.619-4.795,3.692l3.149,2.8
		c1.633-1.143,3.15-2.38,4.551-3.71c1.399-1.33,2.66-2.765,3.779-4.305c0.934,1.33,1.926,2.555,2.975,3.675
		c1.051,1.12,2.264,2.229,3.641,3.325l3.115-2.905c-1.563-1.12-2.946-2.31-4.147-3.57c-1.202-1.26-2.305-2.66-3.308-4.2
		c0.98-1.819,1.732-3.697,2.258-5.635c0.524-1.937,0.799-3.92,0.822-5.95c-1.657,0.048-3.256,0.07-4.795,0.07
		c-1.54,0-3.057,0-4.551,0h-5.424v3.815h3.5c0.979,0,2.012-0.006,3.097-0.018s2.188-0.053,3.308-0.123
		c-0.094,1.308-0.438,2.707-1.032,4.2S1082.226,406.702,1081.188,408.208z"/>
	<path fill="#FFFFFF" d="M1119.758,405.355c-0.689-0.677-1.325-1.418-1.908-2.223c-0.584-0.806-1.154-1.709-1.715-2.713
		c0.232-0.979,0.408-1.995,0.525-3.045c0.116-1.05,0.162-2.146,0.14-3.29h-4.41c0.093,1.844,0,3.535-0.28,5.075
		c-0.279,1.54-0.77,2.964-1.47,4.27c-0.7,1.308-1.616,2.509-2.747,3.605c-1.133,1.097-2.48,2.112-4.043,3.045l2.801,2.73
		c1.68-0.957,3.172-2.083,4.479-3.378c1.306-1.295,2.392-2.782,3.255-4.463c0.957,1.4,2.07,2.684,3.342,3.851
		s2.713,2.193,4.323,3.08l2.694-2.976c-1.003-0.56-1.913-1.125-2.729-1.697C1121.197,406.656,1120.445,406.032,1119.758,405.355z"/>
	<polygon fill="#FFFFFF" points="1114.56,414.805 1110.185,414.805 1110.185,424.885 1130.765,424.885 1130.765,421.21 
		1114.56,421.21 	"/>
	<polygon fill="#FFFFFF" points="1125.795,393.07 1125.795,416.835 1130.1,416.835 1130.1,405.705 1134.965,405.705 
		1134.965,401.995 1130.1,401.995 1130.1,393.07 	"/>
	<path fill="#FFFFFF" d="M1350.656,394.646c-2.87,0-5.093,1.114-6.668,3.342c-1.574,2.229-2.362,5.793-2.362,10.692
		c0,4.9,0.788,8.465,2.362,10.693c1.575,2.228,3.798,3.342,6.668,3.342c2.869,0,5.092-1.114,6.668-3.342
		c1.574-2.229,2.361-5.793,2.361-10.693c0-4.899-0.787-8.464-2.361-10.692C1355.748,395.76,1353.525,394.646,1350.656,394.646z
		 M1354.104,416.748c-0.828,1.668-1.978,2.502-3.447,2.502c-1.471,0-2.619-0.834-3.447-2.502c-0.829-1.668-1.243-4.358-1.243-8.068
		s0.414-6.398,1.243-8.067c0.828-1.668,1.977-2.502,3.447-2.502c1.47,0,2.619,0.834,3.447,2.502
		c0.828,1.669,1.242,4.357,1.242,8.067S1354.932,415.08,1354.104,416.748z"/>
	<path fill="#FFFFFF" d="M1377.466,422.155v-5.915h3.815v-3.5h-3.815v-17.675h-4.585L1361.4,412.6v3.641h11.76v5.915H1377.466z
		 M1364.936,412.811v-0.07l7.28-11.235l1.19-2.31l-0.105,2.31v11.306H1364.936z"/>
	<path fill="#FFFFFF" d="M1391.676,395.1v27.056h6.65c2.006,0,3.907-0.263,5.704-0.788c1.797-0.524,3.372-1.341,4.726-2.449
		c1.353-1.108,2.426-2.525,3.22-4.253c0.793-1.727,1.19-3.78,1.19-6.16c0-4.573-1.238-7.95-3.711-10.132s-6.184-3.273-11.129-3.273
		H1391.676z M1406.096,401.138c1.586,1.599,2.38,4.077,2.38,7.438c0,3.337-0.864,5.827-2.591,7.473
		c-1.727,1.645-4.094,2.467-7.104,2.467h-2.729V398.74h2.869C1402.117,398.74,1404.508,399.54,1406.096,401.138z"/>
	<path fill="#FFFFFF" d="M1423.105,395.1l-8.995,27.056h4.41l2.415-7.42h9.205l2.38,7.42h4.409L1427.9,395.1H1423.105z
		 M1421.811,411.235l3.01-9.59l0.7-2.591l0.7,2.591l3.01,9.59H1421.811z"/>
	<path fill="#FFFFFF" d="M1439.854,418.48c1.015,1.236,2.257,2.21,3.727,2.922c1.471,0.712,3.139,1.067,5.006,1.067
		c1.89,0,3.569-0.355,5.039-1.067c1.471-0.712,2.713-1.686,3.729-2.922c1.015-1.237,1.79-2.695,2.327-4.375
		c0.536-1.681,0.805-3.488,0.805-5.426c0-1.937-0.269-3.75-0.805-5.442c-0.537-1.691-1.313-3.161-2.327-4.41
		c-1.016-1.247-2.258-2.233-3.729-2.957c-1.47-0.723-3.149-1.085-5.039-1.085c-1.867,0-3.535,0.362-5.006,1.085
		c-1.47,0.724-2.712,1.71-3.727,2.957c-1.016,1.249-1.785,2.719-2.311,4.41c-0.525,1.692-0.787,3.506-0.787,5.442
		c0,1.938,0.262,3.745,0.787,5.426C1438.068,415.785,1438.838,417.243,1439.854,418.48z M1441.76,404.532
		c0.304-1.248,0.765-2.315,1.383-3.202s1.383-1.58,2.293-2.082s1.96-0.753,3.15-0.753c1.213,0,2.274,0.251,3.185,0.753
		s1.674,1.195,2.292,2.082c0.619,0.887,1.086,1.954,1.4,3.202c0.314,1.249,0.473,2.62,0.473,4.113s-0.158,2.858-0.473,4.095
		c-0.314,1.237-0.781,2.305-1.4,3.202c-0.618,0.898-1.382,1.593-2.292,2.083c-0.91,0.489-1.972,0.734-3.185,0.734
		c-1.19,0-2.24-0.245-3.15-0.734c-0.91-0.49-1.675-1.185-2.293-2.083c-0.618-0.897-1.079-1.965-1.383-3.202
		c-0.303-1.236-0.454-2.602-0.454-4.095S1441.457,405.781,1441.76,404.532z"/>
	<path fill="#FFFFFF" d="M670.796,350.98l5.678,11.381l5.682-11.381h1.205v-2.413l0.293-0.587h-0.293v-82.191h-0.204
		c-0.585-3.817-3.356-6.719-6.682-6.719c-3.325,0-6.095,2.901-6.681,6.719h-0.204v82.191h-0.292l0.292,0.584v2.416H670.796z
		 M676.475,355.643l-2.327-4.662h4.654L676.475,355.643z M676.475,262.07c1.68,0,3.13,1.599,3.615,3.719h-7.228
		C673.346,263.669,674.795,262.07,676.475,262.07z M672.59,268.789h7.77v79.191h-7.77V268.789z"/>
	<rect x="555.405" y="261.513" fill="#FFFFFF" width="93.998" height="3"/>
	<rect x="555.405" y="241.724" fill="#FFFFFF" width="93.998" height="3"/>
	<rect x="555.405" y="280.51" fill="#FFFFFF" width="93.998" height="3"/>
	<rect x="555.405" y="303.465" fill="#FFFFFF" width="93.998" height="3"/>
	<path fill="#FFFFFF" d="M536.451,335.117v10.668h-7.75c-0.447-2.463-2.413-4.324-4.765-4.324c-2.682,0-4.864,2.417-4.864,5.389
		s2.182,5.389,4.864,5.389c2.064,0,3.82-1.438,4.524-3.453h10.991v-10.668h5.784v23.68h117.532V252.251h8.784v-10.668h7.922
		c0.588,2.169,2.386,3.765,4.533,3.765c2.622,0,4.755-2.362,4.755-5.265c0-2.901-2.133-5.262-4.755-5.262
		c-2.147,0-3.945,1.594-4.533,3.762h-10.922v10.669h-5.784v-25.011l-22.513-24.588h-95.019v32.039H533.82v-9.7
		c1.884-0.7,3.254-2.65,3.254-4.968c0-2.902-2.133-5.263-4.754-5.263c-2.622,0-4.755,2.361-4.755,5.263
		c0,2.318,1.37,4.269,3.255,4.969v12.699h14.416v44.533h-11.636c-0.587-2.169-2.386-3.764-4.534-3.764
		c-2.621,0-4.753,2.361-4.753,5.264s2.132,5.264,4.753,5.264c2.148,0,3.947-1.595,4.534-3.764h11.636v52.893H536.451z
		 M523.936,349.238c-1.01,0-1.864-1.094-1.864-2.389s0.854-2.389,1.864-2.389c1.009,0,1.862,1.094,1.862,2.389
		S524.945,349.238,523.936,349.238z M684.006,237.82c0.952,0,1.755,1.036,1.755,2.262c0,1.228-0.804,2.265-1.755,2.265
		c-0.951,0-1.753-1.037-1.753-2.265C682.252,238.856,683.055,237.82,684.006,237.82z M532.32,214.761
		c0.951,0,1.754,1.037,1.754,2.263s-0.803,2.263-1.754,2.263c-0.951,0-1.755-1.036-1.755-2.263S531.369,214.761,532.32,214.761z
		 M529.065,282.988c-0.951,0-1.753-1.037-1.753-2.264s0.803-2.264,1.753-2.264c0.951,0,1.755,1.037,1.755,2.264
		S530.016,282.988,529.065,282.988z M640.97,204.876l17.086,18.661H640.97V204.876z M548.235,202.653h89.734v23.885h21.797v132.259
		H548.235V202.653z"/>
	<path fill="#FFFFFF" d="M990.95,247.747v28.976l45.963,50.169l45.968-50.169v-28.976l-45.968,50.164L990.95,247.747z
		 M1079.881,275.557l-42.968,46.894l-42.963-46.894v-20.095l42.963,46.891l42.968-46.891V275.557z"/>
	<path fill="#FFFFFF" d="M990.95,326.171h26.512l-26.512-28.938V326.171z M993.95,304.948l16.695,18.223H993.95V304.948z"/>
	<path fill="#FFFFFF" d="M1082.881,326.171v-28.938l-26.516,28.938H1082.881z M1079.881,323.171h-16.697l16.697-18.223V323.171z"/>
	<path fill="#FFFFFF" d="M1102.97,251.604l-66.054-62.15l-81.049,76.258l2.057,2.186l13.627-12.822v99.909h131.789v-98.912
		l12.567,11.825l2.057-2.186l-14.624-13.76v-0.349H1102.97z M1100.34,351.985H974.551v-99.731l62.365-58.68l63.424,59.677V351.985z"
		/>
	<path fill="#FFFFFF" d="M1390.654,366.324h-54.215c-0.712-3.997-4.204-7.043-8.402-7.043c-4.711,0-8.544,3.832-8.544,8.543
		s3.833,8.544,8.544,8.544c4.198,0,7.69-3.047,8.402-7.044h54.276c0.812,4.678,4.89,8.25,9.796,8.25s8.984-3.572,9.796-8.25h55.47
		c0.712,3.997,4.205,7.044,8.403,7.044c4.71,0,8.542-3.833,8.542-8.544s-3.832-8.543-8.542-8.543c-4.198,0-7.691,3.046-8.403,7.043
		h-55.408c-0.574-4.381-4.004-7.866-8.357-8.528v-10.603c41.428-0.245,73.669-10.589,73.669-23.76v-78.575
		c0-13.33-33.019-23.772-75.169-23.772s-75.168,10.442-75.168,23.772v78.575c0,13.171,32.24,23.515,73.668,23.76v10.603
		C1394.658,358.458,1391.229,361.943,1390.654,366.324z M1407.464,367.622c0,3.833-3.119,6.952-6.952,6.952
		s-6.952-3.119-6.952-6.952s3.119-6.952,6.952-6.952S1407.464,363.789,1407.464,367.622z M1400.512,224.086
		c43.17,0,72.169,10.741,72.169,20.772s-28.999,20.772-72.169,20.772c-43.169,0-72.168-10.741-72.168-20.772
		S1357.343,224.086,1400.512,224.086z M1328.344,251.633c9.016,9.928,37.492,16.998,72.168,16.998s63.153-7.07,72.169-16.998v19.633
		c0,10.031-28.999,20.771-72.169,20.771c-43.169,0-72.168-10.74-72.168-20.771V251.633z M1328.344,278.039
		c9.016,9.929,37.492,16.998,72.168,16.998s63.153-7.069,72.169-16.998v19.428c0,10.031-28.999,20.772-72.169,20.772
		c-43.169,0-72.168-10.741-72.168-20.772V278.039z M1328.344,323.434v-19.192c9.016,9.928,37.492,16.998,72.168,16.998
		s63.153-7.07,72.169-16.999v19.193c0,10.031-28.999,20.771-72.169,20.771C1357.343,344.205,1328.344,333.465,1328.344,323.434z"/>
	<polygon fill="#FFFFFF" points="1083.563,26.398 1083.563,29.398 1582.961,29.398 1582.961,639.23 1200.57,639.23 1200.57,642.23 
		1585.961,642.23 1585.961,26.398 	"/>
	<polygon fill="#FFFFFF" points="17.039,29.398 517.372,29.398 517.372,26.398 14.039,26.398 14.039,642.23 400,642.23 400,639.23 
		17.039,639.23 	"/>
	<path fill="#FFFFFF" d="M594.936,49.047h20.405v-12.25h-20.405V49.047z M599.275,40.297h11.76v5.215h-11.76V40.297z"/>
	<path fill="#FFFFFF" d="M592.835,31.826c0.747,0.724,1.633,1.295,2.66,1.716c1.026,0.42,2.158,0.63,3.395,0.63
		c1.236,0,2.374-0.21,3.412-0.63c1.038-0.421,1.925-0.992,2.66-1.716c0.735-0.723,1.307-1.58,1.715-2.572
		c0.408-0.991,0.613-2.07,0.613-3.237c0-1.12-0.205-2.176-0.613-3.168c-0.408-0.991-0.98-1.854-1.715-2.59
		c-0.735-0.734-1.622-1.317-2.66-1.75c-1.038-0.432-2.176-0.647-3.412-0.647c-1.237,0-2.369,0.216-3.395,0.647
		c-1.027,0.433-1.914,1.016-2.66,1.75c-0.747,0.735-1.33,1.599-1.75,2.59c-0.42,0.992-0.63,2.048-0.63,3.168
		c0,1.167,0.21,2.246,0.63,3.237C591.505,30.246,592.088,31.104,592.835,31.826z M595.041,24.196c0.21-0.56,0.496-1.044,0.857-1.452
		c0.361-0.408,0.799-0.723,1.313-0.945c0.513-0.222,1.073-0.332,1.68-0.332c1.283,0,2.304,0.426,3.063,1.277
		c0.758,0.852,1.137,1.942,1.137,3.272c0,1.4-0.379,2.515-1.137,3.343c-0.759,0.828-1.78,1.242-3.063,1.242
		c-1.237,0-2.24-0.414-3.01-1.242s-1.155-1.942-1.155-3.343C594.726,25.363,594.831,24.757,595.041,24.196z"/>
	<polygon fill="#FFFFFF" points="615.34,27.557 620.206,27.557 620.206,23.917 615.34,23.917 615.34,17.092 611.036,17.092 
		611.036,35.396 615.34,35.396 	"/>
	<rect x="624.055" y="22.937" fill="#FFFFFF" width="23.975" height="3.535"/>
	<rect x="629.515" y="17.582" fill="#FFFFFF" width="13.02" height="3.64"/>
	<path fill="#FFFFFF" d="M651.04,41.661h-12.81v-2.555c1.19-0.14,2.234-0.391,3.133-0.752c0.898-0.362,1.65-0.8,2.257-1.313
		c0.606-0.514,1.062-1.085,1.365-1.716c0.303-0.63,0.455-1.282,0.455-1.96c0-0.793-0.199-1.545-0.595-2.257
		c-0.397-0.712-0.986-1.336-1.768-1.873c-0.782-0.536-1.756-0.962-2.922-1.277c-1.167-0.314-2.532-0.473-4.095-0.473
		c-1.61,0-3.004,0.158-4.182,0.473c-1.179,0.315-2.153,0.741-2.923,1.277c-0.77,0.537-1.347,1.161-1.732,1.873
		c-0.385,0.712-0.578,1.464-0.578,2.257c0,0.678,0.146,1.33,0.438,1.96c0.292,0.631,0.735,1.202,1.33,1.716
		c0.595,0.513,1.348,0.95,2.258,1.313c0.91,0.361,1.971,0.612,3.185,0.752v2.555H621.01v3.605h30.03V41.661z M633.593,35.729
		c-0.642-0.152-1.155-0.351-1.54-0.596c-0.385-0.245-0.653-0.519-0.805-0.822c-0.152-0.303-0.228-0.618-0.228-0.945
		c0-0.326,0.076-0.647,0.228-0.962c0.152-0.315,0.42-0.589,0.805-0.822c0.385-0.233,0.898-0.421,1.54-0.561
		c0.642-0.14,1.453-0.21,2.433-0.21s1.79,0.07,2.432,0.21c0.642,0.14,1.155,0.327,1.54,0.561c0.385,0.233,0.659,0.507,0.823,0.822
		c0.163,0.314,0.245,0.636,0.245,0.962c0,0.327-0.082,0.643-0.245,0.945c-0.164,0.304-0.438,0.577-0.823,0.822
		c-0.385,0.245-0.898,0.443-1.54,0.596c-0.642,0.151-1.452,0.228-2.432,0.228S634.234,35.881,633.593,35.729z"/>
	<polygon fill="#FFFFFF" points="674.945,28.852 669.555,28.852 669.555,32.387 674.911,32.387 674.911,36.587 679.25,36.587 
		679.25,17.092 674.911,17.092 674.911,21.852 670.43,21.852 670.43,25.316 674.945,25.316 	"/>
	<path fill="#FFFFFF" d="M661.47,28.204c-2.007,1.832-4.888,3.343-8.645,4.532l2.415,3.15c2.287-0.7,4.311-1.628,6.073-2.782
		c1.761-1.155,3.267-2.485,4.515-3.99c1.248-1.505,2.222-3.168,2.922-4.987c0.7-1.82,1.12-3.733,1.26-5.74
		c-1.96,0.047-3.745,0.07-5.355,0.07c-1.61,0-3.22,0-4.83,0h-4.935v3.534h3.08c1.4,0,2.73-0.005,3.99-0.018
		c1.26-0.011,2.298-0.028,3.115-0.052C664.678,24.278,663.477,26.373,661.47,28.204z"/>
	<path fill="#FFFFFF" d="M676.766,38.424c-0.934-0.595-2.083-1.067-3.448-1.417c-1.365-0.351-2.958-0.525-4.777-0.525
		c-1.82,0-3.413,0.175-4.778,0.525c-1.365,0.35-2.502,0.822-3.412,1.417c-0.91,0.596-1.599,1.301-2.065,2.118
		c-0.467,0.816-0.7,1.691-0.7,2.625c0,0.933,0.233,1.802,0.7,2.607c0.466,0.805,1.155,1.505,2.065,2.1
		c0.91,0.595,2.047,1.062,3.412,1.4c1.365,0.338,2.958,0.507,4.778,0.507c1.82,0,3.413-0.169,4.777-0.507
		c1.365-0.339,2.514-0.806,3.448-1.4c0.933-0.595,1.633-1.295,2.1-2.1c0.467-0.806,0.7-1.675,0.7-2.607
		c0-0.934-0.233-1.809-0.7-2.625C678.398,39.725,677.698,39.02,676.766,38.424z M674.788,44.339
		c-0.245,0.385-0.63,0.729-1.155,1.032c-0.525,0.304-1.208,0.543-2.047,0.718s-1.855,0.263-3.045,0.263s-2.205-0.088-3.045-0.263
		c-0.84-0.175-1.522-0.414-2.048-0.718c-0.525-0.303-0.904-0.647-1.137-1.032c-0.234-0.385-0.35-0.775-0.35-1.172
		c0-0.421,0.116-0.817,0.35-1.19c0.233-0.373,0.612-0.712,1.137-1.015c0.525-0.304,1.208-0.543,2.048-0.718
		c0.84-0.175,1.855-0.263,3.045-0.263s2.205,0.088,3.045,0.263s1.522,0.414,2.047,0.718c0.525,0.303,0.91,0.642,1.155,1.015
		c0.245,0.373,0.367,0.77,0.367,1.19C675.155,43.563,675.033,43.954,674.788,44.339z"/>
	<rect x="707.39" y="17.092" fill="#FFFFFF" width="4.095" height="32.444"/>
	<path fill="#FFFFFF" d="M690.275,31.844c-0.793,1.412-1.762,2.813-2.905,4.2c-1.144,1.389-2.462,2.725-3.955,4.008l3.185,2.38
		c1.307-1.236,2.479-2.479,3.518-3.728c1.038-1.248,1.954-2.537,2.748-3.867c0.723,1.283,1.54,2.479,2.45,3.587
		c0.91,1.108,1.902,2.142,2.975,3.098l2.765-2.695v9.905h4.025v-31.29h-4.025v10.955h-3.71v3.605h3.71v6.614
		c-1.26-1.05-2.438-2.17-3.535-3.359c-1.097-1.19-2.019-2.521-2.765-3.99c0.816-1.89,1.423-3.78,1.82-5.67
		c0.396-1.89,0.595-3.815,0.595-5.775c-1.237,0.047-2.456,0.07-3.657,0.07c-1.202,0-2.41,0-3.623,0h-4.445v3.675h2.975
		c0.747,0,1.499,0,2.258,0c0.758,0,1.522-0.022,2.292-0.07c-0.117,1.33-0.397,2.701-0.84,4.113
		C691.687,29.021,691.068,30.433,690.275,31.844z"/>
	<path fill="#FFFFFF" d="M721.058,42.449c0.642,1.435,1.394,2.806,2.258,4.112c0.863,1.307,1.785,2.485,2.765,3.535h3.535
		c-2.217-3.08-3.786-5.985-4.708-8.715c-0.922-2.73-1.382-5.343-1.382-7.84c0-1.261,0.099-2.543,0.297-3.851
		c0.198-1.307,0.531-2.647,0.998-4.024c0.466-1.377,1.09-2.794,1.873-4.253c0.781-1.458,1.755-2.957,2.922-4.497h-3.535
		c-1.05,1.144-2.007,2.368-2.87,3.675c-0.864,1.307-1.61,2.666-2.24,4.077c-0.63,1.412-1.114,2.864-1.452,4.357
		c-0.339,1.494-0.508,2.999-0.508,4.516c0,1.47,0.181,2.963,0.542,4.479C719.915,39.539,720.416,41.014,721.058,42.449z"/>
	<rect x="730" y="30.637" fill="#FFFFFF" width="30.66" height="3.359"/>
	<path fill="#FFFFFF" d="M755.76,17.477h-4.375v2.94H739.24v-2.94h-4.41v11.48h20.93V17.477z M751.42,25.632h-12.285v-1.891h12.285
		V25.632z"/>
	<polygon fill="#FFFFFF" points="734.69,41.137 734.69,49.536 756.74,49.536 756.74,46.106 738.96,46.106 738.96,44.321 
		755.935,44.321 755.935,35.991 734.69,35.991 734.69,39.422 751.595,39.422 751.595,41.137 	"/>
	<polygon fill="#FFFFFF" points="791.88,34.696 778.65,34.696 778.65,32.106 787.505,32.106 787.505,28.746 770.32,28.746 
		770.32,26.717 786.805,26.717 786.805,17.967 766.05,17.967 766.05,21.502 782.5,21.502 782.5,23.496 766.05,23.496 766.05,32.106 
		774.275,32.106 774.275,34.696 761.22,34.696 761.22,38.267 791.88,38.267 	"/>
	<polygon fill="#FFFFFF" points="787.12,49.606 787.12,40.017 765.42,40.017 765.42,43.552 782.815,43.552 782.815,49.606 	"/>
	<polygon fill="#FFFFFF" points="806.895,33.332 810.605,33.332 810.605,48.731 814.525,48.731 814.525,17.441 810.605,17.441 
		810.605,29.762 806.895,29.762 	"/>
	<rect x="816.766" y="17.092" fill="#FFFFFF" width="3.99" height="32.444"/>
	<path fill="#FFFFFF" d="M799.475,33.786c-0.84,1.237-1.855,2.438-3.045,3.605s-2.532,2.182-4.025,3.045l2.975,2.765
		c1.376-0.979,2.63-2.035,3.762-3.167c1.131-1.132,2.152-2.351,3.063-3.657c0.652,1.05,1.389,2.042,2.205,2.975
		c0.816,0.934,1.773,1.809,2.87,2.625l3.045-2.765c-1.308-0.98-2.433-1.972-3.378-2.976c-0.945-1.003-1.814-2.158-2.607-3.465
		c1.471-2.986,2.322-6.102,2.555-9.345c-1.469,0.047-2.904,0.069-4.305,0.069s-2.823,0-4.27,0h-3.99v3.57h2.695
		c0.886,0,1.755,0,2.607,0c0.852,0,1.721-0.022,2.607-0.07c-0.047,0.91-0.31,1.961-0.787,3.15
		C800.974,31.337,800.315,32.55,799.475,33.786z"/>
	<rect x="796.395" y="18.246" fill="#FFFFFF" width="9.031" height="3.641"/>
	<polygon fill="#FFFFFF" points="830.38,38.896 830.38,48.906 851.59,48.906 851.59,45.231 834.686,45.231 834.686,38.896 	"/>
	<rect x="846.62" y="17.092" fill="#FFFFFF" width="4.305" height="23.064"/>
	<path fill="#FFFFFF" d="M827.439,32.701c0.747,0.747,1.65,1.336,2.713,1.768c1.062,0.433,2.223,0.647,3.482,0.647
		s2.427-0.215,3.5-0.647c1.073-0.432,1.995-1.021,2.766-1.768c0.77-0.746,1.37-1.627,1.802-2.643
		c0.432-1.015,0.647-2.105,0.647-3.272c0-1.213-0.216-2.333-0.647-3.359s-1.032-1.919-1.802-2.678
		c-0.771-0.758-1.692-1.353-2.766-1.785c-1.073-0.432-2.24-0.647-3.5-0.647s-2.415,0.216-3.465,0.647
		c-1.05,0.433-1.955,1.027-2.713,1.785c-0.758,0.759-1.348,1.651-1.768,2.678s-0.629,2.146-0.629,3.359
		c0,1.167,0.209,2.258,0.629,3.272C826.109,31.074,826.693,31.955,827.439,32.701z M830.66,23.234
		c0.746-0.852,1.762-1.277,3.045-1.277c1.26,0,2.275,0.426,3.045,1.277s1.154,2.036,1.154,3.552c0,1.424-0.385,2.55-1.154,3.378
		s-1.785,1.242-3.045,1.242c-1.307,0-2.328-0.414-3.063-1.242c-0.735-0.828-1.103-1.954-1.103-3.378
		C829.54,25.271,829.913,24.086,830.66,23.234z"/>
	<polygon fill="#FFFFFF" points="885.715,28.852 880.324,28.852 880.324,32.387 885.68,32.387 885.68,36.587 890.02,36.587 
		890.02,17.092 885.68,17.092 885.68,21.852 881.199,21.852 881.199,25.316 885.715,25.316 	"/>
	<path fill="#FFFFFF" d="M872.24,28.204c-2.008,1.832-4.889,3.343-8.646,4.532l2.415,3.15c2.287-0.7,4.311-1.628,6.072-2.782
		c1.762-1.155,3.268-2.485,4.516-3.99s2.223-3.168,2.922-4.987c0.7-1.82,1.121-3.733,1.26-5.74c-1.959,0.047-3.744,0.07-5.354,0.07
		s-3.22,0-4.83,0h-4.935v3.534h3.08c1.4,0,2.729-0.005,3.99-0.018c1.26-0.011,2.297-0.028,3.114-0.052
		C875.447,24.278,874.246,26.373,872.24,28.204z"/>
	<path fill="#FFFFFF" d="M887.535,38.424c-0.934-0.595-2.082-1.067-3.447-1.417c-1.365-0.351-2.958-0.525-4.777-0.525
		c-1.82,0-3.413,0.175-4.778,0.525c-1.364,0.35-2.503,0.822-3.412,1.417c-0.91,0.596-1.599,1.301-2.065,2.118
		c-0.467,0.816-0.699,1.691-0.699,2.625c0,0.933,0.232,1.802,0.699,2.607c0.467,0.805,1.155,1.505,2.065,2.1
		c0.909,0.595,2.048,1.062,3.412,1.4c1.365,0.338,2.958,0.507,4.778,0.507c1.819,0,3.412-0.169,4.777-0.507
		c1.365-0.339,2.514-0.806,3.447-1.4c0.933-0.595,1.633-1.295,2.1-2.1c0.467-0.806,0.7-1.675,0.7-2.607
		c0-0.934-0.233-1.809-0.7-2.625C889.168,39.725,888.468,39.02,887.535,38.424z M885.558,44.339
		c-0.245,0.385-0.63,0.729-1.155,1.032c-0.525,0.304-1.207,0.543-2.047,0.718s-1.855,0.263-3.045,0.263
		c-1.19,0-2.205-0.088-3.045-0.263c-0.841-0.175-1.523-0.414-2.049-0.718c-0.524-0.303-0.904-0.647-1.137-1.032
		c-0.234-0.385-0.35-0.775-0.35-1.172c0-0.421,0.115-0.817,0.35-1.19c0.232-0.373,0.612-0.712,1.137-1.015
		c0.525-0.304,1.208-0.543,2.049-0.718c0.84-0.175,1.854-0.263,3.045-0.263c1.189,0,2.205,0.088,3.045,0.263
		s1.521,0.414,2.047,0.718c0.525,0.303,0.91,0.642,1.155,1.015s0.367,0.77,0.367,1.19C885.925,43.563,885.803,43.954,885.558,44.339
		z"/>
	<rect x="918.16" y="17.092" fill="#FFFFFF" width="4.095" height="32.444"/>
	<path fill="#FFFFFF" d="M901.045,31.844c-0.794,1.412-1.762,2.813-2.905,4.2c-1.144,1.389-2.462,2.725-3.955,4.008l3.185,2.38
		c1.307-1.236,2.479-2.479,3.518-3.728c1.039-1.248,1.955-2.537,2.748-3.867c0.723,1.283,1.54,2.479,2.449,3.587
		c0.91,1.108,1.902,2.142,2.976,3.098l2.765-2.695v9.905h4.025v-31.29h-4.025v10.955h-3.709v3.605h3.709v6.614
		c-1.26-1.05-2.438-2.17-3.535-3.359c-1.096-1.19-2.018-2.521-2.764-3.99c0.816-1.89,1.422-3.78,1.819-5.67
		c0.396-1.89,0.595-3.815,0.595-5.775c-1.236,0.047-2.455,0.07-3.657,0.07s-2.409,0-3.622,0h-4.445v3.675h2.975
		c0.746,0,1.499,0,2.258,0c0.758,0,1.522-0.022,2.293-0.07c-0.117,1.33-0.397,2.701-0.84,4.113
		C902.456,29.021,901.838,30.433,901.045,31.844z"/>
	<path fill="#FFFFFF" d="M925.3,50.097h3.535c0.979-1.05,1.901-2.229,2.765-3.535s1.615-2.678,2.258-4.112
		c0.642-1.436,1.143-2.91,1.505-4.428c0.361-1.517,0.542-3.01,0.542-4.479c0-1.517-0.169-3.021-0.507-4.516
		c-0.339-1.493-0.823-2.945-1.452-4.357c-0.631-1.411-1.377-2.771-2.24-4.077s-1.82-2.531-2.87-3.675H925.3
		c1.167,1.54,2.141,3.039,2.923,4.497c0.781,1.459,1.405,2.876,1.872,4.253s0.8,2.718,0.997,4.024
		c0.199,1.308,0.298,2.59,0.298,3.851c0,2.497-0.461,5.109-1.382,7.84C929.086,44.111,927.517,47.017,925.3,50.097z"/>
	<polygon fill="#FFFFFF" points="953.895,39.842 953.895,48.906 975.35,48.906 975.35,45.231 958.27,45.231 958.27,39.842 	"/>
	<polygon fill="#FFFFFF" points="974.824,31.792 979.305,31.792 979.305,28.116 974.824,28.116 974.824,17.092 970.555,17.092 
		970.555,42.187 974.824,42.187 	"/>
	<path fill="#FFFFFF" d="M957.202,37.882c1.411-0.047,2.835-0.11,4.271-0.192c1.435-0.082,2.84-0.187,4.217-0.315
		c1.377-0.128,2.684-0.274,3.92-0.438v-3.57c-1.26,0.164-2.59,0.298-3.99,0.403c-1.399,0.104-2.799,0.204-4.199,0.297v-2.17
		c0.979-0.21,1.849-0.542,2.607-0.997c0.758-0.455,1.388-0.992,1.89-1.61c0.501-0.618,0.887-1.295,1.155-2.03
		c0.268-0.734,0.402-1.499,0.402-2.292c0-0.934-0.182-1.826-0.543-2.678s-0.898-1.61-1.609-2.275
		c-0.713-0.665-1.588-1.195-2.625-1.592c-1.039-0.396-2.223-0.596-3.553-0.596s-2.515,0.199-3.553,0.596s-1.913,0.927-2.625,1.592
		s-1.248,1.424-1.609,2.275c-0.362,0.852-0.543,1.744-0.543,2.678c0,0.793,0.135,1.569,0.402,2.327
		c0.268,0.759,0.666,1.447,1.19,2.065s1.178,1.154,1.96,1.609c0.781,0.455,1.674,0.776,2.678,0.963v2.275
		c-0.678,0.023-1.348,0.041-2.013,0.052c-0.665,0.013-1.302,0.018-1.907,0.018h-4.375v3.675h4.41
		C954.442,37.951,955.79,37.929,957.202,37.882z M955.994,27.539c-0.652-0.712-0.979-1.569-0.979-2.572
		c0-0.49,0.081-0.957,0.245-1.4c0.162-0.442,0.414-0.828,0.752-1.155c0.338-0.326,0.764-0.589,1.277-0.787s1.132-0.298,1.855-0.298
		c1.447,0,2.502,0.356,3.168,1.068c0.664,0.712,0.997,1.569,0.997,2.572s-0.333,1.86-0.997,2.572
		c-0.666,0.712-1.721,1.067-3.168,1.067S956.647,28.251,955.994,27.539z"/>
	<path fill="#FFFFFF" d="M987.25,32.649c1.26-1.179,2.333-2.525,3.22-4.043c0.933,1.33,2.03,2.521,3.29,3.57s2.718,1.983,4.375,2.8
		l2.59-2.87c-1.004-0.513-1.913-1.038-2.73-1.575c-0.816-0.536-1.563-1.12-2.239-1.75s-1.302-1.317-1.872-2.064
		c-0.572-0.747-1.104-1.563-1.593-2.45c0.536-1.937,0.781-4.06,0.735-6.37h-4.48c0.093,1.773,0,3.396-0.28,4.865
		s-0.771,2.823-1.47,4.06c-0.7,1.237-1.616,2.369-2.748,3.396s-2.49,1.983-4.077,2.87l2.976,2.625
		C984.555,34.849,985.99,33.827,987.25,32.649z"/>
	<path fill="#FFFFFF" d="M1004.715,38.651c-0.934-0.583-2.082-1.044-3.447-1.382c-1.365-0.339-2.958-0.508-4.777-0.508
		c-1.82,0-3.413,0.169-4.777,0.508c-1.365,0.338-2.503,0.799-3.413,1.382c-0.91,0.584-1.599,1.277-2.065,2.083
		c-0.467,0.805-0.699,1.662-0.699,2.572s0.232,1.756,0.699,2.537c0.467,0.782,1.155,1.464,2.065,2.048
		c0.91,0.583,2.048,1.044,3.413,1.383c1.364,0.338,2.957,0.507,4.777,0.507c1.819,0,3.412-0.169,4.777-0.507
		c1.365-0.339,2.514-0.8,3.447-1.383c0.934-0.584,1.633-1.266,2.1-2.048c0.467-0.781,0.7-1.627,0.7-2.537s-0.233-1.768-0.7-2.572
		C1006.348,39.929,1005.648,39.235,1004.715,38.651z M1002.737,44.444c-0.245,0.361-0.63,0.683-1.155,0.962
		c-0.525,0.28-1.207,0.508-2.047,0.683s-1.855,0.263-3.045,0.263c-1.19,0-2.205-0.088-3.045-0.263s-1.523-0.402-2.048-0.683
		c-0.525-0.279-0.905-0.601-1.138-0.962c-0.233-0.361-0.35-0.741-0.35-1.138s0.116-0.781,0.35-1.155
		c0.232-0.373,0.612-0.7,1.138-0.979c0.524-0.28,1.208-0.508,2.048-0.683s1.854-0.263,3.045-0.263c1.189,0,2.205,0.088,3.045,0.263
		s1.521,0.402,2.047,0.683c0.525,0.279,0.91,0.606,1.155,0.979c0.245,0.374,0.368,0.759,0.368,1.155
		S1002.982,44.083,1002.737,44.444z"/>
	<polygon fill="#FFFFFF" points="1002.79,36.517 1007.13,36.517 1007.13,17.092 1002.79,17.092 1002.79,23.672 996.734,23.672 
		996.734,27.241 1002.79,27.241 	"/>
	<rect x="835.119" y="297.83" fill="#FFFFFF" width="5" height="3"/>
	<rect x="845.119" y="297.83" fill="#FFFFFF" width="5" height="3"/>
	<rect x="825.119" y="297.83" fill="#FFFFFF" width="5" height="3"/>
	<rect x="865.119" y="297.83" fill="#FFFFFF" width="5" height="3"/>
	<rect x="875.119" y="297.83" fill="#FFFFFF" width="5" height="3"/>
	<rect x="815.119" y="297.83" fill="#FFFFFF" width="5" height="3"/>
	<rect x="855.119" y="297.83" fill="#FFFFFF" width="5" height="3"/>
	<rect x="795.12" y="297.83" fill="#FFFFFF" width="5" height="3"/>
	<rect x="765.12" y="297.83" fill="#FFFFFF" width="5" height="3"/>
	<rect x="775.12" y="297.83" fill="#FFFFFF" width="5" height="3"/>
	<rect x="805.119" y="297.83" fill="#FFFFFF" width="5" height="3"/>
	<rect x="755.12" y="297.83" fill="#FFFFFF" width="5" height="3"/>
	<rect x="885.119" y="297.83" fill="#FFFFFF" width="5" height="3"/>
	<rect x="785.12" y="297.83" fill="#FFFFFF" width="5" height="3"/>
	<rect x="528.197" y="663.772" fill="#FFFFFF" width="11.76" height="5.215"/>
	<path fill="#FFFFFF" d="M568.919,658.609c0.385-0.245,0.659-0.519,0.823-0.822c0.163-0.303,0.245-0.618,0.245-0.945
		c0-0.326-0.082-0.647-0.245-0.962c-0.164-0.315-0.438-0.589-0.823-0.822c-0.385-0.233-0.898-0.421-1.54-0.561
		c-0.642-0.14-1.452-0.21-2.432-0.21s-1.791,0.07-2.433,0.21c-0.642,0.14-1.155,0.327-1.54,0.561
		c-0.385,0.233-0.653,0.507-0.805,0.822c-0.152,0.314-0.228,0.636-0.228,0.962c0,0.327,0.076,0.643,0.228,0.945
		c0.152,0.304,0.42,0.577,0.805,0.822c0.385,0.245,0.898,0.443,1.54,0.596c0.642,0.151,1.453,0.228,2.433,0.228
		s1.79-0.076,2.432-0.228C568.021,659.053,568.534,658.854,568.919,658.609z"/>
	<path fill="#FFFFFF" d="M761.559,618.063c0.711-1.423,1.067-3.396,1.067-5.915c0-2.521-0.356-4.492-1.067-5.915
		c-0.712-1.423-1.721-2.136-3.027-2.136c-1.307,0-2.316,0.713-3.027,2.136c-0.712,1.423-1.068,3.395-1.068,5.915
		c0,2.52,0.355,4.492,1.068,5.915c0.711,1.423,1.72,2.135,3.027,2.135C759.838,620.197,760.847,619.485,761.559,618.063z"/>
	<path fill="#FFFFFF" d="M694.482,612.952c0.886,0,1.604-0.373,2.152-1.12c0.548-0.746,0.822-1.913,0.822-3.5
		c0-1.61-0.274-2.8-0.822-3.57c-0.548-0.77-1.266-1.154-2.152-1.154c-0.887,0-1.599,0.385-2.135,1.154
		c-0.537,0.771-0.805,1.96-0.805,3.57c0,1.587,0.268,2.754,0.805,3.5C692.883,612.579,693.595,612.952,694.482,612.952z"/>
	<path fill="#FFFFFF" d="M527.812,654.077c1.283,0,2.304-0.414,3.063-1.242c0.758-0.828,1.137-1.942,1.137-3.343
		c0-1.33-0.379-2.421-1.137-3.272c-0.759-0.852-1.78-1.277-3.063-1.277c-0.607,0-1.167,0.11-1.68,0.332
		c-0.514,0.223-0.951,0.537-1.313,0.945c-0.362,0.408-0.647,0.893-0.857,1.452c-0.21,0.561-0.315,1.167-0.315,1.82
		c0,1.4,0.385,2.515,1.155,3.343S526.575,654.077,527.812,654.077z"/>
	<path fill="#FFFFFF" d="M602.554,664.438c-0.525-0.304-1.208-0.543-2.047-0.718s-1.855-0.263-3.045-0.263s-2.205,0.088-3.045,0.263
		c-0.84,0.175-1.522,0.414-2.048,0.718c-0.525,0.303-0.904,0.642-1.137,1.015c-0.234,0.373-0.35,0.77-0.35,1.19
		c0,0.396,0.116,0.787,0.35,1.172c0.233,0.385,0.612,0.729,1.137,1.032c0.525,0.304,1.208,0.543,2.048,0.718
		c0.84,0.175,1.855,0.263,3.045,0.263s2.205-0.088,3.045-0.263s1.522-0.414,2.047-0.718c0.525-0.303,0.91-0.647,1.155-1.032
		c0.245-0.385,0.367-0.775,0.367-1.172c0-0.421-0.123-0.817-0.367-1.19C603.464,665.079,603.079,664.74,602.554,664.438z"/>
	<path fill="#FFFFFF" d="M1145.472,588.579H454.528c-11.046-2-20,11.363-20,27.849v38.798c0,16.485,8.954,29.849,20,31.849h690.943
		c11.046-2,20-15.363,20-31.849v-38.798C1165.472,599.942,1156.518,586.579,1145.472,588.579z M1006.471,641.442h22.75v3.535h-22.75
		V641.442z M988.586,640.917h4.025v7.105h2.66v-7.455h4.024v21.805h-4.024v-10.955h-2.66v7.49h-4.025V640.917z M944.031,641.337
		h22.75v3.36h-22.75V641.337z M943.646,649.212h4.164l-0.209-3.71h4.375l0.14,3.71h6.545l0.175-3.71h4.34l-0.244,3.71h4.199v3.115
		h-23.484V649.212z M878.161,626.707v3.675h-21.21v-10.01h4.305v6.335H878.161z M873.191,598.567h4.305v23.064h-4.305V598.567z
		 M852.262,604.902c0.42-1.026,1.008-1.919,1.768-2.678c0.758-0.758,1.662-1.353,2.712-1.785c1.05-0.432,2.205-0.647,3.465-0.647
		c1.261,0,2.427,0.216,3.5,0.647c1.073,0.433,1.995,1.027,2.765,1.785c0.771,0.759,1.371,1.651,1.803,2.678s0.648,2.146,0.648,3.359
		c0,1.167-0.217,2.258-0.648,3.272c-0.432,1.016-1.032,1.896-1.803,2.643c-0.77,0.747-1.691,1.336-2.765,1.768
		c-1.073,0.433-2.239,0.647-3.5,0.647c-1.26,0-2.421-0.215-3.482-0.647c-1.062-0.432-1.966-1.021-2.712-1.768
		c-0.748-0.746-1.33-1.627-1.75-2.643c-0.42-1.015-0.631-2.105-0.631-3.272C851.631,607.049,851.842,605.929,852.262,604.902z
		 M848.762,646.692h4.9v-6.125h4.34v16.59h-4.34v-7.175h-4.9V646.692z M843.336,598.567h3.99v32.444h-3.99V598.567z
		 M837.176,598.917h3.921v31.29h-3.921v-15.399h-3.709v-3.57h3.709V598.917z M822.967,599.722h9.029v3.641h-9.029V599.722z
		 M786.829,612.567c1.458-0.863,2.677-1.884,3.657-3.063c0.98-1.178,1.715-2.538,2.205-4.078c0.49-1.54,0.711-3.324,0.665-5.354
		h4.34c0.046,0.887,0.029,1.744-0.052,2.572c-0.082,0.829-0.216,1.64-0.403,2.433c1.283,2.357,2.87,4.317,4.761,5.88
		c1.89,1.563,4.223,2.858,7,3.885l-2.625,3.29c-2.404-0.862-4.504-2.023-6.301-3.482c-1.797-1.458-3.337-3.202-4.62-5.232
		c-1.19,2.054-2.748,3.821-4.673,5.303c-1.925,1.482-4.02,2.631-6.282,3.447l-2.66-3.29
		C783.708,614.2,785.371,613.431,786.829,612.567z M780.231,622.857h30.03v3.604h-30.03V622.857z M722.622,601.297h20.58v3.675
		h-16.24v8.54h16.52v3.78h-20.86V601.297z M703.302,598.917h4.165v7.805h2.66v-8.154h4.2v24.045h-4.2v-12.25h-2.66v11.585h-4.165
		V598.917z M687.954,604.797c0.362-1.026,0.863-1.89,1.505-2.59s1.394-1.236,2.258-1.61c0.863-0.372,1.785-0.56,2.765-0.56
		s1.901,0.188,2.765,0.56c0.863,0.374,1.61,0.91,2.24,1.61s1.131,1.563,1.505,2.59c0.373,1.027,0.56,2.193,0.56,3.5
		c0,1.308-0.187,2.474-0.56,3.5c-0.374,1.027-0.875,1.891-1.505,2.59c-0.63,0.7-1.377,1.237-2.24,1.61
		c-0.863,0.374-1.785,0.561-2.765,0.561s-1.902-0.187-2.765-0.561c-0.864-0.373-1.616-0.91-2.258-1.61
		c-0.642-0.699-1.143-1.563-1.505-2.59c-0.362-1.026-0.542-2.192-0.542-3.5C687.412,606.99,687.592,605.824,687.954,604.797z
		 M686.536,643.297h22.4v3.605h-22.4V643.297z M685.976,656.107h4.095l-0.245-8.155h4.34l0.175,8.19h6.72l0.245-8.19h4.34
		l-0.385,8.155h4.2v3.604h-23.485V656.107z M674.112,640.567h4.305v23.064h-4.305V640.567z M599.352,645.327h4.48v-4.76h4.34v19.495
		h-4.34v-4.2h-5.355v-3.535h5.39v-3.535h-4.515V645.327z M558.437,641.058h13.02v3.64h-13.02V641.058z M552.977,646.412h23.975
		v3.535h-23.975V646.412z M520.007,652.729c-0.42-0.991-0.63-2.07-0.63-3.237c0-1.12,0.21-2.176,0.63-3.168
		c0.42-0.991,1.003-1.854,1.75-2.59c0.747-0.734,1.633-1.317,2.66-1.75c1.026-0.432,2.158-0.647,3.395-0.647
		c1.236,0,2.374,0.216,3.412,0.647c1.038,0.433,1.925,1.016,2.66,1.75c0.735,0.735,1.307,1.599,1.715,2.59
		c0.408,0.992,0.613,2.048,0.613,3.168c0,1.167-0.205,2.246-0.613,3.237c-0.408,0.992-0.98,1.85-1.715,2.572
		c-0.735,0.724-1.622,1.295-2.66,1.716c-1.038,0.42-2.176,0.63-3.412,0.63c-1.237,0-2.369-0.21-3.395-0.63
		c-1.027-0.421-1.914-0.992-2.66-1.716C521.01,654.579,520.427,653.722,520.007,652.729z M544.262,672.522h-20.405v-12.25h20.405
		V672.522z M549.127,651.032h-4.865v7.84h-4.305v-18.305h4.305v6.825h4.865V651.032z M579.961,668.742h-30.03v-3.605h12.845v-2.555
		c-1.213-0.14-2.275-0.391-3.185-0.752c-0.91-0.362-1.663-0.8-2.258-1.313c-0.595-0.514-1.039-1.085-1.33-1.716
		c-0.292-0.63-0.438-1.282-0.438-1.96c0-0.793,0.193-1.545,0.578-2.257c0.385-0.712,0.962-1.336,1.732-1.873
		c0.77-0.536,1.744-0.962,2.923-1.277c1.178-0.314,2.572-0.473,4.182-0.473c1.563,0,2.928,0.158,4.095,0.473
		c1.167,0.315,2.141,0.741,2.922,1.277c0.782,0.537,1.371,1.161,1.768,1.873c0.396,0.712,0.595,1.464,0.595,2.257
		c0,0.678-0.152,1.33-0.455,1.96c-0.304,0.631-0.759,1.202-1.365,1.716c-0.607,0.513-1.359,0.95-2.257,1.313
		c-0.898,0.361-1.942,0.612-3.133,0.752v2.555h12.81V668.742z M581.747,656.212c3.757-1.189,6.638-2.7,8.645-4.532
		c2.007-1.831,3.208-3.926,3.605-6.282c-0.817,0.023-1.855,0.041-3.115,0.052c-1.26,0.013-2.59,0.018-3.99,0.018h-3.08v-3.534h4.935
		c1.61,0,3.22,0,4.83,0c1.61,0,3.395-0.023,5.355-0.07c-0.14,2.007-0.56,3.92-1.26,5.74c-0.7,1.819-1.675,3.482-2.922,4.987
		c-1.249,1.505-2.754,2.835-4.515,3.99c-1.762,1.154-3.786,2.082-6.073,2.782L581.747,656.212z M607.787,669.25
		c-0.467,0.805-1.167,1.505-2.1,2.1c-0.934,0.595-2.083,1.062-3.448,1.4c-1.365,0.338-2.958,0.507-4.777,0.507
		c-1.82,0-3.413-0.169-4.778-0.507c-1.365-0.339-2.502-0.806-3.412-1.4c-0.91-0.595-1.599-1.295-2.065-2.1
		c-0.467-0.806-0.7-1.675-0.7-2.607c0-0.934,0.233-1.809,0.7-2.625c0.466-0.817,1.155-1.522,2.065-2.118
		c0.91-0.595,2.047-1.067,3.412-1.417c1.365-0.351,2.958-0.525,4.778-0.525c1.82,0,3.413,0.175,4.777,0.525
		c1.365,0.35,2.514,0.822,3.448,1.417c0.933,0.596,1.633,1.301,2.1,2.118c0.467,0.816,0.7,1.691,0.7,2.625
		C608.487,667.575,608.253,668.444,607.787,669.25z M634.001,672.207h-4.025v-9.905l-2.765,2.695
		c-1.073-0.956-2.065-1.989-2.975-3.098c-0.91-1.107-1.727-2.304-2.45-3.587c-0.793,1.33-1.709,2.619-2.748,3.867
		c-1.039,1.248-2.211,2.491-3.518,3.728l-3.185-2.38c1.493-1.283,2.812-2.619,3.955-4.008c1.143-1.388,2.111-2.788,2.905-4.2
		c0.793-1.411,1.412-2.822,1.855-4.234c0.443-1.412,0.723-2.783,0.84-4.113c-0.77,0.048-1.535,0.07-2.292,0.07
		c-0.759,0-1.511,0-2.258,0h-2.975v-3.675h4.445c1.213,0,2.42,0,3.623,0c1.202,0,2.42-0.023,3.657-0.07
		c0,1.96-0.198,3.886-0.595,5.775c-0.397,1.89-1.003,3.78-1.82,5.67c0.746,1.47,1.668,2.8,2.765,3.99
		c1.097,1.189,2.275,2.31,3.535,3.359v-6.614h-3.71v-3.605h3.71v-10.955h4.025V672.207z M640.407,673.012h-4.095v-32.444h4.095
		V673.012z M654.932,656.177c-0.747-0.746-1.33-1.627-1.75-2.643c-0.42-1.015-0.63-2.105-0.63-3.272c0-1.213,0.21-2.333,0.63-3.359
		s1.009-1.919,1.768-2.678c0.758-0.758,1.663-1.353,2.712-1.785c1.05-0.432,2.205-0.647,3.465-0.647c1.26,0,2.427,0.216,3.5,0.647
		c1.073,0.433,1.995,1.027,2.765,1.785c0.77,0.759,1.371,1.651,1.802,2.678s0.648,2.146,0.648,3.359
		c0,1.167-0.216,2.258-0.648,3.272c-0.432,1.016-1.032,1.896-1.802,2.643c-0.77,0.747-1.692,1.336-2.765,1.768
		c-1.073,0.433-2.24,0.647-3.5,0.647c-1.26,0-2.421-0.215-3.482-0.647C656.582,657.513,655.678,656.924,654.932,656.177z
		 M679.082,672.382h-21.21v-10.01h4.305v6.335h16.905V672.382z M712.681,668.497h-30.03v-3.64h30.03V668.497z M714.852,630.382
		h-21.245v-10.465h4.375v6.79h16.87V630.382z M733.856,664.087c-0.793,0.21-1.686,0.402-2.677,0.578
		c-0.992,0.175-2.03,0.326-3.115,0.455c-1.085,0.128-2.205,0.233-3.36,0.314c-1.155,0.082-2.292,0.123-3.413,0.123h-5.81v-13.37
		h10.08v-5.426h-10.115v-3.675h14.525v12.74h-10.115v6.09h2.45c2.123,0,4.142-0.134,6.055-0.402
		c1.913-0.268,3.745-0.601,5.495-0.997V664.087z M744.566,656.457h-5.075v16.555h-4.34v-32.444h4.34v12.18h5.075V656.457z
		 M747.821,626.322h-30.03v-3.605h30.03V626.322z M752.372,620.862c-0.747-1.003-1.324-2.234-1.732-3.692
		c-0.409-1.458-0.612-3.133-0.612-5.022c0-1.891,0.204-3.564,0.612-5.022c0.408-1.458,0.985-2.689,1.732-3.692
		c0.747-1.004,1.639-1.762,2.678-2.275c1.038-0.513,2.199-0.771,3.482-0.771c2.263,0,4.142,0.794,5.635,2.381s2.403,3.896,2.73,6.93
		h4.795v-11.13h4.34v32.444h-4.34v-17.465h-4.69c-0.21,3.36-1.073,5.928-2.59,7.7c-1.517,1.773-3.477,2.66-5.88,2.66
		c-1.284,0-2.445-0.257-3.482-0.771C754.011,622.624,753.118,621.865,752.372,620.862z M763.169,664.857
		c0.921,2.729,2.491,5.635,4.708,8.715h-3.535c-0.98-1.05-1.902-2.229-2.765-3.535c-0.864-1.307-1.616-2.678-2.258-4.112
		c-0.642-1.436-1.143-2.91-1.505-4.428c-0.362-1.517-0.542-3.01-0.542-4.479c0-1.517,0.169-3.021,0.508-4.516
		c0.338-1.493,0.822-2.945,1.452-4.357c0.63-1.411,1.376-2.771,2.24-4.077c0.863-1.307,1.82-2.531,2.87-3.675h3.535
		c-1.167,1.54-2.141,3.039-2.922,4.497c-0.782,1.459-1.406,2.876-1.873,4.253c-0.467,1.377-0.799,2.718-0.998,4.024
		c-0.198,1.308-0.297,2.59-0.297,3.851C761.787,659.515,762.247,662.127,763.169,664.857z M789.961,663.457
		c-0.77,0.21-1.657,0.408-2.66,0.595c-1.003,0.188-2.06,0.351-3.167,0.49c-1.108,0.141-2.24,0.245-3.395,0.315
		c-1.155,0.069-2.27,0.104-3.342,0.104h-6.72v-21.7h15.47v3.71h-11.06v14.28h3.29c2.053,0,4.078-0.151,6.072-0.455
		c1.995-0.303,3.833-0.618,5.513-0.944V663.457z M795.562,673.012h-4.34v-32.444h4.34V673.012z M818.871,665.732
		c-1.447-1.05-2.748-2.188-3.902-3.413c-1.155-1.225-2.258-2.549-3.308-3.973c-1.237,1.681-2.62,3.227-4.147,4.638
		c-1.528,1.412-3.156,2.643-4.883,3.692l-2.939-2.835c2.029-1.166,3.814-2.484,5.355-3.955c1.539-1.47,2.834-2.963,3.885-4.479
		c1.049-1.517,1.859-3.01,2.432-4.48c0.572-1.47,0.916-2.787,1.033-3.955c-1.145,0.048-2.281,0.07-3.412,0.07
		c-1.133,0-2.258,0-3.379,0h-3.674v-3.71h5.494c1.471,0,2.986-0.005,4.551-0.018c1.563-0.012,3.336-0.028,5.32-0.053
		c-0.048,1.984-0.357,3.95-0.928,5.897c-0.572,1.949-1.371,3.833-2.398,5.653c1.073,1.517,2.258,2.928,3.553,4.234
		c1.295,1.308,2.748,2.497,4.357,3.57L818.871,665.732z M826.781,673.012h-4.34v-32.444h4.34V673.012z M830.981,620.827
		c-0.817-0.933-1.552-1.925-2.205-2.975c-0.91,1.307-1.931,2.525-3.063,3.657s-2.386,2.188-3.763,3.167l-2.975-2.765
		c1.492-0.863,2.835-1.878,4.025-3.045c1.189-1.167,2.205-2.368,3.045-3.605c0.84-1.236,1.498-2.449,1.977-3.64
		c0.479-1.189,0.741-2.24,0.788-3.15c-0.888,0.048-1.756,0.07-2.607,0.07c-0.853,0-1.722,0-2.607,0h-2.695v-3.57h3.99
		c1.446,0,2.87,0,4.271,0c1.399,0,2.834-0.022,4.305-0.069c-0.234,3.243-1.086,6.358-2.555,9.345
		c0.793,1.307,1.662,2.462,2.607,3.465c0.944,1.004,2.07,1.995,3.377,2.976l-3.045,2.765
		C832.754,622.636,831.798,621.761,830.981,620.827z M832.941,641.792h14.21v3.396h-9.8v2.205h9.345v3.29h-9.345v2.484h2.765
		c1.797,0,3.616-0.099,5.46-0.297s3.826-0.496,5.95-0.893v3.22c-2.03,0.467-4.065,0.8-6.107,0.997
		c-2.042,0.199-4.159,0.298-6.353,0.298h-6.125V641.792z M858.631,672.662h-21.35v-8.854h16.415v-1.75h-16.415v-3.535h20.721v8.75
		h-16.485v1.854h17.114V672.662z M887.506,665.522c-1.377-1.097-2.59-2.205-3.641-3.325c-1.049-1.12-2.041-2.345-2.975-3.675
		c-1.119,1.54-2.38,2.975-3.779,4.305c-1.4,1.33-2.918,2.567-4.551,3.71l-3.149-2.8c1.772-1.073,3.371-2.304,4.795-3.692
		c1.423-1.389,2.653-2.835,3.692-4.34c1.038-1.506,1.855-3.005,2.45-4.498s0.938-2.893,1.032-4.2
		c-1.12,0.07-2.223,0.111-3.308,0.123s-2.117,0.018-3.097,0.018h-3.5v-3.815h5.424c1.494,0,3.011,0,4.551,0
		c1.539,0,3.138-0.022,4.795-0.07c-0.023,2.03-0.298,4.014-0.822,5.95c-0.525,1.938-1.277,3.815-2.258,5.635
		c1.003,1.54,2.105,2.94,3.308,4.2c1.201,1.261,2.584,2.45,4.147,3.57L887.506,665.522z M895.661,673.012h-4.341v-32.444h4.341
		v12.075h5.075v3.71h-5.075V673.012z M900.561,657.577c1.563-0.933,2.911-1.948,4.043-3.045s2.048-2.298,2.748-3.605
		c0.699-1.306,1.189-2.729,1.47-4.27s0.373-3.231,0.28-5.075h4.41c0.022,1.144-0.023,2.24-0.141,3.29s-0.292,2.065-0.525,3.045
		c0.561,1.004,1.132,1.907,1.715,2.713c0.584,0.805,1.22,1.546,1.908,2.223c0.688,0.677,1.44,1.301,2.258,1.872
		c0.816,0.572,1.727,1.138,2.729,1.697l-2.694,2.976c-1.61-0.887-3.052-1.913-4.323-3.08c-1.272-1.167-2.386-2.45-3.343-3.851
		c-0.863,1.681-1.948,3.168-3.254,4.463c-1.308,1.295-2.801,2.421-4.48,3.378L900.561,657.577z M927.477,672.382h-20.58v-10.08
		h4.375v6.405h16.205V672.382z M931.676,653.202h-4.865v11.13h-4.305v-23.765h4.305v8.925h4.865V653.202z M966.781,673.012h-22.05
		v-8.399h16.905v-1.646h-16.905v-3.465h21.245v8.295h-16.94v1.75h17.745V673.012z M970.701,657.472h-30.66v-3.395h30.66V657.472z
		 M973.361,645.537v-3.465h11.865v9.835h-7.455v3.465h1.154c1.493,0,2.963-0.075,4.41-0.228c1.446-0.151,2.951-0.426,4.516-0.822
		v3.465c-1.611,0.443-3.35,0.741-5.216,0.893c-1.866,0.152-3.874,0.228-6.021,0.228h-3.184v-10.255h7.664v-3.115H973.361z
		 M999.086,673.012c-2.123-0.443-4.13-1.185-6.02-2.222c-1.891-1.039-3.5-2.375-4.83-4.008c-1.26,1.54-2.836,2.847-4.726,3.92
		s-3.932,1.843-6.125,2.31l-2.625-3.255c1.797-0.396,3.396-0.869,4.796-1.417c1.399-0.548,2.595-1.219,3.587-2.013
		c0.991-0.793,1.761-1.709,2.31-2.747s0.857-2.246,0.928-3.623h4.516c-0.047,1.167-0.258,2.275-0.631,3.325
		c1.19,1.727,2.713,3.109,4.568,4.147c1.854,1.038,4.077,1.79,6.667,2.258L999.086,673.012z M1028.381,672.522h-21.176v-10.745
		h21.176V672.522z M1033.141,659.747h-30.66v-3.57h13.055v-2.449h-9.449v-3.396h4.234l-0.209-4.305h4.375l0.139,4.305h6.406
		l0.209-4.305h4.306l-0.245,4.305h4.27v3.396h-9.66v2.449h13.23V659.747z M1043.903,661.497c-0.362,1.518-0.863,2.992-1.505,4.428
		c-0.643,1.435-1.395,2.806-2.258,4.112s-1.785,2.485-2.765,3.535h-3.535c2.217-3.08,3.786-5.985,4.708-8.715
		c0.921-2.73,1.382-5.343,1.382-7.84c0-1.261-0.099-2.543-0.298-3.851c-0.197-1.307-0.53-2.647-0.997-4.024
		s-1.091-2.794-1.872-4.253c-0.782-1.458-1.756-2.957-2.923-4.497h3.535c1.05,1.144,2.007,2.368,2.87,3.675s1.609,2.666,2.24,4.077
		c0.629,1.412,1.113,2.864,1.452,4.357c0.338,1.494,0.507,2.999,0.507,4.516C1044.445,658.487,1044.265,659.98,1043.903,661.497z"/>
	<path fill="#FFFFFF" d="M664.242,653.64c0.77-0.828,1.155-1.954,1.155-3.378c0-1.516-0.385-2.7-1.155-3.552
		s-1.785-1.277-3.045-1.277c-1.284,0-2.299,0.426-3.045,1.277s-1.12,2.036-1.12,3.552c0,1.424,0.367,2.55,1.103,3.378
		c0.735,0.828,1.755,1.242,3.063,1.242C662.457,654.882,663.472,654.468,664.242,653.64z"/>
	<path fill="#FFFFFF" d="M860.276,612.882c1.26,0,2.274-0.414,3.045-1.242s1.155-1.954,1.155-3.378c0-1.516-0.385-2.7-1.155-3.552
		s-1.785-1.277-3.045-1.277c-1.284,0-2.299,0.426-3.046,1.277c-0.746,0.852-1.119,2.036-1.119,3.552c0,1.424,0.367,2.55,1.103,3.378
		S858.969,612.882,860.276,612.882z"/>
	<rect x="1011.476" y="665.347" fill="#FFFFFF" width="12.601" height="3.57"/>
	<rect x="669.823" y="136.235" fill="#FFFFFF" width="8.4" height="3.726"/>
	<path fill="#FFFFFF" d="M873.484,136.71c-0.375-0.217-0.861-0.388-1.462-0.513s-1.325-0.188-2.175-0.188s-1.575,0.063-2.176,0.188
		c-0.6,0.125-1.087,0.296-1.462,0.513s-0.646,0.458-0.813,0.725s-0.25,0.55-0.25,0.85c0,0.284,0.083,0.563,0.25,0.838
		s0.438,0.521,0.813,0.737s0.862,0.388,1.462,0.513c0.601,0.125,1.326,0.188,2.176,0.188s1.574-0.063,2.175-0.188
		s1.087-0.296,1.462-0.513s0.65-0.462,0.826-0.737c0.174-0.275,0.262-0.554,0.262-0.838c0-0.3-0.088-0.583-0.262-0.85
		C874.135,137.168,873.859,136.927,873.484,136.71z"/>
	<path fill="#FFFFFF" d="M698.91,132.547c0.275-0.175,0.471-0.37,0.587-0.587s0.175-0.441,0.175-0.676
		c0-0.232-0.059-0.462-0.175-0.688c-0.117-0.225-0.313-0.42-0.587-0.587s-0.642-0.3-1.1-0.4c-0.458-0.1-1.037-0.149-1.737-0.149
		s-1.279,0.05-1.737,0.149c-0.459,0.101-0.825,0.233-1.1,0.4s-0.467,0.362-0.575,0.587c-0.108,0.226-0.163,0.455-0.163,0.688
		c0,0.234,0.054,0.459,0.163,0.676s0.3,0.412,0.575,0.587s0.641,0.317,1.1,0.425c0.458,0.109,1.037,0.163,1.737,0.163
		s1.279-0.054,1.737-0.163C698.269,132.865,698.635,132.722,698.91,132.547z"/>
	<path fill="#FFFFFF" d="M669.548,129.31c0.917,0,1.646-0.296,2.188-0.888c0.542-0.591,0.813-1.388,0.813-2.388
		c0-0.949-0.271-1.729-0.813-2.337s-1.271-0.913-2.188-0.913c-0.434,0-0.833,0.08-1.2,0.238c-0.367,0.158-0.68,0.383-0.938,0.675
		c-0.259,0.292-0.463,0.638-0.613,1.037c-0.15,0.4-0.225,0.834-0.225,1.3c0,1,0.275,1.797,0.825,2.388
		C667.948,129.014,668.665,129.31,669.548,129.31z"/>
	<path fill="#FFFFFF" d="M722.936,136.71c-0.375-0.217-0.862-0.388-1.462-0.513s-1.325-0.188-2.175-0.188
		c-0.85,0-1.575,0.063-2.175,0.188s-1.087,0.296-1.462,0.513s-0.646,0.458-0.813,0.725c-0.167,0.267-0.25,0.55-0.25,0.85
		c0,0.284,0.083,0.563,0.25,0.838c0.167,0.275,0.438,0.521,0.813,0.737s0.862,0.388,1.462,0.513s1.325,0.188,2.175,0.188
		c0.85,0,1.575-0.063,2.175-0.188s1.087-0.296,1.462-0.513s0.65-0.462,0.825-0.737c0.175-0.275,0.262-0.554,0.262-0.838
		c0-0.3-0.087-0.583-0.262-0.85C723.585,137.168,723.311,136.927,722.936,136.71z"/>
	<path fill="#FFFFFF" d="M837.272,129.885c0.899,0,1.625-0.296,2.175-0.888c0.551-0.592,0.825-1.396,0.825-2.412
		c0-1.084-0.274-1.93-0.825-2.538c-0.55-0.608-1.275-0.912-2.175-0.912c-0.917,0-1.642,0.304-2.175,0.912s-0.801,1.454-0.801,2.538
		c0,1.017,0.264,1.82,0.788,2.412S836.339,129.885,837.272,129.885z"/>
	<path fill="#FFFFFF" d="M435.924,162h733.758v5.977h3V162h1.636v-61.805H435.924V162z M681.298,142.485h-14.575v-8.75h14.575
		V142.485z M782.297,142.835h-15.75v-6h12.075v-1.226h-12.075v-2.45h15.175v5.95h-12.125v1.275h12.7V142.835z M803.998,142.885
		h-3.075v-4.325h-12.425v-2.525h15.5V142.885z M960.098,142.91h-3.075v-6.05h-11.851v-2.55h14.926V142.91z M957.022,119.66h3.075
		v5.351h3.475v2.6h-3.475v5.7h-3.075V119.66z M947.897,123.285c-0.684,0-1.375,0-2.075,0h-2.75v-2.6h3.8c1.116,0,2.237,0,3.362,0
		s2.254-0.017,3.388-0.05c-0.134,1.25-0.384,2.388-0.75,3.412c-0.366,1.025-0.842,1.979-1.425,2.862
		c0.717,0.801,1.529,1.525,2.438,2.176c0.908,0.649,1.813,1.175,2.713,1.574l-1.801,2.2c-0.934-0.466-1.813-1.028-2.637-1.688
		c-0.825-0.658-1.604-1.412-2.338-2.263c-0.85,0.9-1.816,1.705-2.9,2.413c-1.083,0.708-2.25,1.371-3.5,1.987l-1.925-2.2
		c1.283-0.55,2.429-1.158,3.438-1.825c1.009-0.666,1.866-1.35,2.575-2.05c0.708-0.7,1.271-1.392,1.688-2.075
		c0.416-0.683,0.675-1.324,0.775-1.925C949.272,123.269,948.58,123.285,947.897,123.285z M935.748,119.66h3.1v23.176h-3.1V119.66z
		 M921.734,133.585c0.859-0.95,1.58-2.033,2.163-3.25s1.009-2.588,1.274-4.113c0.268-1.524,0.342-3.254,0.226-5.188h3.2
		c0.033,1.117,0.004,2.176-0.088,3.176s-0.229,1.958-0.412,2.875c0.65,1.8,1.5,3.375,2.55,4.725s2.358,2.559,3.925,3.625l-2.074,2.1
		c-2.418-1.699-4.309-3.85-5.676-6.449c-0.633,1.416-1.43,2.691-2.387,3.824c-0.959,1.134-2.063,2.159-3.313,3.075l-2.25-1.8
		C919.922,135.402,920.877,134.535,921.734,133.585z M906.835,128.66c-0.142-0.933-0.38-1.891-0.712-2.875
		c-0.334-0.982-0.779-1.995-1.338-3.037c-0.559-1.041-1.254-2.112-2.088-3.213h2.525c0.75,0.817,1.434,1.692,2.05,2.625
		c0.616,0.934,1.149,1.904,1.601,2.913c0.449,1.009,0.795,2.046,1.037,3.112c0.241,1.066,0.362,2.142,0.362,3.225
		c0,1.051-0.13,2.117-0.388,3.2c-0.258,1.084-0.617,2.138-1.074,3.163c-0.459,1.024-0.996,2.004-1.613,2.938
		c-0.617,0.933-1.275,1.774-1.975,2.524h-2.525c1.584-2.2,2.704-4.274,3.363-6.225c0.658-1.95,0.986-3.816,0.986-5.601
		C907.047,130.51,906.977,129.593,906.835,128.66z M897.598,119.66h2.925v23.176h-2.925V119.66z M885.66,124.285
		c-0.542,0-1.079,0-1.612,0h-2.125v-2.625h3.175c0.866,0,1.729,0,2.588,0c0.857,0,1.729-0.016,2.612-0.05
		c0,1.4-0.142,2.775-0.425,4.125c-0.284,1.351-0.717,2.7-1.301,4.05c0.533,1.051,1.191,2,1.976,2.851
		c0.783,0.85,1.625,1.649,2.524,2.399v-4.725h-2.649v-2.575h2.649v-7.825h2.875v22.351h-2.875v-7.075l-1.975,1.925
		c-0.767-0.683-1.475-1.421-2.125-2.212c-0.65-0.792-1.233-1.646-1.75-2.563c-0.566,0.949-1.221,1.871-1.963,2.762
		c-0.741,0.893-1.579,1.779-2.512,2.663l-2.275-1.7c1.066-0.916,2.008-1.871,2.825-2.862c0.816-0.991,1.508-1.991,2.075-3
		c0.566-1.009,1.008-2.017,1.324-3.025c0.316-1.008,0.517-1.987,0.601-2.938C886.748,124.269,886.201,124.285,885.66,124.285z
		 M877.223,140.148c-0.334,0.574-0.834,1.074-1.5,1.5c-0.667,0.425-1.488,0.758-2.463,1c-0.975,0.241-2.112,0.362-3.412,0.362
		c-1.301,0-2.438-0.121-3.412-0.362c-0.976-0.242-1.788-0.575-2.438-1c-0.65-0.426-1.143-0.926-1.476-1.5
		c-0.333-0.575-0.5-1.196-0.5-1.863c0-0.666,0.167-1.291,0.5-1.875c0.333-0.583,0.825-1.087,1.476-1.512
		c0.649-0.426,1.462-0.763,2.438-1.013c0.975-0.25,2.111-0.375,3.412-0.375c1.3,0,2.438,0.125,3.412,0.375s1.796,0.587,2.463,1.013
		c0.666,0.425,1.166,0.929,1.5,1.512c0.333,0.584,0.5,1.209,0.5,1.875C877.723,138.952,877.556,139.573,877.223,140.148z
		 M871.197,123.06h3.2v-3.4h3.101v13.926h-3.101v-3h-3.825v-2.525h3.85v-2.525h-3.225V123.06z M865.147,123.148
		c-0.899,0.008-1.851,0.012-2.851,0.012h-2.199v-2.524h3.525c1.149,0,2.299,0,3.449,0s2.426-0.017,3.825-0.05
		c-0.101,1.434-0.399,2.8-0.899,4.1s-1.197,2.487-2.088,3.563c-0.893,1.075-1.967,2.025-3.225,2.85
		c-1.26,0.825-2.705,1.488-4.338,1.988l-1.725-2.25c2.683-0.851,4.74-1.93,6.174-3.238c1.434-1.308,2.292-2.804,2.576-4.487
		C866.789,123.126,866.047,123.139,865.147,123.148z M850.047,142.385h-15.149v-7.15h3.075v4.525h12.074V142.385z M846.498,119.66
		h3.074v16.476h-3.074V119.66z M831.547,124.185c0.301-0.733,0.721-1.371,1.264-1.912c0.541-0.542,1.188-0.967,1.938-1.275
		s1.574-0.463,2.475-0.463s1.732,0.154,2.5,0.463c0.766,0.309,1.425,0.733,1.975,1.275c0.551,0.541,0.979,1.179,1.287,1.912
		s0.463,1.533,0.463,2.4c0,0.833-0.154,1.612-0.463,2.337c-0.309,0.726-0.736,1.354-1.287,1.888
		c-0.55,0.533-1.209,0.954-1.975,1.263c-0.768,0.309-1.6,0.462-2.5,0.462s-1.729-0.153-2.488-0.462
		c-0.758-0.309-1.404-0.729-1.938-1.263s-0.949-1.162-1.25-1.888c-0.299-0.725-0.449-1.504-0.449-2.337
		C831.098,125.718,831.248,124.918,831.547,124.185z M825.173,119.66h2.85v23.176h-2.85V119.66z M820.772,119.91h2.8v22.351h-2.8
		v-11h-2.649v-2.55h2.649V119.91z M810.623,120.485h6.449v2.601h-6.449V120.485z M812.936,126.785c-0.609,0-1.229,0-1.863,0h-1.925
		v-2.55h2.851c1.033,0,2.05,0,3.05,0s2.024-0.017,3.075-0.05c-0.167,2.316-0.775,4.542-1.825,6.675
		c0.566,0.934,1.188,1.759,1.862,2.476s1.479,1.425,2.412,2.125l-2.175,1.975c-0.783-0.583-1.467-1.208-2.05-1.875
		c-0.584-0.666-1.108-1.375-1.575-2.125c-0.649,0.934-1.379,1.805-2.188,2.612c-0.809,0.809-1.704,1.563-2.688,2.263l-2.125-1.975
		c1.066-0.617,2.025-1.342,2.875-2.176c0.851-0.833,1.575-1.691,2.175-2.574c0.601-0.884,1.071-1.75,1.413-2.601
		c0.341-0.85,0.528-1.6,0.563-2.25C814.164,126.769,813.543,126.785,812.936,126.785z M785.498,132.235h9.325v-1.85h-5.875v-6.15
		h11.75v-1.425h-11.75v-2.525h14.826v6.25h-11.775v1.45h12.275v2.4h-6.326v1.85h9.451v2.55h-21.9V132.235z M766.647,119.935h3.15
		v2.1h8.675v-2.1h3.125v8.2h-14.95V119.935z M763.198,129.335h21.9v2.399h-21.9V129.335z M755.71,128.185
		c0.242-1.066,0.588-2.104,1.038-3.112c0.45-1.009,0.983-1.979,1.6-2.913c0.616-0.933,1.3-1.808,2.05-2.625h2.525
		c-0.834,1.101-1.529,2.172-2.088,3.213c-0.559,1.042-1.004,2.055-1.337,3.037c-0.333,0.984-0.571,1.942-0.712,2.875
		c-0.142,0.934-0.212,1.851-0.212,2.75c0,1.784,0.329,3.65,0.987,5.601c0.658,1.95,1.779,4.024,3.363,6.225h-2.525
		c-0.7-0.75-1.358-1.592-1.975-2.524c-0.617-0.934-1.154-1.913-1.613-2.938c-0.458-1.025-0.817-2.079-1.075-3.163
		c-0.259-1.083-0.388-2.149-0.388-3.2C755.348,130.327,755.468,129.251,755.71,128.185z M747.048,119.66h2.925v23.176h-2.925V119.66
		z M735.11,124.285c-0.542,0-1.079,0-1.612,0h-2.125v-2.625h3.175c0.866,0,1.729,0,2.587,0s1.729-0.016,2.613-0.05
		c0,1.4-0.142,2.775-0.425,4.125c-0.284,1.351-0.717,2.7-1.3,4.05c0.533,1.051,1.191,2,1.975,2.851
		c0.783,0.85,1.625,1.649,2.525,2.399v-4.725h-2.65v-2.575h2.65v-7.825h2.875v22.351h-2.875v-7.075l-1.975,1.925
		c-0.767-0.683-1.475-1.421-2.125-2.212c-0.65-0.792-1.233-1.646-1.75-2.563c-0.567,0.949-1.221,1.871-1.962,2.762
		c-0.742,0.893-1.58,1.779-2.513,2.663l-2.275-1.7c1.066-0.916,2.008-1.871,2.825-2.862c0.816-0.991,1.508-1.991,2.075-3
		c0.566-1.009,1.008-2.017,1.325-3.025c0.316-1.008,0.516-1.987,0.6-2.938C736.198,124.269,735.652,124.285,735.11,124.285z
		 M726.673,140.148c-0.333,0.574-0.833,1.074-1.5,1.5c-0.667,0.425-1.487,0.758-2.462,1c-0.975,0.241-2.112,0.362-3.413,0.362
		c-1.3,0-2.438-0.121-3.412-0.362c-0.975-0.242-1.788-0.575-2.438-1c-0.65-0.426-1.142-0.926-1.475-1.5
		c-0.333-0.575-0.5-1.196-0.5-1.863c0-0.666,0.167-1.291,0.5-1.875c0.333-0.583,0.825-1.087,1.475-1.512
		c0.65-0.426,1.462-0.763,2.438-1.013c0.975-0.25,2.112-0.375,3.412-0.375c1.3,0,2.438,0.125,3.413,0.375s1.796,0.587,2.462,1.013
		c0.667,0.425,1.167,0.929,1.5,1.512c0.333,0.584,0.5,1.209,0.5,1.875C727.173,138.952,727.006,139.573,726.673,140.148z
		 M720.648,123.06h3.2v-3.4h3.1v13.926h-3.1v-3h-3.825v-2.525h3.85v-2.525h-3.225V123.06z M714.598,123.148
		c-0.9,0.008-1.85,0.012-2.85,0.012h-2.2v-2.524h3.525c1.15,0,2.3,0,3.45,0s2.425-0.017,3.825-0.05c-0.1,1.434-0.4,2.8-0.9,4.1
		s-1.196,2.487-2.088,3.563s-1.967,2.025-3.225,2.85c-1.259,0.825-2.705,1.488-4.338,1.988l-1.725-2.25
		c2.683-0.851,4.741-1.93,6.175-3.238c1.433-1.308,2.292-2.804,2.575-4.487C716.239,123.126,715.498,123.139,714.598,123.148z
		 M691.423,120.01h9.3v2.6h-9.3V120.01z M687.523,123.835h17.125v2.524h-17.125V123.835z M685.348,137.21h9.175v-1.825
		c-0.867-0.101-1.625-0.279-2.275-0.538c-0.65-0.258-1.188-0.57-1.612-0.938c-0.425-0.366-0.742-0.774-0.95-1.225
		s-0.313-0.916-0.313-1.4c0-0.566,0.138-1.104,0.413-1.612c0.275-0.508,0.688-0.954,1.238-1.337c0.55-0.384,1.246-0.688,2.087-0.913
		c0.841-0.225,1.837-0.337,2.987-0.337c1.117,0,2.091,0.112,2.925,0.337c0.833,0.226,1.529,0.529,2.087,0.913
		c0.558,0.383,0.979,0.829,1.262,1.337c0.283,0.509,0.425,1.046,0.425,1.612c0,0.484-0.109,0.95-0.325,1.4
		c-0.217,0.45-0.542,0.858-0.975,1.225c-0.434,0.367-0.971,0.68-1.612,0.938c-0.642,0.259-1.388,0.438-2.237,0.538v1.825h9.15v2.574
		h-21.45V137.21z M678.223,119.66h3.075v4.875h3.475v2.601h-3.475v5.6h-3.075V119.66z M663.973,123.773
		c0.3-0.709,0.716-1.325,1.25-1.851c0.533-0.524,1.166-0.941,1.9-1.25c0.733-0.308,1.542-0.462,2.425-0.462s1.696,0.154,2.438,0.462
		c0.742,0.309,1.375,0.726,1.9,1.25c0.525,0.525,0.934,1.142,1.225,1.851c0.292,0.708,0.438,1.462,0.438,2.262
		c0,0.834-0.146,1.604-0.438,2.313c-0.292,0.709-0.7,1.321-1.225,1.838c-0.525,0.517-1.158,0.925-1.9,1.225
		c-0.742,0.301-1.554,0.45-2.438,0.45s-1.692-0.149-2.425-0.45c-0.734-0.3-1.367-0.708-1.9-1.225
		c-0.534-0.517-0.95-1.129-1.25-1.838c-0.3-0.708-0.45-1.479-0.45-2.313C663.523,125.235,663.673,124.481,663.973,123.773z"/>
	<rect x="769.723" y="124.41" fill="#FFFFFF" width="8.775" height="1.351"/>
	<path fill="#FFFFFF" d="M889.397,496.844c-0.366-0.201-0.842-0.363-1.425-0.488c-0.584-0.125-1.292-0.188-2.125-0.188
		c-0.834,0-1.542,0.063-2.125,0.188c-0.584,0.125-1.055,0.287-1.412,0.488c-0.359,0.199-0.621,0.434-0.788,0.699
		c-0.167,0.268-0.25,0.543-0.25,0.826s0.083,0.553,0.25,0.813c0.167,0.258,0.429,0.486,0.788,0.688
		c0.357,0.199,0.828,0.361,1.412,0.486c0.583,0.125,1.291,0.188,2.125,0.188c0.833,0,1.541-0.063,2.125-0.188
		c0.583-0.125,1.059-0.287,1.425-0.486c0.366-0.201,0.634-0.43,0.8-0.688c0.166-0.26,0.25-0.529,0.25-0.813s-0.084-0.559-0.25-0.826
		C890.031,497.277,889.764,497.043,889.397,496.844z"/>
	<path fill="#FFFFFF" d="M1172.682,457.977h-3v2.202H435.924v61.805h738.394v-61.805h-1.636V457.977z M787.248,484.018h3.5v-4.375
		h3.1v11.852h-3.1v-5.125h-3.5V484.018z M745.248,495.994c-0.55,0.148-1.184,0.291-1.9,0.424c-0.717,0.135-1.471,0.25-2.262,0.35
		c-0.792,0.102-1.6,0.176-2.425,0.227c-0.825,0.049-1.621,0.074-2.387,0.074h-4.8v-15.5h11.05v2.65h-7.9v10.199h2.35
		c1.467,0,2.913-0.107,4.338-0.324c1.425-0.217,2.737-0.441,3.938-0.676V495.994z M749.248,502.818h-3.1v-23.176h3.1V502.818z
		 M765.897,497.619c-1.033-0.75-1.962-1.563-2.787-2.438c-0.825-0.875-1.613-1.822-2.363-2.838
		c-0.883,1.199-1.871,2.305-2.962,3.313c-1.092,1.008-2.254,1.887-3.487,2.637l-2.1-2.025c1.45-0.832,2.725-1.773,3.825-2.824
		c1.1-1.051,2.025-2.117,2.775-3.199c0.75-1.084,1.329-2.15,1.737-3.201c0.408-1.049,0.654-1.99,0.737-2.824
		c-0.816,0.033-1.629,0.049-2.438,0.049s-1.612,0-2.412,0h-2.625v-2.648h3.925c1.05,0,2.133-0.004,3.25-0.014
		c1.116-0.008,2.383-0.02,3.8-0.037c-0.033,1.416-0.254,2.82-0.662,4.213c-0.409,1.391-0.979,2.736-1.713,4.037
		c0.767,1.084,1.613,2.092,2.538,3.025c0.925,0.934,1.962,1.783,3.113,2.549L765.897,497.619z M771.548,502.818h-3.1v-23.176h3.1
		V502.818z M775.948,480.518h10.15v2.426h-7v1.574h6.675v2.352h-6.675v1.773h1.975c1.283,0,2.583-0.07,3.9-0.211
		c1.316-0.143,2.733-0.355,4.25-0.639v2.301c-1.45,0.334-2.904,0.57-4.363,0.713c-1.458,0.141-2.971,0.211-4.538,0.211h-4.375
		V480.518z M794.298,502.568h-15.25v-6.324h11.725v-1.25h-11.725v-2.525h14.8v6.25h-11.775v1.324h12.225V502.568z M814.923,497.469
		c-0.983-0.783-1.851-1.576-2.601-2.375c-0.75-0.801-1.458-1.676-2.125-2.625c-0.799,1.1-1.699,2.125-2.699,3.074
		c-1,0.951-2.084,1.834-3.25,2.65l-2.25-2c1.266-0.766,2.408-1.646,3.425-2.637c1.017-0.992,1.896-2.025,2.638-3.102
		c0.741-1.074,1.324-2.145,1.75-3.211c0.425-1.066,0.67-2.066,0.737-3c-0.8,0.049-1.587,0.078-2.362,0.086
		c-0.775,0.01-1.513,0.014-2.213,0.014h-2.5v-2.725h3.875c1.066,0,2.15,0,3.25,0s2.242-0.018,3.426-0.051
		c-0.018,1.449-0.213,2.867-0.588,4.25s-0.912,2.725-1.613,4.025c0.717,1.1,1.504,2.1,2.363,3c0.857,0.9,1.846,1.75,2.963,2.549
		L814.923,497.469z M820.748,502.818h-3.1v-23.176h3.1v8.625h3.625v2.65h-3.625V502.818z M824.248,491.793
		c1.116-0.666,2.078-1.391,2.887-2.174s1.463-1.643,1.963-2.576s0.85-1.949,1.05-3.049c0.2-1.102,0.267-2.309,0.2-3.625h3.15
		c0.016,0.816-0.018,1.6-0.101,2.35s-0.208,1.475-0.375,2.174c0.4,0.717,0.809,1.363,1.226,1.938
		c0.416,0.576,0.87,1.105,1.362,1.588c0.491,0.484,1.028,0.93,1.612,1.338c0.583,0.408,1.233,0.813,1.95,1.213l-1.925,2.125
		c-1.15-0.633-2.18-1.367-3.088-2.201c-0.908-0.832-1.704-1.75-2.388-2.75c-0.616,1.201-1.392,2.264-2.325,3.188
		c-0.934,0.926-2,1.73-3.199,2.414L824.248,491.793z M843.473,502.369h-14.7v-7.201h3.125v4.576h11.575V502.369z M846.473,488.668
		h-3.475v7.951h-3.075v-16.977h3.075v6.375h3.475V488.668z M867.873,502.244h-2.875v-6.301l-2.025,1.5
		c-0.801-0.783-1.529-1.67-2.188-2.662s-1.238-2.07-1.738-3.238c-0.467,1.234-1.063,2.393-1.787,3.475
		c-0.725,1.084-1.612,2.117-2.662,3.102l-2.301-1.75c1.051-0.934,1.93-1.951,2.639-3.051c0.707-1.1,1.27-2.283,1.688-3.551
		c0.416-1.266,0.695-2.625,0.837-4.074s0.171-3,0.087-4.65h3c0.018,1.051,0,2.063-0.049,3.037c-0.051,0.977-0.143,1.914-0.275,2.813
		c0.449,1.768,1.083,3.313,1.9,4.639c0.816,1.324,1.774,2.563,2.875,3.713v-5.875h-2.9v-2.625h2.9v-6.852h2.875V502.244z
		 M872.672,502.818h-2.899v-23.176h2.899V502.818z M874.447,491.043c1.117-0.633,2.084-1.316,2.9-2.049
		c0.816-0.734,1.482-1.539,2-2.414c0.516-0.875,0.883-1.836,1.1-2.887s0.291-2.209,0.225-3.475h3.15
		c0.017,0.799-0.012,1.57-0.088,2.313c-0.074,0.742-0.203,1.453-0.387,2.137c0.6,1.217,1.357,2.275,2.275,3.176
		c0.916,0.9,2.1,1.709,3.549,2.424l-1.899,2.025c-1.067-0.516-2.029-1.158-2.888-1.924c-0.858-0.768-1.604-1.65-2.237-2.65
		c-0.616,1.117-1.384,2.117-2.3,3c-0.917,0.883-1.975,1.674-3.176,2.375L874.447,491.043z M893.098,500.182
		c-0.334,0.557-0.825,1.045-1.475,1.461c-0.65,0.418-1.459,0.746-2.426,0.988s-2.084,0.363-3.35,0.363
		c-1.268,0-2.379-0.121-3.338-0.363s-1.762-0.57-2.412-0.988c-0.65-0.416-1.138-0.904-1.463-1.461
		c-0.324-0.559-0.487-1.164-0.487-1.813c0-0.65,0.163-1.264,0.487-1.838c0.325-0.576,0.813-1.07,1.463-1.488
		c0.65-0.416,1.453-0.746,2.412-0.986c0.959-0.242,2.07-0.363,3.338-0.363c1.266,0,2.383,0.121,3.35,0.363
		c0.967,0.24,1.775,0.57,2.426,0.986c0.649,0.418,1.141,0.912,1.475,1.488c0.333,0.574,0.5,1.188,0.5,1.838
		C893.598,499.018,893.431,499.623,893.098,500.182z M896.623,487.668h-3.476v5.775h-3.075v-13.801h3.075v5.426h3.476V487.668z"/>
	<polygon fill="#FFFFFF" points="376.458,322.089 399.291,301.091 376.458,280.092 364.356,280.092 387.188,301.091 
		364.356,322.089 	"/>
	<polygon fill="#FFFFFF" points="1231.685,280.092 1208.853,301.091 1231.685,322.089 1243.787,322.089 1220.955,301.091 
		1243.787,280.092 	"/>
</g>
</svg>
